<mxfile host="drawio-plugin" modified="2021-10-19T17:11:17.804Z" agent="5.0 (X11; Linux x86_64) AppleWebKit/537.36 (KHTML, like Gecko) Chrome/87.0.4280.141 Safari/537.36" version="14.7.4" etag="YVX5CFEwlT27hEklCLZe" type="embed"><diagram id="YVFh848lxzhuFXLGD3Jf" name="Page-1"><mxGraphModel dx="1408" dy="720" grid="1" gridSize="10" guides="1" tooltips="1" connect="1" arrows="1" fold="1" page="1" pageScale="1" pageWidth="850" pageHeight="1100" math="0" shadow="0"><root><mxCell id="0"/><mxCell id="1" parent="0"/><mxCell id="2" value="" style="shape=image;verticalLabelPosition=bottom;labelBackgroundColor=#ffffff;verticalAlign=top;aspect=fixed;imageAspect=0;image=data:image/png,iVBORw0KGgoAAAANSUhEUgAAA6kAAAETCAIAAABbc9feAAAgAElEQVR4AeydZ3PiTJTv9ytt3fvm3tpdbM8zFhLZEQcccACDxznngLMB2+Ns4xwIJgelV3urbt3vsO/2m9xqCbAESMZhHMbHRc0IJLVO/7rF+ffR6eZfygkNvIAAEAACQAAIAAEgAASAwHcg8C/foZJQRyAABIAAEAACQAAIAAEgUE5oQPtC2BsIAAEgAAT+LIFqYwO8PpwAiB4gAAR4AqB9/+w3PvQzIAAEgAAQ+HDZBwZUGxugHwIBIMATAO0L2hcIAAEgAAT+LAGQnp+BAOgeIAAEPpn21TW02AeHJvvq1X/2Kzjd8G9/ucrajp6+sUlrvfZL9q0igahqm/snph3LfSbdl6wmzOwEAkDgIwgIlV9vd9Wx++exu5x/7bqUhsEG5XKDcrlRudxILJs6O3rHLMsT1lX+1djQJjz9hdv1XaOrG/P97TUy2RfFHCNz+p/d1dTUaW9rbnxh9TnbvtSX9hd3qR9xl32p9n0XpSfdCp8l7qtsXw8wLEse9ujkiGDa6uqm1mq93DHFNP/bX07zyxVnWCbmsumLMeCzHVMkkPIvXs3Phh3sAQLfhIBQsa3Mqf/7//2r8JW4/g/9aOO/xRr/LYFeZWeN7W29p6OR8/Hk+Xjy99D9G8jf+o6+2YUxe6vQktztYo4RCVxTS8+UY93ldm04Jvta6v9kTnO9fcLpmrabcm0W2fOEAR/W2XSdsxeRZPh8xmwo1oZv6GteQClP272VRiq2mfIM+ConPq19cZWmuV5rN2ub67W46rWiU4pLUdpLP7hPsiwdWDK/Nuj49pf74jdqUUAIDWhfqQ4MnwMBICBDQKjY8rXvf/+/f30P+fscmSg0WGq7pnVo0bkyZu8wtfVOrrnmemWF9Suv/pW1L1Y/e0mzLEtdTjdiRaqlr+FS9dVds06PN5KkKDIWuNqf727Ai6xg3mEvoZRTyNtpJJl7+e/Y9YT2rarSbIzoDmf0/GtjRFdV9Ufkb1HayzB88J7a91mX+xo3qmTbFcUftG/OFw28BQJAoDgCQvmY1b7h85Jue1XMq+BjwInr/6hpbiCcTdnob21T02in4+nob73ZOjK3vOFyOdcd08MdTXxiQKt1dM6xuul0u50bC71my/Cqa74vI0/rzJbh2aV1l9vt2lxfWZjub6lrqK4THFNntk8sLq+h093OjaXpobbG3KhqjXVqY2Oyo66h2thsn3U5BvMSKkSFrC2MD/wanllc23S5nGuLE7YW3s7G1oGF1U1kycbK/LCtlcvKaDb3zzjWnejD1flec2M10r5b6T/3Yk8TZ0x9W9fo/NK6E1V8asCctlBc8dbHNImPUy3VTSPLq47RpgpJH5Rr21dwqUTHuh9pepYhkylugyVvZ0wvznt8PqWcu+9ZoiXn3G/2Vk774iqR8M3K39zorwi3tmb6ikLju5kalaZc3TK8c34TiCRImqZSEe+Za7qrIpvRq2sZ2DjzxUiajPt9oRSbzXnQmxfO7kLxFDop5r/YmeyoQYNF/kKop6E/5mG9lS9KVWOe3PL4YyRFxh6utmdtj5cQNufbXE7CNv5GZamw1xtOUmQidPl71lzJ3wMSpxC6iq7F3ZtQgqLJRPTh9mCEv2eKqY66ZWjbc+0Px0maoVPhu0PH9ILT44uSFBkPXmxPNRsyXzGqmtZx96kvmqKo+MP174WeGk1mlyQQTbmUDV/h+yj3O1TYB2AbCACBjyBQUPuODeurjQ0Tq7ps/kPi+j/qWpqEyQ/Vpsankh+aOsZXXRsLw79sHV39Y45N19JIaz0vZN0rk32dndZ2q7WpQaBrjU0dY6uuTcdoj729s8s6uuRyTlvSp2T0MdLB7uWJ3s7Ors7ukdl19/qk3ZgTuzX1zmyuT9haG63jS+sLPWktK5DIfCHjPR2d1s6eyWXXlnNpssfW1W7tn1hxOed6G7gC69vtVovF3GHrnlh2bs7aGhtq2kdXXKuTvV2tbZ3tNntrYwOnfV1z/Z3N5vbmVnMdEtxNneNrzpXpHqvFbB2YWnWtT9iQhdxFHysuyMQQfzdWmYY3ju7CSYqmEqFr92AV/1xX0mUUclhFeiKh41C3DG15rn2hSDzFXfl2d6G7MqsKsp1TxqXKSA50eqF6yZyiauxe2j29DUaROcmId6e3unjxWtu15J7pbtKoNMqaod0Yw7LU6ZhRzBkJoaL8dZGUZOrybI1UqE2zTYA2pNSLplxV2zbpPvVGUf9JxUO+m+P1gae6UEZ7iC7xMR/Kad+mem024ivcaMqZziXTEunuy1KJaDjKj4vogOuXDtW89tfvCIM0LBWPxpLpMROf76trWfUnY+GAPxBKoB1MbO9XRVb7UvGg3+f3ez3zJnTDVLQu3SHdTMUffME4hRT07WJb3nOHt7qchG2ZmrI0GYvEU6hibOJsshZ9m0icUjVykGBZlo4Hbq9u/JH4ySCKqRdXnczlqEQ0wtWZGw5QiVgCAWCZ4KZNhSCj0kj0CZ2MJ0hkFR363W9AVskAkbZBeHN+gu6b+xUDJgEBIPApCQi17/yklhe7/yf8v9fmVf83/r+y2vclyQ+m3lmnc+ZXS/oSzQMLrs1Jm0kUxE0rwoyuNfXOOJ2zPekYcK1tRkL7Zo43Npj6Ha71iXakOIWvpvaxVRQXXp391dYk3sUdJgwkc7HhzUl7La93e+Zdm5OdOQU29s661kc7G1FE2bXYK5zZlp/zYOqbda6PdqYzgOu655wbk505Cl5krXCNM4Np/jqZcRvRBBnd7nnCZRR0WEV6IqHjyJ6SjIajvOdPnU+acnMhMocVcKkykoOQqJfMKZkLMWQiGk+SEXdnNjz0rFupom8niub8uLsrch1T5hJP+Gv+MH7WUPaUfEoydeF3sUVrpIJtKqq1hHohqtrXfUhs0InA7fVtMMmwLO1bacpIMgnV8TEyN7c5uArKaV9762O2g1D72lvF6bYyLSFsS8JgHD+JonHR9XSDFqubPqdYlgn/7q9TEhrC4gwK57qptOUqg7a6vto0vBNmWCayYdWn4745+b7VY8cplqW9jjbU4TRdrgeGZcKudnH3fbPLEZrygralaxrf/lVRTmj1Nrcf9QXvQgvHqtApyualO5pl6esZEzc9Tq1DN39x1RHl3WrbF+9plmX8q504YWha8qJS/avNalTaUQoNHY7GTDihNXRvoQmFtHe+WScHRMYGUYN+on5csHPDh0AACHwSAjm68GL3H6Hezdl+Vu5vTefEmsvR25yRpHUdQyuu5aGOGpHuFOUz1HSOr7kcfZkwbTHat9Y27XTNWAUx1Gpjc8fo8sbK7ODI3LpzecTaUm1sbBuaE02nE9nQ2DGx4ZrtreP0aG3XtNM124UKNDV3j88ura1vOjfWNpzujTFLY3V9Z//ipntzeXqkr72JU7d52hdV3L3ldrld/Mvt3nLN2xtFNc3B/tgZqkYOkfJNns+3a1EoRK/Wca5K2mUUdlhCjyDjiYSHCbeJqq6tMBIF55OVfNQ5K7zShxVyqTKSQ6peMqeI7NEotXpl1obiN7Qtw4dIqSQuZuqkYti8qH09JZm6iHZlHLS0Qy/cpjm1LqResNpJD4mkxf5QHUZotEPHVFb7Snehx+6Xc4mPeCunfd8s7ptd/UD7y4UeCpB7/RW4fSeObr29bi1qIVG+qcpocZz60UAi+5fc/lVY++K2LVRkzh91OliZaXgO61tdrlzKNvH9U66xbaCgNrU/UCl5irZjkY/JUrHbw/Wh9loloSmyOiLtS+i7dpKoG7q7cUKD//rNvdmyaDS4bRvBSe3/4lfPUHeuPCCrjkdqZIDI2ZBTzY/osp/q/gFjgAAQKIZAjgirNja8lfwtrH2H5bXvxLpALhelfbumNsXal0tLWB4wNyLx2svJ367u0dW10c7H/Fpx7LmxfWzdNddbz2lfLrKLtG9N28iya2N2sLvN3N7SObzg4rQvClQ3t9iGJhybbufycGcTynnYFK3zUNM5se5aHra2N7W2pV8trcacrGWJuG/6Sz510CNeNEnGZZQXclhFeiLRYWInYhj1INnkXeae4gq8tvgwkUsVKTxRmqVUvcSBM9EpItte5tEqLHPnyNMmbzcsVYXyJUR1kfTXIktEp2hElKSrL65mGqacQy/YpkIIEoIHt4ukhVD7ynUhYckfvS2nfYvN99Vxyy8wobUOXTkh26sEihBpLyTLDnu5e0+ofdXd3KOD5K1reqRnYH4/hDrVzi99uX4IzXVjAsttj4HntIaj/fsry4uOzGtxxCReK+2tLidpm7inlgtUvuQphAaraOt37F2FuTwFOuTuyUjSp6ojukkIvcWNbrz41i+kfTm9y8S3rQW0r2VVqH0l+MshzanmR3ffYpwuHAMEgMCHE8jXvvLy97/+83/+6q0svUmvevbvsUZ9n2mz/4yf93Y2nuhrn0qXaeqbdTmnu5vTb5sHUDKBrUmsO8XRUC4vYsqePuVl2rfWNuN0ZiPBnPx1u11LQ83CNAZx3Leg9q3rnnNtTqWTH+q7p7Lal5etdeaeBVS92rqusQ3XXG8mtcPYUN3UP+dyzvYIPkmfIsxszoTDuV3ZbpBxiAfpsEjmmzxPuDy6jPJCDqtITyQ6TOxEhLIpax7aEB8mdKnl0pJDql4yp+ReKINCZIzMh5W25VsUboqeLbRKzeQT1UXSX4ssEZ0iDqxKV/8FGilfhAgrLqVe0iIhtf+Li10KG1G+CwkL/9htOe1bTmiKWudB07XOPbW4nG3GC2vf+NYvQzmh1XW50KRILhMgHTNnk56ZVrUo7qutnrpEA8GbeaNKU65qmUOZAZz21fS4Uaw4dTRiROkBap2S0GDGqTMkiOOeuU4d96xBaWioTk8yexxEvtHlZGwTru+rrx075rI7bqYbdZLVUVdXVHHZDpqG4WP0/Cm+3UMUVx3RTSKtfctruISQTM6D3u7mcx4WWnTSQGSRauxOrmKn4+hJx8f2Xbg6EAACX4VAQe0rJX//6z//59CwofT8UfhqhxtXeo+ywneoc15QYFPH+Jp7Y2Gou6vd2jfq2HQtj5rz015FMrTVPrPpXp8ftHe1W3v6Z9fchee6Peb71ubFfaub+mY3NxeGu0wNJmNTh3Vofm3T6dxc6DULluAVXVQi7ts+tuJeR3Hfto6WjqF5TvvWtHb3/LK1tXW0WvomVtzr4101xtZf8y6nY9xu6ers7mlH6zw0WyfX3ZuO0d5uNJfO3m/v4NS86KKFtW/Wb55MtajRN7lWbahEz/qlXUZ5IYeFiyTaq1Wd0KeISxa4VG25tOSQrJf0KWJn+lynVtuzxyX5ns02isNtohtTXBepWJXIEtEpYu0rV5dnaqSCbfrYCpKCB6ub4XJWY4fjLRptVeMcWuEgne8r04UeS34u57c//gntW05ocJVm0IImvQ1apNb3rejYRMm6aLpZOD2lLb3OA99+3FSrSDjKZTEwCc8kWgKCqOrY8PMBz2Q0HI5zE7G437YgOjdRdJIlw3fnJ6dXATSRjdO+RG3fQQLtoZORUDge2+PGrFWdmwGuHJZOomlmFENdFFhE8G0uJ2lbuqYMGY+E0vn79MNWj57QSJ2iNK/6aTIW9N/dBaIoM5y6nW/BiOKqI7oxpL9xiArzilecdc6E9wYrZPmXy9igahi/4BstdjAM8vftb0jRN+Zn+qYAw4DAawgIpKpIjeXL32cKX640bqmvlQ30GxNLMyOd/BpnORIw522jpW/Ksbrpcm2uLjjW3JtTubPExMcX0L7GhobOoSnHutPldm2uLU4PW1pa2kdXnLzyLhCCLax9q43N5v5pbjkzt8u5ubYy39fWaOwcWVjbdLm33M51x8xwhwlV09jWP7W84XK7nWuL/e1cZgWq+NwyWqnNvbm2NNFtRpzFlgvJC1qw2uLk/SZDJZDfJNNZB5Iuo7DDKtITCQ8Tbuekigq/8fjD2AIutZyQlhyEZL2eUCnZzEyhDU9tY7WTZ8gfMsnIQyCQfnl3hgw5J4qqLO2vhYcJt3MpyVT/eRqpcJsKjJdSL+VEjX07xK9QkE04zc51k1Ydn8hjPq19ywlNWyPSvm2NhRJZeEz61sFNjzeaohmaSsYe7q8OHN1oMYd096XCPl84SVGJ0NXvGXM2E1dtbJ/e9viiSYqhyWTk4f58f6YZzVGrbBpze3yxJM2wDJWMhe4uDsa5CXZYTff84X0EXScZud/uqeFMUhvbprZO0fLS6PJh35V7uKlAVPJtLidhG7ea220gmuAWHYv6L7Zm7VXpnPfCpxDt80e3IbRIGUMlQneHq4N13OOD8mKqI7oxpO8lNDOvtm165zwQJ9E6Nrf7S/21/FVQ4FyKP9olhZQwDa+fBWKpqMv+JX/BTvDt/4nuQ7AKCPzdBIQKLH87m/uLhG9/hXq48d/iKOj777FGzXBDZ3PP2Xj8fDx5Np4QR3xzZXR+ycV80tC74FodMwtzFXjl+tf9K+pj6rqOmYz/TUa9nvkWfoK4hMso7LCK9ETCw4TbuapO8J0s51I15VKSA/k1iXpJnSK2R4RIoAILfq5sXUFTy8V/1NkkF10S1EV0CWl/LTxMuJ1PSaouhOZZGqlwm4pqXVi9IBqa+s5p5+7pxbnncPs0gJ7o3zkaeM0j0YUKMvyoD99I+4pgSTW54HOp4+FzIAAEgAAQ+OsIPKlBL3b/+a///B9D/RX8kcRsAy98+be/zKNn4/G3E76mVnu/ravL3NbZbh+eWXOtjFr5pceetPNLH/BROgOu+/cR0NQ26jODJfs2NyvrcEj7db64QPuCIgcCQAAIAIE/S6AYyWixVAsPq2gXhXWbTZ3Cva/bbu0ad6xsOFH+wPry7GhPs2jxMtF1X3ehz1XU36fAoEYfRKBm4JhkyEQ4GAzFKS4TNeS0VX2QMS/57gLt+xJqX6iBwVQgAASAwIcT+JsU5Nety4d3AzDgLyGgaux1nt8FY0mS+/Hdq/2FHhPxdYK+5YTmD2vfL8XiL+mUwBwIAAEg8MkIfF29+DdZDj4OCAABngBoX4j7AgEgAASAABAAAkAACHwXAqB9v0tLw2gPCAABIAAEgAAQAAJAALQvaF8gAASAABAAAkAACACB70LgXxQY/uSrzqg6nNHXGVVPHgkHAAEgAASAABAAAkAACACBT0ugKO3bVK8+nNE31as/bTXAMCAABIAAEAACQAAIAAEg8CQB0L5Ph72fhAgHAAEgAASAABAAAkAACHwJAqB9QfsCASAABIAAEAACQAAIfBcCoH2/S0t/iaEYGAkEgAAQAAJAAAgAgT9KALQvaF8gAASAABAAAkAACACB70LgHbWvura+q69vvKcKz4MruUtvaLPbR8baaok/OgJIFy5pRp7BRSyO8R4GgxlAAAgAASAABP5CAu/r/f9CgKBb5Ai8n/YtbV31MyxL7tvUuQZJ7iJsmzGGZWIb1vdYYkLSDLgrgAAQAAJAAAgAgZcRUJsnzyOJ8NlEi6bYqND7ev9irXpZ9V9/1gsA5l20RGXQNTTpNLkC7LPXPa8ib2Lw09q3TIn3daA1zvo61GXKl1OTUZaSu96390ua8WfQv0n7QSFAAAgAASAABD4zgRLj9AXNsix1PllXUqQ/fV/v/zp6BGGe3g/SLHXco8vTSMqqtk0vybJsYrudyNtbHI2XAMwpWdO/m2JZ2r/QAj/UgFrhCe2rMxDrI7rDGT3/Wh/R6QwvTD+QUZaSu96390uakdOH4C0QAAJAAAgAASBQLAFD3ZBjaXHImC8NpUp4X+//Yu37T41lyHkVQcqeLaR9tfXzV0lu52u0rwJ7PsAcsNqBPRK07+PYQ077lilxofDNyt+86K/GNOe5DcZTNE2lYr7z7dG2ivTYTm36te7xRkmajPu8oRQryHmQ2ZVtM773s1TI6w0lSTIRvNiZMmXFt7KiYcx57I2mKDL+cLU1b9enB1US9ijrLI6d49uHaIqiqWTYu22rIBTFmJG1BzaAABAAAkAACPwNBPS1Q2sHd+EERVOJ0KWrX8s/15V0rCq1ZX7nOhSnaDIRDdzuDTQQCtzUt3V65QvHSZqhU6Hbg/nJuXWPL8J55bOtiXotpzaEQhY39blPL73BcBx54kTwZmeuS5M/C0jG+4tkHKGfvKJYlrqY0qefSxeql8wpBYVBke2rNA6fo5AuTZJUIe1L2LcCNEslk5Jx37cFKFNNfhevwlmWeVht5JkrKxvH3Sf+GEmRsYdL97RFnW6LQs0twiIhtDBcoaxqGncdeyNJiqZS8aDv+nCt96ne9ahKXzwOedaJctqX/ynjbNA3u5H348aqhmV/Ihby+/3BBBr+MLFdKxreVVp3wgx6T8ajsSQ/MErn+8rsEiBI937Us2KReAqVxSY841wX1zY47lB/YulkLEGiXXRwp1eFer+EPZnSeHPIiKuVKM4MUXsLzIPPgQAQAAJAAAh8PQIa42w6HkklopEEGdmy/4NqIe1YDYN7CeRnY4GbixtfOHbca8AVGa9KJaLhOJJ/3B8Vjya4N8zDhgUVyx/GT93JnpKMhqK8Lkh5xvNyITKHFfD+MgoPk6iXzCmZCwmEwTO8PGGbW5ywV3cs3dO5cd+S6qH9KMPEPWPDG2iyU8Gch8zV3wagTDXT2peKBf1en//+dLYWaVzU3CgoScUDvocYajPyer6lDMMVBZtb1M8lhBamb17zoZLohP/m6jqYZFiW9i4ZM5eTkG3PYP4sjSt1sJz2tTSjNN/8l6U5b+aZklAoNVhFja5hwB1mWCay2qkuqZk8o1iWCW/1Vpdi+I+OjYfMXDeZXSJD+W7BxN12rQIjcKvThyjez5pUioqRgxRS2Qcj9WUYQdhcqG/R9zONXC5LIXtEtx+Gl6o0ZdIWiswQtfd7txBYAgSAABAAAkDgLQkYBvfRk/ikZ7YVQwEj9U815zqlHWtp4+ItzbL01UQDN18NV6Gnu2kfzc1HV7XOIQHI+FbayjBNnQO9of3Ldbj4MOEpmKEdKQaWOhvXpKO2GQ8r4/1lFJ5UvWROEdmDhEHp8z1+aRNXW2G+r7Km5zDGMJHf/TVl/ER/Ge3LjwpeD1CmmqJdGcgVI4coCfh+vkWrwPByizPAsEx4s5nACzd3DplCQqukauyE5CKgAzUlGI4NHFFZ7Svdu96yb+cYKfFWTvsWG/dVVpkXj31I3Gf/km67uqxrK4Zurl2LCoEWZtPK7BIhEHdKBWFZjSD5vNunK7O6owzLpvas/KoReJsDKWvqcKhCIWGP6C7lcBRrhgQ7kalwDBAAAkAACACBr0Ag40D3beJZ/5nPCzlWlXmWf9RKRW8OVvtaq5BGFPlodft2gmWZqKurDMPLbDvcG7eZEB8mOgUnhk+RNrp3cGHIjCbLLRkXen+FSMaJch4y9ufWS+YUcRUEBjynHfO1L969E2KY+NGwRpkRP09qX+zVAKXJiAmkq5nGlRVu/AZ1giL6BZtbyERCaCFZJdBmQu2baZ1CvUtY8rtsy2nfIvN9f9q2IwzLJG82JgdtfbO7IYZlM9oXIUj3wlztK7FLJCjFN4lCxS15xpK/e7VZiF1p7du+lNG+Uvbkd/FMIxWwUGTGu7QEXBEIAAEgAASAwDsQyPi+vbQDzfg4GceqwPASfUv34u5FmH9qHXJ2V4i9qtrsQrIn5rYj7cvFp5jYVpus9hVqI1HFpb2/Qt2/iyKLweU2lQITa9+M8Mqpl8wp4iq8lfbV2Q84Srmy0jNQKb6EqJqvBihNRqHh5roxgUXBOg/p8B/t3112zC5mXvODRk5WFWjuTD9RYLiU0Crr2o6zj3FJYfvK9y5R6wsu9Ic+l9O+CgwvYp0HQjdxgcZt17MVSlyhNE2h5yJI+5ZUj6PQN5s4mWr6KY77yuwS1VPULTSGkSMU9qWux+sIRSUXq8/mPHRlch5Mail78rt4sWb8+WYQ1RouBwSAABAAAkDgjxEoqZ44RfIxfjRh+omuQvzU6lAcV9KxqhS4QW3gsh2I2v4jlPkb37KXiXz0q6WbsL6iksXen7CscIkSFzMNZWLtK1kv6VPyhcEL3HFe3FfXvnZ9c3eXfvm5TFomHrhxWvV/UvvKVdPu5DTpwVA1SlbBVaUYnsV1MmPGuSlupVqjTs+t5VWwuR8bSFr41Uxxya6x/TFTuUpfM3v5mPMg07seSxbz+WOfP6F9FRj+5Pq+P9rXAyjfgQzdnh2dXPlR4jTSvgpM37Lm5xLe6WQ0FIpxE9LSc91kdglqzvd+NFcuHEwnxdMBlx1HOLSNS/fipGkmtNuvVuKS9ojuJf4qxZnxx+i/4B6DU4AAEAACQAAIvI6AwbwZ4Kejoblu8RTpdfCzkaQca2nLso8mow++2zt/BLle6nrOVCLyqn9A+0p4/5aNIJdkScbCoUiKWzo4vc6DZL0kTxFVQSA/nuP387SvqJz0Q+8ich5eHTjXSlYTq+zej3OLAiTDwXA8tsvlixpaN3iRhhYNiMRSFJNeg7lwcwuYSAotrLJzK8gvbZCNemfnukn1rtd1ZhHtIot6WvsqMLypHk16a6rPm+KWBqE3jrhOfNEkzbAMlYwGb8/3hpu4xHm8unly6wQtdcHQZDLycOfZm6rjVyKT2ZXli5v6t8+uA5EEt35KxHfunLFq0wtwcOtoTG55AnESrdBys+voMXCJxQpMwp6CXbwYM7L2wAYQAAJAAAgAgb+AAF7dMpXxzsnI/elsPe+alVVNhRzrj9bZg9tgjKQZhoqHbveX+yrV4kRe7E21r7z31zT1bJzeR1M0Q1PJWOD+cm+hiwuK4QqpekmdUlAYPLN9P432xRVS1cTwksqu6YO7MGKWDN+5bVV8fLeqacJ1fB9OUAxSUr7LzcH6Egwv3NwiLBJCC+Vq17ZObuycnHs8B+7TAJryeLdQzSs3id5VpGB9w8PeRPu+RHS/YR2gKCAABIAAEAACQAAIAIEPJ1BeZcQz46jOLd6SFL8AACAASURBVG4G2MEAJtLNHy8aQft+fBt8eE8FA4AAEAACQAAIAAEg8GoCFT1HJEPGQ8GHIJ/pSgfXrfpXF/vGUg207xsD/WwNDPYAASAABIAAEAACQOA9CCiN9s2z24doguR+6Pdyb7a7/scnC/oqMBy0L2hfIAAEgAAQAAJAAAgAge9CALTvd2np9xjwfb6xHdQaCAABIAAEgAAQAAJCAqB9QfsCASAABIAAEAACQAAIfBcCoH2/S0sLRzywDQSAABAAAkAACACB70mgKO1bZ1QdzujrjNySvfBcGwgAASAABIAAEAACQAAIfE0CRWnfp37bAkKnQAAIAAEgAASAABAAAkDgCxAA7fsFGul7PpKAWgMBIAAEgAAQAAJA4M0JgPYF7QsEgAAQAAJAAAgAASDwXQiA9v0uLf3mwyYoEAgAASAABIAAEAACX44AaF/QvkAACAABIAAEgAAQAALfhcA7al91bX1XX994TxWeB1dm1yecQvglrP0SRn7CxgWTgAAQAAJA4OMJ6A1tdvvIWFst8eViimDw5yfwftq3tHXVz7AsuW9T52pfmV1FEVSbJ88jifDZRIumqONfd1e/1trXXb3IChZpZInKoGto0mlyW6TIq8BhQAAIAAEgAASeIPACH03YNmMMy8Q2rOonCn8Xl/rBNrwAYB4WcPfCRnxa+5Yp8b4O9eGMvq9DXaZ8uUiSUWMyu4S2Sm2XGKcvaJZlqfPJupK89pY668Wfv9LaF1/3WScWZaSmfzfFsrR/oQVWbn55x35Wu8DBQAAIAIHvRuAlPvpraF+NzjK9fuoNJykqFfNf7k3bassyIqTcNLx84o2kKCoV9XrcQ+aKF+uTlwDMmJHubODuxUCe0L46A7E+ojuc0fOv9RGdzvDCBxAyakxmV3HfEYa6IcfS4pBR9x4K5tXWfhojtQN7JGjf92iO4roxWAIEgAAQ+CsJPN9HfwXt+8O86kNxN5YhkylugyVvJhuQRiqpGT2MMygmFw89xEi0lbqaaHxxDPv5AMVSTwHuXgxETvuWKXGh8M3K37zor8Y057kNxlM0TaVivvPt0bbM+EZt+rXu8UZJmoz7vKEUK8h5kNmVNRE39W2dXvnCcZJm6FTo9mB+cm7d44ukKDL+cLY1Ua/lviaENwlu6nOfXnqD4XiKoqlE8GZnrkuTzTBWVjSMOY+9Ua6Aq615u57gSlDWWRw7x7cPUXRSMuzdtlWIJb6MtVJlolroa4fWDu7CCWRK6NLVr0WBc5XaMr9zHYpTNJmIBm73Brhb5VEeifoooZ+8oliWupjSK3EFburf9lwHInESsQ57PRuTFnW2dpJGSjQQfyF056I/5mG1kS9KWdk47j7xx0iKjD1cuqezl3jK8mzDwQYQAAJAAAh8agIF3ROukPRohb7/39xHZ4nxbp2lQl5vKEmSieDFzpSJD73JuEh0eqF6yZzypPfPmlRgo7J90Tlhqy9X4qWVAztRhmWp45EqBUZUztzQLEvfLdercQVu7D+OMywTdnb9yCnkbQHKVPPt3b2ErsBwhbKqadx17I0kKZpKxYO+68O1Xk78yPSu9x7yyWlf/qeMs0Hf7EbejxurGpb9iVjI7/cHE2jsw8R2rSgEW2ndCaPhDkPGo7FkelTE5/vK7BIgSPd+lkpEw3EqrdFYKh5NcG+Yhw3LPxiuEGrf7CnJaCjKXzPlGedzIbQNjjsSlUInYwluIEYHd3pVykwJGUvJiKuV18TpbipjrXSZmMY4e5XkjKYS0UiCjGzZkbWGwb0EsiEWuLm48YVjx70GQZUxXDw+E2vfbO0SkVCUH2fSfqcdR3bKGCnRQOmbgYoF/V6f//50thZpX1QjNEqh4gHfQwyBJq/nW9BznCctz7mr4S0QAAJAAAh8RgIS7on7/i/sJQt+/z+6pDfx0QJXmCmZpclYJJ5CSoJNeMZRDEhG4Um5XZlTMhfidUqe9xeYJN+Ouh53lGGZqNOmVWCq+iU/zbKkZ0yDAl6EetRDsSx9PVuZkziaufrbiByZar69u5fQFZi+ec2HhAOd8N9cXQeTDMvS3iVjRl0U7l3ybP/AXjnta2lGab75L0tzXtxeSSiUGqyiRtcw4A4zLBNZ7VSX1EyeUSzLhLd6q0sx/EfHxkNmrpvMrsfwZ46oVbXO3dMsy/hW2sowTZ0DvaH9y3V4RrnySfF8T0onyBvakTUsdTaO+l/FyEEKCfODkfoyjCBsLjT3jr6faVSJ1DOGl6o0pQLWctbKlGkY3EfKN+mZbcVQd1f/VKO02tLGxVtk+tVEAzczD1fl5gDJdF9R7TQVo0fcOPNqvI6QMxKNwwo0kPgbJHOHV4wcoiTg+/kWrQLDyy3OABqubjYTRVgugCZqR/gcCAABIAAEPg8BCfck4yULey6hS3q9jxbySZccd9u1CozArU4f569nTSqx5xKHh6TqVaxXzfX+xToydWP/AZI+ifOpSu7x6T8dGwEU76Mi9xfHp+fX3GNv2reEFEuBanJT+l4PUKaaol0ZG17p7gvpipKqsROSi4AO1JRgODZwhEQ/r31l9JKQybtsy2nfYuO+yirz4rEPifvsX9JtV5d1bcWQ9tu1qBBoYZqszC7JboGp27cTLMtEXV1lGF5m2+HeuM2EjPbFieFTxP3eUYvjZVY0KmNTe1Z+oQm8zYHEOHU4VJGjfUU2YLiMtTJlZnbt23JWUVCZZ/noMxW9OVjta60S6mx0aVEfFd/Ywi8aDFeouJmwLPm7VytjpEKigcQXSt8MabOzLclvUCcoOP2k5e/SZXNaB94CASAABIDAswhIuafM54W8ZMHvf5FLeq2PFlVBVDKuICyrERQ82+3TiT2XyEVm7M9zu8V71Rd4MV371FmMYdnk7Zr5cUKUprJ3ee8mGCNpOhUOxTghfMnlLgovIarmqwHKVFO06y3cvYSuQFJEILSE2jfTOoV6l5DJu2zLad8i831/2rYjDMskbzYmB219s7sh1AfS2hchSPfCXO0rsUu696vNLoQ05rYj7csJWSa21SarfQty70pr3/al4rWvhLXZtswvM9sD0rsEzVmib+le3L0I87H/kLO7QlRrdf8uGjYFl9tUCkx0Y+dqdMHXQeZyBWhLNZBCw811YwKLgnUe0hqa9u8uO2YXM6/5QSMH7QnLBXUU1Qg+BwJAAAgAgU9DIOMv9nLck4xHQ/O38j2XWLq90keLvIaoZFGgRyHtIqXqJXNKrld9bhvpLYu3SZZlIp65RqnZ9hrLChIbTGCtI7sKRLqyomq+VuTIVfOt3b2Urijr2o6jiX1pgVusBnsu9lcfL6d9FRhexDoPhG7igk9kqVDiCqVpCj3RR9q3pHochb7ZxMlU009x3Fdml3Tvf3W3qOSe5mdzHroyOQ+m3JwHkQ0YLmetdJkl1ROnSMLGjyZMP1E7ET+1OhTixQ1qA5ftQNT2H6HM3/gWUvOPFyUsK1ymxsVMQ1lh7Rt32TQKjFBaNtEkU/p+1qSSNlKygRSE3cl10oOhapR3gatKUWXTZp/MmHHu6Uyp1qjTczP/nrRcWAvYBgJAAAgAgU9JIPs9n+uepD1aYc/1ttJNyEpUssYwcoTCvtT1eB2hkHaRkvWSPuV12reyaxcl+cY80zV5P1zA+XSVsqFnzoNsZ1NX4w15y4mKqvlqkSNXzbd195K6oqRmikt2je2PmcpV+prZy8ecB5neJWz6d9l+QvsqMPzJ9X1/tK8HUMOSoduzo5MrP5onhbSvAtO3rPm5SWl0MhoK8ct8pH/bQmaXUAUKV7d+dbfAtI1L9+I8aya026/OznWTXEZbxlrpMjGDeTPAz8lDc93iKdLrMOJ4acuyjyajD77bO38EWUNdz5nEKb/alo0gl0FCxsKhCDelLb3OA3+fcLP1wqEol2bCxE/HUPq/NG3pBqrs3udWYaGT4WA4HtvlskEMrRt8q6EpgZFYimLSCycXYbmg7d6l+z4OGOByQAAIAAEgUCyBwu5JIe0lC3//v610ExqfdnYMGQ8H09PW6YCLn9gt7SIl3K4Ckz5FVIXnubCSqnGUVckyyciDPxDgX/fbAwSaY1P967c/FOcm1SPh63P21eXmN+ZMasLeQORIigfsjd29jK7o3ArySxtkcyezc90kNZiw6d9l+2ntq8Dwpno06a2pPm+KW9pEvXHEdeKLJmmGZahkNHh7vjfcxI1v8Ormya0TtNQFQ5PJyMOdZ2+qjl9CQWZXtuaiTvn6bsEtvTG55QnESbTm2M2uo8fA5SI/PfKTsVZZ1VSwTBRJrW6ZylQ/Gbk/na0n8B+tswe3KAeIYah46HZ/ua8yf7yoaerZOL2PpmiGppKxwP3l3kIXWswh/XXAL/tCUdyyL436zO0qaaRkA5VUdk0f3IXRdZLhO7etio/vVjVNuI7vwwmKQZx8l5uD9SVYcZZn2w42gAAQAAJA4NMSKOSeUDRBwqMV9lxv7qOzuNCCnmfXgUiCW+E04jt3zli12YliUi5Swu2iekmdIqpCxplmzZDdKG1eQpPuxX+UZwwF1DBDzxFJJaP+W8/WynhrjcSPzoqu/hYiR6qaGP7W7l5SVyiI2tbJjZ2Tc4/nwH2KpvzRdwvVfNtJ9K73D2O9ifZ9Xnd5/0r+PVcU3SeAHQgAASAABIAAEAACn4hAeZURT/9yQlXnFjcD7GAAkx1FvL9IA+37iXrM080P2veT3T9PNxkYDASAABAAAkDguxCo6DkiGTIeCj4E+UxXOrhu1X82XwnaF7TvlyLwXb4+oFGAABAAAkAACHw1AkqjffPs9iGaILkf+r3cm+2uz/01u0/gx0H7frWO9Qk6zWcbwIE9QAAIAAEgAASAABAokgBoX9C+QAAIAAEgAASAABAAAt+FAGjf79LSRQ6G4DAgAASAABAAAkAACPzFBED7gvYFAkAACAABIAAEgAAQ+C4EitK+dUbV4Yy+zpj3kySQewoEgAAQAAJAAAgAASAABL4OgaK071O/bfFdBgp/cfwfqgYEgAAQAAJAAAgAge9AALQvCHcgAASAABAAAkAACACB70IAtO93aenvMJKDOgIBIAAEgAAQAAJAQJ4AaF/QvkAACAABIAAEgAAQAALfhQBo3+/S0vJjINgLBIAAEAACQAAIAIHvQOAdta+6tr6rr2+8pwrPk5uSu/SGNrt9ZKytlniPxpA0I8/grzOZ8T24AQ0gAASAABAAAm9J4H29/1ta/kzBAMLjI+C/n/YtbV31MyxL7tvUuT1Dchdh24wxLBPbsKrfQcNJmvERDfMO9YVLAAEgAASAABD44wTU5snzSCJ8NtGiKfZa7+v9i7XqD4gBEB4fAv9p7VumxPs61Icz+r4OdZkyV7YWb7RMA0vuet/eL2nGH+juxXODI4EAEAACQAAIfF0CJcbpC5plWep8sq6kSH/6vt7/RWz1vw5JttAfE1xvyn++LVHxtxYearV5aMZ1dO4LxxK+xVapn2UgCPP0fpBmqeMe3aOuw4dOKGGNmMhaZ17kUVnTsxuIpFCLsgyVjAVvPb/nBlvwjD782bufYlmW9i+ahUOdyq7dGMOy9NW0IXPki7A/Wvua05/QvjoDsT6iO5zR86/1EZ3O8ML0A5kGltz1vr1f0gyJLvsa7nAuEAACQAAIAIHvQcBQN+RYWhwyCmTWExV/X+//hDGFNYC++yDFpP94wZh+Qz2smT5E++JG6+ZdguFEKRl78J5Pmwto339qLEPOqwinXcXalzBMXdEsS8VD/kAAvfxXs/klKOvH0FEsQyZj8STJXY5lyfvVznIEijBMX/NlJ09GNRmZW2pavOXVcmijuWg4L2qXosSxnPYtU+JC4ZuVv3nRX41pznMbjKdomkrFfOfbo20V6bGd2vRr3eONkjQZ93lDaCiQzXmQ2ZXtZ3zvZ6mQ1xtKkmQieLEzZcqKb2VFw5jz2BtNUWT84Wpr3q4n+DpL2KOsszh2jm8foimKppJh77atglAUY0bWHtgAAkAACAABIPA3ENDXDq0d3IUTFE0lQpeufi0vUyQdq0ptmd+5DsUpmkxEA7d7Aw2EAjf1bZ1e+cJxkmboVOj2YH5ybt3ji3Be+Wxrol7LOWWhkMVNfe7TS28wHEeeOBG82Znr0uSLIRnvrx3YI1FYcaFFpcAI/eQVxbLUxZQ+LbMK1UvmlILC4Hntq2pcDTIiG7haS5LEpYVHQfVi6D5Isiwb3/n1kzMMHzxKsSyKLqc1T1r51C3ekSxLBvbHbSalAGl5u+MskoxcLbdocYXSOHyOwtU0SaIQryjuq6pz+GmWvpyulwvPp7Uv41s2l2J4iabetvWABHBy34aaW9W0HkrrYdq/2MqHfg3W39GMSD7s1vAGf+S/ctqX/ynjbNA3u5H348aqhmV/Ihby+/3BBDcaiO1a0fCu0roTRrVlyHg0luQHAmntK7NLgCPd+1ErxSLxFEcu4Rnnuri2wYGamWXpZCzBjTzo4E6vCvV+CXsypfHmkBFXK1GcGc+7DQT2w4lAAAgAASAABD4dAY1x9grpKZalEtFIgoxs2f9BRko7VsPgXgI53Fjg5uLGF44d9xpwRcarUoloOJ59Wk7FownuDfOwYUHF8ofxU3eypySjoSivC1Ke8bxciMxhBby/jJDFJOolc0rmQgJh8FwnXlD7SpOUk0aF1Ytq6ASJ3bCzRYXaqHMnzrBMaNP6Q9ivDIN7SZZlkrfHu7uHB+6NhZ7WqlJ0gKp24R7pL9o/34zCwIRtbnHCXt2xhD4VaV91mzvOsvT1Wl9Lq0mtlnjIL9a+Cgwvs+2grkFdjqBlCTTWXZJlmVg4QrJMbK8fx/AS4/Q5yTKREFKE6cOeC/mNj5fTvpZmlOab/7I05+d/EAqlBquo0TUMuMMMy0RWO9UlNZNnFGqurd7qUgz/0bGBhgac9pXZJQpxp2+YuNuuVWAEbnX6ULbI/axJpagYOUB9IXYwUl+GEYTNhSbS0fczjVyEX1nAHtHth+GlKk2ZtIUiM4TdC7aBABAAAkAACHxpAobBfaR8k57ZVgwFjNQ/1ZzrlHaspY3cM2v6aqKBi+ThKhQaTPtobj66qnUOiSnGt9JWhmnqHOgN7V+uw8WHCU/BDO1IMbDU2Xj24Xja+cp4fxkhK1UvmVNE9iBhwOnFZymtQtpXmuQT+qeQeimpGj1GgudhyaxSEJ0rIaSyNrq0QqHyw74T5wYzj//QoZ2+mhIML6m2T2/tORe6dYJgcGkT10Ii7VvRe5wdwLBM6uFw3kKko+kCIELtq1RjNR2jhxEUmUzsWjS4Qlkz6EGB+POFKVeEYanr8Xpd09oDw6ZOJqd2UtmAvaDAj7iV5LRvsXFfZZV58diXTMezOe5Jt11d1rUVQzfXrgWNVHBhNq3MLmFbiu4rdJtZVhFhcrdPV2Z1owB6as/KrxqBtzmQsqYOhyoUEvbklobhxZrxEQ0j4gAGAAEgAASAABB4IwIZB7pvEz99znxeyLGqzLP8o1YqenOw2sfHFEXCUd2+nWBZJurqKsvEApmo20zIaF+cGD6lUNjKUSuQZcj9iUoWeX+FtJDN2J9bL5lTci/0EsIFtG/GkgIk5YSHlHrBqnq5NAffsvmflmUfzTIRt1m0ZBahGUPBRtq72qRXl6qNHZs+NPbIB5upYCHtq1Y1mE0dNsvg1PzuHZqYxsS2eyty1Ugm3/dRZKOt1PWiGcX4laYplNhLHQxV1Tm8NMs87LoO4wwT3e40WJGEe6+Vu3LNzlSc/1xO+xaZ7/vTto2qk7zZmBy09c3uokyPjPZF8jTdC3O1r8Qukbk5vV/FLXnGkr97tdmO1ZXWvu1LGe0rZU9+F0ddsBgzxMhEFsIuIAAEgAAQAAJfikDG9+2lHWjGeBnHqsDwEn1L9+LuRZhPNgw5uyvEXlVtdiGPGnPbkfbl4lNMbKtNVvtiA0ecYlsyymtfgfdXqPu5h+rB5bbcfF+pesmcIq7Cy4KRcto3X6JkjCwgjSTVC4Yre/dQooN/bQCFa5mQ08rlqDwajA+hmC0TWG3gSJa2b6Ac5OROhygn+PH4Qtr3ca8CM9jRowEm4rSWZbpHWvxktS9DkalkLOy/OHJP9pgw/jCcF2OprW51SfU4ytVAf/S9o7UMb51HghxJuA/XUXLaV4HhRazzQOgmLlDfvZ6tUGYlP9K+qNroHkmcTDX9FMd9ZXaJiIi0r8YwcoTCvtT1eB2hqBw5FOY8dGVyHkxqKXvyu3ixZuQ0PLwFAkAACAABIPBlCZRUT5yinMz40YSJmz5F/NTq0LN+SceqUuAGtYHLdiBq+49Qemd8y14m8tF/TvuKvT9hWeESJS5mGsrEc90k6yV9Sr4wEImQopq4gPaVISktPCTVFDJJbV1DqQ7JRJJhmYDDnJt6WtrM5e/SXkebToFp6x13KO57t1CN4yVVtil3ETkPRJW+Rs+nfJToOxfvkJbmJ7SJmAhzHvL5EHZnHEX/1y1qBabvQKFRlk15BmsIhbJx8oZLMR6pEhWYX8if/+QJ7YuymJ9a3/dH+3oAVY4M3Z4dnVz5kcxH2leB6VvW/FzyCJ2MhkIxbkJaeq6bzC7ByIO/r9BcuXAwnRRPB1x2HHHRNi7di+e6MaHdfrUSl7RHdJfyVynOjD/fDB/eD8AAIAAEgAAQ+DYEDObNAD8dDc11i6dIr4OLvEo61lL0qJ2MPvhu7/wR5Hqp6zlTicir/gHtK+H9W7iYJsuSsXCIX2g2s86DZL0kTxFVQSA/nuH3C2lfaYkiI40k1QsyRlUzj+QsF0RdrMkJk6NkA2PfcRxpMSr+8BBDTcREd/trSvLmuvGdPD/uyz2cZ8hEJBiKpOcqJs5HGvJWSZPXvumofGi5HZ1Y2jjuOj7Znbeg5c+UxhEuUno5I7uOxDPIv6y90FlPa18FhjfVo0lvTfW544zM14TeOOI68UWTNIMWOo4Gb8/3hps4Xnh18+TWiTeSpBiaTEYe7jx7U3V8BF5mV7bmuKl/++w6EElw66dEfOfOGas22+TKqqbJLU8gTqIVWm52HT0GLrFYgUnYU7CLF2NG1h7YAAJAAAgAASDwFxDAq1umMt45Gbk/na3nXbOEY/3ROntwG4yRNMNQ8dDt/nJfpTonK/dNta+899c09Wyc3kdTNENTyVjg/nJvoYsLiuEKqXpJnVJQGDyvfQtqX1whQRIJJ0nhIaFeeHsqhrm1zsiTsdrCa5BpW/o4LBSVinhPlvob+TXRytsd59FUeo2zTNXyte8/LVNbZ/cPMUQ1FXu43F/5ZdJnZJ5AZcprX8Mol8XCr0AnOAtdt6qfy+72OlqfP6Ewp6jXvn0T7ftaIwrAzTQP7AICQAAIAAEgAASAwLclUKJEy41hHeto7lhkp7P4nwgBKSVBALQvCHcgAASAABAAAkAACHxOAlrr72gswv1IApM4Gf/4hIG/YBAC2vdz9nWwCggAASAABIAAEPj2BJT1A4fBBEmTMd/BgpX7Aa9vz0Qimlu8KAftC30ICAABIAAEgAAQAAJA4LsQAO37XVq6+PEQHAkEgAAQAAJAAAgAgb+VAGhf0L5AAAgAASAABIAAEAAC34UAaN/v0tJ/6+gN6gUEgAAQAAJAAAgAgeIJFKV964yqwxl9nTFvieNXpxsXbygcCQSAABAAAkAACAABIAAEXkmgKO371G9bQOgUCAABIAAEgAAQAAJAAAh8AQKgfb9AI71yfAOnAwEgAASAABAAAkAACPAEQPuC9gUCQAAIAAEgAASAABD4LgRA+36XlobRHhAAAkAACAABIAAEgABoX9C+QAAIAAEgAASAABAAAt+FwDtqX3VtfVdf33hPFZ4HV2bX2y4loaxpGp6dX1/vN8GaFXmt8LaooTQgAASAABAAAi8koDe02e0jY221xF8epHw3/fPChvg7pcL7ad/S1lU/w7Lkvk2di1Jm1xt3esK2GWNYJrZhVb9xydCrgAAQAAJAAAgAgXwCavPkeSQRPpto0RTreb+Ns34//ZPfLt/4k6e1b5kS7+tQH87o+zrUZcpc2VpsP8ZwmQaW2VV8+UUd+bzbiSDM0/tBmqWOe3SCiuvNA5ue+2iKolLh+5OV4RZMsgNJlIDXtM3vXYWSJBn3X26PmCtKCpSg0Vmm10+94SRFpWL+y71pW21Z9jDJEmTPQqdLmJQtGTaAABAAAkAACLwdgRLj9AXNsix1PllXyNkJ3Gv2os9z1oVKyBb1pzb0vw5JttAfE1xvyn++LWHGW+ufIl184cPKTcPLJ94IUjdRr8c9VFicZGhrutZDDMuyqbMJvVgc/uzdT7EsS/sXzcLRTmXXboxhWfpq2iA+vij9JgHwZec+oX11BmJ9RHc4o+df6yM6neGFDyBkGlhm18tqJXlW0bfTPzWWIedVBN2urEj7KuuHz5OoTRPBW28YtS4T3xuozr+fJUvAdM1rPgqdSCZT3AWSF2MNuTkYP8yrPm5n9iiWvJls4OFLliB7Fi5tUqYrv2nfkmwFuAoQAAJAAAh8IwKGuiHH0uKQURhFkq9+0c764xyNvvsgxaT/eAmcfkM9rJk+QvsW6eKlDiupGT2MIy1LxUMPMZJTtVcTjVIPyQntqAeJISRmAkttQo1LGKavefWUPBnVZGRuqWnxllc1oY3movn8ofaV075lSlwofLPyNy/6qzHNeW6D8RRNU6mY73x7tC0TyFSbfq17vFGSJuM+bwgpxWzOg8yu9C1R0X2YYlkm4upC8U5t/26Kpe8WqpW4QmmaQgjpi+l6JDqVFQ1jzmNvNEWR8YerrXm7nuDEnLLO4tg5vn2IpiiaSoa927Yq+2POg7Kq0/2ASgnu2qrFgl5pHD5H4zmaJJFIFcR9S+pmL2mWpS5GalQKTNu8/sCwbOp3z4+c21imhOrxE5JlmaDTXlmiahg54+rotv/MKQGrbF90Ttjqy5V4aeXATpRBdoxUKTC8RK4EU5vAzgAAIABJREFUybMU0ib9ob4FxQIBIAAEgMBnJaCvHVo7uAsnKJpKhC5d/Vpeo0j5U0yltszvXIfiFE0mooHbvYEGQoGb+rZOr3zhOEkzdCp0ezA/Obfu8UU4Z3y2NVGv5XyxUMjipj736aU3GI4jx5wI3uzMdWnylRB/CkuFvF70iDQRvNiZMvGhN+3AHoliigstKgVG6CevKOSTpzKhx0L1kjklXydUiPVArmvODxWpGleDyEM/2sArEAllguEKSf1TUE0Zug+QyIzv/OJ1Aj54hHRDcL2Jlzq8hdIuvrzdcRZJRq6WW7S4tBIgKmdukCK6W65X4wrc2H8cZ1gm7OzKlTf85Qjzgo9mmYfDYy/NMvH9AfwRlKqJDwjzod9WXhYbrL+RjkF/5GG3Jh/ju34ip335nzLOBn2zG3k/bqxqWPYnYiG/3x9MIFXPxHataHhXad0Jo6oyZDwaS/KjgLT2ldmVrT+hHvWgHn43X63Eyzo2UeciT/sqcIV+6ADtuJ9BU9a0DY477sEDnYwluKEKHdzpVSlxRfrmSV+fjLhaNdl8X0Pd7GWCYZn42ZhJOF5JX52wzS1O2Ks7lu6R0hXkPFSMcII86OqtLVPW9KBREnU105gf95UqoZx7FsCEN5u5XksMn1Jo1LTakH/zZ3uSrscdZVgm6rRpFRhebAnisxQYLmXSZ/1qzvYE2AACQAAIAIE3JKAxzl7xQTsqEY0kyMiW/R/kcaT9qWFwL4G0TCxwc3HjC8eOew2PTpZKRMNxFCni/qh4NMG9YR42LKhYofbN+GUqGQ1FeV2Q8ozn5UJkDmNpMhaJpzjRlPCMI4ErI2QxiXrJnJK5EK9TkE4QCsqsF5bbKKh9pUnKSaPCako1dILEbtjZokJt1LmDVGlo05qjSiVcvKp2AQkZlvbPN6MnzFKH1S/5aZYlPWNcpBYJMIpl6evZykzgVigVyu3bEYalb+draidOSZalrkaN2TGDxrqLInyxcIRkmdheP47hJcbpc5JlIiEkCqnLkY+ewiinfS3NKM03/2VpzouBKwmFUoNV1OgaBtxhhmUiq53qkprJMyTrwlu91aUY/qNjA8VIOe0rs0sIt6R26pxiWfKk16CqXfRysjrusmt/WFwRhmUCK0gvVowcoE4ROxipL8MIwuZCM+ro+5lGleh+w/BSlaY0fQcmTnePUZpK8mah3SC8Ys52aZMjV/timprxE07Rk5FwnGaZ6MlEFeqOhV95JRD6KTRIpW/nqrj+VGbbjqN8md+dUveburH/ADFNnE9VIn1cXAm5Zz2al2fS4y6pWsDnQAAIAAEg8PcQMAzuI+Wb9My2YsgTqX+qubw7aX9a2sg9sKavJhq4aBGuQhGftEvlpo+rWueQv2R8K21lmKaOc560f7kOFx8mPAUztCPFwFJn49kn42nI6cPibrtWgRG41enjPPusSSWnfaXq9aT2zcyARzpBwptLt34h7StN8gn9U1BNVY0eI53zsGRWKYjOlRBSWRtdKBaW/8p38SXV9umtPedCt04QYss/7J+OjQCSWVTk/uL49Pyae1RP+5ZQC+ZcSFnTj9Q4dTZRV4JV9hwmM+3OHamsGUSymTpfmEJajboer9c1rT0wbOpkcmonlY3Z5xWbc5U/+VZO+xYb91VWmRePfcl0MJsb9iXddnVZ11YM3Vy7Fk4aCpN6ZXaJECsbJq5plolt2hpHLigmEY8zjH+lox7pYCaw1lGG4WVWFBJlU3tWfvkIvM2BJDZ1OFQhui15iPztxA9NWfJ8ikuZkOab3zkUWKV59TbBMNHb01N/AtU55V21VeXHffmK5JWAlCt6rFCk9tW1T52h3PDk7Zo5nWldRAkFznrsZHkmPe4SwZfGAocBASAABIDA1yWQ8Zv7NvGj58znhfypyjzLP2GlojcHq32tVUgjioSsun07wbJMlEtTLLPtcG/cZkJ8mOgUnH/ySd87anMElvgwBWFZjaDg2W6fTkb7ZuzPrZfMKeIqvMwbFtC+GUsKkJTTPxJqSoFV9XJpDr5l8z8tyyjXIOI25y2ZxXfIIl18ocM0lb3LezfBGEnTqXAoxgnhy2wyySMclPxJsWzqtL8KxXqVvXtxFOfMmJTOSqUOhqrqHEitPey6DuMME93uNFhRO2ZGGh94B8lp3yLzfX/aUOibSd5sTA7a+mZ3uYBqWvsiVZruhbnaV2KXmAVRPXdHs4x/23WUYgIbUw4fTd+5N64olgmtdqDRZ7aHdaW1b/vS09qXDAbRNDYmfl4w4SFrQ37n+NGOotdMyN2G8mYqmpbvUBA3/77NCMf8Esr7uDh1JtebGDqRzHnQWxZv0XAq4plrFEwReKIEibNkKpXdBRtAAAgAASDw1xNA8ouLGaX9ZsZhyflTDC/Rt3Qv7l6E+RzDkLM7J8CkNrtQqTG3PRuWYmJbbbLaFxs4Qj7Uu2SU174qLl+RJX/3ahXqfu6JenC5LTffV6peMqf8ae2br0wyRhaQRlJqKq0vGZbxrw2ggDoTclq5HJVHPZrttPmqI7tLuPHEYRrLCpJS6SCj8EQFpuKzI9JRxMf/4r97DehInJdhqa1uNZqehGZ6oZSLe0drGd46j2bxc+2Y6XXiwgvU6E8cIKd9FRhexDoPhG7igk8KqXichYbivukpWWziZKrpp3iNM5ldOZUsaZjnsq9pmoluWPWm1QeGpWmGZYIbzXymQSWfgJvJeejK5DyYcnMeUMnZoWR3y7AHTWik/E6zXpJ1fufAh445qbrehKQ2oRo4RENbbkGTkirblPvpxwolNZPoaQDzsN5VUULUD6GJkkxkC811E5dQ2bWLknxjnuka8fBOpgQFJnlWFmx+pbK7YAMIAAEgAAT+egIl1VyOJhM/mjBx06eIn1odiuPK+FPcoDZw2Q5Ebf8RyvyNb9nLsi4VLZn/57SvxjByhMK+1PV4HaEgLCtcosTFTEOZeK6bZL2kT3lUBS9f9b9A3FeGpLT+kVRTqEOqrWso1SGZSKKMT4c5L/U0IyXzXbxYWqQFT/5hmW6vUjb0zHkQbzZ1NZ63CJVCZUFJFyyTCPu9vvTrIY6CxKmTUTWaamV3ojhwdN2iVmD6DhQdZdmUZ7CGUCgbJ5GkS0/cz1xRUoP9uQOe0L4osPrU+r4/2tcDqGZk6Pbs6OTKjzQ+0r4KTN+y5ucS3ulkNBTil8xIz3WT2SWmkCbFMrGdDg1e1s4trIDGIu2ZxW61jUv34rluTGi3n2uA7My2TC8R3Kgllf07qEWY4NYvItNpckDnd46S6uEDNLJlyYjv+jbAPROgfWud/2C56eR8UfklKDBDmyuIugmdivPzAZKX42gZEVEJJVXjaBIcyyQjD/5AgH/dbw9wpkqVgMue9WSPF5OXYJKDCN4CASAABIDAVyNgMG8G+OloaK5bPEV6HVzkVdKflqJH7WT0wXd7548gj0tdz5lKBC71j2hfNFM9HExPiaMDLju3mIC2ZQNNfWdZMhYORbilQjNrLEjWS/IUURVe5gQLaV9MkqSMNJJWU7gCU9XM3yHlgCKoizU5YXKBv85THSJpke2oeYfhCmX1r9/+UJxbMgCpVZ+zry4/+/ln1xY/9BipyU5uw/F+FAdkqYvhGiITZQ8tt6Mk8tLGcdfxye68pRytymUc4YKllzNPZJxm7fxDG09rXwWGN9WjSW9N9RkFKaDMmaU3jrhOfNEkisdSyWjw9nxvuIlLnMermye3TryRJMXQZDLycOfZm6rjJ3XJ7BKVT+jG0ezA2O8eBI7oXAkymRUeMt1UWdU0ueUJxEm0VMvNrqPHwIeE8/u06BNC1bvHqd+HlU5dQb4FOgeGl5uGlo7vw0maoclo4Gp73q7jalTe7jiPptLLiGSqULAEhareunx0i9aPTgSudkbbKvl0YWEJpc3cEhNcR8/+Q3nGkKbHcKkSnjiLs6qwSRmDC3KAD4EAEAACQOCvIoBXt0xlvHMycn86W8+7Zgl/+qN19uAWZYIyDBUP3e4v91WqBY9S3zzui5v6t8+uA5EEt3paxHfunLFqs4JP09SzcXofTdEMTSVjgfvLvYWu9BpbUvWSOkWkCjKi4nkOsaD2xRUSJFEvktQ/0moKwxUVw9xaZ+TJWK3UFCOkNfPm6AulRbYP5x+mwAw9RySVjPpvPVsr4601BZbAUmB662/0zJz0jKcXxeNZ6fp+c8uAXM02lhhGuUQWfhG6HKRV/SiqR3sdrfmqOmvbO2y8ifbNqRu8BQJAAAgAASAABIAAEHgDAiVKFGHFOtbRxLHITqdg/s87yMS/8hKgfd+gX/6VPQMqBQSAABAAAkAACHw0Aa31dzQW4X4kgUmcjH9wtsBH03gbzQba9204/h29AWoBBIAAEAACQAAIfCICyvqBw2CCpMmY72DBin6363kpGXB8AQKgfQtAgY4FBIAAEAACQAAIAAEg8FcSAO0L2hcIAAEgAASAABAAAkDguxAA7ftdWvqvHLpBpYAAEAACQAAIAAEg8CwCoH1B+wIBIAAEgAAQAAJAAAh8FwJFad86o+pwRl9n5JbshSRrIAAEgAAQAAJAAAgAASDwNQkUpX2f+m2L7zJQeFZEHQ4GAkAACAABIAAEgAAQ+GwEQPuCcAcCQAAIAAEgAASAABD4LgRA+36Xlv5soy6wBwgAASAABIAAEAAC708AtC9oXyAABIAAEAACQAAIAIHvQgC073dp6fcfV8EVgQAQAAJAAAgAASDw2Qh8Gu2rrq3v6usb76nCv5QYVVbW9Y6NLzq6G7hFMHLefs35j5+tj4I9QAAIAAEg8M0I6A1tdvvIWFst8c0q/nYS6IvKqncRTp9F+5a2rvoZliX3bWq5hi9RGXQNTTqN3DGF7xO1efI8kgifTbRoCh+Qwf28SxC2zRjDMrENqxoVm/NWeFHhduZa8pZI7X2eha+7lpQN8DkQAAJAAAgAgaIIvMD95TjT7+HI3ta5FymrimrBv47/09q3TIn3dagPZ/R9Heoy5fNFZ3HIimokTf9uimVp/0LLs1caLjFOX9Asy1Lnk3UlMiY99xI596f4rfCipUUaIGMbv+u5Fj5ZIBwABIAAEAACQOCPERC6Qjn/KzRA7Ew/pT4zdG6HGZZl4oe/KjLSSNvtjDAsS/tW2/8RVqeY7bd27kXJqmIMSx+jVpuHZlxH575wLOFbbJWWYcqqtk0vybJsYrud4MlodJbp9VNvOElRqZj/cm/aVluWf2llTc9uIJJCWo1lqGQseOv5PTfYgmeU58/e/RSLROCiWRjErOzajSHoV9OGzJFPdpgntK/OQKyP6A5n9PxrfUSnM/yRBxBFNZJ2YI98ofZVYIa6IcfS4pBRl+mj+dwxXPHcS+TcnzlvRRctzoCCVgk/fK6FwnNhGwgAASAABIDAexN4vvvLdaayjvu9q5M2pqRm7DiJtNjdYgun5FSV01ckyzKRXavh+Qa/tXMvSlYViQ43WjfvEgwnSsnYg/d82iylfbX181eIikD7/jCv+nhBSyZ5ZcuSN5MNeWJSWT92hY5jyGQsniS5y7Eseb/aWY7sJAzT11wxbPJkVJORuaWmxVu+8NBGc9FJs3Lat0yJC4VvVv7mRn9FDUboJ68olqUupvRKXIGb+rc914FInKRpKhX2ejYmLeqscWrTr3WPN0rSZNznDSE5n8550JjmPLfBeAqdFPOdb4+2VaDBIn8hninLMg+rjXxRysrGcfeJP0ZSZOzh0j0tuES2XYU3Em7qc59eeoPheIqiqUTwZmeuS8MX9dxLCIvNz3kQ7hVuZ61CGyq1ZX7nOhSnaDIRDdzuDfAdQqpSBS18cROILHn+vQqnAwEgAASAwJckoK8dWju4CyeQFwxduvq1vJhQVjSMOY+90RRFxh+utubt+nTorpCrwk19W6dXvnCcpBk6Fbo9mJ+cW/f4ItzJZ1sT9VrOrQjdn4z/FWLkT2GpkNcbSpJkInixM2XiQ28y/g6VUKheMqco6yyOnePbhyiSA8mwd9tWkafJhIaJttXGhTuKZZnYQXcloTD0bUcZlk2djmceL0v58YJ+v6Bzx3CFVCEFLX+erDJ0HyCZGt/59ZOrFz54lGJZJrjelG50XhVo6hbvSJYlA/vjNpMyK+EwvLzdcRZJRq6WW/iGxnDCvhWgWSqZFMd9K9sXnRO2+nIlXlo5sIMoUccjVbnR2bT2ZXzL5lIML9HU27YekABO7ttQ+aqm9VBaD9P+xVY+9Guw/kbFoT/ysLvohFg57cv/lHE26JvdyP1xY5lele6+LJWIhKK83Kf9TjuOKFdad9DzApYh49FYkhfzae2ralj2J2Ihv98fTHCDgNiuVZfVvlQs6Pf6/Pens7WoDbQNjjukm6l4wPcQoxCA63l+ECYQc8J7L2tVMhqK8ldOefjOmu58RV9CWOzLtK9hcC+BBo6xwM3FjS8cO+5F40XpShW08IVNIOAjup/hcyAABIAAEPiLCWiMs+ngHJWIRhJkZMvOPaNHrgepFpZOxhJc4I0O7vSqlLiioKvKOtNENBxH3pf7o+LRBPeGediwoGKFjjJ7Sr7/FbqhzGEsTcYi8RSnbhKecRRTk/F3mES9ZE7JXIhXImTE1SqSfU/1Aa119YFmWSaw+at9zU+zLHW7aFTxZ0n78YIwCzp3GTFQwPJnyyrV0AkSu2FnC7JZ27kTZ1gmtGn9IWwLw+BekmWZ5O3x7u7hgXtjoae1qhQdoKpduEcSjfbPN6MwcEn10H6UYeKeseENNIPrMedBgFHX444yLBN12rTy2leB4WW2HaSPqMsRNOVRY91FUfVYOEKyTGyvH8fwEuP0OckykRBSk+nDBNcS1kK8Lad9Lc0ozTf/ZWnm5nVlC3qyV6WngmkqRo84uX81XkeU1EyeoeFSeKu3uhTDf3RsIHmfneumJBRKDVZRo2sYcIcZlomsdqrFPT5TvYqRQ5QEfD/fgjiWW5wBhmXCm8053ZfvJbwlwm3M0I4uwFJn4yiELqpLEZcQFSW+wwve8NlZcRl6pY1cuJ6+mmjgBjG4CkW4ZSpV0ELRh+LQu8hCURPkdruMSfA5EAACQAAI/M0EDIP7KN6X9My2Yijcq/6p5h5hV4wcICkUOxipL8MIwuZCCoa+n2lUFXZVQv+iap1DQojxrbSVYZo6B3pD+5frcLFnFJ6S43+FPih9WNxt1yowArc6fZwlsyaV2E2L/Z1UvYp1kXipSsOpuoz3F5oksY3bt4PINpJEFfYtmjOSTtqPF4YpMjJjgHQhohEFhiwve76sKqkaPUYt/rBkVimIzpUQklsbXZkqcFX+Yd+JZ4Y16f/p0E5fTQkSu/bprT3nQrcOxxXKmp7DGMNEfvfXlPGrF+RrX3Vj/wGSdInzqUpB/Dh9rwnjvko1VtMxeoiyp9nErkWDyh/0oKyC84UpV4Rhqevxel3T2gPDpk4mp3aeORlMTvu+Wdw3K/hU3KoILPm7V1vWtRVDt96uhRshiRJTlFXmxWNfMh3G5lgn3fbC2rfMioYQuX/UCRc9zfQeWRlKDJ9S6O52oChyoc4ndwnRbSy+w2Uv+vitqjLP8sNsKnpzsNrHDafkrljIQrHZ4u+CHAsFTfBog8QtDQcAASAABIDA30cg7WJS+zbxM+LM53tWfsElvM2BglLU4VCFopCrEssvdft2gmWZqKurLBOxY6JuMyH2jGKXJPK/Qk8kPkxBWFaRCiJ3+3Qy/i5jf269ZE4RV0GgGYTGPLFd1fWbe4jN0r41C5eZisqR8+MFYRZy7nKF5CDC8JfIKqyql0tz8C2b/2lZ9tEsE3GbRcttEZoxFKikvatNenWp2tixiXJ305JJQAbv3gkxTPxoWKPE04ouR/vq2qfO0KS05O2aueDMsUy+r1jRpa4XzejpgdI0hRJ7qYOhqjqHl2aZh13XYZxhotudBivqHlmpKbBK6uaV077F5vuq+7k4dHC5TaXAZIWXoPuiRkKJMek+KtS+P23bqBbJm43JQVvf7C5K8OC0r4ab68YEFgXrPKQbm/bvLjtmFzOv+UGjqPHk7j1s4Ihr1yUjjiuee4mczifzNmeXoG1K9C3di7sXYf5BU8jZXSFXqUIWKl7UBFJ9Aj4HAkAACACBv5hAxv/udYkdZUY7Zj7H25ey2hfD812VWDiqzS7k1WNuO9K+XFiKiW21yWpfkf8VuEVxybhCGLWR9ndS9XqGixTaUPR2WsDQN5P1j7nCcn68IMxCzl2ukDxRkan+c2QVhit791Cig39tAIXqmZDTmrNCBT50jB7SB1YbuEhtafsGinMndzpET9d19gNOw4h1K0t5Biq5EYXesniLMicinrlGqSUHstqXochUMhb2Xxy5J3tMGN8Q6d6Y2upW///2zoOrbeX5+88Le86xITeR5YJtWuihBrBzCQRCQodACCXUmI7pxQV3y2pv7n9mZdmSLcmGkPuDMBzOvcLa+tlV5ruj2bW5bgxiNeCHv13oqKQ75kCQg1+1zMfWSPuaKLqscx6svT9I1MDZdHOltvZNrXscJspq6c2uF2ZabdB0Egt9NNn2mpJXCRDzYHWOn4EYvZyptuSUPtG+Vu8aeN4zeyN1EBhA2yAaum78GCJAUkfTnbQ0MFUNTld+/mVBKGeJ8pqiVc/efauw9q2A25k9/EKaVPin4vRfdaX54aHddjeJdrC+HTqAyJbUpveVQae0Wmh60BDk21D2E45ZkAASQAJI4LkTyNnNg/FWssnJ+rrKCe/6a0gMYS7moV+OeWi1mbRMVaXKrv057etwjx6A25e7HGu0Gtg73X6VNpHyIf0PsoYVxGMq8qR5cgm5xmiIE22Y91Q4KvigLx8iqyjaZO9bhlAHJs0IohBe6FQHtVJ0xbvvJH4lsNDlNFFVTQs34Pe9+VZH0+Zaz+SGFPPg7F6+vLq5yf6GyN4rIRW+Wutzwf6ufh8E+Sb9U/Xq5ZbqUVLGPMgY8wkk8SMkVnrtJsrVAz5SUcz4h+utJkvLxBW4hDX2zxWXQz4poX3Bb1/6fN+qdrIMEEU2GYtKZ7Nlz3mQxobEzceiCRLFIKSOv0K4OuVqXw6RcHieSUSjSRJVT+J9X3WvhKFPbPT65ODoIgTqnmhfqubDbgru8EwsEkslfeS9jLtjVSoHgvPjyQwnaB3iq5wlyusC7XvfKiwNn08lf21yZ7jeXPCnsiLltWIwyDPDJu6C1zehOJTEXc62mimDTmlCeNgQPOz9DuZCAkgACSCBZ03A3fkzLG1Hg71uqQwbWIA3n1RVy/dbyaTJe92EqG/IbqG1TZXKrv0B7Qt74WOR7JZ0PrwubZTXt3eUbr9KqJT7vC7PqzHZlGtqX5O+HdeGeV/5oYIvzcYHyCrYslY/B3KWOFHn6zXCcBsGD4n04lJ3d0mYHkLCN1RvLtrrliNTEPNgrh2D0FJRYOJ3oXBY+r3d+mSVAWYzGmvfrL8/utgNsekVLWPrh0e+ORJkYmkYJS7T8+mmMg+QLq19TRTd1gSb3tqaClcDuX6aHG0Dq8e3iQwv8ByTDN+e73zrh8McpLHJHlPCceSYkhZYBJBfuu7dxOZRIM5wAs8y8bsb/85kI3jRXQ2j60fBBMMLcL5xInJ9uvO5jewirOmf2ruJQT1M7GbDU0v8u3Rt2/j64W0szQlwWEvw/OdwUf+Vs0R5Xah9afM9q3jVNPzDH0pkEqv9wEf1p7Ii5bVivF91zOxdR5IsLwhcKnq9uzhYI62K9Dul3cKHDYGiJfnRxA+RABJAAkjg7yZA17VPyvaXid8ezzRJr7AttW0Tm/5wigVreuVbGHCTPTnapkpl1x5V+8IBqSeX4XianJ4WD56uTfdV5WSZnr2DF8I6/dLLouqCLE7uOfQ62pc26dhxbZjUPeWHZsvvL6vA9Fd/JmedsUdf32prx6r2QaLxOC4TDxx9H2qRzkR7071wmsgozziThESB9s16jom8zv2H83+1y2f0ZuWHsfZ1fyHxqZrfblY7RPZtBRY6ytyq+EjaV2+iaI6NXuK/+nNz7dgRhMzcLeieCP3Ap66EZsUh+KvnVYnRx74jASSABJAAEtAhYLaAA5HqWYG9Y/Ht93qRuDrZn68BQu37ZxSncqLQHdMXsTg5R1iIb3Wr99X+8amD2lc5FniNBJAAEkACSAAJAIGqvl+JZJx8wYKQPhoremH+91JC7fvnta/duxzJ8HwmerUz1l39x8VuwWRF7VsABP9EAkgACSABJIAELE2f9iNplmeTwb1vffANJi+GyR/Wvi+G48uZMdhTJIAEkAASQAJIAAk8XwKofV/QQuf5TlNsORJAAkgACSABJIAEHoUAal/UvkgACSABJIAEkAASQAIvhQBq35cy0o+yVMJCkAASQAJIAAkgASTwrAmUpX0bG2z7067GBjhhF3+RABJAAkgACSABJIAEkMAzJVCW9i393RaoiZEAEkACSAAJIAEkgASQwJMngNoXPdlIAAkgASSABJAAEkACL4UAat+XMtLP9MUENhsJIAEkgASQABJAAo9IALUval8kgASQABJAAkgACSCBl0IAte9LGelHXDBhUUgACSABJIAEkAASeKYE/kPta3/b1D84ODZQSxfJTYNb94uYdrm7vN7Rr11vrc90PLDZSAAJIAEkgARePAG05kVK6X5yCLMbEfjvtG9Fx1JIEEV212MvbJDBrfs9/1bPz6QgCsnVPnthRnvnxGk8HTsZb3cU3nra88lsczub25yOQmjPqxfYWiSABJAAEnihBB5gfw2s+dM22fcZYlv9t1teFNmTsSrLb5r4RyzqN1vyPLKX1r6VFnqwx74/7RrssVf+xvAYCFyDW/eZRrRJ/2kxN0yd8aIocqcTjeZn9OQ4hnwZUeRD39rxcOXn8UTdb8Y+o6mITUUCSAAJPIjAQ+yvvjV/ev/GWq2dU7sRXuQOB5wKO0XXd83tXEQZlk2FzrdGO6sLtQdfmr6sAAAgAElEQVTdMRcE6XvwuU6+pVMUYLfbO0em1w9Og7FkOjjfoZYEqqIczt6pleNAjOG4TDJ0vjPleVupGjiDWhTtV2UxrJ2ize6Of+d/+YMJhuPZVPTyYOVjm0saqdeD+6xY+CPEfr6zquuy1A/4wvEMCDVR4Jhk5Nr/a3a4nZZl5+uPuxkR5NB8p9KDWdPvSwqiyF9MueWU5cyQEtrX6baujDr3p13S78qo0+l+YDiBgcA1uFVOH/JpjJ4Wd+PIwvf5kQbl1FQNrXoYnsitqk87LGrfJzk0T2SGYDOQABJAAk+dwP3tr5E1f0IW4Z/63pG1izgRbGrt63y3HORAxrGMpOeYs6/NKsFa2bkML8OZgwE39Ei/KNpEN/T9vEkLRBayybvA6VSnblGvOpdAUStqFtmrieascjOqRW8WlardRNHmt+NHjMBnUrFYgpFqj210kffVrz9shGKxaPY3e5cPLDQUhL9amr5eQE6BZZIphiWdFUX2dun9G2iY1T11KWFmjr44ZJlb0Tp/LVUXXX1XUKBed8jnRtq30kIrhW9O/hZ5fx2ts/7rSCrD81wmGTzd+tIlr2/srf+u+AMJlmdTwUAUNHsu5sHgVr7F+iVTrrcjy3s3sTTHc+no+foQvDKQnhaRTyeTGY5LR699816nhKPgQbLUtIxtHIWSLMcm7843pnrtkMzt3WVEUUz9GnhN2kB93EmLohBb67DRJu0stIluHdw8vgjGUiwv8Jno9d7cxOyKPxjPcGzq7mRzvKlKflANStg4Pg9EYqkM9CZytT3b75CaLWlfeckk3C21wOc2e+/c9mU0xfFsOhG+3vkkT+v8MiDPUK4dP0ECSAAJIAEkkCWgZUMp2mSpbv66dhhIEAt2sTnndWX9c1p2p0zzp7S/dOugnr1TDk3WmnPRQAA8p+nI2fZkq+R6U7mErK6JC04UubNJV1YPafXLIIulsXdh+/D6LgHml4kFtjzVZTv4LA2fT8GnybMsyFyF39dcN3bEiqIQWfPWmG3NoycZURTiG15JWhBL7WhfjQqimNodsgB23aJMlKNx/oYVRTa8O+ZptUjaQMmKUhdF1XTPr417mt5Y6IqaT9sJAVo2WguVGtWiJxV0a3/TvXASZ+IXi+0gcmyW2rp/yBC8al+ESA7u7HN9Ick3Paugy7nb+S5noVzJal8huNhZQdFmR5Nn8w4EMLPrIeW3rQAu+OFD8x2S69fd9wu6Bz/s/of7hIYaaV/pq4xzTt/cRdGXG9uaF0PpZDQUCkXSRLYnfX3gXq3p245BswQ2lUhKSwFZ+xrcUg6AXsmOhpkLUKmiyKUT8TQb3/T+Q+W0ryhw6Xh2dcGeTDTB2wTls0dVNS/cgBDnUuHgXRLmLHs5115J0fTwAZmh65022kRVdW9C+HB8w/uPfhZZcENLYikoi/xwqUSa/CHcrfZC28opgUlEs83O+MdIbEZW+3LJSCgQDN0ez7ylaZN7GCS5yCfDV2dXwVjy8CNZNRbOJNWzoaSK10gACSABJPCSCejYUGKnyBtqnkmmie+Nj2x/tFl07E5WoZYyf0r7m8tSbO+UNktOJvJsMp7KEIGT9o+BwDUQspROvwyyyBVJOoWNr3cUvItXtqro2uqZnR/31vV8J2ovH/Pwhrygz73Zt34+5kRRCC8155Sr3bMaF0QhtflvNjZAryiw+IwoCsz1oc+3v7ex+m2go7ZC2ZKiovJiwDmwkRBEIbHmqZI+1K1FWaDyWrd221sSrCzyobl3xAltqfOsnZ1fBSKMIPIJ/7f3oOmVv3Tb1DXBsNqrWAPIadTa10TRlZ5tUDrc+SicXuDo88FiIhmLs6KQ3BmiKdrcMHXKikI8CkIzm0wuTVmv1rWR9u19B2G+xb+974p2klmsJouDqq53Nn/aiIFcXHpvN9dPnEA3Y5sf6yoo+lXPKmh44vc1uKUiBcsUjZJN7mHin2X8Mx0UrDPsr+0EvfIBo9zd0BSROxnPu4SlbXDVo/sQRHs71w6z4U3vWlgQs3O0+vMeiN/IYrfdZOtdgr6QSWOQRVmprWMWngAh+KOrknI0LsAffGixkaZNZZaQb/YYePVVT2x2UCtaiJOfvxhvJksf2iaHCpU76oWQtWYGpkECSAAJIIG/k4CeDa0eJRYwuTfaVElZrZ51eCnP30632LTtTpnmT5lMeV1g75SWKJssteGtMlFWum8tSFoy02pTm0W131evXypLqs6iag9dYXOoZKWySfrXFW3E2Of9vlbXJHij+evZWuIKrfRspURRzPx6LwvrN15wyAqJrW61t7KoKPqVdxvyKn/46PZgfc7u6xVlsrcM7YGISZ9O1uQ0N+lFcS1689ygdnOdd2pzZ+3bh+zbdUvD6FnO/ccGf32uljsrFW75F5y0QupgoLbQHwwJlNrXYqfqe77sx2HJk/b1OmiTpX7YD/7902+T63FB5C7Hmpxty3eCmDmamNy+/7YoI+1brt/XUts5fxhkso5nMkDMhtde2b+ZBH+1rxd8qLQyqNfglmoA9Erug5WMmNn1qCeN2rlLSyst/nYBfKWK+V0pZVfOJFhbHBHvafWHPVhhBRc7XxOxLsTWO+20URZFySbK3r0FURKJ9f5KedUiJDY6reWXoG626omVpa2tcwZegIgil7jaWxosWALqP58qtpgMCSABJIAEXiSBrEUrsqHy5zt90nFMdNcCuKy4/ZFqk6bdKc/8Ke2v6ppS2zvlWKhKpk3W3iUQQqxv0GmgfeX2F2kDlSU10r4Ps5JFUhK0L3i+dLWvu9+XEkUhutZPXgvLxp2ii4tyfAUvIh9YanPZK+wNPT8haiArbICYTlHO7skT2ATGXC93Fm3TKqol3wA1AWup2gszVtir3X0L/hTUvPupJl+apf7TMThuQ8vdr5QDnbuW433V0ixzOd8JiCytkxDYy+2N1DYuBHhRuPOt76cEIbH13t0Hc0PzgK9c4UUXRtq3zHjf154tqJe5Wp0Y9gzO+CAkQ9a+CoVaqH11buVJUXSpknf6C45LUz8t1KcDMmO+Q0i14lZWefMh3+LCzLz8OzfcQEqj/oVNg0JodXwtKohCeLnnFUUbZVGUbKLsnesw25IbXtC+RGQLyc0ua/kl0KpmO8heNyE8rz7nwexq/zDvO4tJ76aiax+qldzwGgkgASSABJCAHgGwaGCCC22orB3lz+nu7zntS9Eadqc886e0v6prSm3vlAJFVTJtspEDTEX218cqk32IvP2OLHbZTJRKyOr1yyBLQXv0iBl/Xiwl3wwSB7q8Acs6cqSKecgGEkR/9CiPLAAdWVwUPXKozFvRvRoBkbXdI3lVNYty9c5fgxcv7p9t0drfX1yLXgdL1K4csvy16wMc7SCEl7pzTnRz3ThIX/52ulW1Sy9fb077ChybYZKx0NnBxsRAKyUVm52Kmc0PdoilhqBViPy8XeiolM+4gLmRb0OhKC+4ZaR9TRRdxjkPVuc4uLn5y5lqS06bg/bNxnqL6aPJttdqv6/BLUX7DEomEIXUwXgriRqxvq5yAmL106ISkYpb2TEQUkfTnTR5EVBR1eB0yU54e+8SzCyOg17dTLXAOBllUZRsoH3LLkH9b4HVu0belOyNkDNQaBt0k3bb3eSBsb4dOoB4mNQmSG0FOrxGAkgACSABJKBNIGePCm1oDQkIFOSYh3455qHVpm13yjN/KtOsyqK2d0orpkrmcI8egNuXuxxrtJqsvT9IPOPZdHOlWvvq9ks/i6ptygbc57pYSprrJ+AVvXC30l9ttjaN+IkS3czudbONgHgTwkst6qgATe1b8Y4EE/OBBdgfVtW0cAN+35tvdUS9aBVV0++D4IKkf6q+wD8od6q4wXr6waB2c61nciMb82Cubn/XVis5dF+9/fyLjJbySFnbZyJ9A8QXKTdDVaky5qE4gaSFhMRKr91EuXrA4yqKGf9wvdVkaZm4Apdwdj9fcV6tT0poXwg3LnW+76vulTC0go1enxwcXYRAj4P2NVGu9uUQif7gmUQ0miRx89lzHgxu5Z9V/ZLdnT/D0k4y2OuWyrDSeRmqp0X9UKluuTtWpYaJPJOMJzOcoDz311Y/B3OLgB1zZreO6mdRlazr9zVRZZagbjZV82EXXh6IPBOLxFJJX5+drmhfDPJs4i54fROKg+eXu5xtzYX+qCaT1pBjAiSABJAAEnjZBHRsKFXV8v1WvddNiPqG7BYdu1Om+VMmU16X9PvCTvlYRD4XK7zupcGoVbUT16cosslYVDoRVj7nQbdfulnU7XnYrNCSku6u9QgICT6Tkva9M+djLWSvFISuggs0sNCRc4vm6tUoytIweEhkAJe6u0vC6AgJ3xCJ99Uqylw7BhvrRIGJ34XCYen3duuTVaEHimsxN82SKI3AbJvaL6tbu2qvm/XzEQunDCSisaS0MVGI73hqZJci5eiBgGchvt6vHfBQEO+raGqWTNbZH13shuZVtIytHx755nrh+LNsnDF/Pk0ONijOq/VJae1roui2Jtj01tZUtMUtW6KrYXT9KJhgeAFOJE5Erk93Pkv46Lp3E5tHgTjDCTzLxO9u/DuTjdJCx+BWvqFGJbdPyiUz8dvjmSZruX5fQEnXto2vH97G0pwAZ6QFz38OK6jVjOySs81+erIbMI2yqJ4cA+2rX6mqhALtS5tr+qf2bmIZXuCZ2M2Gp9b6qmNm7zqSZHlB4FLR693FwRqdtV3uccILJIAEkAASQAJ5AnSdhg0FJVHbNrHpD6dYMI1XvoUBN9mxo213VMZL3/wpkymvDbQv3Tq0dXIZjqfJ4aHx4OnadF9VbsOWo21g9fg2AXaRY5Lh2/Odb/1EFtMmvX7pZVG3J88nr0Py/ji9u8VSElLamvoWD67jcOBq+GL7S1eN5KIyv50kAbzab/+1i6pqHyT95bhMPHD0fahFOidBs6isp5b473L/4fxf7VlHHnSnuBZz8xw4T/nLrw05wSp3XKf2N90Lp4kMOePMWuX9/us0EEmxPM8x8ZD/17feBkU4h6V5HA7nVToZ5cJznI39vu4vJIZV83u+aodA7GuvJfSG7FG0b1Efcp3BCySABJAAEkACSAAJIAEgYK2eBhnIX83WKMSonkQz/PwRi6JfebbIka5r7UVhGIZteK7yD7Xvcx25v3I6YqeQABJAAkgACfy1BOi2KYip5M4mFa+aH7YqeMSiKFvj9xAcnrDyXjcm4WGNfKq5UPui9kUCSAAJIAEkgASQwB8nkA1IYE+Lv/PsvnL/EYsyUTZb++DI3Mz7om9iu2+rnkt61L5/fK4/l6mA7UQCSAAJIAEkgASQwF9PALUval8kgASQABJAAkgACSCBl0IAte9LGem/fhmHHUQCSAAJIAEkgASQQEkCqH1R+yIBJIAEkAASQAJIAAm8FAJlad/GBtv+tKuxQX3i8VPdvldS72MCJIAEkAASQAJIAAkggZdJoCztW+q7LV7KQuFlThHsNRJAAkgACSABJIAE/hoCqH1RuCMBJIAEkAASQAJIAAm8FAKofV/KSP81yzXsCBJAAkgACSABJIAEHkwAtS9qXySABJAAEkACSAAJIIGXQgC170sZ6QcvjzAjEkACSAAJIAEkgAT+GgL/ofa1v23qHxwcG6ili+SmwS08TQIJIAEkgASQABJ4WQRc7i6vd/Rr11vrX6O3sCNPh8B/p30rOpZCgiiyux57ofY1uPU4pOydE6fxdOxkvN3xsALNNrezuc3pKGz5w0rDXEgACSABJIAEXgqBB5hgq+dnUhCF5Gqf/e+lZKv/dsuLInsyVmX5TXXxiEX9ZkueR/bS2rfSQg/22PenXYM99srfGB4DgWtw61Emvblh6owXRZE7nWg0P2Dp7BjyZUSRD31rxxOOn8e0fpRpg4UgASSABJDA7xN4iAl+TtrXau2c2o3wInc44FSYSLq+a27nIsqwbCp0vjXaWV0oP+iOuSBI34PPdfItnaIk3WKp7foZYEVRTG91WxUVUbRJVZTD2Tu1chyIMRyXSYbOd6Y8bytVysewFlXKXC06WUr2EUor2R7aZNA1ijZZ6gd84XgGZJwocEwycu3/NTvcTsuK9PXH3YwIIm2+U+nfrOn3JQVR5C+m3HLK3GQuoX2dbuvKqHN/2iX9row6ne4HvoAwELgGt3IN/b0Ld+PIwvf5kQblvNQe4NxIKy6qPu2wqH0VQMpHhymRABJAAkjgpRO4vwl+Jtr3n/rekbWLOFFlau3rfLcc5ECrsYwk2pizr80q91ll5zK8DGcOBtxgXvWLkoxvVdPcBQPqT0P7Kot61bkEilpRs8heTTRnlVupWjQMvX6W0n00UbRxe4i0M+oaJLA0fb2ALgksk0wxrCBRYG+X3r+BJ8vqnrqURoA5+uKQZW5F6/y1xCG6+q4o1NZI+1ZaaKXwzcnfIu+vo3XWfx1JZXieyySDp1tfuuT1jb313xV/IMHybCoYiIIwz8U8GNzK/TNBtw5t+S/D8RQLRccC/tWJXrvUB0tj78L24fVdIsPxHBMLbHmqrSZLdfPXtcNAIsOxqbuLzTmvS1obFTxFlpqWsY2jUJLl2OTd+caUXCbU63o7srx3E0tzPJeOnq8PwZsISftKtEVRuFtqgTbY7L1z25fRFMez6UT4eueTPLd+T6ZrzDwsEAkgASSABJDAoxLQMnagM3TMqKbJo1sHN48vgrEUywt8Jnq9Nzcxu+IPxokNPtkcb6oiFk1pgunWwY3j80AklgLjnY5cbc/2O4qkiUnKInLRQAA8p+nI2fZkq+R6U3mjrK6JC04UubNJV1b0aPXLIIumlsiJEOMLS8PnU/DD8iwLMlfh9zXXjR2xoihE1rw1Zlvz6ElGFIX4hvd1vkBH+2pUEMXU7pAFsOsWJQ261bsZ5kWOYbT8vuqiqJru+bVxT9MbC11R82k7IUDLRmuhnFK1aEww/SwGfXzTvXASZ+IXi+0wAfTbQ2gYdo3Mn6z2FYKLnRUUbXY0eTbvQAAzux4o39a2AiThhw/Nd0iuX3ffL+g5/LD7H4oCVo20r/RVxjmnb+6i6MuNbc2LoXQyGgqFImmizZO+PvCw1vRtx6BugU0lkowky7Pa1+CWQvxlZ7/IpePRhLR04kNrXpqi5QcjWzYbX++wVjUv3MC0EHkmmSYrAz6y/dFmkRNnI4cgGahwLhUO3iVhwrKXc+3kjYCjYSa7ruLSiXiajW96/6Fy2pdLRkKBYOj2eOYtTZvcwztpqCsZvjq7CsaShx/J0k1j6uTnuqJr+CESQAJIAAkggf8NAR1jR+mbUU2Tl7fRiVgKrCn54VKJNPlDuFvtBRuq1L65LEwimpB0QcY/VhSOKCcTeTYZT2WIikn7x0DgGghZSqdfBlnkiiSdQrTEPSy11TM7P+6t6/kOcbsK7fuGvIUXYj/fEQec9fMxJ4pCeKk5p/LtntW4IAqpzX9dWXWrU5SJos11I7sJQUj5v35eBVdxQcxDUVF5HeIc2EgIopBY81SVrCWfSz0n799H21sSxyzyobl3Kle3qag9JbomtUStfU0UXenZBv3FnY/CVkhHnw/WGclYnBWF5M4QTdHmhqlTVhTiUdCg2WSqYTXSvr3vIMy3+Lf3XVHsucVqsjio6npn86eNmCAK8aX3dnP9xAmMdmzzY10FRb/qWQWhTrSvwS0VfeUDQzmqvxyQBczFWKNV9SxRdIXNUVE9ugcrq+TeaFMlZbV61mGK8LfTLTZV4urRfQjevZ1rh6nwpnctLIjZCeoe3oU3Cox/poOCFaT9tZ0Mm+qxyeKraCHudP5ivJksMmibHK+j4qvqjno+4S0kgASQABJAAv8DAnrGTt+Maps8pY22dcyCABSCP7oqKUfjAvzBhxYbaS3tm3VFubtBMYjcyVjuVXWWRrbk1Ia3ykRZ6b61IDHoM602I+2r1y+VEVe7ipVdkLTE/S11RRvpbV77Wl2T4I3mr2driTe60rOVEkUx8+u9HKf7xgsOWSGx1a12SRYVRaJd95OCEP81VF8pnRmg1r56RZnsLUN7IMjSp5M1Oc1NeqdRS6leF2Ux6qO5zju1ubP27YNTWW9xeyz1A4Zdy04Gpfa12Kn6ni/7cVgNpX29DuAz7AfX/+m3yfW4IHKXY03OtuU7QcwcTUxu62zWMtK+5fp9LbWd84dBJutdJss+ZsNrr+zfTIKS9PXaQA4qg3oNbqn+FVBPSpONbPwU2V8fq1RyloxZZR8sb8TMTp90jgTdtQBam9sfqVYmzibLLk/l/3FHH920XMKuRz0X1U+aLG1tnTOSl5lLXO0tDXbUVpSaOqquYWIkgASQABJAAv8LAnrGTv5cy4xqmjyVjbZ3b6VFUUis91fKnjkhsdFpNdC+tOQQ5W8X4G2qEoWqZNpk7V0CtcP6Bp1qi6wSsnL7jY24KotSHqgaoGxMqWtNXQjSX1f7uvt9KVEUomv94BdX/BYVRdMftqOCkDr47LDIOkqlfXWKcnZPnsBOL+Z6ubNom1ZxLco2aF4XZQHta9hHVb9MWu0p1TW5BDneV1Zs0v8zl/OdQM/SOgmBvdzeSG3jQoAXhTvf+n5KEBJb7919MG20Tgsx0r5lxvu+9mxB4czV6sSwZ3DGB3EXsvYFMZqdhYXaV+eWCrrB7C+4ReWU605/Vvt2f9fUvpIi50O+xYWZefl3brjBToMiJ+o5W0JuOjrIXjchPK8+58Hsav8w7zuLSXEW0bUP1arG57LjBRJAAkgACSCBJ0NAz9jJ2lHLjFK0hslTGWJ75zqY0OSGF7Qv8UYJyc0uQ+1LfToA/2jge4Ox9lV6vuxD5BV3ZLHLZqJUQlavXyb9LH9G+9JvBsl7aHmXlXXkSBXz4B7eYUD6/uhRnksAUq9IYjq9e0RjqHWfyPk/1RBpqFmUq3f+GiqI+2dbtLb4F9Uiq0z9KVqcpUQflUVpt6dU13Il5LSvwLEZJhkLnR1sTAy0UlICWhJ7mc0PdghBhpBWiEe9XeiolI+/AIdprjRyYaR9TRRdxjkPVuf4Gczdy5lqS06Ag/bNxkGL6aPJttdqv6/BLVX7ss9Vat3jMFFWS+9P2L3I38JbD9UjR4athgQz5GIe+uWYB3Vic934MUSGpI6mO2nysFVUNThdsAUyd+tgvJUEpFtfVznBm2v1rpHXFXsj5CAS2gYf0m67m8xa69uhA4g8SW3CA69qP/6JBJAAEkACSOCJEdA1dgZmVNPkqQzxn9O+DvfoAbh9uUsS8dj7gwRKnE03V6q1r26/rLpZNLTE/QerWBea6yfgPbxwt9JfbbY2jfiJEt3M7nWzjYBCE8JLLXIIRE45FBXl7F6+vLq5yf6GyB4lIRW+Wutzgd7QKqqm3wfxFEn/VH3R1ylIFRXVUlq6FGcx6KO51jO5kYt50GtPia7lmMjnPGT3uuU/l0ZKUmhCYqXXbqJcPeCMFcWMf7jearK0TFyRQGxpq59iZEtoX4gpLnW+76vulTBUxUavTw6OLkIgukH7mihX+3KIBLzzTCIaTZLtZ9m9bga3FGMgPVdk91osmiBRFULq+CtEu6seOSlLVcv3W/VeNyHqG7IXJnZ3rEqtgj1x8WSGE3Ln/ro7f4alCH3Y65bKsIEFshit+bCbgi7yTCwSSyV9fXa6on0xyLOJu+D1TSgOtXKXs60Y8ls4KRVTDW8hASSABJDA0yCgZ+x0zai2yVMZ4j+gfWE3eyyS3RLHh9fJTneqqn01QoIs2WQsKh37Kp/zoNsv3SyqLijkx32MV7EuNFHurvUI7PDnMylp4x9zPtZC9kpBfCocmxpY6CgOldQqKt+q7PvzXMyDVlHm2jHYWCcKTPwuFA5Lv7dbn6yKHhXXYm6aJREMgdk29e40OVdxFv0+qva6ldOefFhsrmtyvfC8KON9lZ9L11mnfnSxG1pe0TK2fnjkm+uF488sDaPEN3s+3VQgz0prXxNFtzXBpre2pqItbtlGuBpG14+CCYYX4NjhROT6dOezhI+uezexeRSIM5zAs0z87sa/M9koLXQMbuX6ltW+0iknHEdOOWkhax0t7QvHI7dNbPrDKRYOKLvyLQy4SahxYWK6tm18/fA2luYESBg8/zksc6Hr2iflBjPx2+OZJtJac03/1N5NLMMLPBO72fDUWl91zOxdR5IsLwhcKnq9uzhYo7PAehr/0uUfHmwPEkACSAAJvHQCOsZOz4xqmzyVcHxU7QsnnJ5chuNpcnpaPHi6Nt1XlYuLcLQNrB7fJsAkc0wyfHu+860fDoCCV7LaRtykl0XVhQcaSi1dSJtsTX2LB9fxDMelwxfbX7pqJPllfjsJxwDwt9OtGipTuyhZFBVoX82iKt6RQyfUMRKc/yv4AXPlFG7Oo83Nc+Ah5S+/Nmh/h4N2w3T6+KZ74TSRkc44K6c9v6V93V9I3Izmt4/VDsE6QGOZ8SjaNw80R/ZxLh5jUkIwQ+0YibW5W+jUmGqP01R5SmFpSAAJIAEkgASQABLQImCtnoYvYuCvZmsUYlQrZUll9YhF0a88W/Ad0vG19qIwjAe1rWTj/8cJ/nbtS3dMX8Ti5AxBIV54mMhfOaLYKSSABJAAEkACSOApEqDbpm4gAvVsUn7b/GDH2SMWRdkav4fghISV968e3J5nlfFv175273Ikw/OZ6NXOWDeew/A/Xmk9xX+JntXjigCRABJAAkjg+RLIBgCwp5/rtUMLyu/aIxZlomy29sGRuZn3v92q8tv/v035tLUv6hIkgASQABJAAkgACSABJPB4BFD7oisUCSABJIAEkAASQAJI4KUQQO37Ukb6f/t+AWtHAkgACSABJIAEkMBTIIDaF7UvEkACSAAJIAEkgASQwEshUJb2bWyw7U+7GhvwgLCXMi2ewrIM24AEkAASQAJIAAkggUcnUJb2LfXdFqgIkQASQAJIAAkgASSABJDAMyCA2vcZDNKjr3iwQCSABA17t3UAACAASURBVJAAEkACSAAJvEwCqH1R+yIBJIAEkAASQAJIAAm8FAKofV/KSL/MtR32GgkgASSABJAAEkACSgKofVH7IgEkgASQABJAAkgACbwUAk9G+9rfNvUPDo4N1NIvBb1yCYLXSAAJIAEkgASQgEzA5e7yeke/dr393e/+lQtEaYEE8gSeivat6FgKCaLI7nrs+cYVT1mzze1sbnM6jNIU55I++Z28emX+p5/bOydO4+nYyXi742H1PnsCj/d9hg8DiLmQABJAAkjg3gQeYLysnp9JQRSSq332e1f3bCyFrf7bLS+K7MlYleUhqkZB5hGL+s2WPI/spbVvpYUe7LHvT7sGe+yVvzs8ulDK0r6OIV9GFPnQt/b7nzT8O3mfxoNkbpg640VR5E4nGs0PaNLzJ6B4znUnEqZBAkgACSCBJ0XgIcbrOWlfq7VzajfCi9zhgFNhm+j6rrmdiyjDsqnQ+dZoZ3Wh4aY75oIgfQ8+18m3dIqSLL6ltutngBVFMb3VbVVURNEmVVEOZ+/UynEgxnBcJhk635nyvK1UaQbDWlQpoZY3rZ8XjwLxDMdlEgH/xkhxR6Qsuv0t2R7SF0v9gC8cz4DKEQWOSUau/b9mh9tpWXa+/ribEUEBzncq3X81/b6kIIr8xZRbTlnO5C+hfZ1u68qoc3/aJf2ujDqd7j/yAqIs7Vv1aYd9qPb9nbxFU6Ecsn8gjbtxZOH7/EiD8ukqv21/AwH1015+3zElEkACSAAJ/M8I3N94PRPt+09978jaRZwINrX2db5bDnIg41hG0nPM2ddmlduusnMZXnczBwNuMG36RUmGr6pp7oIBYaihfZVFvepcAkWtqFlkryaas8qtVC2FRtZc/2U/JYDXLRW9S7JwlbkYbyl2xuv217g9eaVkafp6Ae0WWCaZYkhNoiiyt0vv38C8tbqnLiXMzNEXhyxzK1rnr6XORlff3Sdi1kj7VlpopfDNyd9C769KVFldExecKHJnky4LbaJbh7b8l+F4iuV5LhML+Fcneu259tlb/13xBxIsz6aCgSgo+mzMg6N11n8dSWUgUzJ4uvWliyyYpIqksRdF4W6pRSrKUtMytnEUSrIcm7w735hSVJF71O+dV6cNdOvg5vFFMJZieYHPRK/35iZmV/zBeIZjU3cnm+NNVYVTxwiCpbF3Yfvw+i6R4XiOiQW2PNVWk6W6+evaYSBBirzYnPO6pBVewb8FRr12vR1Z3ruJpTmeS0fP14fgfYo2AZu9d277MprieDadCF/vfJKfkPyMzDHECySABJAAEvhLCGiZCYrWNUCUlrEo0yAqjRfdOrhxfB6IxFJg9tKRq+3ZfkdOFeTYSllELhoIgOc0HTnbnmyVXG8GkgOya/XLIIumFc41w/jC0vD5FPywPMuCzFX4fc11Y0esKAqRNW+N2dY8epIRRSG+4X2dL9DRvhoVRDG1O2QB7LpFSbbY6t0M8yLHMFp+X3VRVE33/Nq4p+mNha6o+bSdEKBlo7VQTqlaiuy+tWb6ihdF/maxyU6b6Iahw5QgCrG1/lcU/aZ74STOxC8W26tow/7qtydPgzZlta8QXOysoGizo8mzeQdSm9n1gKyyta0ALvjhQ/MdkuvX3fcLugc/7P6H+0TDGmlf6auMc07f3EXhlxsbzKrs9BW5dDyakNY+fGjNS0OHa/q2Y9BogU0lkoyk57Pa19a8GEono6FQKJIm64Ckr8+ZU29cMhIKBEO3xzNv4YGpal64Ad3MpcLBuyRMQPZyrl3t4X9AXp025HuUiKWgMvLDpRJp8odwt9r7j3I4KdqUz1IEQb4lMWDj6x1W6A5MbpFnkmmy9OEj2x9tFrmcbPyTQa8dDTPZ1SGXTsTTbHzTC03Kal81PffwThrqSoavzq6CseThR7IALXoAigR9QR/xTySABJAAEng2BHTMBLGn2gZI01jIJoxLGxpEKZlkvHJZmEQ0IVn+jH+sKJBPTibybDKeyhCBk/aPgU/NQHJQOv0yyCJXpLDC97B3Vs/s/Li3ruc7xO0qtO8b8oJeiP18R1xX1s/HnCgK4aXmnMq3e1bjgiikNv91ZdWtTlEmijbXjewmBCHl//p5FVzFBTEPRUXlLbhzYCMhiEJizVNVspZ8rvw0tjV9D0FYhv8rcbVa7V/8nCjylzM1FttbEqws8qG5d7bS/ZXKLGpPvlK19jVRdKVnG+QJdz4K+x0dfT5YTCRjcVYUkjtDNEWbG6ZOWVGIR0FKZpOVO3ZG2rf3HYT5Fv/2vlO7u0vOqqxcc1R/OSArkIuxRqu5fuIE5kJs82NdBUW/6lkFhZ/b62axmiwOqrre2fxpIyaIQnzpvV094+UeVo/uQxDw7Vw7DO2b3rUwrEqyEy6PVdXI8vJqtkH5DNs6ZmG+C8EfXZWUo3EB/uBDi425yS0NtjILpYKQlcVyOH+FzVFRPboH68Pk3mhTJWW1etZhovO30y02VWKDXruHd+G9COOf6aDgvYD9tZ28Z9EiUNFC3hfwF+PNZBVF2+SoIxlR/hnAT5AAEkACSOCvIKBnJvQNkLaxUFo3A4OoTKa8ptzdYOBF7mQs9xY7a7WzyVIb3ioTZaX71oLEFM602tRKQP2qWa9fKvOnzqJqDw1W+P5Wr6KNmP+89rW6JuEFOH89W0vezld6tlIQLfDrvRyn+8YLDlkhsdWt9lYWFUWbLPUD+0lBiP8aqq+UTgVQa1+9okz2lqE90E/p08katSzRqEWn1//0rIbBA8nFb88Oj08vyRt6Pvi9kabNdd6pzZ21bx+cdOn+wrDqtwfuKrWvxU7V93zZj8OSJ+3rdQCEYVDd3Om3yfW4IHKXY03OtuU7QcwcTUxu338nmJH2fTS/r6ztTDayc1Nkf32squzfTIJC8/Xa4J8SVbyvpbZz/jDIZD3ZxLHKbHi1tW9lH6xqCn+4o0L/pWrqZ//xMsqr1wbVc2Lv3kqLopBY76+U1yhCYqNTntzqZ1jer6qAoJKzZOZlm5TZ6ZPOu6C7FmBNwO2PVCsTG7RcLmHXo36i1P9eyP982zpnJC8zl7jaWxrsqH3AY5/tps6Tg3eRABJAAkjgSRHQMxPy51oGSNNYlGkQlcmU1xQtOUT52wXyFlc2TLn3pTnxYO1dAiHE+gadalumErJy+43NnyqL0rA+eIyKpCRoQfCF6Wpfd78vJYpCdK2/4EVxUVE0/WE7Kgipg88Oi6yUVNpXpyhn9+QJbAJjrpc7i7ZpFdei33dHzcfFnatIkuX5TCyaJEL4nAS15o1+yf7SJsP2QO1yvK9azmUu5zsBkaV1EgJ7ub2R2saFAC8Kd771/ZQgJLbeu/tgbuSmSr5ViulU9KGR9i033tc+RFzRkcUum4kynFWK6QvaVxDFTHaOKrXva88WdIS5Wp0Y9gzO+CDGg2hfB9nrJoTnFec8ZDU0H/ItLszMy79zww0FZ6XdM69uG1TPrb1zHTqR3PCC9iUqXEhudhlrXwWE4qdOfnR3+rPat/u7pvaVVg5avZbByiXkhlyLALxMcbV/mPedxaTXXNG1D9X6z4DRTMJcSAAJIAEk8CwI6JkJIwOkaSzKNIjKZMpriqY+HYB/NPC9Qe2YLDSOSp+RvuTQ65dJP0thRTmLeZ+LYin5ZpC8wZU3YFlHjlQxD+7hHQak748e5ZEFYGGLinJ694h1VktCkfN/qiEWWbMoV+/8NVQQ98+2aG2OL6qlPOPu6P0BgkQIL/cUhJWW6G+p9sBTk9O+AsdmmGQsdHawMTHQSkkDQUtaKLP5wQ6xxRDnCuGatwsdlfIZF78+ZuM6ynkGjbSviaLLOufB2vuDvLU4m26u1Na+qXWPw0RZLb0/YfshfzvTastGRovpo8m21yq/r9U5fiYFlFRbcmKfaF+rd428NtgbIQeC0DYIiK4bP4YgkNTRdCdNHp6Kqganq+gwivvlNWiD8tDBe2lfDQgaT10NCeHIxTz0yzEPraqYB4Ne524djLeSsHrr6yoneHO1CJhot91Nnj3r26EDCK1JbYKOL2fqYBokgASQABJ4jgR0zYSBAdI0Fiohq28QlcmU1+VqX4d79ADcvtzlWKPVpC85dPuln0XDCt/fAhZLSXP9BLyiF+5W+qvN1qYRP1Gim9m9brYREG9CeKmlwFOmpX27ly+vbm6yvyGyp0lIha/W+lxgqbWKqun3QTxF0j9VX+AElLtW3OBS09hmaR6Y9ZMghMzFGDmwwlzrmdyQYh5ow/6Wbg/Urox5kNuZb5UkYITESq/dRLl6wEEqihn/cL3VZGmZgP148n6+4rxan5TQvhBuXPp836r21QiJO2CTsah0PFv2nAdplpONW7FogkQxCKnjrxCuTrnal0NkfxjPJKJR6ewMEu/7qnslDMWx0euTg6OLEAh8on2pmg+75LANnolFYqmkjwQGuDtWpXJgd1g8meEEzRNw75dXtw2q51b/UVeyNoCgKk1SnFUt32/VWw2EqG/IXrjXzaDX7s6fYWnjHex1S2XYwAJZUmsQqGhfDPJs4i54fROKQ63c5WwrhvzmnzflOOI1EkACSOAvIaBnJnQNkLaxUJkwfYOoTKa8Lql9YS98LJLdEseH16WN8vqSg9LtVwmVcs835gU2QktKurvWIxAfwGdS0k545nxMOhoMQlfhuNbAQkdxkKFWUXlvVPYNeS7mQasoc+0YbKwTBSZ+FwqHpd/brU9WxdQtrsXcNEuiNAKzbaqD2EyWun9/haIp+cyxTHBtsJE0W7XXzUTp9rec9pTWvlnPfXSxG5pX0TK2fnjkm+uF488sDaPEX3o+3VS+eimtfU0U3dYEm97amtRb3BQcTY62gdXj20SGF3iOSYZvz3e+9cNhDtIszx5TwnHkmJIWsliBrtJ17yY2jwJxhhN4lonf3fh3JhthGeRqGF0/CiYYXoAjjhOR69Odz2Q8zDX9U3s3MaiHid1seGqJf5eubRtfP7yNpTkBzvQKnv8c1kBwz7w6bVA9t/qPuhKOAQRVafL8ttS2TWz6wykWOnPlWxhwk5DowuWpQa/puvZJGSwTvz2eaSKLy2ICrzpm9q4hjkcQuFT0endxsEZnmVjwqOOfSAAJIAEk8IwJ6JgJk44B0jYWKhOmbxCVyZTXBtoXDkg9uQzH0+Q40XjwdG26ryoXF6EnOYiu0DR/JVTK42tf2mRr6ls8uIbvhEiHL7a/dNVIysz8dhI2+vO3061qlUlkQ7EqVc6xAu2rWVTFO3LohDpGgvN/BQ+arEyKazE3z5HDzC6/NhS8NncPHLAckwhd+zd/jHXU54M03nQvnCYy0hlnULJOf8tpD2Q39vu6v5DgGM2vNqsdArGvvZbIdbng4pG0rwy0oPRCuaaX7O/+XP2oFyIqu+/m2jESMXS30KnxwDy4WMyIBJAAEkACSAAJ/CcErNXT8B0N/NVsjUKMPqjqRyyKfuXZgu+Qjq+1F4VhPKhteZ39NLOj9v3zI/T72pfumL6IxclJiEK88EiUpzmxsFVIAAkgASSABJCAigDdNnUDwalnkxpvp1UpS/rFHrEoytYI5/gKdyvvX5Ws969IgNr3OWhfu3c5kuH5TPRqZ6wbz2H480P2Vzzb9/tnFLuMBJAAEkACf5hANgCAPf1cXxBacG+79ohFmSibrX1wZG7m/W+36rnYnT+sff/wNHoulLGdSAAJIAEkgASQABJAAk+BAGrfey+2nsKwYRuQABJAAkgACSABJIAEHkAAtS9qXySABJAAEkACSAAJIIGXQgC170sZ6QcsjDALEkACSAAJIAEkgAT+MgJlad/GBtv+tKuxAY/WQqGMBJAAEkACSAAJIAEk8IwJlKV9S3+3Be5pQwJIAAkgASSABJAAEkACT54Aat9nvHD5y95BYHeQABJAAkgACSABJPCnCaD2Re2LBJAAEkACSAAJIAEk8FIIoPZ9KSP9p1dRWD4SQAJIAAkgASSABJ4+AdS+qH2RABJAAkgACSABJIAEXgqB/1D72t829Q8Ojg3U0kVwDW4pI6bLTKbMgtdIAAkgASSABJDAMyPgcnd5vaNfu97+7nf/Pn0fJLbwvyfw32nfio6lkCCK7K7HXqh9DW4piZSZTJnliVybbW5nc5vTUdhxzeZpJLZ3TpzG07GT8XaHZhb8EAkgASSABJDAEyXwABNm9fxMCqKQXO2zP9FOPcJawlb/7ZYXRfZkrMpSljzQR/GIRf1mS55H9tLat9JCD/bY96ddgz32yt8YHgPlanBLOdJlJlNmeRLXjiFfRhT50Lf2Mg5I1kpsbpg640VR5E4nGs2P8Lw9j6n5JMYOaSMBJIAEkMDvEXiICXtO2tdq7ZzajfAidzjgVJhXur5rbuciyrBsKnS+NdpZXWi+6Y65IEjfg8918i2doiT+ltqunwFWFMX0VrdVURFFm1RFOZy9UyvHgRjDcZlk6HxnyvO2UjWChrWoUpJaXJ2ffvpvExmOy8Ruj358bqeK00AbSvXXoP0UbbLUD/jC8QxoHVHgmGTk2v9rdridlmXn64+7GRGk1Hyn0glY0+9LCqLIX0y55ZTliIcS2tfptq6MOvenXdLvyqjT6X7gCwgD5WpwS9mHMpMpszyJ66pPO2zZ2lc7sbtxZOH7/EiD8rnSnHz4IRJAAkgACSCBp0Xg/ibsmWjff+p7R9Yu4kSwqbWv891ykAMZxzKSnmPOvjar/F+VncvwMpw5GHCDxNQvSpK5VU1zFwwIQw3tqyzqVecSKGpFzSJ7NdGcVW6lalFLapCkTZ9PoVo+HbkOxEB9CqmdTzmxnktfsr9G7QepZmn6egHtFlgmmWJYQeoqe7v0/g1MZqt76lLCzBx9ccgyt6J1/lrqbHT1XXE8rf5TYKR9Ky20Uvjm5G+R99fROuu/jqQyPM9lksHTrS9d8vrG3vrvij+QYHk2FQxEgVou5sHglrK5Bsks1c1f1w4DiQzHpu4uNue8rvxKyPV2ZHnvJpbmeC4dPV8fghcKKllpdU1ccKLInU26LLSJbh3cPL4IxlIsL/CZ6PXe3MTsij8YJ0WfbI43VckDbKlpGds4CiVZjk3enW9M9dol3HTr4MbxeSASS2WgzsjV9my/Q7ol1SuNoygKd0st8LkONM3EBf8K6HXcoA1KpHiNBJAAEkACL52AlpUECaJnWG323rnty2iK49l0Iny986nZWq7pVJqwMu2UlEXkooEAeE7TkbPtyVbJ9WZgymFMtfplkMXS2LuwfXh9lwDTzcQCW57qsh18lobPp+CH5VkWZK7C72uuGztiRVGIrHlrzLbm0ZOMKArxDe/r/KxztK9GBVFM7Q5ZALtuUZILz+rdDPMixzBafl91UVRN9/zauKfpjYWuqPm0nRCgZaO1RF+WqKXYXWhunDnnQSqN1ttMVNW7lTtBFDO/Bl5R9JvuhZM4E79YbK+iS/bXsP1EX2W1rxBc7KygaLOjybMJdYnMrgcEmK1tBXDBDx+a75Bcv+6+X9A9+GH3P5QXVir10Uj7Sl9lnHP65i6KvtzY1rwYSiejoVAokiayPenrAw9lTd92DJolsKlEkpEUe1b7GtySVSZMEYNkVc0LNzAJRJ5JpskSgY9sf7TBasDRMJNdHnHpRDzNxje9/1CG2jf7mIlcOhFLwRwmP1wqkSZ/CHervVACBZWCgudS4eBdEu6xl3Pt8DYhVwKTiCakvmb8YyREIStnuWQkFAiGbo9n3oL21YGmmVj5Dwdpg3bHDdqQf96UePEaCSABJIAEXiABHStpYF/cwztpMLjJ8NXZVTCWPPzoVhg+Y9OpNGFl2ik5mcizyXgqQwRO2j8GvioDIfsb1l/SKWx8vSPvRCs9Maye2flxb13Pd4jbVWjfN+QFvRD7+Y6UZv18zImiEF5qljxiFG2ye1bjgiikNv91ZdWtTlEmijbXjewmBCHl//p5FVzFBTEPRUXlJaxzYCMhiEJizVNVspZ8LqVgqB7dB90eWf/4ttJSP7CfEkTuYrrFTNnekmBlkQ/NvbMZ97dE+6Xq1NrXRNGVnm2Ycdz5KOx3dPT5YDGRjMVZUUjuDNEUbW6YOmVFIR4FoZlNVnrIpG4aad/edxDmW/zb+64o9txiNVkcVHW9s/nTRkwQhfjSe7u5fuIERju2+bGugqJf9ayChifa1+CWkr5RsurRPRiP5N5oUyVltXrWYULwt9MtNpN7eBc89Ix/poMCKWx/bScvGgweGOWTaeuYhVksBH90VVKOxgX4gw8tNtK0SZoE/O1cO0yjN71rYUHMTm5lCZS7GyiI3MkYeOZV9SoGRguadmJl4QYdVyYraINyKuM1EkACSAAJvGQCelZS375UtJCXy/zFeDNxudE2CFFVGh0D06lMprw2sFPZZKkNb5WJstJ9a0Fi4mdabWorqX6Fq9cvlRVWZ1G1h66wOSruPzEq2ohQyGtfq2sSXizz17O15O18pWcrJYK/9L0srN94wSErJLa61d7KoqJIIOx+UhDiv4bqK6UzA9TaV68ok71laA8EWfp0sianuUnvNGrR7bWjfuyIeDHZeCzFi0LiaLzWBkrGXOed2txZ+/bBSRv2FxSzUfuzqk+pfS12qr7ny34cljxpX68DIAz74VX96bfJ9bggcpdjTc625TtBzBxNTG6Xv6VK7qaR9i3X72up7Zw/DDJZxzPxmDIbXntl/2YSJKivl2BSRusa3FJqX4NklX2wmBEzO33SqRF01wIoa25/pFq+tetRTymjB0Y1++3dW2lRFBLr/ZXyykNIbHRa6WzJklM491/uKL/8lTelSos8/nYBXLyqp07WvjrQtBMrmif3TqPjqn+GKFrVBnm8lXjxGgkgASSABF4gAdmOFFpJ+XMt+2LrnJFetXKJq72lwY5a0IgK22SidE2nKpkqi76dUiczWXuXQAixvkGn2kqqhKzc/sJ+GWRRte2hhrJISoIWBK+ZrvZ19/tSoihE1/rJK2VZGFB0UVE0/WE7Kgipg88OC53VUSrtq1OUs3vyBDaBMdfLnUXbtIpr0X8KajqXrtOCkLg+Pg6lQedlAkueWnlzntRyo/6War/cdzneN6etyEXmcr4TEFlaJyGwl9sbqW1cCPCicOdb308JQmLrvbsP5oasvvQ7IldERtlI+5YZ7/vaswX1MlerE8OewRkfhGTI2hfkaXYWFmpfnVvKdoP21UkmT/Gd/qz27f6e077ZXPKt3Gy2DxGXeWSxy2aiVA+MevbbO9eh2uSGF7QvEdlCcrPLSme1OB/yLS7MzMu/c8MN9oJ/Amjq0wGs+QLfG2ja5CB73YTwvOKcBz1omomVzTPouDKZiVK3IQcBL5AAEkACSOBlE5Bta6GVNLIvFG12tX+Y953FpJi76NqHarXR0TWdqmRqUauylcpBUScz2ciRZyL762OVSd+U6/XLIIuqbcoG3Oe6WEq+GSRvpuUNWNaRI1XMg3t4hwHp+6NHeWQBiLOiopzePQJcLQlFzv+phog5zaJcvfPXUEHcP9uitUW+qBaVLlTKsFfd8MZeiG50VUEseNviDWgbya+nQKTf31LtzxWS074Cx2aYZCx0drAxMdCaPVOCljReZvODHWKLIfYUInBuFzoq5TMuYG7kSit1YaR9TRRdxjkPVuf4GbC4nKm25LQ5aN9s7LOYPppse03J6xUp5kEKA9e6pWy6QQmmGikGRY556JdjHlpt5rrxYwgLSR2Mt5K4cuvrKidZofb+IJEIZ9PNlQ/SvrmSj6Y7afIGoaKqwekicfHqB1X1PFu9a+Rtx94I2RpJ2yooXWgmjcRqYa3f8YJnWNWGUvNAiR2vkQASQAJI4C8mkLNlhVbSwL7QbrubCDXr26EDiMNMbXorVYbvz2lfh3v0ANy+3OVYo9Vk1TXluv3Sz1JgNx826MVS0lw/Aa/ohbuV/mqztWnET5ToZnavm20ExJsQXmqRQyBy9RYV5exevry6ucn+hsg+IyEVvlrrc4Fg1Sqqpt8H8RRJ/1R90dcpSBUV1aKrfemRQ6LaV9qgKKvt0z68Fo+stNG0udYzuSHFPND6/S3R/lzH5XMesnvd8p9L6kWSRkJipdduolw94HEVxYx/uN5qsrRMXJFoa2k/X3lqp4T2hXDjUuf7vupeCUMr2Oj1ycHRRQj0OGhfE+VqXw6RvWI8k4hGk2RDWnavm8Et5RgYJKtq+X6r3vIlRH1DdoitcXf+DEt71GCvWyrDBhbA/0pVta9GSGQGm4xFpWPksuc8lPkAU+6OValHsMMunsxwgnzmrqqEAp9rzYfdFNTLM7FILJX09dlpfWgaidUPp37HjdqgpIrXSAAJIAEk8JIJ6FpJPcNa0b4Y5NnEXfD6JhQH08tdzraaVUbnD2hf2Ckfi2S3j/PhdS8NykbflP+u9X/glNCSku6u9Qjs8OczKWnPPHM+1kL2SkHoKpx7GljoKI4t1ioq36rCmAetosy1Y7CxThSY+F0oHJZ+b7c+WRWisLgWc9MsidIIzLapDmIz133egxfhIhsPXl6Hk6RLweX3/6j3upko/f4q69WKV87KXGW8ryJL9m7W2R9d7IbmVbSMrR8e+eZ64fgzS8MoccCeTzepIzHy3AqVNEWX1r4mim5rgk1vbU1FW9yy7XM1jK4fBRMML8CJxInI9enOZwkfXfduYvMoEGc4gWeZ+N2Nf2eyUVroGNxSdtsgmaW2bWLTH06xcI7ZlW9hwE0Ci6GTdF37pFwvE789nmmSKnW0Dawe3yYyvMBzTDJ8e77zrR+epTIfYCi5tm18/fA2luYEqDZ4/nOY4FaVUKB9aXNN/9TeTQyqZWI3G55aq4nShaaRWF24Sa/j6mTo9y2e7vgJEkACSAAJAAE9K6ljX151zOxdR5IsLwhcKnq9uzhYUxjs96jal24d2jq5DMfT5ODRePB0bbqvKrdhS8+UG/RLL4vabj5sbhRLSSjH1tS3eHAdz3BcOnyx/aWrg9KbggAAET9JREFURlJm5reTcAwAfzvdqlKZUtXaRcmiqED7ahZV8Y4cOqGOkeD8X4lnMCsHi2sxN8+B85S//NpQeMTbm9aR74e3MYYXeDYRvtia8zqJoHrTvXCayEhnnBn0V4m0oP3KWyX8vu4vJJBU8zvCaodA7GuvJVRVyBhNj6R9jcS1XsX4ORJAAkgACSABJIAEXhIBa/U0fEcDfzVbQ46A+I2+P2JR9CvPFnyHdHytvSgM4zda+HTF4aP4fZ9u9/7KMcNOIQEkgASQABJAAs+PAN02dUO+K2LyHi/otbv5iEVRtsbvITg8YeX9K4VzVLvevyIBal8U7kgACSABJIAEkAAS+OMEsgEJ7Onn+sLQgvsKzUcsykTZbO2DI3Mz73+7Vfftxf8qPWrfPz7X/1dDi/UiASSABJAAEkACSAAJFBBA7YvaFwkgASSABJAAEkACSOClEEDt+1JGumDRg38iASSABJAAEkACSOAFEkDti9oXCSABJIAEkAASQAJI4KUQKEv7NjbY9qddjQ0aZ9G9wOUCdhkJIAEkgASQABJAAkjgmRIoS/uW+m6Ll7JQeKZjjM1GAkgACSABJIAEkAASkAig9kXhjgSQABJAAkgACSABJPBSCKD2fSkjjas9JIAEkAASQAJIAAkgAdS+qH2RABJAAkgACSABJIAEXgoB1L4vZaRxnYcEkAASQAJIAAkgASTw3LSvpabx49ex+YUPzXjoBKp2JIAEkAASQAJ/JQGXu8vrHf3a9fZ3v/sXdR4SKCbwGNrX3jlxGk/HTsbbHcUV5D9RJzPb3M7mNqdD8dCqE+QzUoo0Vs/PpCAKydU+u3YCZeL/+Frdfo0O/sftweqQABJAAkgACfzPCaiNY1m2+ynb+kfjaav/dsuLInsyVmVR6JyHlP+IRf1mS55H9tLat9JCD/bY96ddgz32Sq3hMTdMnfGiKHKnE41m/TFTJXMM+TKiyIe+tefdt6oEeuU84edB1X6tDpb1wOt1HD9HAkgACSABJPAMCaiMY5ntf8K2vsiUW62dU7sRXuQOB5wK5UfXd83tXEQZlk2FzrdGO6sLBRLdMRcE6XvwuU6+pVOUBM1S2/UzwIqimN7qtioqomiTqiiHs3dq5TgQYzgukwyd70x53laqsBvWokpJvx7chxrVP0Ls57uCBuRyaTWSHjnilCUI8eX3Re5LS/2ALxzPgJoUBY5JRq79v2aH22lZdr7+uJsRQTfOdyrdrDX9vqQgivzFlFtOWTRAalakqSW0r9NtXRl17k+7pN+VUafTXfwCwt04svB9fqRBOeo5EPkLRbKqTztsofY1UYoE+VzqRj/p50HRfu0Oqvui10f8HAkgASSABJDA30NAYRzL7NSTtvV5U/5Pfe/I2kWcCDa19nW+Ww6C4BNYRtJzzNlXdaxmZedySBBF5mDADQXqFyVVV9U0d8FICrJI+yqLetW5BIpaUbPIXk00Z5VbqVryXZMU5OsPG6FYLJr9TTCkZD6w0EAXpiTpNRtpdU9e8KLIpaKhcBh+QxcznXm/Z1aqWpq+QioAlkwxrCB1lb1dev8G5ozVPXUpYWaOvjhkmVvROn8tdTa6+k67SZrtpI20b6WFVgrfnPwt9P4q5yjdOrhxfB6IxFIZjufSkavt2X6H1CBlMkkaSl0TReFuqYWmTcoElKN11n8dSWV4nsskg6dbX7rImkmVprhLrrcjy3s3sTTUHT1fH8q+R7BUN39dOwwkMhyburvYnPO6pCUL3Tq4eXwRjKVYXuAz0eu9uYnZFX8wTtKdbI43VZEqykymbJtmB8t85jEZEkACSAAJIIE/S+Ce5pKy2Xvnti+jKY5n04nw9c6nZqvpAcbRQCQo+yvZU5GLBgLgOU1HzrYnWyXXm8q1ZHVNXHCiyJ1NurJ6SKtfBlksjb0L24fXdwnQLEwssOWpLnbwFYsN8oml4fMpeEV5lgWZq/D7muvGjlhRFCJr3hqzrXn0JCOKQnzD+zrfR0f7alQQxdTukIWiTfpFSdLQ6t0M8yLHMFp+X3VRVE33/Nq4p+mNha6o+bSdEKBlo7VQTqlasjI030hVx9/0rIKq5m7nu5wmin7TvXASZ+IXi+2SUqJonUbaGhdCvMifTzXJ7m1VsWrtKwQXOyso2uxo8mzegQBmdj1Qvq1tBXDBDx+a75Bcv+6+X9A9+GH3PyhjaHW6kOugkfaVvso45/TNXRR+ubFS82Xnq8gxiWh2hZDxj5FYCGWyrDTkkpFQIBi6PZ55W6h9bc2LoXQyGgqFImmyFEj6+pwF+rgAn6NhJrsq4tKJeJqNb3r/gf5XNS/cEKc9zyTTZDHBR7Y/2ixyaaLIpROxVM4lz6USafKHcLfaCyXkOlVOMikWWbODpQYjNyp4gQSQABJAAkjgjxG4v7l0D++kQXckw1dnV8FY8vCj+0HGMWdPi0WC0kTKyUSeTcZTGSJw0v4xELgGQpbS6ZdBFrkigU0lkgwbX+/Qe5uvbJ58bfXMzo9763q+Q9yuQvu+IS/oc7EB1s/HnCgK4aXmnG/S7lmNC6KQ2vzXJY2yXlEmijbXjewmBCHl//p5FVzFBX7foqLy08Y5sJEQRCGx5qkqWUs+l9w71Sd029Q16cRqL1HwtrckWFnkQ3PvwImr30h710ZKFPnL5cH2jla7XWdpkfX7ZrWviaIrPdsw47jzUdjv6OjzwWIiGYuzopDcGaIp2twwdcqKQjwaA3kvJSuQhbp/Gmnf3ncQ5lv82/tOHaghTR1J8ymvKXf3BmnSyRg4qJW3VBNRbpwyASxQrCaLg6qudzZ/gmKE+NJ7u6qQguFxD+/C+wDGP9NBwfrP/tpOnOrVo3uw4krujTZVUlarZx2mDn873WJTlWbrmIXJKwR/dFVSjsYF+IMPLTYWiPIyk2l2sKDB+CcSQAJIAAkggf+ewP3NZUULebnMX4w3E5cbbQMfntJql2kclVkKRIKSQzZZasNbZaKsdN9akBjumVabkfbV65fKIqtdxar20BU2R4WyGeVdV7QRxZDXvlbXJHij+evZWuKNrvRspURRzPx6LwvrN15wyAqJrW61t7KoKNpkqR/YTwpC/NdQfWXHUrH21SvKZG8Z2gPxlD6drMlpbtIjjVpK9dTyL7hYhdTBQG1WvJrrvFObO2vfPjhp40ZWfzzM+RZFIXO3P9drlYMW8vJaqX0tdqq+58t+HJY8aV+vA8of9oN///Tb5HpcELnLsSZn2/KdIGaOJia3i/aP5YvV6ZeR9n2431c+h0Fa6/C3C4VuXdVE1NK+ltrO+cMgk3VmE482s+E10r6VfbC8ETO7HvVMkj/f6bOTiuiuBfCjc/sj1arnlrJ3b6VFUUis91fKCw4hsdFpVT/eZSbT7KDOGJQcJEyABJAAEkACSOCxCMhm8T7m0tY5I71A5RJXe0uDHbWgEVXCsTwbqspCq0SC0kSqk5msvUsghFjfoNNA++r1yyCLuguyGlG2pIzrIikJ2hfcZ7ra193vS4miEF3rJ2+n8/UWFUXTH7ajgpA6+Oyw0BUa2lenKGf35AlsAmOulzuLtmkV11JialnqPx2D2zW03P1KC4hhI+225s7WHk/v8OSc7wbaJCS3PlYX1ijH+0ohDPJ/M5fznYDI0joJgb3c3kht40KAF4U73/p+ShASW+/dfTA3ZNlZWKxWa03Uo8f7qucr9ekAlj6B7xAWrbzlIHvdhPC84pwHZYLXni3oC3O1OjHsGZzxQZhHKe3bvwlMMzv9ksaVOyw/DPLndPd3He3buQ4FJDe8oH2JkhaSm11F2resZJodlJtU5thgMiSABJAAEkACj06g8gHmkqLNrvYP876zmBRCGF37UOg/Kss4KpUARatEgtJEqpOZbOR4U5H99bHKZB8ib78ji102E6Vy4ur1yyCLUng8mHOxlHwzSN43yxuwrOSgg3zMg3t4hwHp+6NHeWQBKOCiopzePQJcFoPZ/3P+TzVEMWsW5eqdv4YK4v7ZFq1DCIpqyYtvTQjmunGQvvztdGvRHjUYtVKNzI+s2wsv6IX4Wp/66AnalNO+AsdmmGQsdHawMTHQSkl5s8ots/nBDrHUcOIDRODcLnRUymdcwNzIV1SiR0Z+XxNFl3XOg3KOKq8LprXyltW7Rl4A7I2Qoz1om3oF6XCOn4FovpyptuT0vqR9+1bAu8sefsmdCZLtYXZshNTBeCsJRrG+rnJCsTWj+8qYh3455qFVHfNA2ct6bstMptnBskel/PHDlEgACSABJIAE7kXgIeaSdtvdRKhZ3w4dQBxmatNbqTTr5RpH1SH95Wlfh3v0ANy+3OVYo9Vk7f1BoinPppsr1dpXt1/6Wf6Q9jXXT8AreuFupb/abG0a8RPBt5nd62YbAfEmhJda5BCI3PAVqVJn9/Ll1c1N9jeUhOgBIRW+WutzgfjRKqqm3wfhCUn/VL3aFahfSwmlaPtMpK/kx5SVjLnWM7khxTwYNtJa66p3SZEkZtf7+RvgIm1oy7UHLpQxD3IV+QSSphISK712E+XqAe+oKGb8w/VWk6Vl4opEW0v7+Yrzan1SQvtCuLGFbmqw9bXbmxpshSc8SCUqZ7/y2kD7UjUfdlPQdJ6JRWKppA8CEhR5X3WvhOE2G70+OTi6CIHGJ9pX3qUo8smd4Xr1nkF358+wtEcN9rqlMmz2GI6qlu+36r1uQtQ3ZC8IQS7zuS03mVYHtQYgP7R4FwkgASSABJDAf0Hg3uayon0xyLOJu+D1TSgOBpW7nG01K6y2qUzjqMpSyu8rCmwqFpFP1gqve2mAU9W+GiEBkWwyFpVOhJXPedDtl24WdXseZpGLBCttotxd6xHYp89nUtLmeeZ8rIXslYLQVXCiBhY6JEWorFSrqLwwLYx50CrKXDsGG+tEgYnfZc8UC4dvtz5ZFfOquBZz0yyJ0gjMthV7dh09EK4sxNf7FQEPhXvdcr0oaCT5U2DT8Ug0nj1GIH06qj7uDfIaa9+ssz+62A3Nq2gZWz888s31wvFnloZR4iw9nzY8R0LR/RIxD7melLhQTh3ltZH2pc01/VN7N7EML/BM7GbDU2tVal8T5WoYXT8KJhhegFOOE5Hr053PZEheNQ3/8IcSmcRqv3rLHRzvXNc+uXkUiDOcwDPx2+OZJmlRZaltm9j0h1MsHH125VsYcNvIZFK19lH9vpRWB9XoS1DFxEgACSABJIAE/hCBe5rLVx0ze9eRJMsLApeKXu8uDtaoPVaPrH3p1qGtk8twPE1OII0HT9em+6pyG7YcbQOrx7cJEBAckwzfnu986yeyWF8G6GVRyYC8yryXgS6WkpDd1tS3eHAdz3BcOnyx/aWrRvLWmd9OnsB7be34Ae2i5DlQICs1i6p4Rw6dyMZGZP/H+b+Cvy9XTuHmPNrcPAfOU/7ya0PROQyW5nE4Wrfw+8vedC+cJjLKM86k8gsa+U/75ObJ7V0SBiuTvDvf/fFva/Zoi1x74MJY+7q/kAha1Reiydlrh0Dsa68l5DT5vkuflPb76uXEz5EAEkACSAAJIAEkgATKJmCtngYhyV/N1ijEaNnZlRruEYuiX3m2knCe1lp7URjGg9qmbOdTvEbt+xRH5a+catgpJIAEkAASQAIvmgDdNnUDPtSzyXu8oNcm9ohFUbbG7yE4PGHlvSKq4W9WR6h9/+bR1X5g5LceeBcJIAEkgASQABL4zwhkAxLY08/1RaEF9zTNj1iUibLZ2gdH5mbe/3ar/jOSv1kRal/UvkgACSABJIAEkAASQAIvhQBq35cy0r+5SMLsSAAJIAEkgASQABL4Cwig9kXtiwSQABJAAkgACSABJPBSCKD2fSkj/Rcs1LALSAAJIAEkgASQABL4TQL/7/+bKvAXCSABJIAEkAASQAJIAAm8BAL/BwA8wllUOtTtAAAAAElFTkSuQmCC;" vertex="1" parent="1"><mxGeometry x="50" y="10" width="937" height="275" as="geometry"/></mxCell><mxCell id="3" value="" style="shape=image;verticalLabelPosition=bottom;labelBackgroundColor=#ffffff;verticalAlign=top;aspect=fixed;imageAspect=0;image=data:image/png,iVBORw0KGgoAAAANSUhEUgAAA5gAAAITCAIAAADtqiRFAAAgAElEQVR4AeydB1fiTBfH32+Gus8aglQLKiggGhBRLGtZd+29rV3X3gtFKQLJBL/cexJImECS1dVV2b17POeZJ1PvbyZz/5lMhv9pCLLgr7Gham/M3NhQVXD9E2FsqRxoqRz4RBgLouB/gQAQAAJAAAgAASAABIDAGxP4X3F9Dpt+b8zssOkLouyVnW2VX6sqGwuuw/8CASAABIAAEAACQAAIAIG3J/BUIWuudLZVfrVWet6+iVAjEAACQAAIAAEgAASAABAoJvAkIVtZWd1aOeSs7CsnCvcbFJcIV4AAEAACQAAIAAEgAASAwBsQ+LWQLa/UOSp7WyuHCKL2DRoEVQABIAAEgAAQAAJAAAgAgacQ+LWQrSXa2iq/WipdTykO0gABIAAEgAAQAAJAAAgAgbch8AshSxL1bZVfmyq7ygjd2zTombWY6vump/qd5UVnL2gIlajCgxqeWSlkfy0C0EevRRLKAQJAAAj8NgGLbWB2srdJzpM+s0xtbevk5vJQ84uKkhRibuyfGe9pKpPx8s9s20cvARzib3aompCtIAwtlf3uysH/CNMHlXpaa/8pSm10VhQPUJWo4sSleEXfHFg5DT0wLMvEDoct2ueOAKPR1eFusrxnz+J9RLaMXicjq37iFfriZaa9Zkue2ymQHggAASDwJgTwiU5r+3qBYiteGU/63AlZ2zxyjSILbS8Tslghr9i259ryxulxh/jGVZd4dYVCtkJL9lDc8Vs9lL6J6Gir/GqotL+n1lHnq9LxKlHqZZZGbJV18oZJHI0FPHZXm8tV/+wJiGyduUNXk44XTTcvZIX3kdbeu3W+N9763wvLJEjNC017xZa83BYoAQgAASDwJwjgE90risV/U8jyvuyx+F/mfq71yZ/I4w7xZT1eUd+zHKKDMy0q/l0pjdJ1DWGiVqM0yxmZQXTi/uZgfbLdllvlrPCtP2QSG4GaArlY6VkJZ5jtnj+7GCoRsiaLbmnQtDdmzv6tD1hbLa0FzfpY/6vS8SpRLxsiH4KA1vrlhEms+p6tX0XbX6j2xHJeEvhDffQRTHsJFsgLBIAAEHhLAiBkX0pbr2+mHG0eR5s3sBpm6aNvHg//v26z8cnr66/hEMuMdmps6yrJshlWScgqpVG6Lmgec9cew14veNxue6u3rXd0+TKZSZ0MNHJKXdd/iB4f2ciiQ4/ZSzpGrtDjIzr51vBHd4bkhWyFlsRVbFbLLg+aKp79zhoz4/cHh87Ut3kdTTEsSyfCB0t9NVVCsboGavrnVYxGKBW5ODqLsvmtBSpR+ZZYbF9/HIYeaMQko9dL3XUcX221fXjtKJJkEB292ZsM2D7l0tdQc0cX4XiSYTMofXe+PtQ/unh4c59GKB09Wxuoy/XZE5M9qSIW0bHb/YmOepVnKQ037/BPRvzTUe6VkLbWObp5HIqnmXT0ene0vY4vQYEkp/YywgMkOv3eWFag/3Rd6zQ6GMweVVHtmtg9DcX5/oifjPGbkuWrM9T2rRyGkwyL0vHwwair0AqlPpLMpE+vjtQQRR1abJpaFxfVJWkJqfk9M/PjTRi3cAUIAAEg8BYEnuaP8ImODzOx0G0szRQ6IAUPwk2qch5HsiKrnDfHQSEBXgjftvTtycFtgkbMQ+R0aagltwNNzWe918Srqxm/RqmNNh3WAEWBQWqUHCIhS8bQupZgQ3ONZK5wbd8+zRz2WMS6dMahw7ur7e+dPbMhlBeyJv9iJBVZ6yI57AppFK+LhXNCFh1/1Yua0DK4x7A3085yQlc3cYMS4VAyfTic16y6nt0EHQlGUXBWbW1YEMpiRc8O5IVs9pdpxeVYMVD8W7Uvr/UpJfxn97X7KLur1T24dk0zpyM2XtEbHQshRAfXR3vclM/3ffU8mRGErEqUyEVvHbtIM3c7U19aKW9r90Ar9zCRvRjeGutxU/6exbMEG1sP1PICl9s5lDycaKUoh29w8Zp+ZCPbE1/aKG/b0MYNgy7G+B3o/J3262S/rOhoivJ4ne29I3v3LH06UK/8gR1fY2J7sN7eXGtvqq4xaghD49Q1/XA++6Xd1uL7sh6k06cDDVwJ8iT5KSC4HLDyJZjMVYVv5HEhy1eXOp5p91DNns4Wu0mpujLb+DmTPJrubnI4bZ5ur6vgRYNyH/FVCIqcw/6U6oS+k3ZosWm/Ii+pC2+JAtVfmSmONwgAASAABN6WAD+D/dof4RMdH06dLXR1eB3e7m+7dwhzQPIeRGFu1OAaVMn7YGpevnC8EL5t6G5/YrDb7ensmT+Js8m9AV4tlYaQVRYYhLJDVEBXGdhJosvhxqw2MLhXE+hiTPqFDB9FuiaCEiG7lBeynJblNFhBGl7jKlzPDuAiIWvo2UqzoXl3OVHlXIoyZ2PUxBV9/6Mlu8Cnc43fMqFFf+8e87Dm//23x9hoUZKOeSHrdXJbY4v/vM7C36pVKuuPXTd37jHMbu9ngtQYezZT7OWE8EUkvhSvEiWCMHStPrA3My4JU0PXGnexRbhY499NouvJOi3JL3zmt8B/7tpOodP+uuwYsgT2GXQ4pOMeTCU75RWTPbkiDfegg/YHlA/uldbIkTd2bySZg0FrbgFf719J8Ousou1cACNZMAUUby0tErKSTwEUqqtoXbpDkQWPWX4wqPQRbhEezrZfoboy2Q4tNu3p5At6U6HeX5gpYf62PgyqBgJA4B8nIJ0/Ff0RngwPE6TGMqDggDAPojA3luEaVNIRWF7JdXGGxBLghRS0jbD4tpPs7bSVLPocAvdZ8lWIdf25QNGKrIr3UXGIkvZjZMy92ynhTT3pHA8qLHbKiNQik5XSKF0nskJ22KirqtBbDE2+ga0ww97NUQYNYfBu08zeF8IcWIunD4bqywiSDGzHU4c9tYbW9SSz36+VWFTUmJfF5oXsB1uR1Zt8k+unwbtEKpW4j6Yy6GCAJMhy52wQxRYoQVtjQlYlShRV5c7ZWxRf8AjZeXZFF3X6oWPE7HcZCxVqect8CIUmHNm923r36gO6HK8u0rtKyZ5ekYak5qLocrw5p0qL+7jw3ubJsI8ZFon/Mo8Z/tNReZKF66/PFLIcbdnqdE19e1HERE82prvcVmGHRm7UqvURbhEeFvpItrpPch1abNozyEuF7O+ZKY43CAABIAAE3pqAdP5U8keS9RdpFqkDkvcginMjrkEJ+bwYEIUEeCEFbSN0huFTxOz5DaUhZFW8j5pDVETH6Xjm9LtJS5ZZvx8z0bk2iZ7JsVUUo5iCVEqjdJ0XssJ2xMfHRzYVOZ7taeK/z67pPcqeH8V/hh5esOvtwxdMeJH6j6hqXrxnzkfN4oaEYj3z4it5ISu7R3bpnfbIltnGzmj68seQ29Vc20R9O2YYUciy8UVRiRYIWYUo8bbh7z1MB4siCcXz4phQFrKOmVsUnnLlhKxrJY6uJmqKhaxCMn7UPqmiYikmmpALFN7bWSGb3Oxvrm60C382s8WgRFKmCtI9HUG33H4XfqzjT7dPro5vntFEDU7u3iYz9M2yn1uxFv54/vLdpzarZh9gWBnrZDu02LRnkJcRsjL1qpsp2gsBIAAEgMBbE5BO1+UK/khtysVeail5EH7ulZsbMQ2qlFcEopgAK0TSTs6V6IzDZ4j5yQtZZZ8lOB2xrrcKFK7IqngfnqG8Q1QkQ5CfO9ZjzMVQfZWu/yAdX3WLnw/hJiuK0bw7lttawMcq5uU/9rqccztd9U12k8WY/wBGaxu+QNFl/vg2S+/WQ3JvbfcufdJv1WmIKuvULROcaRD29f6JjsgLWQ1BFpxasDRoMlmyr9Ex43FYfyz8KbDDoJP+2mztemojnRWy/At0NjgnHNKECVm1KLGdJm5nwvW0dGuBMbCeZG/yF6s7dpIo++biN2YEglScOJ5cUbEUK+x7acO4WN600HxbwSKoIknSOX6LIovYaX/axqFzlNrtze2jVxWyStVh7dRbRs6RZB96dv+DQvfhFuHhbN8pWJdtRmGHFpv2dPJSIfubZorjDQJAAAgAgTcmIJ0/Ff0RngwPS9/OKXoQpTmZ16B3i1Q5QSrmFYAoJsAKKRSyWmvPQRpdTdRyS0jKPkuoAnNJbyNjCoWsRsX7cNsz5B2iIhmC1Ojc02F0M90e+JmKrvrkD6xUFKMYBKU0StdzWwuwj71EyGTLZAiF5ty8tNXb58LsYya25q/kEugsI9wZxU786zcx4ysFJEJWQ5D4ObLvdF4BB7rMPnmJ6IvlfpfLaW12Dx3SOSFLGBomLtMouj870EZRDu/Ackg8tUAlSuw8g33mhmHudqf62yjK6evtaK0rI/T1E5c0Hd4YCTjbOgJzp3E2tpk7zUCy+fVJM4KKkH1yRRIhq23+fs0yO92S8Vow73CjwWifvWXQ/c+ZAYqinO3dvV/9Zq0KSbN3K8nGD0e6vE5fb5envozQ1YxeMCiyNdbrpjyujtkTRji14OnVWf19/Z0Ol7Pe5fuyFWEftjwGET6pUek+vAo8nBvo8tZpCNkOLTbtqV3MzXqS2uXrLfuFmbjJEAYCQAAIvCEByQymvLCCJ8PDUiGr7Ivl50aNtq7vmEE3y+12S7miH8/RUCwcK6SMb1vyaIqiqGZv99D6TYqNrnVlPyBR9lmvpJCer4OLhKyK31d2iIpkOLt0lu/ndCJ6T0cXvQb5FhaIUcmpBcJQLEgjElO6riJkdd75GLoWjqUvq+0cW1notOUO0OX2aqa3PG8pZDUE6bBxX305bHIbL0RT/3jAWPdl5TD0wGQyLJNORMNn8z5e3XPHLTUOruwH42mUYenkffB8c1h4G64WJXSettYxsnEc4X4Ri36I5M6H0tY0f984veOO34rfHsx023OqUXp7v1jIkpqnVSQRsvyoul/y5JfxC8VW3jTnyMZx+IFmWZSK3RyM8od0KJIstwbmTu6SiEWp+5MpijNZ1+CZPbhJ0GyGZVKx0OXBWPazLSmH3J2jrS2urqJlfD/I5c+g1N3l7qiXP91MMloUug+vAg+LeeWq43WnTIfKmPZE8sVs5ep9gplCp4jthwAQAAJA4A0ISOfPJ7ktaRaJAyIUPQh3/JaMxyG11NReOBlb839SyZvjoFg4VkhN29zRZSSRRizLJCMXO2P+xvyLRyWf9Qac5asoFrLKfp8rQcEhqqMzBdYSmUx4wa6kDgvEqMkvPbWAd08FaURzlK6rCdnO1TQ6G2mU/aqnsnefQfsB0x/0iYUrsh9GyP5Bm+WfYMRe/GgBY89WOrkZUDgH4KO1FtoDBIAAEAACQAAI/DkCWvu3y/TZqF1WOJaYwnkNSiBkP7pi/tS2EIysuiUv6D96m//BGwlMBgJAAAgAASDwJwkYjE3OGnurf/HyIbLS8vTfDHsNsfgn7XqppAEh+1KCb9C7Zdr3+eTuDUyDKoAAEAACQAAIAIFfEyCdI1c0i1KR0x9dNoXdsX+7ZpWlBEK2BISsbM/BRSAABIAAEAACQAAI/OMEQMiCkAUCQAAIAAEgAASAABAoSQIgZEuy2/7xxy8wHwgAASAABIAAEAACGoIEIQtCFggAASAABIAAEAACQKAkCcgI2caGqr0xc2ND7jBb0PtAAAgAASAABIAAEAACQOADEpARsh/jBxFK8rHgA3YwNAkIAAEgAASAABAAAn8rARCyoJiBABAAAkAACAABIAAESpIACNmS7La/9bkK7AICQAAIAAEgAASAwNMJgJAFIQsEgAAQAAJAAAgAASBQkgRAyJZktz39SQVSAgEgAASAABAAAkDgbyVQ6kLWVN83PdXvLJf5WTaVqFcVr9ra1snN5aFmuTa8akUyNv7t5f/1bP96A//BQQsmA4GPReCtXOHHsvpvd45Pov2vdH2JC1mttf8UpTY6K4o7VSWqOPFLrmibR65RZKGNE7Jky+h1MrLqJ55doNHo6nA3WfIPTL9flNwN/LqlPds6uSY9pZCSYPsUQ5TS4AYqpYHrQAAIAIHfJvBmrhBvYYl6HNyEdwsXiYHfbsm7dP1vt/YFGQuFbIWW7KH0e2PmHkpfof1d/fGCBuWV3FMKUeknlSiC1Oi9C/cZNjRv073YRlyLaO29W+d7463/PaXxeBqydeYOXU068su6v10UXqwYft3SxGL/dKAk2L4EAm7gS8qBvEAACAABWQLqrlA2y8svlqjH+X3DLa2rUTZ10F2ry2sYc/d6gg0vez8/q9hiMfCs7HjiV+l6k3tg/SKSYlA6erk73WZV+4UBkpq/oDOxFS+/tlhtH1r+eR1NMoh+iJxsjDRbMDhcO03UapRmHx8fHzOITtzfHKxPtttMWYAVvvWHTGIjUJPnyZtW6VkJZ5jtnlyybKxEyJosuqVB096YOfu3NGgyFVb8YtmHU355WKWfVKIInWHgKPUQjzHJrZ5CTAXUfv2/r6JFXnHsvpzqxynhr2f7KgZ+nP6ClgABIPDRCKi5wg/m0D8auue0p6y2f+eBDS96BNlqaJy5RYkdn+WZkF9RDLy867UNvYdJJrT5xeOqb+2bPU8yt7O2KnmLPrsmTxPR+wQrCFmTY2R5fKjbTXmpweWzZCaxGZC+rDZ37THs9YLH7ba3ett6R5cvk5nUyUAjp5V1/Yfo8ZGNLDr0WHWkY+QKPT6ik28NZVjv5IVshZbEVayoZd9pXVZn6tu8jqYYlqUT4YOlvhqRna6Bmv55FaMRSkUujs6ibH5rgUoUZrNG1zIRZC4n2jxrMeZyvCa/8FzTNnt4EYlztTLJyMXOWEfjp1xG5Shci2htXy+Q0IukhrDYvv44DD3QiElGr5e668oIBbu4sZvhHky4f+j0e2NZQVHaavvw2lGEe7aJ3uxNBmxiw6i5o4twPMmwLKJjt/sTHfX5ZV3Raklpsm0wtK4l2NBcI5kbNJ9863F09d2m0yi1WSxcEpAtnNQQygBVokqAbSE3bd8+zRz2WGrEfsmg9N35+lD/6OLhzX0aoXT0bG2gLntz4gZKMGK3LlwHAkAACDyLgKIrVJyfxfmqyI8oZcHnqCJPh3ucAmWm61qn0cFgLb9IpOIXSI221jm6eRyKp5l09Hp3tL1OxrU9C8ufTVxV/e0sTV8M2zkdVlb/7TCd2h8S9Ja8LYbavpXDcJJhUToePhh18RsUi8QAoYSi2jWxexriFQsdPxnjPxZ6Xtcr+a9c55Y1jp+j5HpnbvmzvHn6Gj2s+Awak38xkoqsdZEC0rLqwI/I/UZva/8xg0kgcZDoW34k0O1MvSAw+N7nhCw6/qoXNZhlcI9hb6ad5YSubuIGJcKhZPpwWGBIkLqe3QQdCUZRcLYFHwx5IZv9ZVpxOVYMvNdv1f5n97X7KLur1T24dk0zpyM2XoAbHQshRAfXR3vclM/3ffU8mRGErEqUSJMLfPatRx9+dlpIvlfu5loNuWVX/t5LHk15vF6Xr+/b1m2aja528febWhS2Rxa/ewm9dewizdztTH1ppbyt3QOt/HOGvF38rR5cDljtzbX2JpO5SiNTVHhrrMdN+XsWzxJsbD1QywERGkZ5vM723pG9e5Y+HagvWMDPJROHl2wbKru2k+jqG6dcSQ1RZZ+PoOBsAz/sZNPnoAnjWPxf+cRCO/8+tpWBnSS6HG7McjO4VxPoYsxCco80ycOJVopy+AYXr+lHNrI98aWN8rYNbdww6GKsie8+bPAUkRSRQgAIAAEg8GQCaq5QfX6W9SPyWfLzlZynw/2XipBV8QuEoXHqmn44n/3SbmvxfVkP0unTgYYi15ZvhsTLP5nVq+bSOUevmNTxsJm0dv18SJ+P1uZ0m7wtZbbxcyZ5NN3d5HDaPN1eF/9+uFgMKKHg6aWOZ9o9VLOns8Vu0hDP7np5/yUoy3LXXBBF59qE7QS6ztUUOh+zlZn8S7iQJRv7DuPX81Sltu5LsZDVGvSuoY279NW0W1iAy2IvErKGnq00G5p3lxNVzqUoczZGTVzR9z9asus+Otf4LRNa9PfuMQ9rfvzLqLyQ9Tq5rbHFf16n/n3GRH6Amjv3GGa3l1uxN/ZsptjLCeGIAHzlXCUqXxSpIeq691P3P3zcNlZt/ZdjOrHVrc0mwO89Ltbac5BGVxPckq1aFKZF8GSGrtUH9mbGheOWksTsKrjVBYWak56GrjWuqBahqBr/bhJdT9YVN4x7oEH7A9mHXewWxRsmoYG1wdy7lRJW7EnXRBCF5tz4Qw/feCy9pBysrvx1LHFBA/4mtube7Tw353iQf1iU2vu5azuFTvvrsrOwJbDPoMMhHdfL2ODJc5OFCReBABAAAk8g8FRXqDw/K/kRAssizleyng6fAAu8G74iiycr8LnG7o0kczBozb1B1vtXEvy7SrHeDxn4r2XuhkkebR9G6asRh6CdFGypaF26Q5EFj1kiDApwcbJHAUUBPXWBJMGF9aOs/xITG/wrcTa6O2Q1VWm0Bl3T958pVvIxD5dSZ/56HL+eselJTZGQrejYeOB2wWYSRyP1WT0qFk5kheywUVdVobcYmnwDW2GGvZujDBrC4N2mmb0vhDmwFk8fDNWXESQZ2I6nDntqDa3rSWa/Pyfb+NLyQvaDrcjqTb7J9dPgXSKVStxHUxl0MEASZLlzNohiC5QwPjAhqxKFj5KyhtEzOjTpyj1haAM7D+nD3hpeYRQOC51x+AwxP/2GIiFL4FGYFsFKKHfO3qL4gkdoaq7z5O3SFI9dtaJ0+qFjxOx3GYsaRlJzUXQ53py7+cURg5WmIRTaQFh820nm5JtRy69VM6FJZ5aSUnrZKVUhsaQB3ND/e9hmuZ1+N2nJMuv3YyY616YvePIpb5kPodCEI8fTvfqALseruecQbPCInQUBIAAEgMDvElB1hU+bnyV+RCGL0Dx5T4dP+AXeTUXIYn6Bs4J9zLBI/Jd5zOROBxKqxj37hwkbm+eD6JG5mm4RVx8VbdE19e1FERM92Zjucltz6QtwZWWPLAocMs/kd7pe1n9hhElq8ucdneH/Mckk/ShuCxEEQHXfViIyT/HbD4qErEZfV+NodfdObYWZ5OlIneTzek7I5jZUcv9hU5Hj2Z4m/lv5mt6j7IFUVdbJGya8YNfbhy+Y8CL1H1HVvHjPnI+ahWVjDUHmheyH2iNbZhs7o+nLH0NuV3NtE/XtmGFEIcvGF0V1WCBkFaKwIV7VOBPiP5LD6D2is1F+30LhsNAZvp4gZk9WyGJRmBbBSuDHLqa5+ZGhZNcvhWwQxfPynVARskWnH2RHJNYwxTYQZKV/I86cDVj19dNB5maqjn8topIeA5sb04qJsQbwuf4itgT5uWM9xlwM1Vfp+g/S8VV3VeEDRrlj5haFp3KPT3rXSlxY6ccGDzZ3FIOFK0AACACBpxDgXY+8l3zq/IxpKcUswnwl6+kkT/KkezqCbrmNj7ybUBWyomPli01u9jdXN9qFP5vZIuwDFGp/CpA3TlPOr7POtAiv43NKVMkWo4kanNy9TWbom2U/95oOg59tuSKKQq/Kr/QpqCCVfpTxX4V49URtg6naXNW988DejjXnTRO+yso/cbCZx8cMS19M1GJCU0OQFe7FMBubF1chuSo4Ictezrmdrvomu8lizL8B1tqGL1B0mT/9wNK79ZDcW9u9S5/0W3Uaoso6dcsEZ7L7HrOI8kJWQ5Af59SCT4EdBp30506y0FMb6ayQ5dfY2eCccL4VJmTVosReqfIuRNHVnL++2WHN/bm6t+K5zaCFw4JboWRvp61koS7R8A8xQhSnRe4WKa4P8BJM3C6I62nJ1gJFu0jn+C2KLPKH0WZbixdlDKwn2Zt8UdUdO0kk27CieyB3D2OlKbaBIDVVnrk75nxyYDZMHwtfBaqlF8EKAcXEWAP4Jv1FbAlSo3NPh9HNdHvgZyq6mt21IvnsT13I5gaPwDDXZfC/QAAIAIHfIMC9iZb3kk+dnzE/ophFbJicp5O4Qm3j0DlK7fbmvlhXE7KYX+CLDc23ieuapTIxFgtZza9t0VtGzhH3lTCpKRYDStkLvWp2E8Izu17Wf4mdiwXKLL75IEodDZmkCrXMaBWeNOzVNmrsAiW2+mutFmEnZG6Rq8K9EGYTS178HXXRHlmxOrJlMiRubtTb58LsYya25q/kEugsI9w39U5scVciZDnV/DHOkS2zT14i+mK53+VyWpvdQ4d0TsgShoaJyzSK7s8OtFGUwzuwHBJPLVCJyqHkVhzz3+XkLv7nXY2y99y2DH5YoLv98cFut8ffPXccY5N7A/wXc2pRdX3HDLpZbrdbpEcNGOwzNwxztzvV30ZRTl9vR2tduaJdZu9Wko0fjnR5nb7eLk+9tCh9/cQlTYc3RgLOto7A3GmcjW1yZyBIpXPBwxz+XSE24pXZct94WSdvEE3Tyb0u4dAQxfTa5u/XLLPTjR+aq5yYE3Z/J9vsrfX9nE5E7+noopdfM8CAawhSWchig0e8hyEABIAAEPh9AoquUH1+Fr8GxhcFFbPkmyfj6aT+S1czesGgyNZYr5vyuDpmTxjh9bSKYyWM9tlbBt3/nBmgKMrZ3t371Y+/Tf6wulZGyCrYUmb19/V3OlzOepfvy1aEfdjyGLh1ykIxoJBd8rSQ647ndz2XUWcp8F/5ziU/1zka2/xdoz+OogwdXGvPfumBqwsssWSPrK6le2qks8Pr4I7WmtgI0mxk2cUZKP4pC1mddz6GroWT9ctqO8dWFjptuZVgbmtlesujImQ1BOmwcV99OWy4cBYrfrOAse7LymHogclkWCadiIbP5n28GOfOtGocXNkPxtMow9LJ++D55rDwzkItisvo303l9ibmUZKaqvbFGBtf7/zM31Tp25OD2wTNnb91ujzUknuIVIkiSC01tRdOxtb8n6TyRaOtdYxsHEceuEPEHiL84RqKdpVbA3Mnd0nEotT9yRT1X2FRNc3fN07vuOO34rcHM932nHwsSIY9SWvw7wolyRTbwB0aUjt0QGfuf/iEw37S5u0AACAASURBVPBIDaGQnv8g7H7Jk38dwFFVSMw34O9kmx1LpsBaIpMJL9izd5cEuLKQxQcPPiYhDASAABD4fQJKXlJtfpYVsopTOt62Yk8nnQA1ugbP7MFNgmYzLJOKhS4PxrJfOKn4BW6ZptY5snEcfqBZFqViNwej4umQmBh6M03y1IrkhKy8LRUt4/tBDkoGpe4ud0e9/OIUQRaKASUUBZBzPfLMrs/mKvBf+c7Vu1cTTCoePP85/91v0QsQcHWRTyz92MvsHfl5EUpwJ4Om46GjjYlWa4GqVBGynatpdDbSWPi1D19XZe8+g/YDJqEx+B5ZcWR8DCGbb6LYsD8ekB8WfEtUovBe/LBhXnSG51ulovNlkI09W+nkZkD6xaUSARWAKlFKpX3A61r7t8v02ahd9sb740P3AwKBJgEBIAAE1An8HZO/uo0lEVvi/qtwa8GHWZF9mcb6vaGjclOpRP1eXW+Xy2x2uF2DW2E2ud71NNH5tLZ9alsIRlbdkjcFyr2mAlAl6mkteVeZaDA2OWvsrf7Fy4fISotRmUAJ2AKNBwJAAAi8IYHSnvzfENSfch9/if8CIYuNRZWbSiXqT40wrGEvqULnnbtHKBk5mOs0SPdov1z/lWmffDy1CkCVqJcY/jZ5SefIFc2iVOT0R5etBL6ofXmnQwlAAAgAgdchUNKT/9u4mD9ay9/iv0DIvpJe/KOjDQoHAkAACAABIAAEgAAQKCIAQhaELBAAAkAACAABIAAEgEBJEgAhW5Ld9jqvdYoea6BYIAAEgAAQAAJAAAiUEAEQsiBkgQAQAAJAAAgAASAABEqSgIyQbWyo2hszNzZIfoWshLQ5NBUIAAEgAASAABAAAkDgXyAgI2T/3XNk4VU7EAACQAAIAAEgAASAQOkQACFbkgvp/8IzFtgIBIAAEAACQAAIAAF1AiBkQcgCASAABIAAEAACQAAIlCQBELIl2W3qTycQCwSAABAAAkAACACBf4EACFkQskAACAABIAAEgAAQAAIlSaDUhaypvm96qt9ZLrMrWSVK7KqnpBETQwAIAAEgAASAwN9HwGIbmJ3sbZLzpM80VlvbOrm5PNT8oqIkhZgb+2fGe5rKZLz8M9v2z5XwryicEheyWmv/KUptdFYUD1CVKDExnoZsGb1ORlb9hBj7+wGj0dXhbrL85pL+a7bkt+7zFzXgZbYTL8z+W/b+fkdDdUAACACB0iSAz/Na29cLFFvxynjS506P2uaRaxRZaHuZkMUKecW2PdeW90n/ek4QVzjvY8sb3RqFQrZCS/ZQ+r0xcw+lr9C+USN+U/ARpEaln1SixB7F02jtvVvne+Ot/4mxvx0gW2fu0NWk4zfv5Fdsye+Z8JIGvND2F2b/PXshFxAAAkDgXyOAz/OvKBb/USFraV2NsqmD7lpdXs+Yu9cTbHjZ+/lZQ+sVnSCucJ7VBjyxvsm/cHCToBFK3V1uf/fUqSyNk9T8BZ3JPxEZ+naYx/w/Zqddh6tKE7UapVkuPoPoxP3Nwfpku82UBVjhW3/IJDYCNXmefKsqPSvhDLPdk0uWjZUIWZNFtzRo2hszZ/+WBk0mC9YruG0fJKzSTypRYuOfkkZM/PTAKw7Ep1f6QVK+0PYXZv8gEKAZQAAIAIESIgBC9sWdVVbbv/PAhhc9gmw1NM7cosSOz4JLtyeEX9EJvoLCMbtXo+h+b7ijpc7h7V0PMvTpQIO8LPzsmjxNRO8TbF7I1nw9pMOLAZe12cH9NdVXSjibu/YY9nrB43bbW71tvaPLl8lM6mSgkfs1Ll3/IXp8ZCOLDj0GjXSMXKHHR3TyrQHX03khW6ElcRUratl3WpfVmfo2r6MphmXpRPhgqa+mSjBG10BN/7yKcc8HkYujsyib31qgEiXiU0ojuZOrXRO7p6E4X338ZIzfg6utdY5uHofiaSYdvd4dba8TFlwttq8/DkMPNGKS0eul7roybiBmhKcQdPq9kSOurbYPrx1Fkgyiozd7kwHbp1yTiuqStITUyNdrqO1bOQwnGRal4+GDUZfQmCylGmru6CIcTzJsBqXvzteH+kcXD2/u0wilo2drA3W5kaEAWdKAfFEsomO3+xMd9dK6hH7JmiNvuyw6ORNkssslE3sTAkAACAABICAhkJ+01eZ/fJ7nw0wsdBtLM4XzvIKb4Jya3MQuWZFVzptrsEICvBC+benbk4PbBI2Yh8jp0lBLbgdggebTda3T6GCwtmAN763+t6r621mavhi2czqsrP7bYTq1PyToLVlWhJx3k3GCCqiJIvFAkBolhUPIoja0riXY0FwjmfPj2r59mjnsEcU36ZmLoquJ5pxqNA/8RMx2t1Fj8i9GUpG1LlIYeGXVgR+R+43e1v5jRhSyZfaJS/pswCovfDUEJ2TR8Ve9+PLfMrjHsDfTznJCVzdxgxLhUDJ9OCwwJEhdz26CjgSjKDjbguuQvJDN/jKtuBwrBt7rt2r/s/vafZTd1eoeXLummdMRG4/S6FgIITq4Ptrjpny+76vnyYwgZFWiRLGlnKbork4dz7R7qGZPZ4vdpCEMjVPX9MP57Jd2W4vvy3qQTmefS/TWsYs0c7cz9aWV8rZ2D7Q2Vmn4uyu4HLDam2vtTSZzlYbIJgtvjfW4KX/P4lmCja0HanmBy21OktSFt0Sh3jLb+DmTPJrubnI4bZ5ur0u6/M6XkDycaKUoh29w8Zp+ZCPbE1/aKG/b0MYNgy7Gchvn5SHjDcgWdTRFebzO9t6RvXuWPh2oVxqXpJzt8ujkTShCJ59MuHneaoYSxw8EgAAQAAIfm8AT5/+ieT51ttDV4XV4u7/t3iFsnpd3Ewq+SYNrUIJUyJsHKJ8AL4RvJ7rbnxjsdns6e+ZP4mxyb4AXNx9LyJIanXP0ikkdD5tJa9fPh/T5aG1OIL7ICSrKD56MRDwQygpHoS8qAztJdDncmPXpBvdqAl2MWURlqW0YOGXSZ+N1/Eqi1rcaoS++Nuo0Jv8SLmTJxr7D+PU8Vamt+4IJ2fK25XvmeKjZSuplNUORkDX0bKXZ0Ly7nKhyLkWZszFq4oq+/9GSXXrTucZvmdCiv3ePeVjz4/u580LW6+S2xhb/eZ3695YL5s49htnt5VbsjT2bKfZyQvgiEl85V4kSdY9KmqK7Wnyq4Mw3dm8kmYNBa+65RO9fSfBLrYau1Qf2ZsaFM82KOckeWUPXGpesRUhW499NouvJOi2pwevNthO/olBvRevSHYoseMzyXYOXQJCfu7ZT6LS/LjuSLIF9Bh0O6UQmuQAGGc+OhwlSwz0wof0B5UfegplFGZ28CUXZy9UtLbQiPz/Kk4H0QAAIAIG/m4B00lac//FkeJib5wcU5nnMTSj4pjJcg0o4Y3kl18VJG0uAF1LQNsLi206yt9NWMrdukne177wiyxnyX8vcDZM82j6M0lcjDkE7KbB6ohNUlB+FZFQFkoQ5htrcu50S3tSTzvFg4WLnJ/vgZoRJhY+Wl3evE+HV7kZBxogdpzN/PY5fz9j0pEYqZD95F6/vYg9M5jGTDh8vd9mNUr+cFbLDRl1Vhd5iaPINbIUZ9m6OMmgIg3ebZva+EObAWjx9MFRfRpBkYDueOuypNbSuJ5n9fi1mUV7IfrAVWb3JN7l+GrxLpFKJ+2gqgw4GSIIsd84GUWyBEsYHJmRVokR2amnwMYGHeVhcRvYxwyLxX+YxE1lo++ScvUXxBY/QnizZYjVWmEynHzpGzH6X8RdCVqnecl1T314UMdGTjekut1XYpSAMLGn7y1vmQyg04eDed2gIvXv1AV2OV3OPXPKQJdpaWpSGpOai6HJceNGAjaQcZDnbZdHJm1CUXaNuaXED4AoQAAJA4F8mIJ20Fed/PBkeJkjpPC/vJhR9E65BlVxMvnfkC5cs6xa0jdAZhk8Rs+c3fEQhqyGMzfNB9MhcTbeIflmRlax3K3KCitkLyagJJEV3zz8YMKffTVqyzPr9mInOtUn0jM47fx67XRsbGprfuXpgoodjNoOgNLL9WN23lYjMU/zXV1Ihm1MFWqPB1Td7kWSj620mPC8nZIVNmI+Pj2wqcjzb08R/cF/Te5Q9kKrKOnnDhBfsevvwBRNepP4jqpoX75nzUbO4bEyQeSH7ofbIltnGzmj68seQ29Vc20R9O2YYUciy8UVROBYIWYUoiZBVSoOPCTzMdxU/kpKb/c3VjXbhz2a2GPjrmLDO9qvsQETxvP4mniVkZerlLTKaqMHJ3dtkhr5Z9ktWWKXtL3fM3KLwlCsnZF0rcXQ1UaMllSCrCtlfHcggazv7ZBOKsv/C0vyEiN8eEAYCQAAI/KsEnjb/P3GeV3ITSj4R16BKeUWPrJgAV8NSczSEzjh8hpifvJB1T0fQLbelku/rD7AiqyHI7FvEmZasw+UapsiKa3aRHy9ygorZC8lkK5IXSIqoCfJzx3qMuRiqr9L1H6Tjq27xeySC1Bj8KzHmWNilWm4d+pnMb03M9iP/VVZ+lY/NPD5mWPpiohYTmhwEx8wtm/zRgatkTsiyl3Nup6u+yW6yGPPbXrW24QsUXebPg7P0bj0k99Z279In/dx22yrr1C0TnGkQ9vVqcCGrIciPc2rBp8AOg076cydZ6KmNdFbI8mvsbHBOOCQLE7JqUaLc4Vb4FbLjYwIPZ/OauC0Nofk28Rkrdyvy16+nC7YWOMdvUWQRO0jPGFhPsjf5ZNUdO0mUfTlSXBd+Rale0SJCbxk5R/jubG4PvuRQQCUhqwgZz46HuSf1XwrZItufZQJZlF3d0nzsv+q0gAAQAAJAACcgnbSV5n+Jm5Bmwed5RTehNLHzGvRukSonSMW8QmsVE2CFSNrJn7nZc5BGV7xO0jYOnaPUbm/u26+PKmQ1SqwEDhrcjxc7QaXsBb2W28gnr3AUUXPfh7mnw+hmuj3wMxVd9eEnkJbZxi9QYrndkBM8fL8kVn347oIyo1VY3bNX26ixC5TY6q+1WvA0WSF7IydkJR97iUDIlskQCs25eWmrt8+F2cdMbM3PH3qgs4xwhx47sZO88iuy2YZ+kHNky+yTl4i+WO53uZzWZvfQIZ0TsoShYeIyjaL7swNtFOXwDiyHxFMLVKJElaOcBh8TeDhH1mifvWXQ/c+ZAYqinO3dvV/9/Mq2wT5zwzB3u1P9bRTl9PV2tNaVEWbvVpKNH450eZ2+3i5PfRmhr5+4pOnwxkjA2dYRmDuNs7HNbv48tuK6JFfk6y2z+vv6Ox0uZ73L92Urwj5sefDVfkkJ/JOQ7IqsEmQ8Ox4uELLa5u/XLLPTjY97jYztzzKhEF25uqXiuIcAEAACQAAIPHkhQyIQled5ZV8sP7FrtHV9xwy6WW63W8qVXIzQTYqFY4WU8W1LHk1RFNXs7R5av0mx0bWu7HcauprRCwZFtsZ63ZTH1TF7wrzjqQU5mVG8Iqsh5Fkp+PFCJ1imkF3SgzmkigpHETWXUWf5fk4novd0dNEraNZsgTr3ZBClrn50U87apjbf1GGUTWwEqotPLRCULvaxl7beMzrR0+VztnlbeyfWb2n2btVtFMUYKXNqgTAwNDrvfAxdC4fxl9V2jq0sdNpyi9zczsz0lkdFyGoI0mHjvvpy2PAVYLzutwkb676sHIYemEyGZdKJaPhs3iecQGZpHFzZD8bTKMPSyfvg+eaw8GaBUIkSm62QBr+T8bBIVlvrHNk4Dj/QLItSsZuD0dyJFdpax8jGceSBOynsIZI9CavcGpg7uUsiFqXuT6YoTuppa5q/b5zeccdvxW8PZrrtOf1XXFfBFbl6K1rG94MJms1kuDOKd0e90jOKpSUoPpETCpDx7Hi4QMiSrokgul/y5F8H8KzkbJdBp2RCQXZC3VKxdyAABIAAEAACry1kNUpugqtIZmLXEKSWmtoLJ2Nr/k8qeXM9peCDJIXUtM0dXUYSacSyTDJysTPmb8y/GtU1eGa54/rZDMukYqHLgzGlb6DfamzICVl5Vk90grx+kENd4J1zBiooHPW+MAXWEplMeMGOqcOsNv1U3zXx8/o+hViWjoeOFwf5s88KTi0Q2eJ7ZMnmnvWTmxiv1BKR0+1pT4NUJRcfvyWWo+tcTaOzEf7oUvGiEKjs3WfQfgDbblu4IvthhKyoOyHwUQkYe7bSyc2AwskJwpjLPajB/wIBIAAEgAAQAAIfkIDW/u0yfTZqz53L9AFbqNokELIfVSaqdttHUIef2haCkVU3vqXhw7f5I3CDNgABIAAEgAAQ+AAEDMYmZ4291b94+RBZaZG89y8laQRCtpR66wOMewmuMq3sKceSNB+tzdAeIAAEgAAQAAJAQEM6R65oFqUipz+6bAXv/UvJj4OQLaXeghsPCAABIAAEgAAQAAJAQCQAQhaELBAAAkAACAABIAAEgEBJEgAhW5LdJj6IQAAIAAEgAASAABAAAv8sARCyIGSBABAAAkAACAABIAAESpKAjJBtbKjaGzM3NuR/YO2flflgOBAAAkAACAABIAAEgMCHJSAjZD/GDyKU5GPBh+1maBgQAAJAAAgAASAABP4+AiBkQTEDASAABIAAEAACQAAIlCQBELIl2W1/3xMVWAQEgAAQAAJAAAgAgecSACELQhYIAAEgAASAABAAAkCgJAmAkC3Jbnvu8wqkBwJAAAgAASAABIDA30eg1IWsqb5veqrfWU4U61G5KG1t6+Tm8lCzXPriEuAKEAACQAAIAIG/noDFNjA72dv0Cp7xVZyspBBzY//MeE9TmYyX/+v75YUGyqmgvxFjiQtZrbX/FKU2OiuK+0Y2Sts8co0iC22vcLsW1whXgAAQAAJAAAiUBAGyZfQ6GVn1EwSp0dq+XqDYilfGkz7Xlldxsnghr9i259ryPumNRleHu8nyCuumsirofYx6oSL/RfZCIVuhJXso/d6YuYfSV2h/kfkVQL+QqUo/yUbht8cLq4bsQAAIAAEgAARKlIDW3rt1vjfe+h8I2VfoQUvrapRNHXTX6vK6yNy9nmDDy97PzyqfbJ25Q1eTjldYbpNVQc9qDEFqDH07zGP+H7PTritShtrq5tHti2iaoR9uD+Y8Vn0OgtL1XBtM1GqUZrmyM4hO3N8crE+220zZvBW+9YdMYiNQk+fJ56r0rIQzzHZPLlk2ViJkTRbd0qBpb8yc/VsaNJksWK881/43SK/ST7JRIGTfoFOgCiAABIAAECghAq+46vkqThYv5BXb9id7pKy2f+eBDS96BNlqaJy5RYkdn6VI9qk346MJ2Zqvh3R4MeCyNju4v6b6ysL268xfj5NMZHO0290xtHCVYm7n7HpSQyhdF4GYu/YY9nrB43bbW71tvaPLl8lM6mSgkfs1Ll3/IXp8ZCOLDq4o4Y90jFyhx0d08q0B32qSF7IVWhJXsaKWfad1WZ2pb/M6mmJYlk6ED5b6aqoES3QN1PTPqxiNUCpycXQWZfNbC1SisiDw24N7DK22D68dRZIMoqM3e5MB2yeRF2GxDf04CCVolkXpRPjqcKqjNkdTLZfQyHw5cAUIAAEgAASAwJsRqKHmji7C8STDZlD67nx9qH908fDmPo1QOnq2NlCXVQa4QOTDTCx0G0sziI7d7k901Asrgsq+WFvrHN08DsXTTDp6vTvaXsdlkThZ5bw5F6mQAC+Eb1v69uTgNkEj5iFyujTUwm2HIEhNgebTda3T6GBQ8NRv7YWrqr+dpemLYTunw8rqvx2mU/tDgt6SZUUYavtWDsNJhkXpePhg1MUB5IzKCCug6PR7I6fY5LNXuyZ2T0NxXifFT8b4j4UUVZAsakPrWoINzTWSucGp7dunmcMeTHyX2Scu6bMBq3RN0+RfjKQia10kQWp0rTMRNrrqyyr4cvvEBUptdlsUr+f7hROy6PirXnz5bxncY9ibaWc5oaubuEGJcCiZPhwWGBKkrmc3QUeCURScbRHGJ9fyvJDN/jKtuBwrBt7rt2r/s/vafZTd1eoeXLummdMRGy/AjY6FEKKD66M9bsrn+756nswIQlYlSphB8NuD0FvHLtJMeGusx035exbPEmxsPVDL18JHofufU19aKcrVOXWQQuej2Qao5BJqyfcTXAECQAAIAAEg8IYEeOWXPJxopSiHb3Dxmn5kI9sTX9oob9vQxg2DLsb4D6eKhGzqbKGrw+vwdn/bvUP06UB9Trso+GJD49Q1/XA++6Xd1uL7sh6k06cDDTqpkCUV8uZpyCfAPTXfTnS3PzHY7fZ09syfxNnk3gAvbj6WkCU1OufoFZM6HjaT1q6fD+nz0dqcQJRnVWYbP2eSR9PdTQ6nzdPtdfGv0XmjgssBq7251t5kMldpCPns2Z3NqeOZdg/V7OlssZs0hJoKkkVdGdhJosvhxmxfG9yrCXQxZhGVJUGWty3fM8dDzVZSj2lZk39JELJlDaNniN4MGHMrfaR7OsLeL3kqFK5jArRIyBp6ttJsaN5dTlQ5l6LM2Rg1cUXf/2jJPnrpXOO3TGjR37vHPKz58f3ceSHrdXJbY4v/vE5hu8O76TNz5x7D7PZyet/Ys5liLyeEYwfw/QMqUWLL8dvD0LX2wN7MtAg4avy7SXQ9WaclNYbO1Qc2tNDGbR7iHji8CzFByKrkEmuBABAAAkAACACBdyGAK1SC/Ny1nUKn/XVZFWIJ7DPocEhXsC9WmkVjGdhj0P5A8dIm7ou7N5LMwaA194ZX719J8MuHuJOVmI/llVwXRS2WAC+koG2ExbedZG+nreRHW5HlDPmvZe6GSR5tH0bpqxGHoJ2M8qwqWpfuUGTBY85JwCyWAnXOyR757GWFZFQFkoQ5htrcu50S3tSTzvFg4WLnJ+/i9V3sgck8ZtLh4+UuuyBYhQLL3QsRNjrXyq1Dc3/axsFzxOz0VCpcz8kqLnFWyA4bdVUVeouhyTewFWbYuznKoCEM3m2a2ftCmANr8fTBUH0ZQZKB7XjqsKfW0LqeZPb7tUIDPvKKrN7km1w/Dd4lUqnEfTSVQQcDJEGWO2eDKLZACeMDE7IqUflRgt0e5c7ZWxRf8AhFETr90DFi9ruMZLlj5pZNLHmFKEzIquTK14LxhYtAAAgAASAABN6OgFTflLfMh1BowpHVGXr36gO6HK/WSk8qkGbRkNRcFF2ON2ffTyr6YvYxwyLxX+Yxw50IhDlZDSHvxzEUCgnwQgraRugMw6eI2fMbPqKQ1RDG5vkgemSuplvEnYqcOJFlpWvq24siJnqyMd3ltubSFwlZxeyFZNQEknJfcA8GzOl3k5Yss34/ZqJzbYLywZWM1mhw9c1eJNnoeptJfPbgAryQvceEbAMmZGWuFwhZYRPF4+Mjm4ocz/Y08Qlqeo+yB1JVWSdvmPCCXW8fvmDCi9R/RFXz4j1zPmrGlo3zK7Ifao9smW3sjKYvfwy5Xc21TdS3Y4YRhSwbXxTVZ4GQVYjK3zbY7cEL33heE+NC1jUXQrF5US5LhWwQyefK14J3P4SBABAAAkAACLwZAam+4dZlUHjKlROyrpU4upqo+YWQzX84r+qLk5v9zdWNduHPZrYY8K0FSnlFX6mYAPPURUeD6YzDZ4j5yQtZ93QE3XJbKnlp9c57ZHPyrpxfZ51pEVYoswtwrBwrrtlGEzU4uXubzNA3y35upVxeyMpll3Y0pyk5xSwvkBRRE+TnjvUYczFUX6XrP0jHV93i90hFI5Zf40v+6JAo3eKtBVNh+a0F2esFWwvYyzm301XfZDdZjPkorW34AkWX+fPgLL1bD8m9td279Ek/t1W3yjp1ywRnGoR9vZIVWQ1BfpxTCz4Fdhh00p87yUJPbaSzQpZfY2eDc/yJIdwiNnaOLLf8rhAl9gd/e9wtUhwvY2A9yd5Mu4StBdUdO0mUfWFh/rJLYxsYMCGrlkusBQJAAAgAASAABN6FgFTfvFDIKvpiE7fNLzTfJq475uQp5mQV8wpYFBNghRQKWa215yCNriZqOS3eOHSOUru9uW+/PqqQ1SixEjhoCL1l5Bxlv7IineO3KLKInXavlF3a0Rx/ZRWkiJrbPOmeDqOb6fbAz1R01YetmEpWXjmh7Ji5YQuFrEbXNnvH3v8QPvayjV+g1Bb3sZfC9bzVRXtkxSiyZTKEQnNuXtrq7XNh9jETW/PzByboLCPcocdO7BSw/IpsdhR+kHNky+yTl4i+WO53uZzWZvfQIZ0TsoShYeIyjaL7swNtFOXwDiyHxFMLVKKE/tDW9R0z6Ga53W4pI/T1E5c0Hd4YCTjbOgJzp3E2ttldx79MMbes3LF0cPV7l8PtbR/ZumWEPbJquYRaxM6AABAAAkAACACBtyQg1TcvFLLKvthon71l0P3PmQGKopzt3b1f/dzbXszJliv68ZyvVCwcKyS7EzR5NEVRVLO3e2j9JsVG17qy+3d1NaMXDIpsjfW6KY+rY/aEecdTC3JGFa/Iagh5VmVWf19/p8PlrHf5vmxF2Ictj4HbOerdSrLxw5Eur9PX2+WpL1PIXijxuTGmqIIUUXO5dJbv53Qiek9HF70Gcb2cC2jrPaMTPV0+Z5u3tXdi/ZZm71bdRlKDn1pA6CzDJykmvPGt09k+MH+ZYoLzTfzxWwrXRaWkLGR13vkYuhYO0y2r7RxbWei05Ra5uV2g6S2PipDVEKTDxn315bBJVo8ltr3FPWms+7JyGHpgMhmWSSei4bN5n3B6maVxcGU/GE+jDEsn74Pnm8PCmwVCJSrHTktN7YWTsTU/9xyprWn+vnF6xx2/Fb89mOm2559FquwdCwdX90mGSYbOzm7T6Cx3bIJqrrcgIw4CCAABIAAEgAAQkBJ4VSGrIZR9sbbWObJxHH7gDqlMxW4ORrOnOGFOVjlvzlcqJsAKqWmbO7qMJNKIZZlk5GJnzN+YXwbWNXhmD24SNJthmVQsdHkwVvDt1Js7ZTkhy5+fVcSqomV8P8g1PYNSd5e7o97sOhpZbg3MPVWAFgAAIABJREFUndwlEYtS9ydTFCdLZFFLO1oQaUoqSBE1l9EUWEtkMuEFO6YOuetkc8/6yU2MV1uJyOn2tKeBV7rYqQVcMm2NY2znMkYjJhk8XPDWC+pR6XquU1SEbOcqJ7r4o8eKerCyd59B+wFsq27hiuyHEbLSO7PIEqHP3iSZsWczzez2vcZPxr2vIVA7EAACQAAIAAEgAARwAlr7t8v02ag9dwYFHlUKYRCyslJYV+3/1t3la3a5bFT3t90I8/Czsxo7RK0UuvZNtT4AAQJAAAgAASAABEqJgMHY5Kyxt/oXLx8iKy1GWTlUAhdByMp2krll5uTm/iHNre3Hbo5+fHHBcqwsKLgIBIAAEAACQAAIlCAB0jlyRbMoFTn90WWT7o4tJTmO/bKXuID3MfbIluCYKKmOF7sbAkAACAABIAAEgAAQKFECsCILihkIAAEgAASAABAAAkCgJAmAkC3JbivRxyZoNhAAAkAACAABIAAEXpEACFkQskAACAABIAAEgAAQAAIlSUBGyDY2VO2NmRsb8j+w9orCGYoCAkAACAABIAAEgAAQAAKvQkBGyMLHXq9CFgoBAkAACAABIAAEgAAQ+KMEQMiW5EL6Hx0TUDgQAAJAAAgAASAABEqCAAhZELJAAAgAASAABIAAEAACJUkAhGxJdltJPCRBI4EAEAACQAAIAAEg8EcJgJAFIQsEgAAQAAJAAAgAASBQkgRKXcia6vump/qd5TK/qqUSVVpd9dcYUlrYobVAAAgAgX+EgMU2MDvZ2yTnSZ9JQFvbOrm5PNT8oqIkhZgb+2fGe5rKZLz8M9v2z5Xwr4iHEheyWmv/KUptdFYUD1CVqOLEz75iNLo63E2W/Go52TJ6nYys+olnF/WrW/HPGfLn2vzqEKBAIAAEgAAQeEUC+PyvtX29QLEVr4wnfW6N2uaRaxRZaHuZkMUKecW2PdeW90lfpC5+uxl/Tjz8dpP+TMZCIVuhJXso/d6YuYfSV2h/pbH+TJvy6vCX5av0k0rUL4v9ZQKydeYOXU068veq1t67db433vrfL/M+N8GfM+TPtfm5NkJ6IAAEgAAQeEsC+Pz/imLxHxWyltbVKJs66K7V5QWMuXs9wYaXvZ+f1a3F6uJZ2fHEryoeSGr+gs7IP+0Y+naYx/w/ZqddR5bVDh+h/DU+xN5M4+/PTdRqlGa5mAyiE/c3B+uT7TZTFmCFb/0hk9gI1OR58qZVelbCGWa7J5csGysRsiaLbmnQtDdmzv4tDZpMFqxXcEAfJKzSTypRL2/8Kw61Xzbmjxryy9ohARAAAkAACPzdBEDIvrh/y2r7dx7Y8KJHkK2GxplblNjxWZ65IPiK6uL1xMNn1+RpInqfYOWFbM3XQzq8GHBZmx3cX1N9JUFqyGqLw9XgzP61uMePH5jb6TYzJkzNXXsMe73gcbvtrd623tHly2QmdTLQyP0al67/ED0+spFFhx4DSDpGrtDjIzr51oBvNckL2QotiatYUcu+07qsztS3eR1NMSxLJ8IHS301VYIxugZq+udVjEYoFbk4Oouy+a0FKlG5YVrtmtg9DcX5cuMnY/zDgbbaPrx2FEkyiI7e7E0GbJ+yiQvGk65rnUYHg7VcN3BRGeFZA51+byyTTAQ11NzRRTieZFgW0bHb/YmO+vzaLWGxDf04CCVolkXpRPjqcKqDLxO/kRQNKW6/LCh9y0qcjczbSR6a9BG5vHn6GsUWKL1G0mZSo8QBbxiEgQAQAAJA4EMTyDugDErfna8P9Y8uHt7cpxFKR8/WBuqyygCf//kwEwvdxtJMoc+SdTFZz1LrHN08DsXTTDp6vTvaXse5OYm7Uc6bA6iQAC+Eb1v69uTgNkEj5iFyujTUktvCp+Kj36GDqqq/naXpi2E7p8PK6r8dplP7Q4Le0sqxIgy1fSuH4STDonQ8fDDq4gAWqwuOqmz2Yj1AahTFgyxqQ+tagg3NNWalAkFq+/Zp5rBHKr7LqgM/Ivcbva39x0xOyJr8i5FUZK2L5DmX2Scu6bMBq/K6p8m/cs9cTbfkxFWudzghi46/6sWX/5bBPSa7aqurm7hBiXAomT4cFhgSpK5nN0FHglEUnG3BNBWZF7LZX6YVl2PFwHv9Vu1/dl+7j7K7Wt2Da9c0czpi4wW40bEQQnRwfbTHTfl831fPkxlByKpECSKYvyVSxzPtHqrZ09liN2kIvXXsIs2Et8Z63JS/Z/EswcbWA7VcXSo3CR8VXA5Y7c219iaTuUoiCvlakkdTlMfrbO8d2btn6dOB+mwf89Wh+59TX1opytU5dZBC56NZ04RGEsqGyLSflAVVGdhJofPB7MCqHtpnHtHZiIkfLlUDR0xyy2sgJW1W4fAOM4KIAgJAAAgAASDwHAJZB3Q40UpRDt/g4jX9yEa2J760Ud62oY0bBl2M8R9O8clyuiTrWc4Wujq8Dm/3t907lPdZ8i5GQxgap67ph/PZL+22Ft+X9SCdPh1o0EmFrFLevDmy/ktSCN82dLc/Mdjt9nT2zJ/E2eTeAC9uVHz0u7gtnXP0ikkdD5tJa9fPh/T5aG1OIMqzKrONnzPJo+nuJofT5un2uvjX6MXqQhE1t7NZqmeUxQMh3xeVgZ0kuhxuzOoTg3s1gS7GLKKy5IRQY99h/HqeqtTWfcGE7BImZMvblu+Z46FmK6mX1bKGxpkgiq63GvP9zq/LFglZQ89Wmg3Nu8uJKudSlDkboyau6PsfLdlHL51r/JYJLfp795iHNT++nzsvZL1Obmts8Z/XqceWggva8Tb/a+7cY5jdXm7F3tizmWIvJ4QvIvGVc5UocUzjt272oqFr7YG9mWkRoNT4d5PoerJO+2shK90ji22WL6iFe8hA+wP8squhc/WBDS205bbS6rwLsSIhq2JIQcmiXbkABsoy8JOmd/uqNQT5uWv7IZlMpvc6zaSGMLVvpdL7/TruIQ9rswqHwlreptOhFiAABIAAEHg+AXxi5+f/FDrtr8sqDEtgn0GHQ4XzvzSLxjKQ91mS+R9zMcbujSRzMGjNveHV+1cS2ZeT2HdaSnkl10UDscKLVmSxN9oW33aSvZ22kqo+Wr4Ksa4/FfivZe6GSR5tH0bpqxGHoJ0UWFW0Lt2hyIIHf9teZBQne5RQYx48a6+KeJAAwVCbe7dTwpt60jkeLFjs1Jm/HsevZ2x6UoMLWUlp5Cfv4vVd7IHJPGbS4ePlLrtRIhotfVtJ+mi4Ed8MgAnZYaOuqkJvMTT5BrbCDHs3Rxk0hMG7TTN7XwhzYC2ePhiqLyNIMrAdTx321Bpa15PMfr8Wa0NeyH6wFVm9yTe5fhq8S6RSiftoKoMOBkiCLHfOBrOvxbM2YEJWJSrPtOB25Qu8RfEFjzDgCJ1+6Bgx+13GovFUuLWg4GMvbEgV1EJSc1F0Od5cRpDljplbNrHkFaqTE7JqhhSUzEGQB6XRWr8cMw+bXZ8Jg2slGlocm79LrPqNmirfUpw5GKzjhhRWWrlzVpEDNlzyJOEiEAACQAAIfEAC2MSuIcjylvkQCk04uPfdGkLvXn1Al+PVWsn8j/sCLhnms5RcDOen2McMi8R/mccMd1gBrkGV3FMempL/wtSw1BwNoTMMnyJmz29Q9dH5Kv6UZlXwhsbm+SB6lLxGV2Sla+rbiyImerIx3eW2yu9pzMoeedSY6uDtVRMPin3BPRgwp99NWrLM+v2Yic61CfqEIDXVfVuJyDzFf1mlLGRzKLRGg6tv9iLJRtfbTCJ2nfnbGfOw3Z6/IkZxK7LCFs3Hx0c2FTme7Wnil/lqeo+yB1JVWSdvmPCCXW8fvmDCi9R/RFXz4j1zPmrGlo3zQvZD7ZEts42d0fTljyG3q7m2ifp2zDCikGXji6LuLBCyClH5AVd4S2SVcZzbMJob97iQdU9H0K34kd3vC9n8EQflrrkQis2L1SkJWSVDitqvBEpD8KMnvuo2ts6Eo4sei/tHLPqjvbJ1KUKf9me3HGCl8TeAAod3mxHE4Q4BIAAEgAAQeBoBbGLnhKxj5haFp1w5IetaiaOriZpfCNm8z1JyMbw4S272N1c32oU/m9liwHcFKOUVvC2pmABXw1JzNITOOHyGmJ+8kFX20e/ntsr5ddaZlixwrssUWXGNNJqowcnd22SGvln2cyvlBfslVLIXkslWJC+QFFET5OeO9RhzMVRfpes/SMdX3eL3SLkvrvJPK2zm8THD0hcTtZiIFHszG+BX65I/OgRNpbUPX6L4ul/uQCf+Y6/LObfTVd9kN1mM+W2vWtvwBYou8+fBWXq3HpJ7a7t36RNeulRZp26Z4EyDsK9XQ2B7ZDUE+XFOLfgU2GHQSX/uJAs9tZHOCll+jZ0NzgmnXGFCVi1KHNNFHa8xBtaT7M20S9haUN2xk0TZ1xbaxqFzlNrtze0rlwhZ5/gtiixiR+XhJePhgnFp/rJLY1sj5ISsmiEFJROkIiiCLLN+O6JjPyaWg7H1Vj352b8Rv18bXbmjj4eN2VGIl6bCQaQHASAABIAAEPjgBPCJ/cVCVtHFmLhtfqH5NunnO7mPve4WqXJV95QVPYqF80I2W0jharHW2nOQRle8llLx0e/XR8VCVqPEKt9IvWXkHGW/siKL1IVSdmlHc0i5TQjyAkkRNUFqdO7pMLqZbg/8TEVXfbjiLDNahacUe7WNGrtAia3+WqtF0EsyT1bljpkbNi9kuVVelNrokpyWJWjfoj2yIhCyZTKEQnNuXtrq7XNh9jETW/NzhyEQOssId+ixU5evPb8imy36g5wjW2afvET0xXK/y+W0NruHDumckCUMDROXaRTdnx1ooyiHd2A5JJ5aoBIlGFzc8YS+fuKSpsMbIwFnW0dg7jTOxja7+TfvhK5m9IJBka2xXjflcXXMnjDCqQWE2buVZOOHI11ep6+3y1MvObWgoBbJA5a5ZeWOpYOr37scbm/7yNYtU7RHVsXGgpIJUhkUqdFae49ohJjYagc3NPX+HwmEEL03kLVO+mpJjYNATxxkEAACQAAIAIGPSUDqJl66Iqvoi4322VsG3f+cGaAoytne3fvVz73t1db1HTPoZrndbilXzJvzKYr+Cysk61u5j6cpqtnbPbR+k2Kja13Zo35UfPS7uS0ZIUvIsyqz+vv6Ox0uZ73L92Urwj5seQykplhdKGQvlPjcaFRUQYqouVw6y/dzOhG9p6OLXoOgMosA4lsL8FMLtPWe0YmeLp+zzdvaO7F+S7N3q27hu67PgZ00OhvIbdEuKFNZyOq88zF0LRzVX1bbObay0GnLLXJz+z/TWx4VIashSIeN++rLYRNWht/nXjXWfVk5DD0wmQzLpBPR8Nm8jxfjpIawNA6u7AfjaZRh6eR98HxzWDxiVyWKJyi9w3Mdpq1p/r5xescdvxW/PZjptuefSHQNntmDmwTNZlgmFQtdHowJ+7LLrYG5k7skYlHq/mSK+g8vGQ8XrMgSpKbK3rFwcHWfZJhk6OzsNo3Ocgcy4H2sYEhByVzXqIAitd07D2x0wZMdmgb3jxiLb1UpKE2Fw/uMARwIhIEAEAACQOAJBKQT+wuFrJqL0dY6RzaOww/cUZKp2M3BaPYUJy01tRdOxtb8n1TdE+9/Ff0XVkhN29zRZSSRRizLJCMXO2P+xvwysLKPVhRkf9idyQlZ/vysIlYVLeP7QU5eZFDq7nJ31JtbYypUF9njt4qyywlZFYGkiJoDZQqsJTKZ8IIdU4eFAKVCNn9qAdncs35yE+MVWSJyuj3taRDVMHeKFpvcaJMvVkXIdq5y0qj4+zBu/Ff27jNoP4Btui1ckf0wQvYJt+sfHo6FvfgnqjP2bKaZ3T7sp27/RC1QJhAAAkAACAABIAAEZAlo7d8u02ej9qKDBUpDiYGQfeN+0lX7v3V3+ZpdLhvV/W03wjz87KyWPXrtjRsG1QEBIAAEgAAQAAL/DgGDsclZY2/1L14+RFZahP0Ab7GKJ6unf/ciCNk3HrLmlpmTm/uHNLcnIXZz9OOLC5Zj37gLoDogAASAABAAAv88AdI5ckWzKBU5/dFlE/cDlB4WELKl12cl97QEDQYCQAAIAAEgAASAwJ8gAEIWhCwQAAJAAAgAASAABIBASRIAIVuS3fYnnmmgTCAABIAAEAACQAAIlBYBELIgZIEAEAACQAAIAAEgAARKkoCMkG1sqNobMzc25H9grbS0ObQWCAABIAAEgAAQAAJA4F8gICNkP8YPIpTkY8G/MGLARiAABIAAEAACQAAIfBACIGRBMQMBIAAEgAAQAAJAAAiUJAEQsiXZbR/kMQiaAQSAABAAAkAACACBdyQAQhaELBAAAkAACAABIAAEgEBJEgAhW5Ld9o6PPlA1EAACQAAIAAEgAAQ+CAEQsiBkZQlUkbWN1hpj2e/+9vETxreu0lJnNr/xz+JVZSv9k3bJ8nzRxTK9xVRj+ax9USFP6BEoHwgAgX+TwCtOjFVkbUONxfCyORYv5F08xd8xDHSfzXWWl/ZFCaAAIfvROkn3SW/W6p979tnv5VKxXW+0O5utpqLJyGi2O5qs5vJXELhKVai06uVRT6hUa6pudtprf0PEPxHOE5OJxurIeofTVvPpFZiLZYqBF4yc3wcl1g4BIAAE3osAPhE9YWJ86vxjMNmdTXW/MX/iHPBCXrFteBUfNvyCObmwj/QGm9NRby7y4x/W9t9sWKGQrdCSPZR+b8zcQ+kr3nUFqMxY73A56kyFkq7cWN/kclrNur90hcloaXbaap77OPt7uVQGjdLcYdDX2+tfZ6VWqQqVVr086imV8jBrn9sFpIZ4IpwnJhOM1ZprHc6Gav2fGfAvGTm/DUowrXDahetAAAi8GQF8InrKxPjEhuEa9IlZipPhhbxi24oreq0rVaS12elo1OuwAklLncPVZDU9c93nJXMyVjs3u76mkK0wWBudLrnlLVJDVBE1DY3NTqfTYW+sI3USeVams9Q0ya4N6ThoLv6f09nc3FRfX6uryuV9lgKUCFmTRbc0aNobM2f/lgZNJoukQX/GlRagz/1vhcXmdLmcTVZCoqe58e1y/Tm/Lt+YNzT89wbx7+VSMfYN5o43qKLYwKdUyqWptxQ+Qb3hGJA0u9zU4HDaJPPja+q/l4ycjwXqvToI6gUCpU/gKROjZF5SNhnXoE/MUpwML+QV21Zc0etd0VVbHS57nShbdZW1TU5Hg458bhUvmZML6no1IVuur21wNDc55IXsfxabw9lcV2PRGqtr7E5nU11OtmkNZE2DzeFyulxyLzl1VQ1Op91KGoyEwUSaa2vsDpfDZqjirHiWAswL2QotiatYUcu+17rs55omp6PZLl2LqjA3Njub7ZI3v1XamoaGJofD6Wy2N5qMVfwqetX/2TsTtrSVLo5/NLRbCDuKIGsQRcQFl2rt4r5Vq3WprXXfV1AUgSz45e4zCQmTkETcWr09fXzeNxdmOfObyTn/TGYGY62X/zBMUaH64gyi+Z3T4wmEkBCmQn6/z1ma7lUtRBoT6qWp1kvW+bzIGFRHwOexOV213kCAoigq6HXXYMsczUSNpz4QQl/4vU67NP9ncwaFJ5RwOEx5i/Nw+uaRBqI8l4rNrx31viCFTAsFPHXON6UnBJEMRYWCgVqH2UBgvsNotXhDIX8dgW5I7HPCLDUWtSLgddgt2CsMsUwV2gJYVFQo4EM9QqGLWqdNfHKt3PjKbJC3iwoG/OjZsdxmwTAT6fY7rdIjnFZPlRuJw0EPqRrjDU+mbz8qBN3q3ppXSLyWEuuPLo2ONr118EMuTIVCAXFavXzkoIpUx3bZPaUAJd0vcAEEgMBfJFCho8AdEbrWcowa/kTLUeAalNTOW+SjkQAvBNmmESnkms/ocFF/cw7iTY0vRPntvA4zmGvrkTHSmzRVp/roPpk0GC2ky4sCPUUF/D5vMCwtLVBDbSLdISpQ906cHKl2eCnKZ1GIb9LhCgbrHDarT1xwSDpqA1TA7UCByYiCSFCceK4yu7wUVYdUBPna6Qv46+12Z43GjCyKbr5aPrrx44Gs8VBhH/86tGIFiDKWhKzwy7TSdKx08bd+q5ZwBymfi6z1U0GPUZBcRpsjQPnrHJZ6admH8NDjr3Ha31ntVk+AogQ5zw99X53JZidsDiOarDa9rfWHqKDb5SStdqO9zhOivLXCTiOtQiRPpFIa/7ClUa/XRVrtBP9oEg4H3bWoRtLp8VGlGgVj+CcYh6XOHywtokB3pt/teGu2vjVbX6PxdKt5gpBV5Cq3mawy2002+zuLzSgYU1TJEpka0mYnHTUkug9Rdv4lAv/GJFhvKr4xkT4vpgl5XaTNbrQ57fVBET6yWZu2jCoV9DqcTqPNYanzoTuueNtXbjyf8hYblO0K+dxmu51Q2iwZhl8UG6LWU+VG4nB0CODJdOznzSCdbopyF6eHxcS3jC6Njkb+JVTvchIW6zub01Rch135eONrl91TOCi4BgJA4JkQqNBRoGTim2Lh7lZ3jFqBQyMI4hpUwxeJsslAaCXAC0G2aUSK5yVkDUZkdshb+4awmOtDIZ/rbbGlGkH88X2yiagLUFTAVes0Wu2mGo83VBKyqv3Iv/ETxTdhMrpDlN/1BusgtD7BG/KhmWazTMgGRSErKFe7NPVjcwbCgTp8gw2v3FS2nfAzsriQNTrrqLCfX2BdmQIs3nElIRuj0NLY8r8YJT1S/Mm71GRCE1HOahItEBT0zSuklXwWE7/3xVuDZu+MzjrxW/Smg19NyM9i4rcobzb6qgiIT4k29BSFrGYhUnvLS6uoXuGlsLUoAc1mrzi1xhvjK/Wr2VyPRg8/6OV3pnYbq4ymapL/M5qq0IysYmVtmc2yockPoHonzxCRwYwRWi1kd5J1gVDQaxGXrWACFxe7fBb0LCU+DevQLpmhsNBsqkePhjwExVdSRwgXmPElwa1ug0a7xHsMt7lkGFadXk+VG4l9okcAS6ZjP2/PK6c3RHnNxedjPCOpObpkDSmxqrK6A1Swxia5G6GZZSNH83aQ1a79YhGjJ7MEPgcCQODPEJDdqtqOAk+GX5MGTcdY8ifawRfXoHh7sbzqngFPgBcit43AI4Xcff3tGVmky611PipUj959+u0W0dlqONXH98kkEoLYHhutpQUYan6uRNyDoaI43zh9QX/dOzSZiAlZrAdRK8LBGqvU1xabj6LqndjrWZVi+QjCm+GrfW0kq4zm1xZ+LhIVhWYeK1KAohklIfvMZmTNFm9x2hXNMKOVslabn/LzMp+oQ6rtDUFWWer86D08mkUX/oXDYX6/pGLoCylDtVIU5zdcC0JWuxCsY0pPruhD7Syyequsbj8VcFiEckrPOig7hRkjLAcp6hX5naldF+kOFZcgUD6rSZlLrjiLBry2uVy+QCBEhULBYAgtXHgllC83hh9hqCFUiKLCwRI0NGjwBuLXpIFAzwY+fpKb54M1EKONCSBFdvJ1DZqzNqMbRvmVgTCpGl+WUm6DRrvESQiZzZhhUr/zHS0vBC3cKfZUuZGlT3QJlJLp2M/bw98FwvOGEj6pNbo0WRmtFjRrHqz31Jmt0iIQ5cipcGyr4oIPgQAQeAYEcA+j4yjwZPi1wjGq+15tR4FrUPW8GCKtBHghCtvwSCF3X89AyBoIfk40TOFzKJqsHtsno4qoEC8EhSiGC1kt1PyDgXAqjqm2nhJ0pBgE0X41afrjSYSstJIyHA6HAr4ah7DMsiIFKA2kkpBVXyPb5/hLa2SxsYtQhjxubwApNsT3rSsgrOrgx0eozml9Y8b+SFOZPigqklIHY9JKuxCxL8t0lXYWzOyiRgw6H0HIqrSx2mwj0BJpG2G1vkKLVG6bkeXn/33uGqPF+tZityM9JgrZMCY6i484qCEhr8eFXlN4xHUFCokpayy/Trdog/J2wmhLI6+8j/SErIbxZYWUOAh9JFfhCvuLSzKw51epx4sXQkPwQu4gZHGHIiOAc8Ovy+wx1XqoUF3plY0sMW+byugyaLJCSz5eW2sc9YFQmPIJy5vK5vIFbpXcU1hXKrnBV0AACPw9ApU5Cllck2XBnbmWP9F2FJgG1fNFvNPQTIAVIrMT5cIihc2JL758FkIWPTkEqKCzNENZnEdTc6qP7JOFTsECFiZkNVGT1TZPkPLbzCR6ARgSV3LySgDFO8VMYTgsvj0W3T5fMhan+KUFsrM7dWdk/XVGi+2txfqaNGGTuNiA1FaA0i1WErIGglScWrD4xRtuapWS/tkLvuXFs+hM7+oCVDgc9BSPL31TgyZI0cJZfiJdWFEhNw+jICgzssaNT7njwkKzELGfym6kCuvVlBpGR53sbT6/tKD4Vh01XLa+5HbzkABS5iqzucqOllWL6xxMpEdc5yC8jCitcxBaLQIkHTUBCu30Ku4MEz8vmyCU+T4d2kWhXK4pLRYvJd4heC3IHk3jlc0sCVmhj/DHYn6EKErG0pcMk/odLVbR7ilFUfIW6RHAM+LXSiGL/HWoniySl5ev85ik1dGlBprQHVRc0V82cjTHm8JUjFKpZPgQCACBv05AdqtqhiGZ85RlwZ25pu/VdBSCBkXLtzTzih5DO0GpkLLZCnmkQD6SXyMnrC2UlreJVciFwZ/omnIhqy0YJHseySejNQzYEkrs+C1t1PxurQDlc9kt9dKaadEwowWbJbQ70JalmrcmYUu9lMZWEyydMoZv9hLh83JOqTGQiFdu9ir1Gp/lVgUoppcJWXTkQekcWVuoebAxMWd0+kRrRLvFzE/4OS80hc1rqBaTw+F2m4XNgMUX8UKANxFozjDodqENPYTNaXE6+HPjFbclQmZ0B9Ei6BoHgRZB1/uxrVcahUjtVSlNI4sspbYHQTuB0BkVNQ6jtbjPSdjlh5aGeEJUyGfndyOZbRb0qkK9jZJ5qHVluWSWIIZmF5qELc7I2mzSgl1hM5nA0Iq2bZmtslMLqsx6L7snAAAgAElEQVQ1aF9jcQIPLxa/VogwHdqS2Sg72iuGti45bR50soereI6EomQd4xUpcWHKr6/Xbhc/evH0kmH4hU5PKapWCE0dAnhG/FrBEK00kh7eeGtliTVHl1ZHmxxWp4Pg5+OtnqAokctHjtZ4k9XO24ODgmsgAASeCQHZrarpKCoTsjqBQyMwma1oSsJtMpu184qgtJwVgRXC26kRKcg3KJLyBz/xe7j5gwL+8smJKkJWK4g/vk82veM3tXtcNcUd5wFxs5cmatQXaGojFAxQipWEYjcVJR+2tAA/tQBl54/fqnEYbTVokkR5aurdhWylCrBooVLIGggy5EO7vkI+y1ubq7HjGxUfryb/+H4v/h2BePiUgibJnxAh7YART0fij3nyeV38QRKyO7kYdI1Wc53XFwyhs7d8PiRkS4fMqxYi1atWGqGaRZZS24OgddNETX09MgYdAuUsrgtBNVaZHDXIyjAVCta7hG1JqnVJ5qnmklnCE0AnfYinj6HDh72lE++w8kNB/mAmWXa0zS4c4lUm/jl+rRBhpEGPtmA5OiPGxx9Vhk7f8tdjp3cpSkZKXcN4RUqFML2lXfjEg7Yy0+opRdUKIatDAM+IX8sZovc1iiUfssTao0udVZXVJfQ+OrqLP6hOaHLF401WuzYu2bCEZEAACPxxArJbVdtR4Mnwa7kj0vS9QhQTTvRDJ1qKwZes5l1N0O2o0ssrOAp1Z2Ug8EJ0IoV42hTazoGOFfT7vQ5pJ8wfmHFTq0JNyKqzehqfXDz2EUkIKhQI+OtqhF9Z00SNxifaVR8OKwWowpnLhax0agGCgH4QgT/zK+T3uk3yH0QQ3hhrniOLn1og8byDAkRG6glZA0E6vLGmxJyb6vnjt6KC4GP/JzrlgXLzR53935omDYXncwG0704AzTRIB889n64ES4AAEAACQOD/RgCt5RAPJH1sufX0rG4RsgaC9EcHmhJzpprgSxd8b+y1FrudsNjeWflDT0PSnO7L67bn3xdA+2EE+CVisvXyMEqBABAAAkAACDwiAdNri+2N2Wau84cCsm1ez19j4BbeLmTfWGsi7dPh1slXJhue86Vdm4wuny+IfnOLfwnisRYPhH/EMQFFSQSA9oMIVFnqfIpjUJ7+ofal3dHSYIMLIAAEgAAQuAcBNGOCfgPM5zGXTou/Rzl/OcvtQtZAkDZPU1NiztPQC6EOCAABIAAEgAAQAAJAAAg8EwIVCVkDYfI1fm5KzJld1DOxG8wAAkAACAABIAAEgAAQ+McJVChkyddmR6RtuqFt6pXZ/o8jg+YDASAABIAAEAACQAAIPAcClQpZA0Fa3ZGmxJw38vE52A02AAEgAASAABAAAkAACPzjBFSErLfevDrk8NYrTxV+bXY0tE83tE+/Njv+cWrQfCAABIAAEAACQAAIAIG/TkBFyEo/iFBunNkVbkrM+Zu+lH8FnwABIAAEgAAQAAJAAAgAgT9J4G5C1kCQbup9U2LOUd/yJ62EuoAAEAACQAAIAAEgAASAgILAnYVsNWmhWsYbO2bf2dyKsuA/gQAQAAJAAAgAASAABIDAHyNwZyFrIEjCUd/YMRuKjVYbleto/5jdUBEQAAJAAAgAASAABIDAP07gPkLWQJBOX2tTYs4V6vrH8UHzgQAQAAJAAAgAASAABP4WgXsK2SqjKRAdbErMkjXBv2V6BfXaPT3jY71U9dP+vOefqeXP/gSc0dU4+mO2P/io6HRA6Xx1a8MfkvfWwiEBEAACQOB/T8Dp65sc7Q48gsN/lNghK8Th7Z0Y7gpUPW0c/1928b8SHO8pZA0E+cZSE2mfaWh9xj+RYHT37rC5pfZXejeAzRZujQScFchijYFeUS0aefUMIw1EmW1kw+BRNjXfRtySsbLqLMHE3M7ZNcNxzOXGJ6cJK9wYHDhiU9NNj+DXJFN1QOl8JWXXunhI3mKZZZzxuhSUjJWxxUuAayAABIDAcyOARxOj7+M+ezkX042Vlbm+R4kdeCGPaNtz6wJ1e3TjkXoWja55hOCoUfKdzHj6xEoh+8pIdkUtq0OOrqjl1W0x21rX2JSY8zU+159IqKQXycaJc/ZwNHR/xVZJLffryHLbjP7u5b3V4cY39ytQlsvsHj1mMptDiWZ/uCkc9rzCC8f9iCzXA4a1Diidr26t/SF5hcLLOZcqLaNU+uoBKKAQIAAEgMDfJSBz+CBkH+jPnY3zaS633ukylSbFHJ2LGS45G3t7p47Wi0d3NPLhwZGo8ffP/j5KZxmWvk5tLw0EnVgDpXZZe34xN6V/zK8WE2+qPdK3uJ/KMWw+fbAy3uRW7KqyR+fTNIfyFVg6c3G8vjja4iv+duyr+OJ1IbOUqC3x5Kt71zyXLDA/u2Q/MSsTsnan6dsH++qQQ/j79sFuVzVasp4g6xv6mhJzdk9UUdmz+M9KevHhg6aSWjBidyDzcNt06jW6328zmfm4+iM4CFkBnT4lHbzwFRAAAkDgpRB4xFnPR4kdeCGPaNtTdkeVq/fXNZecaRZlq9U7ccJmfsWdd1Sfjxj3H0Gc2EMDs8P9nZFoLPphdjdbyPxIqLwQrv24QSdnEmF3MIT+Ap53BGkw1ndvZJmzH++bw57Gnsm9LHMy6TPjNBwdqwx3NN0cifgbY03dg7MH2UJuu8+L9K6pd4O9ueFSMyELloUMDRyyNzfs9ud6fKlJSci+MpK4ipW0rP687CvSGm6djHR8e2tz3UGi3TqeFH1p6lik2fUPQhW1TZMb+6mrHHolnk3t/xpq9b6WCjTVR8d/H17SLJtL7W/upjlxaYHJ3vPjKI0y0Znk+reeWgEoqqggPkmwO1+8iI7RRQ3+2Dq7yjP59NHKYEudcr5WsxbSYKzxf1rYTKEHmPTx6mjCJ9pWG53a3E9eZRmOY+nLk7WRVo9YbMW2KW7p+9QljglUFP8oxD8OoZdKeOG4H7kdiIb9BGnQAaXzVbE371WsNhPNYaM6BgQbyikhGlpdXBMeWdk540cmfbU9RFUTpU4vsPnzvcX+3sGZjeOLPMvm07sLfXX4LSqNYbgAAkAACNyfQGVuR+bw0Ywsc3l2cplnKgxPWnFBFju0fXixdRoJ8EJ4O/Mn2+snGZplrlM73/obilpKTyeIke7+GO9agrnm826e3v/kRzqsyvN5I59b6xf1lrqosLp65jaSWYZj81fJ9cEwkgSq8Ug9e3nE0Ym5qqitjQsZ7mzKSxYba+xZo5mNLnXxbWn4nmFPJjwkabC3zaRyqYUOksdb5R85oHf73LLJ2irv8B6bXWwvTp1WB8eP2Ou5uBUTikjIslsfLdLLf+eHVYY7HqeqCVPdyDGbSZ5l8xufRIYEaepaydCp0zR7OtkgyidkeUnICr9MK03HShflv1WL2YGKIJ2+xsQc1TJeTSrmje86DrD0OgOUH9bZzbHmWCwc7/m8fJLn0vMdgsa1habPWPp0cbArEo3Hv8zvZQuikCXf+OMt8ag/3Bj5sHBEMzsDPqRZ+YpOZxNuf9DlD9gdZgNh9Y4d0dd7k+9bfA3x94undH6nrx7vIZ1aLO6h/TyTXB7qikTbumZ2M9zlYsLFi2PkKbKbY9HmGNXSPbB6wdE7fZ5isZXahrse4p51FbuPLyrz84OHb3hNrc2AF477kduBaLAldEDpfFUaBupY9Iq9nYnKsFEZA6IN5ZRuw57bmmhpjgab2xv8dgFpdmOkMRoNxT/MHNE3XOrnyPumaKypf+mYYfeHYAeDiPrPxRuoEQj8rwnwXut2tyNz+Cg85XanO1pjoVjn55Vz9tbwpBUXZLFDKzSU+Ks7ebwQ3k72fG3kQ2ekub3r6/YVl13t48WNjk74K/7ERA0eMrmtTw7S3fH7Or836CoKRHVRUeUb3mOym+OdgRDla+6MhfnX6CrxSD27EF9kEUcvOKr3xbvEryx78MkrSBFrZD7D7g85JWUpYTRaLeH+pfP84XgEzc3Z275hQra6afaC2eoPuklLSSlVh6dO2fRUkygLTe3zOXZviNddxWLLhKy1aznPnX2NVBNm6lua2R2KjhzSF98bhBkfU3j4hDmbaeteZa4X2vCXySUhG6PQ0tjyvxhlUSjX8v/0Rj40Jeacvnj5V/f8RGeA4rcfeih0d63n2cORWiNpsHX9yHEHI+Jee815dUf7KsOsdKNXAIqKCNJg61zKMusf3MWJa0vbXEacqRXo69Ri7Vi45o4nGkTEtW0rWfZotM5IymQiQRrQkwe71lc+ja1rG972B9aFFyW0C/8E9yO3ApHGOrrA7NcBpfOVrDTJ31VWbOVM8GFTPgYkG3AmwoeVV4EGp2zl2duOnzl2p7dOuNWdiTWG3eg3SXXBBRAAAkDg4QQqdDt4Mvwahae+28OTVlzAY4esLZgPl32u5uTxQhS2Ec74zyx3Mu4my8K37M2tVOwfvXjTMHXMZDd/bqTpw4GQqJ00WL1q/HbOpqabHTKZVB6PNLJXKcncSwI5un/mxDf1JDV8qpzsNBDkq9ala/T6tpDZHPCovUV8HZs5Or+8Zgo3hXxya7bDb0MtsrbNXXHplX633WwwWk2BL79znHw/kiBkP9lM5lcWpzUQ71tOMtz5VNRqIKyxnzSz+p5wJBau8uv9niqCJBM/r3IbXS5r42KWWes1YqOoJGTvPSNrIEhrXbgpMWetC8v6A6vmzp8r+hIfoMrOM9k+7bLM7zYrWU1NnrKX01Fx9MiErMUeH13cOT3P5HKZi3SuwK73oVlxRUUEXwh3U+BY6V/hpoDv39eppZqaPGGvpptFAwiTpX+LZdY6bEpNYyCjU2n2YDjIy+VKbcOF0X3rEu9qJUa5hZgfQe3VBWIg1O3XB6XdU6KF9yq2Uv5EadiUj4HScC2jdAfsZUK2uuHrGXs2EhKeUC2R+Wv2YLim/Nn3ITcO5AUCQOAfJyD3WppuB0+GX6OweHt40owLWOzQCg0lB6vh5A14IQrbCJP10w7LrLZZy8I3rhP+2hiwBb+esjfM4XiDuKpQW1SYAj2raZZJby+Nd0TcxfSVaxIlmXtJIP7BgNn5YjeSVe4vW0x6qkkSMGIsttTVhhoj3WPLSSa7M1AnbOQqJ2y0WcM9k/tZLr3YZEd5yejo73O6wP9jsln6RlogKpSMhKy4sPPm5obLpbYmuwL8Xvba7k3hyCl+v3Vy2m/xf9pnkjPRN4Q5OHPB7A06sNBZErL3WyMrjEiLq6EpMWdxNWADVERQ3tpKPiEj4yn2BC2V4MvBB6iy80zWj9vCsOZvrasZSUdiQrbKN7RL0wff+yPhoCsQ/bzFMHpCNvujN1jj9Yt/PoeztLBDpxZeul2VlLSekC2dllC5bQohe8reua5SBykx6gtZPSBa9t8CilPvKcnCexZbIROiNGzuKmQrxV4uZEMTJ2xyLFwUsuG5q+KbhEruCEgDBIAAEKiEgNy3V2u5HTwZfi2f39H1w2pxAdOgWnlvdfL6QlaaujLo6IRKQD1Nmmp+nnWiQXylXpwdU2OFDLDZox9GV06yBfp4tg29oFMXsmrZFb1WrEg9sOr0xdvWxUtmv99jNvWu56/mI7L9WDIh9yoyk+Quv0pzhWoA0Xjjst9bJTVsIVz19hqHufPXNXcyFCxhMRBIyHIHUxEq7An47U5badmr0fdpn03P8ufBObuXr7OrCyvn+e1etAzX7B47YU4n6sV1vbI1sgaCvMepBcKIfHwha/T277G5le7imm49IYu9aEAz8NzplHg6FSZkXyd+Mex2b/FoDEt0KS8KWWr4hE3NYAem2tH6hLOvTdLjlHTXFS+0azHYEotZ7ng8LC4tqGn9lWWFlyCKMYcN1jvYhhdyr7pKbcGLEoYj/gnvjM5nomhg3QZE0349UJo9JVl4r2Ir5i97P1U2BqT7E2cifFg5dhCyEka4AAJA4I8RkHutBwpZTT+sFRew2KGZV0ShmQArBJ++QdFBXBXmQgv2tHWCWIUUUP7YRbmQvTWGGgiLc2CPFXZZkWXxSBO1bOkaaqB2zNVEjfZkR8aT7PF4S+J3Lj0f1znc81VkOsllvsUkkSqTuQLh6tDEsUzIojRVzvjXUza32W/HplEFISvb7CX1GtkwesaeTUV4aWvxTyW5m8LlQhs6DIEwOQfQoccUNjFcmpEVjLjTObLSyHh8IUuYagf3GTa1PNQdiTaHWye3GXFSmr9L2fO1YbT0u61zautSWvpNWOtHDvJsem2yrykaDcX6Zs+KpxZU+UcPWHp/tjccptzBSP8GXRSyhCO2nOWuNgY6YlS8u6PZU0XY/JMnDHvxe6IvGo1SLZ3dH9vwSWyDdi0GwuIZOaDp5NJAgmpqTUztXHGXPzrrpM1epROnMSF7B9tkHuo+dUldpvQOCtVlrOvZYtjj2Ra/81Yg2vZrdocuw+K9ca9ib2GiMWzKx4B4f8qACx/eUkWpixVICVIzokh3L1wAASAABB5IQO61NN0Ongy/lk8KavthjUCJxY5qzbB7m5PHChFWgqJ90tFoMNbZv3ic49ILxe3d2jrhgQwfkF1FyGqIiip3W09veyhMecLx98sp7nq52Yr2mVSqSRS9hmzWjLna/chLwy97dCZ9QadnYqWXz0gtmBo6xwbaW2MhdDzWyNIpzaVmw1b5qQVGT/PgSFdHnGqKNXaPLJ7Q3Pl8xIa6+G1dyNvU1jH4fTPN0KcLLcX9IWJ45Wdk1YWsKfb1kj0SD/ivcrUPzU23+4qzuWjFZn65WUfIGggy5EO7vkI+PdFd0kN8fz+BkEWnSDRPrh9naK7AMbnLs4P1IWFNNN95xcM40PlbO7PSYRzIGKf3w9za6VWeLXB09uJ078cnYX2Cre793MbZNVMocEw+k07ufo3z6p6sdiemts+zLMfmLrbHouhxxOiiBpa2ktc0x7G5y+P1QelwCrHhWrWQBmNt8MvSzjk6fuvqZH2i0198vlGMOUzIGoiKbVMUcp+6xDGkKKpMdRmjY6vJ7OVCG5qZvgWIpv3a3aHTU6KF2lj0itVlojVsVMaA4MjKKSEalXVxGVLNiCLUBf8LBIAAEHg4AbnX0nQ7eDL8Wi5kdcKTVlzAYodOaBD8vGYCrJDapqnNg1Qmz4oHbrbJDtxU1wkPx3jfEtSErHoMfdUwvHaKJE6BzZ0frAzG+DkvomJNoui1osFa4kQTNVI19sRCplBITvsxdYg+d8QGfu+fZdChofmrs82lkUY3rwzxUwvIYNfi9vElr7kyqZ2f4831ghq2ROYzTO7qdO/31y9tTpVdYmWnFkjMTe3zeXZ3gD8OVfpQvHjXvcawawl+Ga4gyZQzss9IyIpGi9pR1DfqnSd+q5ULPv/HCcCw+ccHADQfCAABIAAEVAkY/Z8P8ruD/uJhTappnvGHIGRBAf8bBEDIPmM3pHxYBVOBABAAAkDgyQlYbQGq1t/YNnNwnZpr4NcDvERvDEL235BxT34/PHuMIGRhDAABIAAEgAAQkAiQ1MAhzbG51M73Dp98dayU5iVcvEAh+xKwvsRnGrAZCAABIAAEgAAQAAIviwAI2Wc/lQjCHQgAASAABIAAEAACQECNAAhZELJAAAgAASAABIAAEAACL5IACNkX2W0va9ofrAUCQAAIAAEgAASAwFMQUBGy3nrz6pDDW4//ktgtas9UG2xKzJlqg09hIpQJBIAAEAACQAAIAAEgAATKCagI2efygwhqKyHKGwCfAAEgAASAABAAAkAACPybBEDI3jLZ/G8OC2g1EAACQAAIAAEgAASePwEQsiBkgQAQAAJAAAgAASAABF4kARCyL7Lbnv8TElgIBIAAEAACQAAIAIGnJgBCFoQsEAACQAAIAAEgAASAwIsk8NKFrN3TMz7WS1Wr7AzT+erWrnpI3lsLhwRAAAgAASAABP4MAQhnf4bzM6zlX+n6Fy5kje7eHTa31P6qXMjqfFWeWPHJPfKSDYNH2dR8G6EoCv4TCAABIAAEgMDfInCPcPZwUyEg3p+hzRZujQScj/A6/q90/f0bfv8ngUcQstVGc22goykxVxvoqDbe4fTZp+2nh3ThPfIa/d3Le6vDjW/+Ri8+AkkwGwgAASAABP5/BO4Rzh4O4Z8LiM7G+TSXW+90mUrh2NG5mOGSs7G3d+JJNk6cs4ejIbX3zHeUeo/Q9TX+/tnfR+ksw9LXqe2lgaATa6DULmvPL+am9I/51WLiTTXWBAd/7qfzDH19sj7V7LaU4KC89uh8muZQvgJLZy6O1xdHW3x2Ic2r+OJ1IbOUqJVnId81zyULzM+uYjLh24cK2Xe2ulB8rCkxJ/yF4mPvbHWKip/wP3X6Secrib7WxUPyapUJnwMBIAAEgAAQ+MMEIJz9EeBVrt5f11xyplmUrVbvxAmb+RV33lF9Pi8haw8NzA73d0aiseiH2d1sIfMjofLaufbjBp2cSYTdwRD6C3jeIeYmx8etLJP6MdgZae2fPswxJ1N+C07D0bHKcEfTzZGIvzHW1D04e5At5Lb7vGg+1NS7wd7ccKmZEJ6FDA0csjc37Pbn+iqsWx8kZKuNZlzFSlr2MeZlTfaeH0fpHMNxdCa5/q2n1iy231QfHf99eEmzbC61v7mb5kpLC3S+Krb5HsXWRqc295NXWYYrsPnzvcX+3sGZjeOLPMvm07sLfXUCZaPv4z57ORfjFzmUsnAsfXmyNtLqKXu6qm2a3NhPXaEWMtnU/q+hVu/rW40knL7+7+tnGZrj2Hwmebgx1uoqPicYXdTgj62zqzyTTx+tDLbUldUoAsS6/wmfMaAWIAAEgAAQ+CsENEOhVgTUiVlaWfCA4vR9/L5xdk2zTDZ99K2zrgoPiAplZupYpNn1D0Lk0omDpOGFBTVzzefdPL3/yY90WJXn80Y+t9Yv6i31tlhdPXMbySzDsfmr5PpgGEVthKsgzm6yO1+8SLGpZ68Jj6zsnPEqgr7aHuI3C92t662NCxnubMpLFnvT2LNGMxtd6uLb0vA9w55MeEjSYG+bSeVSCx0kP7yr/CMH9G6fWz5Za2qcSHHp+big7Kv9I/ts7kcnvmQCCVl266PFKI4l54dVhjsep6oJU93IMZtJnmXzG59EhgRp6lrJ0KnTNHs62YArHBUh6/Oin6j18aJYX+gIv0wrTcdKF4/yW7Vv/PGWeNQfbox8WDiimZ0BHy/AbaHpM5Y+XRzsikTj8S/ze9mCKGR1vhIxEeSdi+VvyOzGSGM0Gop/mDmib7jUz5H3TdFYU//SMcPuDwX4cYYJWSHL5li0OUa1dA+sXnD0Tp9H3sdimuZYLBzv+bx8kufS8x1FVaphpMU9tJ9nL36PvW+MRsPtY+s5dm9QwGL1jh3R13uT71t8DfH3i6d0fqevXl7jX/GnUCkQAAJAAAj8UQJ6oVA9uIjxSDVmqWcptYgPTMz5LxSYYo2dfY1es4EvsDizoyNkxXrV4uALDGomavCQyW19cpDujt/X+b1BV1Egqrelyje8x2Q3xzsDIcrX3BkL86/ReVynswm3P+jyB+wOs4FQzy5Azm1NtDRHg83tDX67gbhz179L/MqyB5+8glqwRuYz7P6QU1KWUi8brZZw/9J5/nA8gmbc7G3fMCFb3TR7wWz1B92kpaQ6quoHd1n6R8JWlJFkZDzFXXxrxgRomZC1di3nubOvkWrCTH1LM7tD0ZFD+uJ7gzBdaAoPnzBnM23dq8z1Qhu+M0pFyHp5IeutQMg66mOSeMUvHPUxfQV8x28d7asMs9KNdL2t60eOOxgJFlngL010vpI6Q3ZRWbH4DUmQbzt+5tid3jqht5yJNYbd6DehByalkBVnZ0kDeshg1/rEqVPBBjw9yu7uWs+zhyO1ygGEGWltn7/mzqabistwTbHpS1HI2jqXssz6B3dxst3SNpcRn+RkTS4J+jt2AWQEAkAACACBl0Cg0lCIBRdFPFKNWSiUYFmkyGLtmL/mjifCuLCQBcTbhGwpVuJx8GUGtTcNU8dMdvPnRpo+HAiJS0I12vKq8ds5m5pudsjCsQIXkj0a8V3Ra/oCSeovRT86un/mxDf1JDV8qpzsNBDkq9ala7SStZDZHPDgL/rFMl/HZo7OL6+Zwk0hn9ya7fAj8VodmU5x6alGcd+U0fthj2V+dWH7iAQh+8lmMr+yOK2BeN9ykuHOp6JWA2GN/aSZ1feEI7FwlV/v91QRJJn4eZXb6HJZGxezzFqvUazdQJAqQjbks6wOOUI+sQ+w1DLcBPmUM7IWe3x0cef0PJPLZS7SuQK73kcSZDU1ecpeTkdF2zAhq/MVZvadi5XdkARZ3fD1jD0bCQl9Y4nMX7MHwzVGXSFLRqfS7MFwsKgyBZ7KIWiyfdplmd9tVtJAaBgZmjjhMt9iYtsxIYvazt0UOFb6V7gppKabsEefl+B/tUca1oPQECAABIAAENAkoBsK1YOLIswZZDFLI4vorqupyRP2arpZDEzlAU6hzPClBdpx8MUGNVvw6yl7wxyON4hrBXndohqgTYGe1TTLpLeXxjsi7mJ6BS5B9qhmV9LTE0hausJAOOM/s8zOF7uRrHJ/2WLSU03yriRIg6WuNtQY6R5bTjLZnYE6YSOXOABK0dlos4Z7JvezXHqxyS4I2QtMyNarCllxEcXNzQ2XS21NdgV4pVvbvSkcSGV2jx4zyWm/xf9pn0nORN8Q5uDMBbM36MBm/R4kZJ9ujWyVb2iXpg++90fCQVcg+nmLYSQhy13NSPeMQshqfCWBvkexiju8OjRxwibHwkUhG567Kk6j4kMKvy4ueSnbhKhIQ5isH7dZZrXNSmoaGZ46Yy+/SiJeKWSzP3qDNV6/+OdzOK1Sw+ECCAABIAAE/gUCvARUj5JawUUR5vhlmsWYpZlF1DF8ddjskoqQjYyn2BO08JEX37pCVoqDfLEvMqhV8/OsEw3iTGRRiWq1xWaPfhhdOckW6OPZNvR2V13IqmVXqghBMd+x664RVzkAACAASURBVAnybeviJbPf7zGbetfzV/MRaT+S2MXSXfMqMpPkMBFSlgBNxKIZt+z3Vkv50oKxpMrSAu5gKkKFPQG/3WkrTb0ZfZ/22fQsv+nI2b18nV1dWDnPb/eiZbhm99gJczpRL67rfeiMrIEgn+jUgteJXwy73Vs8ycISXcoLQpafY+dOp8RTrjAhq/eViPs+xcrHypMJWfRUxJ2Mu0lS00jH+xUaW1aBCVmDHa24OPvaJD0CSiMPLoAAEAACQOAfIoDeRKtHSc3gIg9zuJbSzCJGVSH6HI1rLy0wevv32NxKd3G3u56QLcXBlxvUyoVsBW2xOAf2WGGXFUkNn7CpGeyFqlZ8V/RacRHCHbueIA2myHiSPR5vSfzOpefj2Kt/5az/q8h0En8tLI0B7KI6NHHMC1mDqWnynLv4Lm728g3vs7ll/c1eUjlkw+gZezYV4aWtxT+V5G4KlwttwmEIzgG0s57CJoYfNCMruIanOEe2yj96wNL7s73hMOUORvo36KKQJaz1Iwd5Nr022dcUjYZifbNn0qkFOl8V++M+xcrHyuMKWfZ8bfhDZ6S5rXNq65LLrvah3XnaRjoa5s45+nT+S0coEmsZWD5hxDWyhM0/ecKwF78n+qLRKNXS2f2xDZ94/4ecuHQnwAUQAAJA4F8koBkKNYOLPMzhQlYzSwms1T9xzDDnK2O9TdEoFe9ubZSfWkCYagf3GTa1PNQdiTaHWye3GfHUAr5e1ThoeLFBTUXIarSlyt3W09seClOecPz9coq7Xm5GawsdseUsd7Ux0BGj4t0dzZ4qjezKeXTUI3fvepTL5PyyR2fSF3R6JiZ/kWtq6BwbaG+NhdDxWCNLpzSXmg1b5acWGD3NgyNdHXGqKdbYPbJ4QnPn8xEbX+yn7RyTXPrcTrX0fT3IMadfA7IltmWbvaRBZYp9vWSPxMN0q1ztQ3PT7b7iJLelf4vNLzc/rpA1EKTF1dCUmLO4Gh5PMNnq3s9tnF0zhQLH5DPp5O7XOC/GSQPh9H6YWzu9yrMFjs5enO79+CS+s9D7StCydy9Wfoc/rpDNn2yvn2RodP7Wzmx/g3g8m7aRZn/r9PrhRZZhsme7uyd5drd4mAN/PMfA0lbyGp3Mlbs8Xh+UDtR4vE5RPp9ByUAACAABIPD8CGhFSY3gIg9zuJA1EBpZJM3BHw4VGljaSl2j4zKvU+gYKUWBpvrmyfXjDM0VOCZ3eXawPiTscOKTacTBlxrU1ISselteNQyvnSIoBTZ3frAyGKsTNtJUuxNT2+dZlmNzF9tjUTRFanRR5fFdAbnYI3fseiGXPbGQKRSS035MHaJR7YgN/N4/yzDowM+rs82lkUbhRw3wUwvIYNfi9vElr8gyqZ2f4831oho21oaGfh1comPZTjemYx7F6lsdIds+j+QNf/QYPtL463fdawy7lrCXBMkjzMg+jZAtmfj8fMRj2KY+BO9Ssq3rR55Z6cFPZbtL9rLB8f/kDM0EAkAACACB50ng4XHwebbrxVll9H8+yO8O+mVb0l9OK0DI/iXxd58b2FTT9rmzIx4Mh33Rzs8rKeb6d3tN6dg2UKJAAAgAASAABF4MgfvEwb8Usl+OqrtL71ttAarW39g2c3CdmmtA6wFe5B8I2b/Ubfe5gR0NE9vHF9d59Mbh8njz+/swTMf+pe57mXf7C3VSYDYQAAL/TwL3iYPg8x+PAEkNHNIcm0vtfO/wiesBXmB0AyH7eGPiBXb//9M5QkcAASAABIAAEAAC/wYBELIgZIEAEAACQAAIAAEgAAReJAEQsi+y22AmFQgAASAABIAAEAACQACELAhZIAAEgAAQAAJAAAgAgRdJQEXIeuvNq0MOb33pB9Zu1fum2mBTYs5UG7w1JSQAAkAACAABIAAEgAAQAAKPQkBFyIZ8ltUhR8inOLpWT6c/wQ8i6FX3KC2HQoAAEAACQAAIAAEgAAReNAEQsqCYgQAQAAJAAAgAASAABF4kARCyL7LbXvTDExgPBIAAEAACQAAIAIFHIQBCFoQsEAACQAAIAAEgAASAwIskAEL2RXbbozzEQCFAAAgAASAABIAAEHjRBEDIPrWQtXt6xsd6qWqVH9hQ+8roahz9MdsfVEt/D1PVqlCx5B4lK7L8sYoU9cJ/AgEgAASAgA4BcM46cP7fX/0rXQ9CFh/HNlu4NRJwqjyamGLTl+zpRMOb5u+X7OlwqOKzyYzu3h02t9T+qlw+qn5lDA4csanppscRsngVZMPgUTY130aUW/LwT/CKHl4aXkKFZt+7g/C64BoIAAEg8D8j8HTOWQdUhX5bp4R/9yttHXJXJn+l6+9q5GOkfwQhW2001wY6mhJztYGOamPFCu8W6+3R+TTN3dzc3BRYOnN+tDY/0uSxqkjMW8rBdept12TjxDl7OBpSEZH8V0ejodeN387ZowG/qVJLdEaS6ldPJ2SN/u7lvdXhxjePSEwqSrUt0rcPuajQ7Ht30ENsg7xAAAgAgWdO4Omcs07DK/TbOiW8sK+cjfNpLrfe6cK0gaNzMcMlZ2Nv79QWHR1yp3II0vAIXV/j75/9fZTOMix9ndpeGgg6sQYW7bHYYoNz28kMzTLZi/1fYxGXqAMtgbbp9eMMzbK584OfX5rrqmRNkMu8i+P1xdEWn10QV6/ii9eFzFKiVqG13jXPJQvMz65iMuHbhwrZd7a6UHysKTEn/IXiY+9sdYqK7/Wfjo5Vhjuabo5EAk0tze9HFo7zXGY1UVcO8TZ5KgOnm1hnABl9H/fp9Q911d7hfXqz26lbDl6jzkhS/erphCxu1aNfq7bl0WvRKfDeHaRTJnwFBIAAEHjpBP66c37pACuzv8rV++uaS840i7LV6p04YTO/4pWrBaEiHR1SmSUlxfUIXW8PDcwO93dGorHoh9ndbCHzI6F8qWuJTZ2k1qY/t8ZbYx/ndrOF/Ga/zUgaCEdkPs1erH5qbagLxboXTxl6p68el3AlmedvjDV1D84eZAu57T4v0sGm3g325oZLzYQsmNwiQwOH7M0Nu/25HtfEDxKy1UYzrmIlLfsY87KohezWRwvCgf6qPIM7HLv9hbfe6KIGf2ydXeWZfPpoZbClrpqwNi5kuLMpL1lM/zq+eMUefvHx1FTSkwaiJjyysnN2lWM4jr7aHqKq0QAqoElg9I/d+eLFSFmb5vbHmywGS/vM/lQQ1WKy9/w4SvO5M8n1bz21ZhG3qT46/vvwEj2FpPY3d9NcaWmBzlfCGJUJWa0qaqNTm/vJqyzDcSx9ebI20uopzSJrVYGkHns5F+MXOeiWQDh9/d/XzzI0x7H5TPJwY6zVVbo3pHtJq6JysOqsLA1zV1zqq1/oMlnDyerg+BF7OR21GGRmkwZjjf/TwmYKPR+mj1dHE77XRXvKO0jsDslguAACQAAI/AsENJ3zPWKKVhbcwTp9H79vnF2jKbn00bfOuircbyuUmaljkWbXPwgxpbZpcmM/xUdhJpva/zXU6hVdOmlQD9x4vc/q2lzzeTdP73/yIx1W5fm8kc+t9Yt6S70tVlfP3EYyy3Bs/iq5PhhGcVxVh6hnL9MwBGm4W9crhZOxZ41mNrrUxbel4XuGPZnwkKTB3jaTyqUWOkj+bqo2iVOwhNk3leTyP6Im0kA2T6XZw5FgUUc5+n6zzM9OG6YllDLP4PywynDH41Q1YaobOWYzybNsfuOTyJAgTV0rGTp1mmZPJxtKmocgVYSsz4t+otbHi2KsSpURI/wyrTQdK108xm/VlrUQUeAOhgNVhNU7dkRf702+b/E1xN8vntJ5JPPfdfzMsoefBeVKmP1fU+zpZD0SSerpBYWU25poaY4Gm9sb/HZ+ALGnswm3P+jyB+wOqW9U2m4gyDf+eEs86g83Rj4sHNHMzoCP7zBbaPqMpU8XB7si0Xj8y/xetiAKWZ2vxCrkek69Ct5HZDfHos0xqqV7YPWCo3f6PMKDjnYVuGfRK8HiHtrPsxe/x943RqPh9rH1HLs3KDRNNBKN3VsqkoHVYPUu8SvH7n1w85bX9K8xN+zugJ1/dDH3bTLZ5ZiVlAtZ3jYmuTzUFYm2dc3sZrjLxYQLe97ALYRrIAAEgMA/SEDbOWu4YsHNasQUrUgngRXc8vkvFDJijZ19jV6zzG/rCFkxEjXHYuF4z+flkzyXnu8QNK5G4H7OzyEmavCQyW19cpDujt/X+b1BV3FmTb0tVb7hPSa7Od4ZCFG+5s5YmH+NzuOS6xD17CoaRicua3T9u8SvLHvwySvoB2tkPsPuDznFCcSSAjRaLeH+pfP84XgEPWnY275hQraUjHBElzLs0WidkTQY6/t2mPzucB0/x2eMz6fo/Y/FioTBUybzrF3Lee7sa6SaMFPf0szuUHTkkL743iBMyprCwyfM2Uxb9ypzvdCG7ztSEbJeXsh6KxCyjvqYJF7xC0d9DGuYNNzvdFFqYZXJbvI2dy+cMszRQNBssHUuZZn1D+6ifLG0zWX42VNH93JOnHAmwyOn7NlUBGl2rfS4sBPuDcX9docbxtG+yjAr3eidgq3rR447GBGPHcDn9nW+kuqSC1kMI1aFwnL0EMOu9fE3v04VeC78miD5xyCxBGv7/DV3Nt1UXErLb6JSEbIVViS1q3SBNcTZ95umV3pqDAT5tuPndTabza+2O0gDYW9ZzuXXek1olQ82kWztWLjmjicaxBFc27aSLd4zpfLvNMwgMRAAAkDg/0VAxznL/CTminE3q4gIWlmkz60d88gth0W3zMPEC1QEVnxGFk/Gr+nsWs+zhyO1Ru3ALdX7LC/eNEwdM9nNnxtp+nAgZClGcA0R8gptuUlNNzuwQC/MyMr36mhkl017CzTu0fWO7p8l4UQNnyonOw0E+ap16RptWCpkNgc8+It+ZReYzK3zZ3RypqW4Y/61/8OPFJNLbs7OrhxlkvOdXtkgIQSZ98lmMr+yOK2BeN9ykuHOp6JWA2GN/aSZ1feEI7FwlV/v91QRJJn4eZXb6HJZGxezzFqvEatdRciGfJbVIUfIJ/YBllqGmyCfeka2+JIf/V8hd7ryJeauJshqavKUuylwrPSvcFPgt/k74z+zzPZnm5F/Mc2cjVJoSlUzveIWKk7pyweQdtsNhMUeH13cOT3P5HKZi3SuwK73kUJ1wjtxIS8mZJElGl+VwMqErHoVMm2HzI5OpdmDYTSBr1cF3l78WlFCaOKEy3yLib2vIWQrragIUKsh7vdbzPWPjreENTyXPpsZ+nqemW+zGczxb1fM+gd+YThmajU1ecJeTTeLthEmS/8Wy6x12P5fcUhv1EFLgQAQAAJ6BPScs0bY0okpWpFOilllbpm3DfPbwqvO0i5qHSFLmGyfdlnmd5tVO3A/d/doC349ZW+Yw/EGaY0E6hFV0WIK9KymWSa9vTTeEXEX0yt0/100zH26nuCF084Xu5Gscn/ZYtJTTVKEFYeZpa421BjpHltOMtmdgTqT+LmsL8y29vnj/MVyr09Sq6bY173Lk4Wh/v6vvw6vmfTGkM+K50VCFpN5XC61NdkV4CfRars3heOezO7RYyY57bf4P+0zyZnoG8IcnLlg9gYd2LTxg4TsU6+R5fYnG4IhN5WYPGKYk69BXq/wYyL7ozdY4/WLfz6HEx1o8K5t6YrZ7XNbPOOnzPFYHT+rr5kev9OE/igbQNK9Wn5R5RvapemD7/2RcNAViH7eYhhJyHJXM5LYUghZja9K5WNCVquKMqdTOmyBb6x67bJcirZjDa8OT52xl1+j4lDWEbJabVEUTpCaDSFMjs+7zNV8xNY4kUzPNDsj3y/T31veNX5L0Tu9wpIDrDT+Lr1CC2eL9w8IWdwpwDUQAAJAQJCA6lFA0xVjbhZ5VywiaGYRRQwfdPj9DOInqAS8QDIynmJP0MJHvnd0haz14zbLrIpCVj3Qi/7/mfZ1NT/POtFQWpqoKUIQEJs9+mF05SRboI9n29BLSAy+0FLN7Dhkni2f8o5dT5BvWxcvmf1+j9nUu56/mo9Iu33wDuWvX0VmkhwmD0oJzPauH0k6tdCNzbla2+YumS1xhWu1u/93lt0fCmBLAZGQ5Q6mIlTYE/DbnbbSslej79M+m57lt/Q4u5evs6sLK+f5bV4VmN1jJ8zpBL9wtDgGHiRkkXZ8ylMLpM1e1d5Pa9dcaqENrSy2o3f3Z1+bpMed0rA2N0+dM3ujfZNJekva1KaVvmwQGEhq+IRNzVR0huvrxC+G3e4tnrVhiS7lBSHLr2TgTqfEU64wIav3lTQgeCF7PhOtJkjNKhSW4+MevYPQqB3PhV8r7hzH+xUaWxqhIWT12qIoXKchBFnl/rxJX34fmT29XGy0kG/blq4uFgbnzumtT/y2R7lDtCUWs9zxuPQOq6b1V5Y9GXcX1yE9U79WGp9SL8MFEAACQOCJCGhHgXvEFM0skvF8hD0quWXeD+NRwOjt32NzK93F3e56QhbNDnKCS9cK3FK9z/WiXMjqiZZiKyzOgT1W2GVVrkO0UOCQhXLu0fVof1hkPMkej7ckfufS83GdAzpfRaaT+AtbsQvehCcO6PTye0zFogms4X02M9sinprKa5vMfFyarzUUlxaU9vSXYiXZMHomrg4lLP6pJHdTuFxoe4dqNDkH0L51CpsYfqiQRe/un+Qc2dIaWb5tJlvP6hWXnm11Ggibf/KEYS9+T/RFo1GqpbP7Y5s4yYxmoVmaprOrHaVtdxrpywcB4YgtZ7mrjYGOGBXv7mhGyzJKZOXXVf7RA5ben+0Nhyl3MNK/QReFLGGtHznIs+m1yb6maDQU65s9k04t0PlKrMhY17PFsMezLX5ntVYVCstxIatTO54Lv1YIWcLRMHfO0afzXzpCkVjLwPIJI272km1U1G6LonCC1GaFDrrr3qRZlrmcb0X3j6Xte4ZlWXq1TzxwTlaaxTNyQNPJpYEE1dSamNq54i5/dIop5R2k1XHwORAAAkDgf01A0zlrumKZm5VNCmpmKflbq3/imGHOV8Z6m6JRKt7d2ig/tYAw1Q7uM2xqeag7Em0Ot05uM+KpBXy97Pna8IfOSHNb59TWJZdd7RN2qWsE7lK9YtB8Zp+oCFkN0VLlbuvpbQ+FKU84/n45xV0vN6M37+U6RAOFotcQh7t3Pcplcn7ZozPpCzo9ExN1p0DV1NA5NtDeGguh47FGlk5pLjUbtipOLajrXM/TO6PhYMgt/tltSB+PnrK5w++dUcoVaIqPbaS5zFICbYkR/xQyT/qcNJhiXy/ZI/FQ/ypX+9DcdLuvOMmNlhTml5sfV8gaCNLiamhKzFlcDaJ9mEElo+/0YVkLjZ6u9SyXnAla+FM5Bpa2ktfofKjc5fH6oHTqVpWrf50uXHyPi2e58ZUaXVR5epVBQFa7E1Pb51mWY3MX22NRnUcTA2Grez+3cXbNFAock8+kk7tf4/zjAmkgnN4Pc2unV3m2wNHZi9O9H5/Etyp6XxX5GKNjq8ns5ULba60qFJbLhKx27Xgu/FopZEmD2d86vX54kWWY7Nnu7kme3RUOZFBuVNRopqJwNAB0WJHGzl/XXHq6Wbh/rJHvl9z1zxa7OFoUpRlrg1+Wds7R8VtXJ+sTnX7dPhILuecghOxAAAgAgZdIQMM5a7lihZuVxRQ9712M+EZXaGBpK3WNjrK8TqFjpBQFmuqbJ9HB+FyBY3KXZwfrQ8IOJz5Z/mR7/SRDc0w2tTPb31A6plQ1cD97Z64mZNVFy6uG4bVTBKWAfi9gZTBWnJRR0SGqKBSQi2Tu2PVCLntiIVMoJKf9mDpEneuIDfzeP8ugkz7zV2ebSyONbn5pHy4GTPHZjHRuqbDklVnuRAH9tadj5PfRRY5FR5yebc18wDoX1Vsm86TONbXPI+GBH4Faug3fda8x7FpCEgmqx29VvtlLkq1PIGRLRku1wMVfIGDr+pFnVnrUfrZXGnNwAQSAABAAAkDgrgTUpRhE/z9OwOj/fJDfHfTrvIX+C/Kj4uH0CEsLnmZG9o93ZMXInnN3PoZtppq2z50d8WA47It2fl5JMde/22uEQ+agU4AAEAACQAAIPBIBELJ/WXhYbQGq1t/YNnNwnZpreLHn/4CQfaQb8i8Px0dshaNhYvv44jqP1ldcHm9+fx+G6dhHxAtFAQEgAASAAE8AhOzfVQ4kNXBIc2wutfO9wydfHft3Dbtj7SBkwaEAASAABIAAEAACQAAIvEgCIGRfZLc9xhICaDgQAAJAAAgAASAABF42ARCyL7v/QNECASAABIAAEAACQOCfJQBCFoQsEAACQAAIAAEgAASAwIskoCJkvfXm1SGHt770A2u3ynxTbbApMWeqDd6aEhIAASAABIAAEAACQAAIAIFHIaAiZOEc2UchC4UAASAABIAAEAACQAAIPCkBELIvciL9SccEFA4EgAAQAAJAAAgAgRdBAIQsCFkgAASAABAAAkAACACBF0kAhOyL7LYX8ZAERgIBIAAEgAAQAAJA4EkJgJAFIQsEgAAQAAJAAAgAASDwIgmAkH3qbrN7esbHeqlqlZ9cU/vK6Goc/THbH1RLfw9T1apQseQeJSuy/LGKFPXCfwIBIAAEgIAOAXDOOnD+31/9K10PQhYfxzZbuDUScKrMgZti05fs6UTDm+bvl+zpcKjis8mM7t4dNrfU/qpcPqp+ZQwOHLGp6abHEbJ4FWTD4FE2Nd9GlFvy8E/wih5eGl5ChWbfu4PwuuAaCAABIPA/I/B0zlkHVIV+W6eEf/crbR1yVyZ/pevvauRjpH8EIVttNNcGOpoSc7WBjmpjxQrvFuvt0fk0zd3c3NwUWDpzfrQ2P9LksapIzFvKwXXqbddk48Q5ezgaUhGR/FdHo6HXjd/O2aMBv6lSS3RGkupXTydkjf7u5b3V4cY3j0hMKkq1LdK3D7mo0Ox7d9BDbIO8QAAIAIFnTuDpnLNOwyv02zolvLCvnI3zaS633unCtIGjczHDJWdjb+/UFh0dcqdyCNLwCF1f4++f/X2UzjIsfZ3aXhoIOrEGFu2x2GKDc9vJDM0y2Yv9X2MRl6gDrT2/GKTiiv+YXy0mXIbJZd7F8friaIvPLoirV/HF60JmKVGr0FrvmueSBeZnVzGZ8O1Dhew7W10oPtaUmBP+QvGxd7Y6RcX3+k9HxyrDHU03RyKBppbm9yMLx3kus5qoK4eIc3nYtc4AMvo+7tPrH+qqvcP79Ga3s+KKdEaS6ldPJ2Tveg/cKb1qW+5UwgMT37uDHlgvZAcCQAAIPGcCf905P2c4j2dblav31zWXnGkWZavVO3HCZn7FK1cLgjE6OuSu1j5C19tDA7PD/Z2RaCz6YXY3W8j8SChf6lpiUyeptenPrfHW2Me53Wwhv9lvM/IaqfbjBp2cSYTdwRD6C3jeyZpQknn+xlhT9+DsQbaQ2+7zIh1s6t1gb2641EzIgsktMjRwyN7csNuf66uwoh4kZKuNZlzFSlr2MeZlUQvZrY8WAQdBVnkGdzh2+wtvvdFFDf7YOrvKM/n00cpgS101YW1cyHBnU16y2ObX8cUr9vCLjxe+KulJA1ETHlnZObvKMRxHX20PUdVoABXEZwd254sXI2Vtmtsfb7IYLO0z+1NBVIvJ3vPjKM3nziTXv/XUmkXcpvro+O/DS5plc6n9zd00V1paoPOV0CsyIatVRW10anM/eZVlOI6lL0/WRlo9pVlkrSqQ1GMv52L8IgfdEginr//7+lmG5jg2n0keboy1ulSeRrQqKgerzsrSMHfFpb76hS6TNZysDo4fsZfTUYtBZjZpMNb4Py1sptDzYfp4dTThe10czeUdJHYHNtxVWgHfAgEgAAT+ZwQ0nfM9YopWFtzBOn0fv2+cXaMpufTRt866KtxvK5SZqWORZtc/CDGltmlyYz/FR2Emm9r/NdTqFV06aVAP3Hi9z+raXPN5N0/vf/IjHVbl+byRz631i3pLvS1WV8/cRjLLcGz+Krk+GEZxXFWHqGcv0zAEabhb1yuFk7FnjWY2utTFt6Xhe4Y9mfCQpMHeNpPKpRY6SP7GqTaJU7CE2TeV5PI/ovzMa5V/5IDe7XNrzT8qZZ7B+WGV4Y7HqWrCVDdyzGaSZ9n8xieRIUGaulYydOo0zZ5ONpQ0D0GqCFmfF/1ErY8XxfqBX/hlWmk6Vrp4jN+qLWuho+83yx0MB6oIq3fsiL7em3zf4muIv188pfM7ffWmdx0/s+zhZ0G5Emb/1xR7OlmPRJJ6ekEh5bYmWpqjweb2Br+dH0Ds6WzC7Q+6/AG7Q+ob9bvljT/eEo/6w42RDwtHNLMz4OOFry00fcbSp4uDXZFoPP5lfi9bEIWszldiFXI9p14F7yOym2PR5hjV0j2wesHRO30eYaxoV4F7Fr0SLO6h/Tx78XvsfWM0Gm4fW8+xe4NC00Qj0di9pSIZWIJUbci7xK8cu/dBGOU1/WvMDbs7YOcfXcx9m0x2OWYl5UKWt41JLg91RaJtXTO7Ge5yMeHCnjdwC+EaCAABIPAPEtB2zhquWHCzGjFF3Xtj2kBwy+e/UMiINXb2NXrNMr+tI2TFSNQci4XjPZ+XT/Jcer5D0Lgagfs5P3KYqMFDJrf1yUG6O35f5/cGXcWZNfW2VPmG95js5nhnIET5mjtjYf41Oo9LrkPUs6toGJ24rNH17xK/suzBJ6+gH6yR+Qy7P+QUJxBLvWy0WsL9S+f5w/EIetKwt33DhGwpGeGILmXYo9E6voTqptkLZqs/6CYtqlq2TOZZu5bz3NnXSDVhpr6lmd2h6MghffG9QZiUNYWHT5izmbbuVeZ6oQ3fd6QiZL28kPVWIGQd9TFJvOIXjvoY1rD7+ZFSC6tMdpO3uXvhlGGOBoJmg61zKcusf3AX5YulbS7Dz546updz4oQzGR45Zc+mIkiza6XHhZ1wbyjutzvcMI72VYZZ6UbvFGxdP3LcwYh4Kp3bigAAIABJREFU7AA+t6/zlVSXXMhiGLEqFJajhxh2rY+/+XWqwHPh1wTJPwaJJVjb56+5s+mm4lJafhOVipCtsCKpXaULrCHOvt80vdJTYyDItx0/r7PZbH613UEaCHvLci6/1mtCq3ywiWRrx8I1dzzRII7g2raVrHTPYKzuN+QgFxAAAkDg5RPQcc4lP0waCMwV425WERG0skifWzvmkVsOi26ZB4gXqAis+Iwsnoxf09m1nmcPR2qN2oFbqvdZXrxpmDpmsps/N9L04UDIUoxKGiLkFdpyk5pudsiClwLXnTTMPbre0f2zJJyo4VPlZKeBIF+1Ll2jDUuFzOaAB3/Rr+wCk7l1/oxOzrQUd8y/js0cnV9eM4WbQj65Ndvht8laSggy75PNZH5lcVoD8b7lJMOdT0WtBsIa+0kzq+8JR2LhKr/e76kiSDLx8yq30eWyNi5mmbVeI1a7ipAN+SyrQ46QT+wDLLXcCPKpZ2TFt/yIYO505UvMXU2Q1dTkKXdT4FjpX+GmwG/zd8Z/ZpntzzYj/2KaORul0JSqZnrFLVSc0tfY7KUCwWKPjy7unJ5ncrnMRTpXYNf7SKE64Z24kAUTssgSja9KYGVCVr0KmbZDZken0uzBcLBKt3ZZLkXb8RJCEydc5ltM7H0NIavXFkXhiINWQ9zvt5jrHx1vCWt4Ln02M/T1PDPfZjOY49+umPUPdehZBSutmpo8Ya+mm0XbCJOlf4tl1jpsLz/2qAwwaBQQAAJA4M4E9JyzpivG5gvkMUXTe4suq8wt8wZjflt41VnaRa0jZAmT7dMuy/xus2oHbrHeUtB8Xp/Ygl9P2RvmcLxBWiOhKUJMgZ7VNMukt5fGOyLuYvoyIauZHYfMQ7hP1xO8cNr5YjeSVe4vW0x6qkmKsOLYs9TVhhoj3WPLSSa7M1An27AlpiHMtvb54/zFcq9P9kiDgrjNGu6Z3M9y6cUmu5QePUp1rOJ7wbhcamuyK8BPotV2bwrHPZndo8dMctpv8X/aZ5Iz0TeEOThzwewNOrBp4wcJ2adeI8vtTzYEQ24qMXnEMCdfg7xe4Ts1+6M3WOP1i38+hxMdaPCubemK2e1zWzzjp8zxWB0/q6+ZvmwQKO833dujyje0S9MH3/sj4aArEP28xTCSkOWuZiSxpRCyGl+V7klMyGpVgWs7lBEb93xj1WuX5VK0HS8hPHXGXn6NikNZR8hqtUVROEFqNoQwOT7vMlfzEVvjRDI90+yMfL9Mf2951/gtRe/0CksOsNL4u/QKLZwtdg0IWdwpwDUQAAJAQJCA6lFA0xVjblYRUzSziPGRDzr8fgbxE1QCXiAZGU+xJ2jhI987ukLW+nGbZVZFIase6EX//0z7upqfZ51oKC1N1BQhCIjNHv0wunKSLdDHs23oJSQWjoWWambHIfNs+ZR37HqCfNu6eMns93vMpt71/NV8RNrtg3cof/0qMpPkMHlQSmC2d/1I0qmFbq9SxYppqtEcWfZ7qxS+i0KWO5iKUGFPwG932krLXo2+T/tsepbf0uPsXr7Ori6snOe3eVVgdo+dMKcT/MLR4hh4kJBF2vEpTy2QNntVez+tXXOphTa0stiO3t2ffW2SHndKw9rcPHXO7I32TSbpLWlTm1b6skFgIKnhEzY1U9EZrq8Tvxh2u7d41oYlupQXhCy/koE7nRJPucKErN5XYmcbeCF7PhOtJkjNKhSW4+MevcLQqB3PhV8r7hzH+xUaWxqhIWT12qIoXKchBFnl/rxJX34fmT29XGy0kG/blq4uFgbnzumtT8Vtj3hptsRiljsel95h1bT+yrIn4+7iOqRn6tdK41PqZbgAAkAACDwRAe0ocI+YoplFMp6PsEclt8z7YdxvG739e2xupbu4211PyKLZQU5w6VqBW6r3uV6UC1k90VJshcU5sMcKu6zKdYgWChyyUM49uh7tD4uMJ9nj8ZbE71x6Pq5zQOeryHQSf2ErdsGb8MQBnV5+r6li0bvx0MSxmpCVZJ4sUJINo2fi6lDC4p9KcjeFy4U2/tADk3MA7VunsInhhwpZZN+TnCNbWiPLN89k61m94tKzrU4DYfNPnjDsxe+Jvmg0SrV0dn9sEyeZ0Sw0S9N0drWjtO1OI335ICAcseUsd7Ux0BGj4t0dzWhZhgwu9p9V/tEDlt6f7Q2HKXcw0r9BF4UsYa0fOciz6bXJvqZoNBTrmz2TTi3Q+UqsyFjXs8Wwx7Mtfme1VhUKy3Ehq1M7ngu/VghZwtEwd87Rp/NfOkKRWMvA8gkjbvaSbVTUbouicILUZoUOuuvepFmWuZxvRfePpe17hmVZerWPX1egeLInLJ6RA5pOLg0kqKbWxNTOFXf5o1NMifWOVq/B50AACACB/zsBTees6YoVThuLKZpZSv7W6p84ZpjzlbHepmiUine3NspPLSBMtYP7DJtaHuqORJvDrZPbjHhqAV8ve742/KEz0tzWObV1yWVX+4Rd6hqBu1SvGDSf2ScqQlZDtFS523p620NhyhOOv19OcdfLzVY0T1mmQzRQKHoNcbh716NcJueXPTqTvqDTMzH5af2mhs6xgfbWWAgdjzWydEpzqdmwVXFqQV3nep7eGQ0LZ2zx/2u3kQajp3lwpKsjTjXFGrtHFk9o7nw+IlsHqJB5WIeaYl8v2SPxUP8qV/vQ3HS7rzjJjZYU5pebH1fIGgjS4mpoSsxZXA2P5yDKWmj0dK1nueRM0MKfyjGwtJW8RudD5S6P1welU7eqXP3rdOHie1w8y41HY3RR5elVBgFZ7U5MbZ9nWY7NXWyPRXUeTQyEre793MbZNVMocEw+k07ufo2LZ6Q5vR/m1k6v8myBo7MXp3s/PolvVQidr4q9aIyOrSazlwttr7WqUFiOOR2ev0YVeC78WilkSYPZ3zq9fniRZZjs2e7uSZ7dFQ5kUG5UrKCioovRYUUaO39dc+npZuH+sUa+X3LXP1uklTQKU421wS9LO+fo+K2rk/WJTr9uH2E3xjNzdo93p0AbgQAQAAIKAhrO+T4xRc97F/2Y0RUaWNpKXaOjLK9T6Bgphd821TdPrh9naK7AMbnLs4P1IWGHE58sf7K9fpKhOSab2pntbygdU6oauJ+9J1cTsuqi5VXD8NopglJgc+cHK4Ox4qSMig5RRaGAXCRzx64XctkTC5lCITntx9Qh6lxHbOD3/lkGnfSZvzrbXBppdPNrA3AxYIrPZqRzS4WdTcxyp9VABrsWt48veR2USe38HG+ul6vk4mav0imrpbBoap9HwgM/ArU0wt91rzHsWkISCarHb1W+2Uuq9QmEbMloqRa4+AsEbF0/8sxKj9rP9j57h/IXcAETIAAEgAAQqJCAuhSD6P/HCRj9nw/yu4N+nbfQzzmePsLSgqeZkf3jHVnhjff/T2aqafvc2REPhsO+aOfnlRRz/bu9RvUQOOgjIAAEgAAQAAL3JQBC9i8rCqstQNX6G9tmDq5Tcw2y9/737dO/0SIQsi+pt/7II5GjYWL7+OI6j9ZXXB5vfn8fhulYGCRAAAgAASDw2ARAyP4N2VcSEiQ1cEhzbC61873Dp3jv/9h9/ZQtBSH7knqrNP6eckxALUAACAABIAAEgAAQeBEEQMiCkAUCQAAIAAEgAASAABB4kQRAyL7IbnsRD0lgJBAAAkAACAABIAAEnpQACFkQskAACAABIAAEgAAQAAIvkoCKkPXWm1eHHN760g+s3SqlTbXBpsScqTZ4a0pIAASAABAAAkAACAABIAAEHoWAipCFc2QfhSwUAgSAABAAAkAACAABIPCkBEDIvsiJ9CcdE1A4EAACQAAIAAEgAAReBAEQsiBkgQAQAAJAAAgAASAABF4kARCyL7LbXsRDEhgJBIAAEAACQAAIAIEnJQBCFoQsEAACQAAIAAEgAASAwIskAEL2RXbbkz7c8IWbSZfXXWuresKfEDO9c9Y5HH/4Z/HMQqVP2a7HH1FVFqe91vnW+PglP/1AApuBABD4uwRMbx11Tqf1ZTk9cE2PQeBf6XoQsn/XxZTXbnptcRgtdzj7jB/u98tVXrv0icXmp4Jue5nvszn8oYDbUf0IAlerCsmGp7iooFKjvSZI+V33EPEVwqkwmdR8E+kJUb7a14/AXCpTunjAyLk/KKl2uAACQOCpCVisPirkcZQ58yet965e7kmNeVmFP8AnK2PEX+n6v0D7EYRstdFcG+hoSszVBjqqjXdVYJptrrJ5QuFQnV1ZYLXNEwhTbofpMZ5XNGv/e4XbnEHKV3vXp+f75dJpvpbgs1o8fs/jzNRqVaFj1cO/qqRSHqbrrl1AGogK4VSYTGys0eEKUfU1lqcZkw8ZOfcGJTZN6XbhcyAABB6dwF9RM3f0ci/eFZhJd5AKeS0mrPtIZ10oHHDb7zjv8xCfjNWOkD68682E0+32B0MURYWC9Z5aglRUQRoI02ubq9YXCPJpvPUuIw6B79lXVreXCpdNjZkQtDD/j6KCwYDH4zKZi9LuTgrwoUL2na0uFB9rSswJf6H42Dtb3aNE3FdOHxUOUwE3IXujarX70cdPFtfLO+kPf3K/QXy/XDpNq0Tw6WSv5Ks/UEW5GZVUitJ4nMonqEcZ1fcopNpeH6J8Mv/4mE7/ISPneYG6B1vIAgT+AQIPVzPljhQ+KSNgqnGHwv46Sbaa3rn+Y+882BJntjj+0VC3hIQuiNKRIlYsa1l37W11xV7W3isoikCKfrn7TELCJCSsddd973kfn3uzKWfO/GaS88/kzOAN+OsoFeVXcq3skf6SZ7LC8subniKqnVabTW+ykDanyx/01ZZ8j9Vbqr2+2ho7ZbZS/Dl+VzX+/bDS6Kjz+7x+FSFrqAsEPE7SZCZMFtLqsHv8Qb/bZEC1eJICfJGQrdQbcBUradlXGZf9ZPcG/D6PfCyqyuryBXwe2Zdfg95eV+f1+wMBn8dlMRv4DygGvd3F7wwGAv66wgii4bOtttbrR0I44Pd43LbicK+qEalPqFtTLZescbuQM6gMr7vWbHPYXV5vIBAI+FzOaizN0UBU19Z50XuOz+OyWaTxP7PNJ7yhBIPBgKswDlfePVJHlF6l4vMHa53bF0Cu+b21NbaPxTcEkQx66fLarQYdgQk+vcno8vs9NfyrGLafMEiVRbXwuqwWI/b1SrSpQlsAi0z5vW7UIgG0YbeZxTfXxzv/OB/k9Qr4vB708ljqs+AYRTo9NpM05K/VUqVO4nBIHaFFAD+tvP/ICLrVXdVV6ElXPLl879JoaOqTle9ywYDf7xWH1Ut7DipItW+X3FMKUNL9AhtAAAj8VQJ6I+lwoad9IOD1uF2+oJRaoPFwKD5bSh+MGpfgFRSfdfInrTgCJ1dmeqsjII0UGEhHIWKiIOCpUwQRtQcRXu772v5Y7fYHPBZeh+kM9jpUTelLmupD9dWfyaTuaU1PkU5/wFvzWVTSlVZXIOA2qotvSs+f/IkgdaTV7g14nVY+MJEVRS1Bfq7xBQJ1pLSHtDp8vhqr2eQuTVakUHRz2wUj6JWSrK4NBN3859BHK0DUB1SErNuFfqLW7fr9iJTwy7TScKy08Sq/VUs4fQG3g7R7Ar5avQBFb7Z6A54aq7FOyvgRXno81TbLZ5PFVOsNBAQ5z4skdw1lthBmqx4NVlOf7B5/wOd02EiTRW+pqfUHXHZhppGWEekmUbHGv2xplOtykCYLYa62o8Fjn9OOSiRtte5AsUTBmRq7TW+2Gms8vmISBbrnPU7rJ4Ppk8H0AfWn37onCFnFVaU+kxUGC2W2fDaa9YIzBZUskakmzRbSWk2i+1ASW/wXE18dVfhYIO0vnON3OUizRW+2Wep8InzkszZtGdWAz4Xe9hAEN3rYFm77xzvPn/kbH5T18rudBouFUPosOYZvFCqi1lKlTuJwyhDATyvjP+8GaXMGAs7C8LB48m96l0ZDGxyugL/OYSOMps9mG1XIw358f+NLl91TOCjYBgJA4J0QoIgabyDgddjRQBpVXevyF4WsRhQQny0qD3ON54kofbCnvfJJ+wghK5RbUwgitWjYzlEYYHpM4HsnwEU39OiLsd9l/0gYDXV+v9uBNB/606jL6z+Tn9z0/Bc/UXwTvFT1OD4WG1esGkFVGatrkCjjZ4+QVruvKGSxzxr8jA6PVHGjyeV3o1Fqw6OErN5WEwh6alARj1OABfdUhKyLF7KuRwhZa11MEq/4hrUuhlVMAvGkDYpCA1G2ShIlCAr6pgppJbeR4km5qtHond5WIx5FJfLZhPwoJro9xLuILxcdKgDiz0QTegpCVtOI5HCptUeVK3wUNhUkoMHgEofWeGcKHQL1GIOhzh8otL385VW7jhV6qpLk//RUBRqRVWTWlvgs65r8m1CdjWeIyGDOCLUWLreRNV6/z2UU01YwgYuLXf4S9C4lvmeXoV10Q+GhgapDr4b8na84JDWEsIE5XxTc6j5o1EucxIb7XHQMK65cS5U6ie0pRwA7rYz/vD9VNpc/4DIU3o/xC0nN3iWrSJFVhcnpDfiqzdJIs1DNkp6jeTvISn/xDY5BljkM+4EAEHgZARKpAWyihdb35eLDQf5gFwbGxIe57PbELxGdVD4khf3440L+kJGNyOKnoZhidAUCgpDSfBCJ5cocey87K0w17oC/Dn379FiM4sNWoy6v/0x+RtPzYyViriY/Vlgy0bnCUuvnvxP7XHbsq7IK8ypLrSfgs5sLw6AfbW6fp+YzGogsJ2Q/6MkKveGDkR+LDPqq0efQxylAsQ+oCFm/27gxZPW7pSFxFXeFMPaWI7IGo6sw7IpGmFGmrMnsCXhqkAQh0HuB/SNBVhhrPIgv+oAi/BcMBr1IzituD+FMv12K4vyEa0HIahuRKq5q7fflVpicnoDXahTsFN91UIkBzBkhHaSgV+T3vHYdSafQtYLBgNtEKa9SPphQe6OMbIfb6/UH/H6fz48SF6oE+3Jn+MZFVQ74A4GgrwgNGcFR4NukjkDvBm5+kJtHilUQo40JIMXl5IdqNGZtQJ1eeUjL+ZIz5T5o1At7wymejzkmtTvfbeRGUOJOoaVKnSzuKUugeFoZ/3l/+LtAeN9Qwie1epcmK73JiEbNfXW1NQaTlASi7DnatwPudhGRKjfYCQSAwN8iIMQXXg0I9ykuZNWjQNkHkdYlhYeAUJw8TCie4fKHTDkhW4wC2g+id/7w4cdEg+LIJa+0NOvy2s/kZzU9P4QkrIpD2esCgo6UQ9YbPhrNequjxhvwuzW17AdLrTvgq5EWekNz3aShE00hK2VSBoNBv9ddbRXSLB+lAKVb7EVCViNHdvw1cmSxqIlw+GudLi9SbIjvJ4dXyOrg+4e/xmb6aMD+SKrktiwokuK9jUkrbSNSW2LOFPvl78vle5XP9gpCVqWsSoOZQCnSZsJkqtLLnxQloge1N/qKEXA7q/VG0yejxYL0mChkg5jo5CsoAPS7ah3oC1WtmFegeDwpsBR9UN5OGG2p55W2UTkhq+F8iRG5Dxr1woRs8XzMMandXyZkA37V/ib3WZMh8oey1wb8NRbxtV6u77V6l1ZD8xWkPpiqrXVefzDgLqQ3KQlo3w4KV4uUVNHBTiAABP4KAeEWxpQlJmSf/iAt+zxBD4GS4oQnA/64MNu82IKGTxCyKoHvryB9UqHCOKvNVHxCaj9U+QGm13sml7TFY5qerDTX+gIes4FEHwD9YiZnQQkUa4Ha2uT0BrG4hp3zwVrnCfgcVmmIRJytJQ4yCqsTiF+eBbP8AL+nRm80fzKaPpAUNscG6z/aClBqlxcJWR1BKlYtiHz5WdveIVl/wYaQDius5Ul9rvGibFNxutzHapQ3gBJn+YF0IaNCXhZGQWBNVjvxry24tNI0IjVhqbViJkeZclGvCqgIWZ3eWiP7ms+nFhS+qqOKe/mB54Ll37uHcmSVV8lFD+qCFpRWLeY5UGStmOcgfIxQfk0Qq0xaq70BNNOrkLst7kdU8e1Cnm7he1YZ2sWur7i88FFJNbVA0/lyPvDf17TqVXBDKePkrYmSVbRbSuG/HEg5AviF+LacIcEPTvixrHl5ZbV6lzYrqT9T6A4qZPSX9BzN/qZwVbIGG0AACLwnAuhDNpZHh63BpP1wUNzdxQej9iVilctHECFSoM/tfCabkAEoJaHJn2k6Aksw03wQieUWQ8n72lMqZLWFiuT5Kz2Tn9P0pE6P3jTcDouxTp6QWUIYfQZUGR5CLzNoLBZTsSiS6o3YCKPFiqY7VX+ihOn4QsV5IYtP9iqW+DgFKJ7/UiGrI0hpHVmHL+4b7AsnxvSuWqUgEMt77H5eaAqT19AllNXqdBqEyYCFD/FCgKcINGboczpQmjlhthltVn7dB8Vtid579E4fyn+vthIo/73Og0290jAidTIVaxqXyM7UkhpCdnwg4K2ptupNhXlONWitAOQnVesP+N0WfjaSwWzUEVp1lNxTvUrmCbJscKBB2MKIrNksJewKeegCQxOatmUwyVYtqDBUo6mKhQE83Cy+rRBhZWhLbqPL0VwxNHXJZpal+Sssl3FecWbx+VvIr9euF08bP19yDN9Ac7Y0WkpRtFzIlutv+IX4toKh0ewOSC9vvLeykzV7l1ZDU1aTzUrw4/GmWl+gIJEf399kpfP+4KBgGwgAgXdCgPrMz2yudVQXph17xcleWg8HpaDEHoyal0iV5WcylX3SfkRPUR+aMsvPtOan8wvxDj1VNKb8PibwST68ow0VIasVxF//mfyMpkfo0NCG3+dF6a3SB0Aeqd5sdNjR3Gh+eSw0h7AwhoivWoDSAAJuB/+x1/QJhRhhnjreKJqpBbJVCySh+FgFWCjiFYSsjiCNjvpIPGF01H+yV4d/jgTGv1dSv0+xLRcL+a8P4uJTOA60za8QIc2AEVdH4pd5crsc/EISakFXbzLUuNxoZV+/x+1GQra4yLyqEalcNWuE6iWyMzWlBmotA1FdV8cvM+zzumyFvBBUYgVlrUZeBtH6ww5hWpJqWZJ7qlfJPOFRo5U+xNXH0OLDruKKd5h9v49fmEl2OZpmF/Tzk0nx/fi2QoSRunK0Bc/Rgi9ufqmykoVXFJaRUtdwXnEm9vwtQBYWnEIwS+vFL1ummCQno8pz02opRdEKIVuGAH4hvi1nyE9olT9WZCdr9y51VhUmh9D6aOkufqE64QZ8dH+TlV7u5pUeRrABBIDA3yFQWA8LxZGA3+v11FQXPm8+/UGq/jyRPwF+E0EKa0KhSRdo8T+Px2UtCCb0VCkswoge0vgijEKUFB/gAb8Y3Esf0e9rj5qQVa/L2zyTn9r0PD00qz4YVC7bT+pIi6XO40ENhxZtrKt1kBSvdPFVC/QWuzhhR0x4DdQof7LqqUIWrdGGKTRZE8sVIDr0ykJWR5DWhnAkMebsbJV3dJkff/8QWuUh4CwMgr4z3/7Og+8tIQDtpxNAYxjSwnP/vS4BNQICQAAIKEeC3zIMAe1yBNDCYeKCpP9eK7y+kNURpGegO5IYozzuvy9YsZb7aLEbLRbCaP5s4hc99Utjuv9es70rsKrOAO2XEUCPFa9TXCYM68aqtGEnEAACQOAfJADfef6u/KA+GM0fDWZDjcfvLTfN6513rTcRsh9t1tD0cHByoMoo/OLA320qoXRK73C7feg3twLoI0WtqbAg/Hvw7b/nA9B+EQEhd7646AEIWSAABIDAf5AACNm/G/3RiAn6+Td3raG4Wvzfdek5pb+JkNURpDkcjCTGarvj71zIg3tAAAgAASAABIAAEAAC/yiBtxKyOj3l7u+KJMYMfu8/igbcBgJAAAgAASAABIAAEHjPBN5MyBLkB7Ml9GO4fmqwymx+zwjANyAABIAAEAACQAAIAIF/kcAbClkdQZrq/ZHEmKuv819EAz4DASAABIAAEAACQAAIvGcCKkLWVWfYGLK66oT1ih+VeEvZfZF4grL7FFX9YLbUTw/VTw99MFsUh+CfQAAIAAEgAASAABAAAkDgJQRUhKzfbdwYsvrdT/hFA+kHEUpdMfi9kcSY51t36SHYAwSAABAAAkAACAABIAAEnk3gzYWsjiCdXW2RxJi1IfJsL+FCIAAEgAAQAAJAAAgAASCgIPAnhGwlZQyMfQ/Pjn52OBTFwz+BABAAAkAACAABIAAEgMDzCPwJIasjSMLpDM+O+kf6K8knpN4+r0pwFRAAAkAACAABIAAEgMD/A4E/JGR1BGlrikYSY46O5v8HrFBHIAAEgAAQAAJAAAgAgbcm8OeEbIWe8g72RGZHSY/79Wplqe0aH+sOVKr8dp/aIb0jPLo82+dTO/9R6zPIPVcrQsWTZ1hWXPLHClKUC/8EAkAACACBf5oAhI9/uvle4vz/S9P/OSGrI8iPVltoZrh+8vV+IkHv7N5nc0utVaXyUfWQ3jdwyqamI68jZPEiyPrB02xqvoUo9eTle/CCXm4Nt/CmbuMFwTYQAAJAAAj8eQJvFz7K1AUiSxk4vzlkNgebQ16bfNTsWXL2rzT9b2r3rIr8zuYrCNlKvcHubYvEE3ZvW6X+NymwpvpAJDHm/vpKP5FQpp1UD72dkNV7OlcON4bDH39H/Dm9U7Uur1LQm7r9Kh6CESAABIAAEHg2gbcLH2Vc+r+LLLbwfJrLbbU7qGKIt7YvZrjkbOxTGVClh8jwxBV7Mup/heG2V2j6ak/f7K/TdJZh6bvU3tKAz4ZVsOC80RwbTOwlMzTLZK+P1sZCDkEHau2XtKwlOp+muYeHh4d7ls5cn20tjja6C785UNW0eHefWYrbizz54j43JJL3zGqH7KcJXipkP5tr/E1jkXhC+PM3jX021ygKVvyzrqc9khizROoV+5/zzzLtpHro7YRsaXd8xT2qdXlF+2AKCAABIAAE/pMEIHz8kWatcHSv3XHJmQZRtppcE+dsZq3JJum2x228LyFr8Q/MDve1h6KxaO8SRzNTAAAgAElEQVTsQfY+sxxXfnY2xqbOU5vT35qbmmNfEwfZ+/xOn1lP6rT2F5vD2rbBcKfTDaGQJxyLdA7OHmfvc3s9LqSDqe5t9uGBS834jRg30j9wwj48sHvf6iqKdsgXCdlKvQFXsZKWLT8uW2UwBScHQjMjn+zV2uKVsnQtn6ZzDMfRmeTWzy67QawMVRcd/3VyQ7NsLnW0c5DmiqkFZQ4JdZYJWa0i7NGpnaPkbZbhOJa+Od8caa4tvhtpFaF3fz1ibxIxPsmhrAXC5u6b27rM0BzH5jPJk+2xZrVVybQKIqqDI+v7l7c8mtu9oUAloVoRY33ilkv98JA8N1nFyUrf+Cl7Mx016mRukzp9tad/YSeF3r7SZxujcfcHrK9oN5bYNHAyEAACQAAI/HUCmuFDNViQOqJMzNK6BH/s29xf57Yv79CQXPr0Z3tNBR5ZFMqMaluk2a1eIerZI5PbRyk+nDHZ1NHaULOrGHT0jsDg8u7lbZ7Jp0/XBxtrioH4rxNWccBQ/e0gTx/1e5AOq6j9tp3PbfaJeku9LiZHV2I7mWU4Nn+b3BoMogoiXPdolBL9x+5/dyHFpn55qRggdU9relN4IcNdTrkEnUCQ+q5NmtnuUBffxvq5DHs+UUuSOkvLTCqXWmgjeQ6VlPQp3uCeSnL55SiFuofWflFLICHL7n416sW+ZOvdYLizcaRqakbO2EzyMpvf7hcZEiTVsZ6hUxdp9mKyHu8MKkLW7UI/UevmRbFYnliMvPGEX6aVhmOljdLfqlXYIV114cRYYOxbmdW4PnqaGpuinmA41LtwSjP7A25egJv905csfbE42BGKNjV9nz/M3otCtswh0X+5nlMvgr8Dsztj0YZYoLFzYOOao/d7aoXhdO0i8Pu2nAWjc+goz17/GvsSjkaDrWNbOfZwUKia6CSC/JuCcrsTjQ1RX0NrvQcNsKtW5HN8Lcce9jp5z6v7NpkH9mDAwvcYQ88Ok12JmUi5kOV9Y5IrQx2haEvHzEGGu1mMO/D3HkU7wj+BABAAAkDgnRHQDh8awUIIBBpRTz2+YFUWAsfVGgpqsXB7T9hlkEWWMkJWjJUNsViwqevbynmeS8+3CRrX5Bo7pe8OJ780uuubvixe0Pn9nrrS79p43Pzb21Rg8ITJ7fZbSWfbr7v84aCjIBDV61LhHj5ksjvj7V5/wN3QHgvyn9F5XBezcafH5/B4LVaDjlC/XIAsFwNPbvrP8bUse9zvEsCaQvMZ9mjIJilLSfLpTcZg39JV/mQ8hN40LC0/MSGLdQZrdCnDno7WKC2o7i8RsqaOlTx3+SNUSRgCP9PMwVB05IS+nqsXBmWp4PA5cznT0rnB3C204DOjVISsixeyrkcIWWtdTBKv+Ia1LoZVTL1vuXo7IokxW+Njfu7L2rrBMOudaMTe3LGc445HxGUH8I8mZQ4VG0NrshdWBC5JCVKHXhHYzR7+1ipTBH4Vvq2wYGqdv+MupyOFVFoqNn2jJmQfWZBUr+IGVhFbzy+aXu9Cw96f2lbvstlsfqPVSuoIS+NKLr/ZTaH3PGwg2dS2cMedTdSL/cPesp5V65HqDfrbFocTgAAQAAJA4M0JlAkfxUhB6ggsWOCBQBGztC6R9pva5lHgCIqBgw8QuMHfCVnxSyap0zs7tvLsyYhdT+rM7UtZZqvXWRhJMbYkMuLwpFT0+9v4WD91xmR3VrfT9MmA31hoa426VIV/XrGp6QarrEsocCHZo4EChyygeEbTWztXc+KXejIwfKEc7NQRZFXz0h3KZL3P7AzU4h/6lfwpQ/P8JZ2caVTMVNPaLwjZfjNlqDLaTN6mnpUkw11NRU06whRbpZmNL4Q1vnCb3+qrrSBIMr56m9vucJjCi1lms1uPla4iZP1u48aQ1e8W2wA7W4abIJ89IqsjSFPAF0mMmQI+hU3xn0ZL0+ji/sVVJpfLXKdz9+xWD0mQlYHJC+GbuOAVJmTLHBJtkjrZiKx6ETJth8b5o1Np9njYV1G2dNlViu6FW/BPnHOZnzGRrYaQLVcXhXHEQasizi+7zN1y2yfCFEykL2eGflxl5lvMOkPTz1tmq7eG/2BRFLKVgclz9na6QfSNoIx9uyyz2WYG5QoEgAAQAAL/BoFy4UMzWBQDAQqXWMzSjC+iMCgJHDwlPE4plBmeWoCfhgxS5v4DlvnVYuJjPfdwz7HSf/cP96+24pDofFEbvNoes+/HBfvAnIzXSzkSqEVU60J5uzbSLJPeWxpvCzkL5ytwCcJD9XIlvXICSbsdbU2rWWb/u0VPVji/7zLpqYikAcQOb6yx+8OhzrGVJJPdH6jh0wZK0BnMrfNn+euVbrfslYbQ2o9epdo2mEIOBfo/Lpfanezw8sN89s4dYUEqg3P0jElOe4ye/iMmORP9SBh8M9fM4aAVG/R9kZB9Xo6sUH8jL2SNGkK2wj10QNPHc32hoM/hjX7bZRhJyHK3M5LYUghZjUNF4piQ1SpCJkkLCSuFKYR8d1QvXXaVonth/bIyOHXJ3vyIih2ljJDVqovCOEFqVoSgrN8OmNv5kDk8kUzPNNhCczfpucbP4Z8per9bSDnArPGPv1uUOFu4pUHIirfxqz3jwCAQAAJA4G0JlIlTmsECCwTo+Y/FLM1LxKciXxw/40LcgyzgBsnQeIo9R4mPfMXLClnT1z2W2RCFbHa521ft8oh/bqvNJIant2X4klIq+XHWiXopbVQQ5Vp1MVuivaPr59l7+my2BX0mxeALbvCE1S7HIfNsn9P0BPmpefGGOeqrNVDdW/nb+ZA0HwlvUH67KjST5DABUzzBYOlYTtKphU6XQsVq7BeaDwlZ7ngqFAjWej0Wm7mY9qp39x+x6Vl+0pGtc+Uuu7GwfpXf43WLwTl2zlxM1Il5vTriZZO9dAT5jFULhLYpL2Q/xNcYdq+7sJKFMbqUF4QsP8bOXUyJq1xhQrbcIQk3L2SvZqKVBKlZhKJz4L0KjfBrlI5fhW8r+qX1yzqNpUZoCNlydVEYL1MRgqxwftuhb+ZGZi9uFsNG8lPL0u31wmDiit7tR5MKFY8bc3wxy52NS1+IqpvXsuz5uBPrLi+5veFaIAAEgAAQeHMC2nHqGVFP8xIpqlpQvt9pMXCURBa9q++Qza13Fma7lxOyaHSQE4IOb/byR0Qa13xzblKNXrZRKmR1v6+L0TZwyAqzrMjA8DmbmsFWu9e6vEQMlFEO5dqRCo0n2bPxxvivXHq+qcwSolWh6ST+SVkE9TE4cUynV74oVCyptV9sypIcWdGgjqwfvWQvp0K8tDV6ppLcw/3NQstndAJlG0Az6wPYwPCLRmQFb560jqxYAbK8kK3wjB6z9NFsdzAYcPpCfdt0QcgSprqR4zyb3pzsiUSj/ljP7KW0akGZQ+Lbm76ma5dhz2YbPbZKrSIUnQMXsmVKx6/CtxVClrDWJ644+mL+e5s/FGscWDlnxBxZ2TRA7boojBOkNiuUctS5Q7MsczPfjHqnsWUuw7IsvdHD5xUohCxhrB05punk0kA8EGmOT+3fcjfL7eKZUg+DDSAABIAAEHi/BDTDh2awUIQVLOppXlKsvskzccYwV+tj3ZFoNNDU2RyWr1pAUPbBI4ZNrQx1hqINwebJPUZctYAvl73aHO5tDzW0tE/t3nDZjR5hlrrZM3nOsNe/Jnqi0Wigsb3zawv+NVnSEu9tQ0XIEup1qXC2dHW3+oOB2mDTl5UUd7fSYEIf3GMrWe52e6AtFmjqbGuordC4XDbsXWiOpzc9upCyfT+kM+lrOj0Tk495U/XtYwOtzTE/Wh5rZOmC5lKzQZNi1YKa9q08vT8a9Pmd4p8FZSRq7Rf1GJ9aIFu1QOpUVOzHDXsqLqZb4WgdSky3uguD3CjpMb/S8LpCVkeQRkd9JJ4wOp6wNGx5IasjzDVfEtuXd8z9PcfkM+nkwY8mXoyTOsLm6k1sXtzm2XuOzl5fHC73i98syh0qsNNHxzaS2ZuFlg9aRWjf0vwNo1E6fhW+rRSypM7gaZ7eOrnOMkz28uDgPM8eCAsyKKcBPqKgQquXYUXq29fuuPR0g9A7TaG5G+5utdEi9iSFq3q77/vS/hVafuv2fGui3VPm5ey9PT7AHyAABIAAEOAJaISP50S9cvGlQFvv8A8s7abu0HKZdym0jJQislB1DZNbZxmau+eY3M3l8daQMMOJPy1/vrd1nqE5Jpvan+2rLy5TqncEBpZ2k3doqcrczdnWoLRK1HtuZTUhy6+fVVKXqvrhzQsE5Z7NXR2vD8YKw0aVzvjU3lWW5djc9d5YFEVhVRQKyAU98MSmF66yxBcy9/fJaQ+mDhFka2zg19FlBq1Fmr+93FkaCTv55ENcrlBNsxlpvTAh5ZVZaTfptPZLarWckG2dR9KIX3qseH5Bt3zu3GTYzbgkY16eWiD0pzcQsqLSKqnDe+7BT/bN3LGcZ9a7FFP8/j/q/t9uWagdEAACQAAIlCegLsUgAv5xAnrPt+P8waDnH11t8xVSC95mRPaPN2T5++3VjlLVLd/a25p8waA72v5tPcXc/Wqtft9r471a3f+rbQr1AgJAAAgAgacTACH7l8OryewN2D3hlpnju1Si/p9doQiE7NPvvRf1PGv9xN7Z9V0efTW4OduZ+xKE4dg/3ARQHBAAAkAACLwDAiBkXyQnXtyCZGDghObYXGp/rs0tz479u449sXQQsi/uCk8k/uT0A7APBIAAEAACQAAIAAEgoEYAhCwIWSAABIAAEAACQAAIAIF/kgAI2X+y2WBYFwgAASAABIAAEAACQACELAhZIAAEgAAQAAJAAAgAgX+SgIqQddUZNoasrrriD6z9Vu9Tdl8knqDsvt+eKZ1Aed2RxBjldUt7YAMIAAEgAASAABAAAkAACDyegIqQ9buNG0NWv5tf9lYtr7bUOqwjW8oE9gABIAAEgAAQAAJAAAi8KQEQsv/kQPqb9gkwDgSAABAAAkAACACBf4IACFkQskAACAABIAAEgAAQAAL/JAEQsv9ks/0TL0ngJBAAAkAACAABIAAE3pQACFkQskAACAABIAAEgAAQAAL/JIH/tpC11HaNj3UHKh83Ze25bwx/ppQXdy+9Izy6PNvne2MaL/bzbRsL3AMCQAAIAIHHE3hEgIPg8rKw9cHb8X2402l4fKMoz3y5hefqH6Unf8XOf1rI6p3d+2xuqbWqXCczm4PNIa/t+fQfVcqzGpusHzzNpuZbiHL+yy0bffHE/uUdw3HMzXa/jcIs6H0Dp2xqOgJC9vlt/fiGgDOBABAAAv8BAo8JcHhweUbYehKl39qXnfDi+P4k3555sjmymGEOBqx6eTR/grWXW3h20e/iwr8jZCtJg701FkmM2VtjleQTFqx9mgR5zB1Ihieu2JNR//Pl3WNKeUKPxLqF3tO5crgxHP742MsNztEzJrMzFG/wBCPBYG0VbgF/1jzWIOYMXAIEgAAQAAL/bwQeE+Dw4IIHnbdg9Vv7+Akvj+9Pr0JVbcfsJX0xUV8UFfpq3+DqUTrP0HfnW1MNTvnapqa2hTtm52tthViWwkKFo3+HfZD/x52NY5+aixaM5thgYi+ZoVkme320NhZyyPSVwnJ5QUV44t/mNg9TmeztQpgqEQOmrjUGc4pZa5SfQ0Z/HNH3N4mYfCTREp1P0xy68J6lM9dnW4ujjW6L4ElV0+LdfWYpblc49rkhkbxnVjsKpymO6gjyLwjZz3a7f+xbJDEm/PnHvn22K/0udfQ5ex5zB768oz+mFLGDPqcWj79W7/yyx2Tmm+T9Rux/+LPm8TbhTCAABIAAEPi/JfCYAPdug8vL4/tT2r3C7IkOrZxkOe6ew4QsZf26m2VSy4Ptoea+6ZMccz7lMYpxmSCJ+OodvdvloHQEqW6BrLb5g3UB4a8+NLx7x5yPR6ySnChaMMamzlOb09+am5pjXxMH2fv8Tp+ZH+hVt6xZO5O9e+0yc7k+PdDaFHX7aj+Xnmn/uk0nZ+JBp8+P/ryycz4FR/cz6esMVyJkrW0bDHc63RAKecKxSOfg7HH2PrfX40KCm+reZh8euNSMH+OjI/0DJ+zDA7v3rU7S+lLdhY0/LWQrSQOuYiUtqxyXVfQ/qm2RZrd6HbzT9sjk9lHqNoe+n2dTR2tDza4PEmWqLjr+6+SGZtlc6mjnIM2JqQWUpWv5NI0uojPJrZ9ddiEfBRV0L75WsPvfXYiU3hEYXN69vM0z+fTp+mBjTfHVSihIs5Tq4Mj6/iXvG327NxSoJFTLNdYnbrnUDw/J92b5U6DSN37K3kxHjTq9++sRW+wH+mpP/8JOKsuwdPpsYzTuLtZa8Aqdz7/p8G876ELcgrwUjTqaHF2J7WSW4dj8bXJrMKisuMQZNoAAEAACQOA9ErBHp3aOkrdZhrtn81eHi33dgzPbZ9d5ls2nDxZ6agoqQTU28SFJM8BpXIIHFzzoEEVPOJa+Od8caa4VY4qGqQJPU3ghw11OuYQQSZAfmhZv2ZPvbgoPi1XRRFqK3ijqsetdNvwE3ePjeznJURSdCv0k/ydl7tu+Oln93toxeckWhSwVnkhx6fmmT3zVKj0jR2xuuV3KZrQ1r+Xo7V4DOqphAe9jlpbENXMyXo9Ff9wCWUlJQ7AG91SSyy9H0UDpIyxjpXyonzrN7PZ6TLIKWlpmUrnUQhvJn1nhGTmmD3qcSH8r/iqq43Op66XOcPcuUxQwhdOQkGV3vxqlPApb7wYjDDBTNSNnbCZ5mc1v9xc1K9WxnqFTF2n2YhIb5JYXqiJk3S70E7VuXiAr/NP6p8Hhj8QTBodf6wRpv/DLtNJwrLSh/K3aMr2Kv0+yO2MNsViwqevbynmeS8+3CRrX7J++ZOmLxcGOULSp6fv8YfZeFLLkR09TY1PUEwyHehdOaWZ/wI00K1/QxWzc6fE5PF6L1aAjTK6xU/rucPJLo7u+6cviBZ3f76nDW0u7FN633O5EY0PU19Ba70Ej4arlfo6v5djDXqETVPdtMg/swYCFb1pDzw6TXYmZSNkNSRidQ0d5Jrky1BGKtnTMHGS4m8W4Q/aCwpeeWe2t5etSbTfLLODPGo06VriHD5nszni71x9wN7THgm8zUi7vglLfgA0gAASAABB4KQEhRG6PhKNRf1PvzCn9wKVWR75EorFI39IZwx4NeYXAoRqbdIR2gNMIZzo8uPClF+SL4MnOWLQhFmjsHNi45uj9ntpCMNUovaCKPretZtmTb27hZIPnR4q9mKwj5WHR6KhGwc7n8DYO7ue49GqTQ6Z0nxDfy0iOJwQs3lsyOHJRFLIVdYMHLL0cNxealQyNp7jrnw0FQW/7spbP//oihVoVC1h/MLkmLtj0YtiMaUelBemQNbqUYU9HawqSsbxl6SpSRyBlzKZP9y/Sd7ns1cmvkZY69JnX0vITE7KVkdlrZrfP5ySNQhuJFkhX1/bt6Y/oZ33Nl8cIWVPHSp67/BGqJAyBn2nmYCg6ckJfz9ULr1tUcPicuZxp6dxg7hZa1L82q6YWuHgh63qKkLV72yLxBFntwYiLtZJ3AmtDSBKv+Ia1ISS7tkyvwu8TNHrq7NjKsycjdj2pM3cs57jjEXFivuY3EWvrBsOsd6I3JEVBBKkzty9lma1eZ0EjGlsSGXGkVqhLmVIUvsnrriOwcm09v2h6vataR5Cf2lbvstlsfqPVSuoIS+NKLr/ZTaGqYSOyKAmGO5uoFxvS3rKexfooTxs/Xyga34M/azTqWBX+ecWmphuK3yxkjaKsjnoTwyVAAAgAASDw1wjgj30+vuTY/e4aQW3Y4psMu92H4ovsD4tNZQKc1iV4cMFLx7cJUofG3tjNHmHUCXcAK10qwtq5khO/JvPS8HIqhMSfwiY631D9lf/aHuZzKPETHh/fFWfKPgLjrj5iWy5kK0PTKS49FRYHSvWu3kOWWesQpr5Q3Vv5/EarTW5WbqHYUraulSy9089/NxZBqVsgKEPz/CWdnGmUhn75IrQsi9ZQWVTjzwx3tTHSFK13+iItM0dZ9nI8JB+dJcgPsZnTq5s75v7hPp/cnW3zCEod5VHcnk64jaSunJDtN1OGKqPN5G3qWUky3NVU1KQjTLFVmtn4QljjC7f5rT6UNEzGV29z2x0OU3gxy2x263E/sW2VEVm/27gxZPW75fnI2DVFrPxOwlIXic/6Gkcq9HJhrnbJa43IYuPVlLn/gGV+tZjIysDkhfBRXihaJmSNlqbRxf2Lq0wul7lO5+7ZrR40Qq7ovgRvhHu451jpv/uHe3yyf7lS8FuoUH2NcvXOL7vM3XLbJ8IUTKQvZ4Z+XGXmW8w6Q9PPW2artwbJaMxaZWDynL2dbpAahTL27bLMZhv+ZoadX2gjfA/2rEFVUK0j5e3aSLNMem9pvC3kxD5eyG8ztZZV9Ar4JxAAAkAACPwFAvhjnyAr639cspcjfkFIGUPzd+zxcDUapVOPTeUCnMYl5Udki8GajE6l2eNhHz9IpF46hsvWtJpl9r6Z9SRKt2MuRwN8FeS10xHkB//oIZ3bHfAVRnnwEx4f3xVnvrKQvcaEbB0mZGs6t+nsWqdSn6nLTcr67YC5W2204OFY1YLB3Dp/lr9e6XaLI1/iJeqWxaNCZLd0/2LZ7a/iWJ6QGjHboDRVUFlmU7Br8ijLpRcjFlJX3bWSSf2ICm8UmiOyYjLnw8MDl0vtTnZ4eVlv79wRlpnip60npz1GT/8Rk5yJfiQMvplr5nBQa2GHlwrZSr3B3zQWbpv9bHZiXVDORdQ9laShtqsNH4gVtv1j30pyZEPjKfZcmpeH9yq8myLLlOnrHstsFIQsdzsjqT1MyFa4hw5o+niuLxT0ObzRb7sMU07IZpe7fdUuj/jnttqKryO8ClQvBZeeAg3Ncgm+U97Oh8zhiWR6psEWmrtJzzV+Dv9M0fvdQsoBVlP+4XKLEmcLMF8uZLXqaLZEe0fXz7P39NlsS8mLu3rLil7BUSAABIAAEPirBLDAoSPISv/EOZscCxaEbDBxK3zA1IpNZQKc1iWPFrLFNYI0TYlqQUeQn1uWbpmDHqexdvyCORurKUwpwT5UEqTOGBo5ZTJbfVYxm1YWhRXytDBQpRb70Bd/DcmBufSoSCcXi6WpBWPJQmpBhePrNp1dipd8ApVbKBSq9/Qfs7eLLfgqRmoWDJaO5SSdWuh0qUhPVcuKCpo6VxnueLiQf6LjdRSz2l5mYAv1MS4712zkZ2sVhwG5+4eHe44+GnFIGbEEP9nreCoUCNZ6PRabWcyZRiN3/UdsepZf5cDWuXKX3VhYv8rv8XLI4Bw7Zy4mUG6Jwlv+ny8Vsg5/eySesLmbVa3jO9FiBSP9kcSYb7A3MPZdkrPqqxboXX2HbG69s7CEajkhi97buPNxJylkBXAXU+J6VZiQ/RBfY9i9bn5ioI4wRpfyopANDJ+zqRlsdVULyk+4/BHRbDb0XV69FNktxPPVLJcgK5zfduibuZHZi5vFsJH81LJ0e70wmLiid/uFaYYya+b4YpY7Gw+KXbO6eS3LCrWW2lX+/ELw8T38iOzVTBT1m9/WkTDaBg5ZZrtD8clDKgs2gAAQAAJA4B0SwB/72kJWMzZpBzjNS/DggpeOb8u/f2qawnkaGqaumMPRnskkvSvNWJfZNLnHz5jMRlshsvMqBz+BfHR8LyM5cJces60Qi1Rk8oq7nhMne7mHj9jcCprsRVn695m7lQZTiThTWOALrXB+32VzS238YGfBDRULH4MTx3R65YuaikVNIMvfxRVacZv0D51zhfxG9KrQOHPDXkyUm/ld6Z8444VshdkpDv95qt3RoSM2s9LtcNpE3ULqeCErm+wlISXrRy/ZQgIJYfRMJbmH+5uFFn7BBMo2gGa+B+QrfEk+v0jI6m3ucDzhbRj6bVKBOVIfmhmJzI5WNzfo9FQlaaC8bmtDmPK6lWOxYgvZB48YNrUy1BmKNgSbJ/cYcdUCvpuyV5vDve2hhpb2qd0bLrvRI8xxM9WNHOfZ9OZkTyQa9cd6Zi8LqxZUeEaPWfpotjsYDDh9ob5tuiBkCWtsJcvdbg+0xQJNnW0NtRWE2TN5zrDXvyZ6otFooLG982uLfEBbsxSZcBQ6n2a5KLu3c4dmWeZmvhm9Yxlb5jIsy9IbPXxegUKGEsbakWOaTi4NxAOR5vjU/i13s9wunilAw2/g0j36mq5dhj2bbfTYtOpY4Wzp6m71BwO1waYvKylO9R4rNFDJvQf7gQAQAAJA4K8TkAcCzRFZzdikGeA0wygeXPDS8W25kNU0JaOHPjGzNE1nN9qkIRXMZqVn+IBmTqZaaoQpXx6v1aZY7efx8Z3SlBwylx4R+JRikbL17+WY5NK31kBjz4/jHHPxw4tSSF19h8ztYouwmoGkydCG0gIq9FN8Lc8e9BRynXk3VCzUtG/l6f3RoLAkFv+/Fjz/UGFZ7/t+yjFr7fgor45Aea45Lr022Fzni8bnztB8dxelw1ct0Nc2DI50tDUFIrFw58jiOc1dzYfwgpCA0UwtUBeyVOzHDXsqLupf4WgdSky3ugu5xSiXMr/S8OpCtpI0BprGw20/P5lLc7eLjV1pNNb1dEQSY8HJAX1dray1yvcPqq5hcussQ3P3HJO7uTzeGhImIfH9OH++t3WeodH6W/uzffXYb1/ZXL2JzYvbPHvP0dnri8PlfmHdYHPNl8T25R1zf88x+Uw6efCjSVgardIZn9q7yrIcm7veG4uiFtU7AgNLu8k7muPY3M3Z1qC0CIjov0Yp2D0mnqlZro4g9e1rd1x6ukHIWzCF5m44PANGYU1v931f2r9Cy2/dnm9NtHvknU8+/iqwlVvQR8c2ktmbhRY02KxWx6r64c0LRPyezV0drw/G5EK5fHvBUSAABIAAEPjrBOSPfS0hqyPKxCaNAKd9STG44KXj23IhW7b0on6ocPRt0Z45qwIAACAASURBVPfScCaKqkWblPX7ofyHAjj020bFE5CdJ8R3Lcnx1AZViEXks90/tHZ8g36l4GJ7OlaLUgQrXEOH7O1sk7iaAV5KqQUCLU3FZZcimJJTsUA1zWZkC5I9PDAr7cXESKVE5gsqLqEg+aCv9g0sH1zn0FqfJ2v9UTtKa8ZXLSB9HYt7Zze8zsqk9lfHG+qwUgQ7TxayrfN59mBANpVN1FHk585Nht2My/KDi/3k+SOyzkBXJJ6wumJSSaUbhNMZGEdZBK6+zkqjWoNJ4B6/Ie+mpYXCHiAABIAAEAACQAAIvFcClH34lL2ZqxfWs3+8/ime+XILaKGnlXx2uTRJt1hKUSy+V5LIw2cKWaraF4knPNEBzbrpKVssEv45Ep4dtUTlS2u9kBEI2RcChMuBABAAAkAACACBv0WA9A+esVezMc2pOL917OUWCPJDZPoiNR8qTdL9benv7ITnCNkqyhxsngy1Tn80oWVQS/+qzGZ3f1ckMRYY+/a5plziQem1v98DQlaN+e+5wVVAAAgAASAABIDA3yaAZkex11NhaRkiFR1VPqa/3IJg/7cTnMq78U6OPkfI1tZ3R+IJc21EtQ6ku65+ajCSGKvtjldSz28nVeOwEwgAASAABIAAEAACQAAICASeLGQNjkAknnCHv+kI5c8fVOgpe0ssnBgLzwyb6n//c7XQBkAACAABIAAEgAAQAAJA4NkEniZkqwyW+papUMv0B4NyCd8PFqt3sActEzvy9VO1esrBs72EC4EAEAACQAAIAAEgAASAgILA04SsK/Q1Ek+YnMrJWwafN/RjOJIYc3Q0V5CFdb8UJcE/gQAQAAJAAAgAASAABIDAKxJQEbKuOsPGkNVVp9SjHwzW+tbp+lblcOyn6mrf8Fc0FjsMY7FPTtl+xbYEU0AACAABIAAEgAAQ+L8ioCJk/W7jxpDV71bO0/JEvkfiCYMjiAOyREOhmZFwYszR2vjfmP6G1w62gQAQAAJAAAgAASAABN4tgccKWWtdYySecAa+SDWpMpldX9EaW8GJ73rXU36y62+vfCFVATaAABAAAkAACAABIAAE/l0CjxKyn83OcNtsoHG8kiwM0xq8nsIaWz3tlUbl2O2/iwM8BwJAAAgAASAABIAAEPhXCPxeyFbqDf7YaLhtlrDWoR8Ipow1HS2RxFhoetgY9P0r9QQ/gQAQAAJAAAgAASAABP5jBH4vZB3+jkg8YXM36wiSqKnxj32LJMa8Az0frcoVuP5jaKA6QAAIAAEgAASAABAAAu+ZwG+ELFnti8RnvdHBCtJga4qGf46Ef47YmqI6vfLXEN5lJS21XeNj3YHKt83K/TOlvHg9BL0jPLo82+d7Yxov9vNtGwvcAwJAAAgAAQUBm7tncrTT+wrR4VUCjcyI1dU9MdzhrfjvhoYP3o7vw51Og6JRnvDPl1t4lxLusQTKCVn08wfNU6HWGb2jzjuAfuzAP/aNqKn5Zyqsd3bvs7ml1qpyN4DZHGwOeW3Pr9SjSnlse8jcIOsHT7Op+RainP9yy0ZfPLF/ecdwHHOz3W+jMAt638Apm5qOvMKj6vH+wJlAAAgAASDwDgng8UXv/nrE3iRiZWOlPNZo1ehVAg1u5BV90/L5L+83RxYzzMGAVf84wirevtzCs4t+FxcqhWyVnuyIouW3OqJGbwT9/IEz2h6aRj92UNPRUkH9U/O6HiMxyfDEFXsy6n++vHtMKSo97xHNr/d0rhxuDIc/PvZyg3P0jMnsDMUbPMFIMFhbhVvAHw2PNfgIJ8EUEAACQAAI/HMEZNEBhOyrBbuq2o7ZS/pior4oKvTVvsHVo3Seoe/Ot6YanHIdZWpbuGN2vtZKQ84KCxWO/h32Qf4fdzaOfWouWjCaY4OJvWSGZpns9dHaWMgh+0EAhWXZwJlaByajP47oe7U3nGpP3+yv03SWYem71N7SgM8mfqU3da0xmLPMWiOFs7VE59M0h064Z+nM9dnW4mij2yJ4UtW0eHefWYrbFY59bkgk75nVjsJpiqM6gpQJWYuN+tlr2RiyCn+L313NX/ojibH6qUGD11N68Xvf8xiJ+Z6FrFrHKsdc7/yyx2Tmm9TfqkHIPpUnnA8EgAAQ+H8g8Iqjnq8SaHAjr+jbGzdlhdkTHVo5yXLcPYcJWcr6dTfLpJYH20PNfdMnOeZ8ymMsajsivnpH73Y5kBBUt0BW2/zBuoDwVx8a3r1jzscjxUlKRQvG2NR5anP6W3NTc+xr4iB7n9/pM/MDveqWywL5FBzdz6SvM5yakLX4B2aH+9pD0Vi0d/Yge59Zjhc+Hdu/btPJmXjQ6fOjP2/tZ1kp1rYNhjudbgiFPOFYpHNw9jh7n9vrcSHBTXVvsw8PXGrGj/HRkf6BE/bhgd37VidpfYUQKgrZKj2Jq9iClh2pdX/trDKZFZe9+T8V+pJqW6TZrV4HX649Mrl9lLrNoe/n2dTR2lCz64NEiqqLjv86uaFZNpc62jlIc2JqAWXpWj5No4voTHLrZ5ddyEdBBd2Lrw/s/ncXIqV3BAaXdy9v80w+fbo+2FhTfLUSCtIspTo4sr5/yftG3+4NBSoJ1XKN9YlbLvXDQ/K9Gb9pCbLSN37K3kxHjTrFDayv9vQv7KTQK1D6bGM07i7WWvAKnc+/6fBvO6jz4RbkpWjU0eToSmwnswzH5m+TW4NBZcUlzrABBIAAEAAC75GAPTq1c5S8zTLcPZu/Olzs6x6c2T67zrNsPn2w0FMjqARZdEAjsszN5flNnmHpm/PNkeZa8eGvGsKEyKUWKGWBRvvaAjeNE3AjvJ/5872tczTOeJfa/9lXX9BM5XRCUSm+uVwR62Lu2746Wf3e2jF5yRaFLBWeSHHp+aZP/GmVnpEjNrfcLmUz2prXcvR2rwEdpdQtFOzzNbK0JK6Zk/F6LPrjFshKShqCNbinklx+OYoGRB9hGS+FICuq43Op66XOcPcuUxCylpaZVC610EbKz9QRxvq5DHs+UcvrmQrPyDF90OMUB2iVJyMhy+5+NUp5FLbeDUYYYKZqRs7YTPIym9/uL2pWqmM9Q6cu0uzFJDbILTdbFLLCL9NKw7HSRulv1f6JblGmg/LdOrsz1hCLBZu6vq2c57n0fJugcc3+6UuWvlgc7AhFm5q+zx9m70UhS370NDU2RT3BcKh34ZRm9gfcSLPyBV3Mxp0en8PjtVgNOsLkGjul7w4nvzS665u+LF7Q+f2eOrxVtEvhfcvtTjQ2RH0NrfUeNBKuWu7n+FqOPewVGru6b5N5YA8GLHzTGnp2mOxKzETKhazROXSUZ5IrQx2haEvHzEGGu1mMO2QvKHzpmdXeWr4u1XazzAL+aNCoY4V7+JDJ7oy3e/0Bd0N7LKgc4f8TTS/voFAiEAACQAAIPIGAECK3R8LRqL+pd+aUfuBSqyNfItFYpG/pjGGPhviJU/xpBY0iRK6D6bbmmD/W/m39iqX3e2oLUU81hGkGSlmgUQ9/eF3UjeNGeN/Yq82R3vZQQ2vHj71bLrvRwwudMjrh78QRnhgZHLkoCtmKusEDll6Oi6OBZGg8xV3/bCi8J9i+rOXzv75IoVbFAobL5Jq4YNOLYTMm05UWpEPW6FKGPR2tKUjG8palq/gN0tW1fXv6I/pZX/MFE7I/S4Ws3mQM9i1d5U/GQ4K2rozMXjO7fT4naSz0H8x/UkeUCFlTx0qeu/wRqiQMgZ9p5mAoOnJCX8/VC69bVHD4nLmcaencYO4WWtS/NuOpBbEASo0t/YsF5Pkcf6Z/lOmg+O2HRk+dHVt59mTErid15o7lHHc8Ik7M10wtsLZuMMx6J3pDUhREkDpz+1KW2ep1FjSisSWREUdqhbqXKUXhm5IVVq6t5xdNr3dV6wjyU9vqXTabzW+0WkkdYWlcyeU3uylUNSxvCSXBcGcT9WJD2lvWs1gf5Tsffr5QNL4HfzRo1LEq/POKTU03FL9ZyLugvK8rawdHgQAQAAJA4G8TwB/7fHzJsfvdNYKqsMU3GXa7Txlf5JfobD0bDLvZIwwP4dXBQphGEKnAA40sRmDXyvZL9rETcCMK3whb02qWOx93kiXhW/blVjL7xzfkQrYyNJ3i0lNhcaBU7+o9ZJm1DmHqC9W9lc9vtNrkTsotFKOwrWslS+/089+NRYbqFgjK0Dx/SSdnGqWhX74ILcuiNb4slAtxezrhNpI6XMjKzkHWqpqX7tA34PvMzkCtmAzwITZzenVzx9w/3OeTu7NtHlHBFy4XhGy/mTJUGW0mb1PPSpLhrqaiJh1hiq3SzMYXwhpfuM1v9aGkYTK+epvb7nCYwotZZrNbX+KDAOdfHZHFkjYoc/8By/xqMZGVgckL4aO8UFuZkDVamkYX9y+uMrlc5jqdu2e3etAIeYmQRUa4h3uOlf67f7jHJ/uXK0V5y5E6QqNcvfPLLnO33PaJMAUT6cuZoR9XmfkWs87Q9POW2eqt4TMcikK2MjB5zt5ON0gvFZSxb5dlNtvwN7PS0vE92KNBs46Ut2sjzTLpvaXxtpAT+3ghv800OlPxfoMTgAAQAAJA4K8QwB/7BFlZ/+OSvRzxC0LKGJq/Y4+Hq/XygRL5JToyOpVmj4d9/GiOegjTDCJYoNEMf0Us6sZ1uBGFbwRl6t9nmY0WU0n4fr9C9hoTsnWYkK3p3Kaza51KfaYuNynrtwPmbrXRgodjVQsGc+v8Wf56pdstjnyJl6hbFo8K7VLdtZJJ/YjyM6vKClmdscbuD4c6x1aSTHZ/oAaf1KU3m4Jdk0dZLr0YkTmMhKyYzPnw8MDlUruTHV5e1ts7d4Rlpvhp68lpj9HTf8QkZ6IfCYNv5po5HNRa2KEoZFVzZH/2WqqkVIZi55NX+y32o+F39lyal4d30NJu/XVP6Nb8rXU7I6k9TMhWuIcOaPp4ri8U9Dm80W+7DFNOyGaXu33VLo/457baTJJKK1OKbAyVx6JZLsF3ytv5kDk8kUzPNNhCczfpucbP4Z8per9bSDnAaooKZW9R4myB9suFrFYdzZZo7+j6efaePpttQS/u8AcEgAAQAAL/CgEscOgIstI/cc4mx4IFIRtM3BY+YOKn4dvy8R2tEMbHQbUggmlQrWulmKJ5AmakJKoWh650ZXTCX2wsuVgsTS0YSxZSCyocX7fp7FK85BOo3EIBl97Tf8zeLrbgqxipWTBYOpaTdGqh06VUsahlZWkPUkPgG/yMq+JQHnf/8HDP0UcjDm0pWBWaSXI3P4r6pCAbUN/jsnPNkm4ppBZwx1OhQLDW67HYzGIqNnqz6j9i07P8GnC2zpW77MbC+lV+j5dDBufYOXMxUSdMKypp3KKQ1RGkYtWCn70Wi7SkQsmVeM1ff1vv6jtkc+udhZzuckIW+9CAPnZwF1PielWYkP0QX2PYvW5+YqCOMEaX8qKQDQyfs6kZbHVVC8pPuPwR0RyP1C6l5JYjNcslyArntx36Zm5k9uJmMWwkP7Us3V4vDCau6N1+YZqhzJo5vpjlzsaDYtesbl7LssLnFalpFA8jRXIC/2i4momifvPbOhJG28Ahy2x3KD55SGXBBhAAAkAACLxDAvJA8EIhqxnCtIIIFmg0rxWhaZ6AGZHFQSyZEOmqMjpBLOL1xclvLSvEIhWZvOKu58TJXu7hIza3giZ7UZb+feZupcFUMlqksMCXWOH8vsvmltrwJahULHwMThzT6ZUvair2cUK2wuwUh/A81e7o0BGbWel2OG2i9ijxliCrQtNJLvMzhgtWdFqlf+JMTcjKJntJPMn60Uv2cirES1ujZyrJPdzfLLTwix5QtgG00HEAH/SVLsRzZIX2xteR/TtjsQXnKPvgEcOmVoY6Q9GGYPPkHiOuWsDfpezV5jBK/W5pn9q9kVK/CVPdyHGeTW9O9kSiUX+sZ/aysGpBhWf0mKWPZruDwYDTF+rbpgtClrDGVrLc7fZAWyzQ1NnWUFtBmD2T5wx7/WuiJxqNBhrbO7+2yAe0NUtR3nIEqV0uyu7t3KFZlrmZb0bvWMaWuQzLsvRGD59XoJChhLF25Jimk0sD8UCkOT61f8vdLLeLZwrQ5M8v1KD4Hn1N1y7Dns02emxadaxwtnR1t/qDgdpg05eVFKd6j2G95y88I6B0IAAEgAAQKEMAf+y/fERWM3RqBEos0FRqXlsQQ5rxETNSwVcnuzMWjUZ9sfa+xbMcl14oTO/W1gll+Lz1IaUMpWz9ezkmufStNdDY8+M4x1z88KL0U1ffIXO72CKsZiALpkoLCNen+FqePegp5DrzAFUs1LRv5en90aCw9BX/vxY8/1BhWe/7fsoxa+34KK/MEzy1AF+1gKpvHxtobY750RJaI0sXNJeaDaIZ6rUNgyMdbU2BSCzcObJ4TnNX8yHcgdLJXlJzULEfN+ypuKh/haN1KDHd6i7kFqNcyvxKwyOFrI4g/W4068vvVoprWfWkst9ug6prmNw6y9DcPcfkbi6Pt4aESUh8ty4sxoHW39qflRbjQM7YXL2JzYvbPHvP0dnri8PlfmHdYHPNl8T25R1zf88x+Uw6efCjSVjerNIZn9q7yrIcm7veG4uiFtU7AgNLu8k7muPY3M3Z1qBLOaCtUYr8CcIT0yxXR5D69rU7Lj3dIOQtmEJzNxyeAaOwprf7vi/tX6Hlt27PtybaPcrOpzhfIWQJUh8d20hmbxZa0GCzWh2r6oc3LxDxezZ3dbw+GJML5bdra7AMBIAAEAACr0JAHgheOCKrI7RDmFoQQXGtGGi0ry3UVPMEzIg9MrVznMrkWXHBzRbZgpvqOuFVSD7PiEIsomhr9w+tHd+gXym42J6O1SJxVeEaOmRvZ5sUc6F4hVpqgUBLU3HZpQim5FQsUE2zGWk5USETlVlpLyZGKlML+IKKSyiU1lcuZIurFlhjA7+OLjMMh1bqvNxZGgkLv/JA+joW985ueP2VSe2vjjfUYaUj+yWrFkiFUq3zefZgQDaVTZKdnzs3GXYzLku3LbwOKX8QQbjmvQhZqXqKDfldKtUTNoAAEAACQAAIAAEg8O4JUPbhU/Zmrl5Yz14hch71z5dbQAs9reSzy6VJuo9yoKgj/zptWY6s4A0I2b/eKuAAEAACQAAIAAEg8N8kQPoHz9ir2ZjmVJzfSsmXWyDID5Hpi9R8qDRJ97elv7MTQMi+o7eK/+Yd+856PEAGAkAACAABIPAXCaBZUOz1VPj5CZwvtyBUv0Kv+rMF/5gu+geFLAgjIAAEgAAQAAJAAAgAASBQumrBO5rsBc0DBIAAEAACQAAIAAEgAAS0CcCI7D82hP4Xv4ZA0UAACAABIAAEgAAQeFcEQMiCkAUCQAAIAAEgAASAABD4JwmoCFlXnWFjyOqqK6xD+650NzgDBIAAEAACQAAIAAEgAAQEAipC9r0vv6WdJwGNCgSAABAAAkAACAABIPD/QwCE7D85kP7/00GhpkAACAABIAAEgAAQ0CIAQhaELBAAAkAACAABIAAEgMA/SQCE7D/ZbFrvJbAfCAABIAAEgAAQAAL/PwRAyIKQBQJAAAgAASAABIAAEPgnCfzrQtZS2zU+1h2oVJkBpnZI7wiPLs/2+dTOf0b7qRWh4skzLCsu+WMFKcqFfwIBIAAEgMA/TQDCx3tvvg/eju/DnU7D8/18uYV/evj2Hxeyemf3Pptbaq0qlY+qh/S+gVM2NR15HSGLF0HWD55mU/MtRKknL9+DF/Rya7iFN3UbLwi2gQAQAAJA4M8TeLvwUaYuEFnKwFEeMkcWM8zBgFX/bCH7cgvPLvpdXKgUslV6siNq3BiydkSNVc/H+qfqVuYWVT30dkJW7+lcOdwYDn9U9tHXQKFal1cp6E3dfhUPwQgQAAJAAAg8m8DbhY8yLv0fR5aq2o7ZS/pior44Xqav9g2uHqXzDH13vjXV4DTKhj9NbQt3zM7X2gqRp4oF/hDhiX+b2zxMZbK3C2EKkxZFC0ZzbDCxl8zQLJO9PlobCzlkPwigZVnmD0HqTF1rzEPxP2atES9O8LPsOdoFWaLzaZpDtu9ZOnN9trU42ui2CA5UNS3e3WeW4naFP58bEsl7ZrWjcJriqI4gZULWYqN+9lo2hqzC389ei8VGlV7zjvaUuUVVD72dkBW74JvAUa3Lm5YIxoEAEAACQOA/QADCx59qxAqzJzq0cpLluHsOE7KU9etulkktD7aHmvumT3LM+ZTHWJShRHz1jt7tciCtpWGB1BEme/faZeZyfXqgtSnq9tV+xipVtGCMTZ2nNqe/NTc1x74mDrL3+Z0+Mz8iqW256ElRvdi/btPJmXjQ6fOjP6+suMJpGuf8riBr2wbDnU43hEKecCzSOTh7nL3P7fW4kOCmurfZhwcuNePH+OhI/8AJ+/DA7n2rk7R+0VWeQ1HIVulJXMVKWvYvjctSlq7l03SO4Tg6k9z62WWX0keouuj4r5MbmmVzqaOdgzRXTC0oc0hodZmQ1SrCHp3aOUreZhmOY+mb882R5triq5VWEXr31yP2JhHjkxzKWiBs7r65rcsMzXFsPpM82R5rdihaBf1TqyCiOjiyvn95y6O53RsKVBKqFTHWJ2651A8PyXdTWcXJSt/4KXszHTXqZG6TOn21p39hJ5VlWDp9tjEad3/A7hYVJ+EoEAACQAAIvDcCmuFDNViQOqJMzNK6BBdANvfXue3LOzQOmD792V5TgUcWMjxxxZ6M+gthlGpbpNmtXiHq2SOT20cpPpwx2dTR2lCzqxh09I7A4PLu5W2eyadP1wcba4qB+L0BR/5Q5r7tq5PV760dk5dsUchS4YkUl55v+sT7XOkZOWJzy+02MZ7amtdy9HavoYwFgvxQP3Wa2e31mMSrZPAxC2QlJQ3BGtxTSS6/HEWDqRq+aWCs8Iwc0wc9Tvk4pqVlJpVLLbSR/FXq5/y+ICRk2d2vRumDv613g+HOxpGSqRk5YzPJy2x+u7+oWamO9QydukizF5PYILfc86KQFX6ZVhqOlTb+1m/VfvQ0NTZFPcFwqHfhlGb2B9y8GDf7py9Z+mJxsCMUbWr6Pn+YvReFbJlDYqvL9Zx6EfwdmN0ZizbEAo2dAxvXHL3fUyu0qHYR+H1bzoLROXSUZ69/jX0JR6PB1rGtHHs4KFRNdBK10G8Kyu1ONDZEfQ2t9R402K5akc/xtRx72Cv0xeq+TeaBPRiw8L3H0LPDZFdiJlIuZHnfmOTKUEco2tIxc5DhbhbjDq13ILU7Cq8CbAMBIAAEgMCfJ6AdPjSChRAINKKeenzBnv9C4LhaQ0EtFm7vCbsMsshSRsiKsbIhFgs2dX1bOc9z6fk2QeOaXGOn9N3h5JdGd33Tl8ULOr/fUyeXVnI1g7n055kLJfLukcGRi6KQragbPGDp5bi54B4ZGk9x1z8bCqLc9mUtn//1RfqYrmJBRyCxy6ZP9y/Sd7ns1cmvkZa64rwgpQWp7tboUoY9Ha0pSEZVy9LJso3KyOw1s9vnc5JGDLil5ScmZNXPQS1SvqASIWvqWMlzlz9ClYQh8DPNHAxFR07o67l6YVCWCg6fM5czLZ0bzN1CS7HW8qYvCtlYAKXGlv7FAvJ8Dvn1f6TrWFs3GGa9E73QmDuWc9zxiLjsAP7RpMwhyWe5kMWcx4rAJSlB6tDrArvZw99aZYrAr8K3FRZMrfN33OV0pJBKS8Wmb9SE7CMLkupV3MAqYuv5RdPrXdU6gvzUtnqXzWbzG61WUkdYGldy+c1uipALWZRnw51N1It9xd6ynsVuA1lHx9DBfiAABIAAEHg3BMqEj2KkIHUEFizKxCytS6T9prZ5FDiCYuDgOeAGfydkxS+ZpE7v7NjKsycjdj2pM7cvZZmtXmdhJMXYksiw+99d/8DAilzIVoamU1x6KiwOlOpdvYcss9YhaACqeyuf32i1yTuP3IKOavyZ4a42Rpqi9U5fpGXmKMtejocKo7PqFgjK0Dx/SSdnGqWhX74IhWWpEeUbH2Izp1c3d8z9w30+uTvb5hFVOHbab87RLEgQsv1mylBltJm8TT0rSYa7moqadIQptkozG18Ia3zhNr/Vh5KGyfjqbW67w2EKL2aZzW495gAuQopC9p2NyBotTaOL+xdXmVwuc53O3bNbPSRBVgYmL4Rv4kJ9MCFb5lCxwjIhq16E7FWSIHVkdCrNHg/7KsqWLrsKv4cVFvwT51zmZ0x8N9AQsuXqojCOOGhVxPlll7lbbvtEmIKJ9OXM0I+rzHyLWWdo+nnLbPXWoCcCZq0yMHnO3k43iL4RlLFvl2U228zye0yjJxUhwwlAAAgAASDwlwiUCx+awQJPjZNFPc34ItauJHC8QMgSlLn/gGV+tZj4WM893HOs9N/9w/2rrTgkOv8mYUuu4Xghe40J2TpMyNZ0btPZtU6lPpNb0Fm6f7Hs9ldR0wu5CrMN/JuDqgWDuXX+LH+90u2WvV0gNSIbLf5N9fVmU7Br8ijLpRcjFg0ZoHWOZkFIyBankT1wudTuZIeXl/X2zh1hESqDc/SMSU57jJ7+IyY5E/1IGHwz18zhoNbCDkUh+65yZCvcQwc0fTzXFwr6HN7ot12GkYQsdzsjiS2FkNU4VGwtTMhqFYFrO3Qh9jaJHhBaRWCKsJyF4NQle/MjKorFMkL2MQXxd6NmRQjK+u2AuZ0PmcMTyfRMgy00d5Oea/wc/pmi97uFlAPMbf7xd4sSZws3OQhZjVv3TR+CYBwIAAEg8AICZeKUZrDAAoEi6mleInrIF8fPuBD3IAu4QfQxnT1HSZD8ExXPkcVPQ0cp09c9ltkQhWx2udtX7fKIf26rTTVJ9J09qOUarjS1YCxZSC2ocHzdprNLcasYc8WKyC3oTJ2rDHc87C2MRvOyh1lt/0CQahYMlo7lJJ1a6HQpVexThSzfXpVo9C071ywJA9FJrLlVzlFUoXgyErLc8VQoEKz1eiw2czHvWe/u2f8HpQAAIABJREFUP2LTs/xEI1vnyl12Y2H9Kr/HaxWDc+ycuZioE+b8FK0VnCkKWR1Bvp9VCz7E1xh2r5ufx6cjjNGlvCBk+c8N3MWUuMoVJmTLHZKqzQvZq5loJUFqFqG4tTAhW64I/Cp8Wy6FddYv6zSWGqEhZB9bEF8vzYoQZIXz2w59Mzcye3GzGDaSn1qWbq8XBhNX9G6/MJNR9rgxxxez3Nm49IWounkty56POzW6jvLekyDDBhAAAkAACPwtAuijvHqU1AwW2jFL8xKpdhaU73daDBy8tsAN6l19h2xuvbOwyHo5IWtrWs1yQtDhzV7+iBTnfkklvvMNhYajIpNX3PWcONnLPXzE5lbQZC/K0r/P3K00mEqkocIC6R865wrZgASpMzbO3LAXE0E0z7vEwsfgxDGdXvmipmKfK2TPHiFklecoqlBsspIcWekQWT96yV5OhXhpa/RMJbmH+5uFFn59Bso2gGbTB0pXAeMvlwlZHUG+k3VkKzyjxyx9NNsdDAacvlDfNl0QsoSpbuQ4z6Y3J3si0ag/1jN7Ka1aUOaQ2FH0NV27DHs22+ixVWoVgd+BChlapnT8KnxbacFan7ji6Iv5723+UKxxYOWcEXNkZVMCteuiME6Q2qxQylHnDs2yzM18Mxq6N7bMZViWpTd6+LwCxXszYawdOabp5NJAPBBpjk/t33I3y+3imVJvgw0gAASAABB4vwQ0w4dmsFCEFWz4RvOSYvVNnokzhrlaH+uORKOBps7msHzVAoKyDx4xbGplqDMUbQg2T+4x4qoFfLns1eZwb3uooaV9aveGy270CDPWzZ7Jc4a9/jXRE41GA43tnV9btL4sv69RFaWGo2z9ezkmufStNdDY8+M4x1z88BpJHdL3zO1ii7CagawKJRasX3dzXHptsLnOF43PnaF5by5KzUJN+1ae3h8NCstm8f9rwZMDFZb1vu+nHLPWXpi0I7SpvrZhcKSjrSkQiYU7RxbPae5qPmQmdbhE0TpH6hWKgqT9hLaQpWI/bthTcXWLCkfrUGK61V3ILUaJjvmVhkcKWR1B+t1o1pffXW4kWQa96KKoF19hj7nmS2L78o65v+eYfCadPPjRJC6cZnP1JjYvbvPsPUdnry8Ol/vFbxZEmUMF3/TRsY1k9mah5QOhUYT2Lc3XWqMI/Cp8WylkSZ3B0zy9dXKdZZjs5cHBeZ49EBZkkE8J1GnVRWEcodaoCN8K+va1Oy493SB8kTGF5m64u9VGKd9FYU1v931f2r9Cy2/dnm9NtHtk/fsVmvUVewiYAgJAAAgAAVUCGnFKK1goAgEmZMvHl4IS0Dv8A0u7qTu0XObd/9g7D7bEtSaOfzTUve+GINWCAlJEIyIWsLtrL9gr6iJ2VHqRlpzgl3ufhJKEZt1dcWcfnnsjnEzO+Z0T5p/JZAh75kyNJQYlnX1rHl+CpLM0lY4H7zzzfez9dLZZxn/l8SdImkqFr7enurlfxxS3GWcPL0NJplRlOu7zzGnq4vZguYYTtxrmT+7iTHWywPmGpYMRVw2a+Vv0uG2t8BxVhUxWcYt+9ugmmmYqY96fzBCtDRUtSKzbiSwvA/Xp6YlyjfDyMUr6xv7JlVDIuXhcbz+48sVZhZUIXx+v9HWyFvgSpVqbokgoOVDx/VpCdnCPkUOVn+f77jij0NlwUbpwBpn1XxqR/TRCtuLJ+eXelNuPMtTpqPC5QuEM/f5rhi9HFQACASAABIDA5ydQonc/f4c/rIeS1oUHFN/tLhbIf7Xl91tgykC5Mqmj8iTdV3fmL6sIELJ/eAIkLbYfI0NWvcmkJUZ+nIap5K/BFl6ptnpbQKCzgQAQAAJAAAi8hcA/K2Rxw5wPRbYtb88Afr8FDP/WuxEI75nLk3TrTYeAkP3DQlbZvXrliyYziL1XcrE7ZoJw7B+eAjgcEAACQAAIfAIC/6qQbTSs+lDU2fP2BM73W8hdeDSIv0IcDYTsJziZ6+3q5y1X3jBGIAAEgAAQAAJAAAh8NAEQsiBkgQAQAAJAAAgAASAABOqSAAjZupw2iIkCASAABIAAEAACQAAIgJAFIQsEgAAQAAJAAAgAASBQlwQqCFlNZ7N7XqnpzNehBbEPBIAAEAACQAAIAAEgAAQ+IYEKQvZz/CBCXV4WfMIJhi4BASAABIAAEAACQOCrEgAhC4oZCAABIAAEgAAQAAJAoC4JgJCty2n7qtdVMC4gAASAABAAAkAACLycAAhZELJAAAgAASAABIAAEAACdUkAhGxdTtvLr1SgJRAAAkAACAABIAAEvioBELIgZIEAEAACQAAIAIGKBBQdoyvL48bGGr/GJG7rWTrantLXalNj93/+o29d9p8LDnVzRf4vevP9Fupa435aISuXmwbMXaq3wn3n7i9aOm/tGxgHAkAACAABIFAPBMTq8WuUPhxsqiE3xfrZBxTe6GWELN4995AK79mwGu3f89Gz9gUN6kIJyHsPEtTNrFL85vXwfgtvPvSn2LFUyDaJcTshdc8r7YS06e1Y3z02vGc1gu6XDG+8wnvn7u85zWBfIAAEgAAQAAJfg8BrhaxY53Dduhd6/vtNw3/WPr/B31ACTR327SAZWO3m1Iu4RT937I1lKDLp9zj71FJBFEw2tJ+kLqY7GgrEKlhgP8J0wz92z27DidTjfo+Ep7I4C1K5ZW7nKpQgEZWKek+WzW2CHwSoZlnQn0I3RBiOE+teMhvfsdS4jKnYpvqBFMRejKSfnp6esohMRH2eg6V+rSLXgSbrQTKbOBxuLenP976dUJY6tueblXwqwnCBkFWoJFuTCve8MvfamlQoVJLyff7EO+9cf+/cnTeRf2KwcDggAASAABAAAp+QwGuF7Kcawp9VAg1yHTHvuk/RdJbmCVmJcvoyRYWP5kbMA1Mb92nK79RJORmKDR8nycvRNkZrVbGAizBZ6/hJMBE83ZgdtBJafcd3HmfOgtTi9IfPNn4MWAcs0zs3qWzmYkrORiSrW+Z6UqJ2/mdauk7Eogm6hpAtb/PcgZRDbop+2Ogzm3U9ll7H3PZdKpu+mtAwglsyfo6enujwpoHHR4QbZu/R0xO6+tFZ1PolXeWEbJMY56vYopb9O3FZZv1lGdHO/EPXPzXMAMRtxrmjy+BjhsrEHk7n+tvZKx5Z2+jOeShF0SjzGPLMmdi7G5V25018CQX4EwgAASAABIDAlyDQSjgvvKHHFEVnUSZyezA1Prd57otmEMrEbvYn2vMqQaIYPXqIpSmaJhMhz9ZoazFHU9JJrPy6j5MIpcPei5sYXUgtqLILP7VArJ32ooL04XpCIzLuP1sc6CjEKauYyrtpWc9+gg46NXheZn2zHjyi+59aiYhnv4nYiRVlAisVTkdV/AailwuJEskrGTogkWey7TXrQSKfOo/cH/8ctK8FESdkJT2rYTq2Z/0fO7RG3aIXpY9GimmTqoGTNHk+2cx8WsUChn/rdj4kLid1skr94VvAGyXFEGyz1hmiM0cEE7utarmSQYZ5Q8vwbjh66OgZv6Tys6mwbYbT4f0hvCClKrR5/kCMkEWX09LiDX/VpJuifSvGRkzSvuhDiVAwlTmf4TSrxH6aIMOBGAqs8YLchT7k+s8J2dwv0xbDscWNv/NbteyqCmwPq3X6Nl2XQtkswmSa5Qcyebs21q/tto4dBMjM9USnpEG7cEulLlZGugxGbd+IxcQGpSvsXvWyo9pEwvtAAAgAASAABOqMACv1UueLPQRhsE5uPpBPdPh4cayXsPROHfoo5J3vykW2/tNZ+62EztRjntx/IKnrWS37vtywEURk4GDObias1p97t6lsQcjilXepJmRzPblYJvosxn7HrDtKk9cTHfnbvJVNFQTK96HjFLr/oc01btath1FgrRPHBTpV2tbCKAR9W1f/3HWajh1b2wRKlxWy6CVCIteSy2Z8i5Bl9CKzVHDTYoATsg2dczeIPBqW51cRbl4J09GtvrygV42dZDK/xoo30ytYEGGMVEWxh+tALJlORe5/Ldo6uXv9pRaKUkdJHCbQw1J7XjJWtFxsLNzANaPnjw/rxHdx+xhPyG7xhWzFNqwcL4fAO4PKhKzM7srQwXVzI9Zs3IpRN/PE4j0Z3e3OXW5JTAt+Krhpc7ip5L6NG3VhneQsc0LWYmRSY8tfFqMwn0O4P69/QhDvbFZyeYThIvnIYYryTKrzsWWpbSfBRGqberYiKLzRpxT0pHz3d/YHdgcCQAAIAAEg8PkJ8GKWIgz/39BxGl2Pt+cUoWr4jELnU5LSUSgH3RR16mCihnL7UZq+WyyUIKiaWsDbpaaQLURncRETe0NnE+VhTp6pYseUDle6cDeZlYZBp5kRf8LRsX6/uWX6Mkn5V3rYHEp+g3IlUEVINJS0fKOQZVWQUMg2mjfCdMzZUwiUijWTt4g6sedyiCXjnkzGPagSyiehBZGkfytBR9yLVqJbre+1bXpTKLhizkdnK1vAJM0De0EytNlfDP1W6JtANRXJY0wuxOPDqlaKi/hClmvASPZn2pQMgds3J2Rn5JLmJqlK1mWdcIUoOuIkZCJMZjkmKfcYphzef8x4ppikYXz4+DF9bm+T9RykqLNxMWdHQIwTsp8wIstdHmF4o3EtQD9laVT8l33KMo9JSrpG3TFExa4OV4bM6m+5cZYsyiqDrzKLAkDQBggAASAABIBA3RDgKzkMb+xeD6LgoiEnpKTmvSS6W2hhonRShXXp4DoQSaTTiWgsnUWeCTznalF8gygEsARCtvIuohcKWZxwxtDdgp6NRlUxxTlrlfU4RV39kIvxRv3KAxVcMrJDEI5OhOHfDEu3ZPpyVp8P1/EblCmBqkKipOUHC9koT8h28oRsu+OcTJ04SvVZiQpUjP9C6Hy6EMXL5Sps97HjrWihWT6458tEXePa0hBmiWWONk/2tIy6EuF1IndVwIvI8hs/26bqgRghm8sZZf9Lp8OXa/YuVta3Oi5y9TGa1Us+KrShk+pmvFRok/gPa9ZvRqnbuWqFHTgh+/lyZAVVC9j1lzoa17dodIWXVqnKXZTIFcTk0qk/lSV92zbmWrNkUfInALaBABAAAkAACHxVAnwlh+GNhlU/Ci2b8kLWtPOI7hdbxXiDdv6GJO92p8wmfVsX8eOSoopCln7c7KsgZKvt8mIhyxUjqmqKNynfbYeP1M2EWtqxEqB8y+25fFnh6ERS8+IDlfBMKQvZtIKQbZkSqCokmDv+yM9karKS7uOEbHlqwXIon1rQ0DZ9TqYOh4X3k8uSE0QyxzFF3y3kE0JE7KUFdTzyDcMrWWhW2I9CZHjfoSlVseWWebSL12nsE1dczJDOPj1ladK72FbMas0/lVWzTU0hS985zUZTR5dOoZIXcqaZWPuMF8W22QoJKocrmXLvn0YyV+NqiQhrVi/7qcAqk1tSqc+ckBVh+GeqWmBc8KPwJluXLtdvBXO/I7jem4+5VhiMVDV7i6hzuwoX4WW7V2hfmUhFTPAmEAACQAAIAIE6ICCUetWE7LfhEwpdjbMPy4swKXGYyQlZNouPDjgL9bN4Edmqu7AR2cgmUXrrX9gTfoCpqim+p27uc0ao26WJtRB5WXxiXWBTpl3xUQn3UH4UrE/nNyhXAtWEhFgzdYvSp458+duPE7IiSe9ahI7uFh720i54UdrFPOwlUcxcU0lXn6xMipSoQNww76czZ+P5hBBp/2YcBVZNjZUs/GdavSNjrrFKKvZlQrZBri7ECnUtWmLeixKu8Ta1ii+Ln29TMgRuWstyZIsf4d1LQZRPIMGkOmeIfsrG921sfQaJapZ5hNDILzpW3LGk/JYIwz9LHVlMaXGl6Mfz2SGL0eoY6utowOS6NT+For9WJwiCMPaPOKZtSjHeoLaNjg8aTMYOk3XMFabzy6J897K1wqNQB99N0FsgAASAABAAAs8S4Cu5GhFZ3dIdIr3b4yaTUa03T52TeSGLyToX7zIodrY20UsQBsvEdjBftaCh2i7i9tFLCvm2+3WqBv7R+dvCO6VVTQlGx9xiRiRJptxDxSxSns1G3cINSd07be25R750XUqVVBCRfbGQEGGS1jkvhcKueYeZ6DMNrF1Rr61aUNAYpRpOopq5SlOhwx+Dxv6J9bs0FVjvYtJPNVO31OOBLVfNQCBCyiwopy/TdOxkbqBTTwzv+pgn3TWSShbaRzwZ8nrJpDeoCy+FvNCxciEr1v98oKmTkapFf/k5smVVC/J95rcpTl/pEIp9qC5kJZb1OHoo/HpAQ9vg/M7GoDafWyydukQZV98LhawIww1a5qkvg7ZwZ6HYsz+70agedl5FUohG6ejVMsGAFrcZZw8vQ0mSplE67vPMaXC8qXvhLJAg6WwWpSN3p3OW9tzTYBV2/7P9F6xLODQQAAJAAAgAgT9AgCf1RNWFrAiTt4/tnAeTVDZLU5lELHSzbi1UJ1VpJnfOAo8ZlKXJVDRwezSTu+dedRcxsewOpeL7tm/8o/O3hUK25tGLogdvaJvykNliOJPxqpxNifLnLeKlWz490cxzNVwDxk4FJVBJSDCWJZ19ax4foyZoKh0P3nnmSx4if+HclWs4cath/uQuzvxKQeB8w9LBiKsGzfwtety2FqoZ8I1XsNCinz26iaYpRMbuT2aI1oaKFiTW7YSgINnTE+Ua4RXtKrHM/smVUOD3IbfNF6kKm6BqQbExv03xzZIDFd/HagjZwb0Muplla61y7fOL4bvjjEJnwwpubfAlliC1IPfBJxGy/F7CNhAAAkAACAABIAAEvgQBSevCA4rvdhdr95ZJt+eG+X4LTIUKVyZ1VJ6k++rOVNaXzw3hw/YCIfthKP/YnMGBgAAQAAJAAAgAgXolgBvmfCiyban+zM9zyuT9FjD8W+9GILxnLk/SBSFbrwur3mYOOAMBIAAEgAAQAAJ1R6DRsOpDUWfP2xM4328hB61BnCsw/Jxu/twCCSKy9T1/dXcCQ4eBABAAAkAACAABIPBRBEDIgpAFAkAACAABIAAEgAAQqEsCIGTrcto+6joG7AABIAAEgAAQAAJAoH4JgJAFIQsEgAAQAAJAAAgAASBQlwQqCFlNZ7N7XqnpzNehrV+RDj0HAkAACAABIAAEgAAQ+MIEKghZqCP7hecbhgYEgAAQAAJAAAgAgS9DAIRsXQbSv8z6g4EAASAABIAAEAACQODNBEDIgpAFAkAACAABIAAEgAAQqEsCIGTrctrefOECOwIBIAAEgAAQAAJA4MsQACELQhYIAAEgAASAABAAAkCgLgn8g0JWqRlfXbB3Nbz3J9dae1fdx/PmxhI74raepaPtKX3p+yXN4E8gAASAABAAAr+dgKJjdGV53Agu6dMGIL912X8uONTNbxeR77fwaeG8pGOfVsjK5aYBc5fqJWOo1Kb67mLttBfFdyxN7/z6qGZHrJ99QOGNXvjWqDQvbz9RwRoQAAJAAAi8moBYPX6N0oeD73V5r/KYePfcQyq8Z8Netdc/2ljee5CgbmaV4jf7x/dbePOhP8WOpUK2SYzbCal7XmknpE1vx/ruseE9qxF0v2R4oxyssXs1AfraU6iaHRCyryUJ7YEAEAACQOA3EfgrQlasc7hu3Qs9//2mQX1is00d9u0gGVjt5tSLuEU/d+yNZSgy6fc4+9RSwdWIbGg/SV1MdxTvElewwI4X0w3/2D27DSdSj/s9Ep7K4ixI5Za5natQgkRUKuo9WTa3CX4QoJplQX94bHFi3Utmawf+StvUHiymIPZiJP309PSURWQi6vMcLPVrFbkONFkPktnE4XBrSX++9+2EstSxPd+s5FMRhguErEIl2ZpUuOeVudfWpEKhkpTv8yfeqaFEeZSr9qTG7tUE6EvM8ttUswNClk8JtoEAEAACQOAvEvgrQvYvjvfvHbpBriPmXfcpms7SPCErUU5fpqjw0dyIeWBq4z5N+Z06KSdDseHjJHk52sZorSoWcBEmax0/CSaCpxuzg1ZCq+/4zhsmZ0FqcfrDZxs/BqwDlumdm1Q2czElZyOS1S1zPSkRVP8zLV0nYtEEXUPIlrV5ZrAiTDnkpuiHjT6zWddj6XXMbd+lsumrCQ0juCXj5+jpiQ5vGnh8RLhh9h49PaGrH51FrV/SVU7INolxvootatm/E5dllGiWEe3MP3T9U8MMQNxmnDu6DD5mqEzs4XSuv5294pG1je6ch1IUjTKPIc+ciXmz4u65iWcFaMZ/5fEzFy3J8PXWVHfh9odEMXr0EEtTNE0mQp6t0VYuZ0Wlnd49DyaZ65zYw9ZIewNfyEp0o2eJzL3TIMdFJUJW3KKb2b8IpyhExnzupWHtN279qbRTu55ggqRplEmE7s+XB9pKpgf+BAJAAAgAASDwOgKSTmLl132cRCgd9l7cxOhCakE1H9dKOC+8occURdOIjPvPFgc6CgHFarvwBVBN/1gSV5IMHZDIM5lzdq29a+fe8CPjdKlU2HsyP6DhXGRlj88/7qfalsinziP3xz8H7WtBxAlZSc9qmI7tWf/Huv5G3aIXpY9GimmTqoGTNHk+2cx8WsUChn/rdj4kLid1skrLgG8Bb5QUQ7DNWmeIzhwRTOy2quVKBhmqDS3Du+HooaNn/JLKC1mFbTOcDu8P4QUNU6HNM4PFc0IWXU5Lizf8VZNuivatGBsxSfuiDyVCwVTmfIbTrBL7aYIMB2IosMYLchf6kOs/J2Rzv0xbDMcWN/7Ob9WySz+wPazW6dt0XQplswiTaZYfyOTt2li/tts6dhAgM9cTnZIG7cItlbpYGekyGLV9IxYTG5SusHthxbMCFEXOFidHzH2D9vWrRzrlnshT+09n7bcSOlOPeXL/gaSuZ7XsFYBUPe/NUJGT5bEewtIzMtGjaRYVhay4vW8vREYO+9krKqGQze0Ycs3bzYTNvnmToOMHw22cTRT9xdgkTIPLnjS6ncsdrtBV4VRVW3DwPhAAAkAACACBAgG5YSOIyMDBnN1MWK0/925T2YKQxSv7ONadpS6WiT6Lsd8x647S5PVER/5+bOVdOPdU0z/m40q8REG+kC0ct89iMVlHf7j8GTq2N5TTuJU9fmGMn9NLssRw02KAE7INnXM3iDwalud7jptXwnR0qy9/naAaO8lkfo0Vb6ZXsCDCGKmKYg/XgVgynYrc/1q0dXIZz6UWimSUxGECPSy15yVjRcvFxsINXDN6/viwTnwXt4/xhOwWX8hWavPMYJk1w0RkBUJWZndl6OC6uRFrNm7FqJt5YvGejO5254KyEtOCnwpu2hxuKrlv40bNLT+m55yQtRiZ1Njyl8UozOcQ7v+7VlXJNRyGi+QjhynKM6nOx5altp0EE6lt6tmKoPBGn1LQk/Ldi90uCtD8OyrrcYr2r6hx4URiykE3RZ06mKso2dBekvatmgQQc3Z2Hb0bvnTcbdcUKPEjskzmCu1b7S7s2Go7TeUXlmxwL0kHN3rzKUQSy0YchGzJFMCfQAAIAAEg8EoCcvtRmr5bLFTOqZpawPNxJW6RCZKhs4nyO4S8XYoutYZ/zD1UXeKOy4Qsd+darLZ7Muh+sVVc1ePnBUDx6J9wQyhkG80bYTrm7CkESsWayVtEndhzrl8y7slk3IMq4RQLLYgk/VsJOuJetBLdan2vbdObQsEVcz46W9kCJmke2AuSoc3+YuiXPUSJ5cr0mPSAx4dVrRQX8YWsoHHlNrUHy4q0nJCdkUuam6QqWZd1whWi6IiTkIkwmeWYpNxjmHJ4/zHjmWKShvHh48f0ub1N1nOQos7GxYI+cNA4IfsJI7L8h70ajWsB+ilLo+K/7FOWKQ4g6Rp1xxAVuzpcGTKr83clSs4c/uBLzlhMIpu5RpTbJsNFmFRhXTq4DkQS6XQiGktnkWcCx/BG45ofPW70FaRqzhprB6XTJB3dtPBykHlCtmxHiXTqElFnQ3K80bDqpxNbloJNELL8OYJtIAAEgAAQeBMBxlei+AZRcC4CIVvZx3E3GHNHxAlnDN0t6HM3Dyu6xWLkqMzNsfKC72dL3HENIYtJ5DM3iPplkzFut7LHfxOTYm//xIZQLLLaLsoTsp08IdvuOCdTJ45SfSa0IFKM/0LofLoQxcvdvt/uYwNkFS00ywf3fJmoa1xbCKIVNF+J5YowW0ZdifA6waqaakK2Spuag831gRGy+aRR5n90Ony5Zu9iZX2r4yJXXqNZveSjQhs6qW7GS4U2if+wZv1mlLqdq1bYgROyny9HlnczglWTATp1NK5v0egKL61SlbsokSuIyaVTfypL+rZtkvJ7GfzZ4p9gzPvcmdOgnb8hybvdKbNJ39ZF/LikqIKQDdC874WcNdZO8mJ/309SwX1LLq+ASeTlym+xXyiP3BcKxhOyJmcQxdeL3zUgZPlzBNtAAAgAASDwJgKsBHzcLEZeeEK2mo8rE7Jc1aCquxT6xh6usn/Mh1qZm+nIzyRBslKmppCVTV/l4kqs2WoevyDLCn34E/L05ccSisXyu+3LoXxqQUPb9DmZOhwW3k9mBIwgOUEkcxxT9N1Cofg9O6HU8cg3DK9koVlhPwqR4X2HplTFlluuNCj2iSsuZkhnn56yNOldbCtmteafyqrQpl1TmkdRHGxhjtiHve6cZqOpo0unUMkLqdi4SKyd8aLYNlsaVeVwJVPu/dNI5mpcLRFhzeplPxVY7Sy9c55fCZyQFWH4Z6paYFzwo/AmrxqrgrldElzv5TLBS+dAqpq9RdS5XYWL8LLdi41LhGzhXkabGP82fEKhq/G8JJUSh5mckBWxh35YqZRasGP51mJb91OZu1UdE9PNC9nIJsFMj3z4IEX7uB1bBk5SKJfGoBw7JXl3f0DIFicINoAAEAACQODNBJg0PDrgLJS+4gnZqj6uxC3yYqhVdyl2r6Z/ZLSUWDN1i9KnjvxD1bWELC/T73mP/1nlbIkMlfSuRejobuFhL+2CF6UvROKbAAAgAElEQVRdzMNeEsXMNZV09eWUQ5FnudzEDfN+OnM2zgTpMFwk7d+Mo8CqqbGShf9Mq3dkzDVWScWWW+YftLDdIFcXYoW6Fi0x70UJ13ibWsWXxVXbVB1scbLKcmQLxxXh3UtBFHTmfmRKqnOG6KdsfN/G1meQqGaZ+v9GftGx4o78HNmcXv4sdWQxpcWVoh/PZ4csRqtjqK+jAZPr1vwUiv5anSAIwtg/4pi2KcV4g9o2Oj5oMBk7TNYxV5jOL4vy3Qsc2TOWyWonCL1lZOrAl6Zj+2x2eYNu6Q6R3u1xk8mo1punzsm8kMVkulUfRUVOl8d7CcJodQz0CKoWNHZO/Uqg8J6NeZpP3D56SSHfdr9O1YBJOxbvSDJ0ODts7B0Ydl4/0vGjkXb2fo2yeydCk4G9n0MGs6V/1uWnIEe2MEe8BVq4jIOPgAAQAAJA4CUEZJ2LdxkUO1ub6CUIg2ViO5ivWlDVx1UXslV34b6ln/GPIkzSOuelUNg17zATfaaBtSuqULWAPS6KnC0wz17bRpyXce7Z68oevw48QomQxSSqmas0FTr8MWjsn1i/S1OB9S4m/VQzdUs9Hthy1QwE4yqzoJy+TNOxk7mBTj0xvOtjnnTXSCpZaB/xZMjrJZPeoC68FHLemimxLNb/fKCpk5Gq5X75qQVlVQvyfea3qTZYbrVUF7ISy3ocPRR+PaChbXB+Z2NQm88tZtIyM66+FwpZEYYbtMxTXwZtIcOG6wEPx+9/s1E97LyKpBCN0tGrZYIBLW4zzh5ehpJMvap03OeZ0+B4U/fCWSBB0tksSkfuTucsOZmIV9g93+fWXufFXTiRQYV6H7ZivQ95+9jOeTBJZbM0lUnEQjfr1ny1NnGbYfbwMpxkKnMlw0yRL+GZ3zx8HKfje4MtIgwXE8vuUCq+b2OCx+JW/c/D6whTfuvR71kd0XErplk3sOG5j6YoKhW8ufFn0E2+SMIf5Sw4f37/tMLhgAAQAAJA4DcTUGkmd84CjxmUpclUNHB7NJO7s1/FxwndGVu/spjaV2UXvrN4zj+KJJ19ax4f46hpKh0P3nnmc89ns8fNV8Nk6m9db3PVMCt7/N/M7SOcb4lYZGWAYf7kLs5U7wycb1g6GHHVoJm/RY/b1kI1Az7PChZa9LNHN9E0U8fz/mSGaG2oaEFi3U4U65bmMlEp1wivaFeJZfZProQCvw+5bb5IVdgEVQuKjfltqgyWN2s1hOzgHqOC2FqrReOFje+OMwqdDSsqT5AgtSB3sE8iZHkjr9z1L9VAbj/KUKejwgcMC1P4pUYKgwICQAAIAAEgwIieD/rF+PqDKWldeEDx3W6uVv1rdc77LeAiud2VSR2VJ+nWG08Qsq9dPR/VXtJi+zEyZNWbTFpi5MdpmEr+GmzJ1+0D5QoEgAAQAAJA4IsT+GeFLG6Y86HItqX6Mz/PKY33W8Dwb70bgfCeuTxJF4TsFz/xPmyCld2rV75oMsPkTsR9F7tjJgjHPnfqfhh8OBAQAAJAAAj8bQL/qpBtNKz6UNTZ8/YEzvdbyEm1BvFXCJ9BRPZvn8kgzoAAEAACQAAIAAEgAATeRACELAhZIAAEgAAQAAJAAAgAgbokAEK2LqcN8jeAABAAAkAACAABIAAEQMiCkAUCQAAIAAEgAASAABCoSwIVhKyms9k9r9R05uvQgtgHAkAACAABIAAEgAAQAAKfkEAFIQt1ZD/hPEGXgAAQAAJAAAgAASAABEoIgJCty0B6ySzCn0AACAABIAAEgAAQ+AcJgJAFIQsEgAAQAAJAAAgAASBQlwRAyNbltP2Dl1wwZCAABIAAEAACQAAIlBAAIQtCFggAASAABIAAEAACQKAuCdS7kFV0jK4sjxsbK/waRI2PXj9V4raepaPtKX2lA73eWoXeghEgAASAABAAAn+FgEo7sbbk6PoAB/chvlJgRKkZX12wdzV8Xb/5rcv+c8Ghbn771L/fQkmMs77+rHMhK1aPX6P04WBT+RKv8VF5Y+Ydudw0YO5ScfOHd889pMJ7NgzDRWL97AMKb/R+wHle+ehvX8Fch8EyEAACQAAIAIGXEBA4OO20F8V3LBU86UtM8dt8iK/kGxF/XN/4/fxE2/LegwR1M6sUv1kGvN/Cmw/9KXYsFbJNYtxOSN3zSjshbXo71j81thpqtcZHFVcw3rMaQfdLBk6qinUO1617oec/ELIVicGbQAAIAAEgUKcEBA7u48QiX4O+mQzfSL0J2aYO+3aQDKx287REi37u2BvLUGTS73H2qaWC8JNsaD9JXUx3FEPOFSywJDHd8I/ds9twIvW43yPhqSzOglRumdu5CiVIRKWi3pNlc5vgBwGqWRb0hzdrOLHuJbM1rnBKDDa0zVygJ+E/2rfCv2euIPZiJM00ySIyEfV5Dpb6tYpcB5qsB8ls4nC4taQ/3/t2Qlnq2J5vVvKpCMMFQlahkmxNKtzzytxra1KhUEnK9/lE79RQqzU+4s0TN5ZyIctvxj+v+O/DNhAAAkAACACBuibwgWLxQ3wl38gH9u03z1GDXEfMu+5TNJ2leUJWopy+TFHho7kR88DUxn2a8jt1Uk6GYsPHSfJytI3RWlUs4CJM1jp+EkwETzdmB62EVt/xnTcWzoLU4vSHzzZ+DFgHLNM7N6ls5mJKzkYkq1vmesLJIdb4/0xL14lYNEFXFLKVDeItKoOp05h7dZsXLpOUf6VXybOsHHJT9MNGn9ms67H0Oua271LZ9NWEhhHckvFz9PREhzcNPD4i3DB7j56e0NWPzqLW5xlk+s8J2SYxzlexRS37l+KyEsXo0UMsTdE0mQh5tkZbi+kjkk5i5dd9nEQoHfZe3MRoLrWgxke5WS9Rq5KhAxJ5JtsYKMxH2cKVBLr+qWngnz/88wqTtY3unIdSFI0yjyHPnIm78OKtrRLQ8CcQAAJAAAgAgd9PoJVwXnhDjymKzqJM5PZganxu89wXzSCUid3sT7TnVILAwTERWSoe9MczFCLj/rPFgY6CX6vui8Vtxrmjy+BjhsrEHk7n+tuZXQS+svq+eV9ZpQHfCNvPjP/K42fijMnw9dZUN5Pvl/favPuofIf+F3yxRD51Hrk//jloXwsiTshKelbDdGzP+j+2S426RS9KH40UkxhVAydp8nyymfm0igUM/9btfEhcTupklRYP3wLeKCmGYJu1zhCdOSKY2G1Vy5UMMmwbWoZ3w9FDR8/4JZUXsgrbZjgd3h/Ca3aVM6iw7USp+5Xub4K5YIQsupyWFm/4qybdVC5qK2lf9KFEKJjKnM9wmlViP02Q4UAMBdZ4QW6BTZ6Qzf0ybTEcW9z4W79V+5/O2m8ldKYe8+T+A0ldz2pZMS43bAQRGTiYs5sJq/Xn3m0qWxCyNT4qXHM8I2RRYHtYrdO36boUymaR4DzncmQbtAu3VOpiZaTLYNT2jVhMpWFwbiKFrOF9IAAEgAAQAAK/lwDruVLniz0EYbBObj6QT3T4eHGsl7D0Th36KOSdZx+cEjg4RsimbzaGBiwGy8iP0wgiryc68vdjq/himWb5gUzero31a7utYwcBMnM90SkRClm8yr4Fj4xVaVAmZFHkbHFyxNw3aF+/eqRT7glW6NRw6H/H+bLEcNNigBOyDZ1zN4g8GpbnJx03r4Tp6FZf/jpBNXaSyfwaK6qIChZEGCNVUezhOhBLplOR+1+Ltk4um7nUQpGtkjhMoIel9rxkrGi52Fi4gWtGzx8f1onv4vYxnpDd4oQsI46ZEQkHy1vYMs1qAMUOeuRCy1iZkJXZXRk6uG5uxJqNWzHqZp5YvCeju925yy2JacFPBTdtDjeV3LdxoxbOLxeRtRiZ1Njyl8UozOcQ7s/rd0l3P/BP5aCbok4dzAWN3H6Upu8WC9UD+PkDNT4q9rnGui/5iLmy5KUN8c6rxp6tCApv9PGj5R84WDAFBIAAEAACQOCtBPieC8P/N3ScRtfj7azswFTDZxQ6n5KUOjies8NwkWrCTaGzCfZeZdF7Mht8XzxymKI8k+r83V6pbSeRu5PJBX2E8oC3r8BmcZi8BjyHK3DEzI4q63GK9q+o8dx91M8TkS0MRKjtGs0bYTrm7CkESsWayVtEndiZZ2+Ym+meTMY9qCrsmyMjtCCS9G8l6Ih70Up0q/W9tk1vCgVXzPnobGULmKR5YC9Ihjb7i6Ff9hAllitPBJML8fiwqpXiIr6Qrdi4mkHVqCtFXsxoypIBckJ2Ri5pbpKqZF3WCVeIoiNOQibCZJZjknKPYcrh/ceMZ4pJGsaHjx/T5/Y2Wc9BijobF1fsAz+14JNFZKUK69LBdSCSSKcT0Vg6izwTOIY3GtcCKL5BFLQ1T8jW+Ig7nUrUKv9ORMlHpec57+SUdI26Y4iKXR2uDJnVwrC5cDlWgc71BxoAASAABIAAEPhAAkIh29i9HkTBRUNOSEnNe0l0t9AiLonUCIUsTjhj6G5Bz6qQ6r6YfsrSqPgv+5RlCvvwNShWeV+eB6zSgG9EOBwRJpHNXCPKbZPVkZCN8oRsJ0/ItjvOydSJo1SflahDxfgvhM6nC9cMuVyF7T42PFnRQrN8cM+XibrGtaUhzBLLFVddy6grEV4n2Cer3ihkJcofN1TyuF9RrogYIVvI4Xx6eqLT4cs1excr61sdF7kiVM3qJR8V2tBJdTNeKrRJ/Ic16zej1O1ctcIOXET2U+XINmjnb0jybnfKbNK3dRE/LimqKGTpx82+KkK2ykfcacNE9ZG/+Azd24QsM/dyBTG5dOpPZUnfto25uoUXEAACQAAIAIG/TkCo/BoNq34UWjblhaxp5xHdL7Y+I2S5Gj41fXHqaFzfotEVXlqlSsZPLai2b9FdVm1QU8jKZ24Q9YsVstUd+l+cBaFYLE8tWA7lUwsa2qbPydThcNndXaEFkcxxTNF3C4VKumz8jjoe+YbhlSw0K+xHITK879CUqthamQCchmGfuOKuUOjs01OWJr2LbcWsVj7bkq7mPhLrZu7Q44EtF3UuTje7wQhZ+s5pNpo6unQKlbyQis1cWc14UWybrQGncriSKff+aSRzNa6WiLBm9bKfCqx24lw/+WY5ISvC8M9TteDb8AmFrsbZ5/hEmJQ4zOSErEg+cpiiA062JBYTNOXVka3xUZG7WDN1i9KnjnyquEDIGhf8KLzJqxTL/zpgz6vIJsFBZ2xKVbO3iDq3l9wXKB4ONoAAEAACQAAI/EkCfM+F4e8UslV9sYJJ8wuu95bek+T5yqr7FmhUbcAzUppaIFbbPRl0z+qqGg69cAi+3PlD2yXaTtK7FqGju4WHvbQLXpR2MQ97SRQz11TS1ScrE2clFnDDvJ/OnI3nQ2bS/s04CqyaGitZ+M+0ekfGXGOVVOzLhGyDXF24MtG1aIl5L0q4xtvUqgqyuIrBBvXPS5Q+HKpYLassR7Y4U3j3UhAFnWZWZUl1zhD9lI3v29j6DBLVLFPo2MgvOlbckZ9akJvjT1JHtkG3dIdI7/a4yWRU681T52ReyGKyzsW7DIqdrU30EoTBMrEdLFYtqPFRcaFIWue8FAq75h1mos80sHZFFaoWYEqLK0U/ns8OWYxWx1Bfh7BqQfvoJYV82/06VaPaNjo+aDAZO0zWMVeYrrgQeYj/0MkDRwQCQAAIAAEg8KFCtrovluvW/BSK/lqdIAjC2D/imLYxd37FPF9Z1Y/nPXJV4zwjOUeculgmCEJvGZk68KXp2P5QLn+3hkMvOv0/vlEiQzGJauYqTYUOfwwa+yfW79JUYL2LST/VTN1Sjwe2XDUDgU4os6CcvkzTsZO5gU49MbzrY56r00gqWWgf8WTI6yWT3qAuvBT8x61KLIv1Px9o6mSkUuiU5cZPLRBULShQLTHInn3/Gz7JoJuJfFp2oWX+xKwuZCWW9Th6KNTyb2gbnN/ZGNTmc4ulU5co4+p7oZAVYbhByzz1ZdAWbt//ne8FefvYznkwSWWzNJVJxEI369ZC4TSVZnLnLPCYQVmaTEUDt0czxXK7NT4q0JR09q15fAmSztJUOh6888wXHttqVA87ryIpRKN09GqZ+E/4dSAmlt2hFHN90L1wFmD2z6J05O50ztJels5cONbfQQdHBwJAAAgAgX+VgNBzvTMiK8Kq+2Jxm3H28DKUJGkapeM+z5yGvfNb9JXfauybd45VjfOMtPY6L+7CiQyiaSoV9p7M2zRcGLi6QxdIwz/pi8u1nbjVMH9yF2d+pSBwvmHpYMRVg2b+Fj1uWwvVDPg9rGChRT97dBNNU4iM3Z/MEK0NFS1IrNuJYhXRXCYq5RrhFe0qscz+yZVQ4Pchty0UssKqBez5VWKQ2YupokWnDnsri84aQnZwL4NuZsufD2MO9N1xRqGz4QpJt8yngtSC3MR/DiH7r34Hla8keAcIAAEgAASAABD4OgQkrQsPKL7bXSyQ/+qhvd8CUwbKlUkdlSfpvrozf1mwgZD9yxPw164a622lAiggAASAABAAAl+BAG6Y86HItoULLb/WI7/fAoZ/690IhPfM5Um6r+3M324PQhaELBAAAkAACAABIAAE/hCBRsOqD0WdPW9P4Hy/hdz1QIM4V2D4Dw38N12EgJCt7/n7TcsCzAIBIAAEgAAQAAJA4PMTACELQhYIAAEgAASAABAAAkCgLgmAkK3Lafv8V0jQQyAABIAAEAACQAAI/G4CIGRByAIBIAAEgAAQAAJAAAjUJYEKQlbT2eyeV2o683Vof7eUBvtAAAgAASAABIAAEAACQOANBCoIWagj+waOsAsQAAJAAAgAASAABIDAHyYAQrYuA+l/eJXA4YAAEAACQAAIAAEg8AkJgJAFIQsEgAAQAAJAAAgAASBQlwRAyNbltH3CSyLoEhAAAkAACAABIAAE/jABELIgZIEAEAACQAAIAAEgAATqksDXFrKKjtGV5XFj4wf/ELBSM766YO9qeK/Z1t5V9/G8ubR74raepaPtKX3p++89XF0u0D98YQeHAwJAAAh8LQK/yQ+CQ/kwAt+67D8XHOrmtxt8v4W6XvNfWsiK1ePXKH042FRLAsrlpgFzl+oVsyjWTntRfMdS0+wLVmQ1O2L97AMKb/SCkH3FpNSa4hfMBewOBIAAEPiSBF7kBz/6SxLvnntIhfds2JdE+sGDkvceJKibWaX4zbPwfgtvPvSn2LFUyDaJcTshdc8r7YS06e1YP8XYRC85gfGe1Qi6XzK8QjVWE6CvXdzV7ICQfS1JaA8EgAAQAAIVCbzED1bc8T1vinUO1617oee/9xipz32bOuzbQTKw2s2JCnGLfu7YG8tQZNLvcfappYIYjWxoP0ldTHcU7/FWsMCiwHTDP3bPbsOJ1ON+j4SnsjgLUrllbucqlCARlYp6T5bNbYIfBKhmWdAfHnacWPeS2RphuzKDz3RAhCmIvRhJPz09PWURmYj6PAdL/VpFrgNN1oNkNnE43FrSn+99O6EsdWzPNyv5VIThAiGrUEm2JhXueWXutTWpUKgk5fvUzTsvOYFByPJWbd3MLPQZCAABIAAEXkLgJX7wJXagzXMEGuQ6Yt51n6LpLM0TshLl9GWKCh/NjZgHpjbu05TfqZNyMhQbPk6Sl6NtjNaqYgEXYbLW8ZNgIni6MTtoJbT6ju+8znAWpBanP3y28WPAOmCZ3rlJZTMXU3I2IlndMteTEgHwP9PSdSIWTdAVhWxlg9U7UDCuHHJT9MNGn9ms67H0Oua271LZ9NWEhhHckvFz9PREhzcNPD4i3DB7j56e0NWPzqLWL1jLd54Tsk1inK9ii1r278RlS/SlZOiARJ7JNrb3rb1r597wY5qiaSoV9p7MD2i+FSdV0kms/LqPkwilw96LmxhdSC2QKEaPHmLMTmQi5Nkabc3lozAHyjJXB8w/dP1Tw5AStxnnji6DjxkqE3s4netv5y6tmE+Z1IKM/8rjZy57kuHrranuwg2UKkdhuqfSTu+eB5PMlVLsYWukvYEfkZXoRs8SmXunQY6LSiKy4hbdzP5FOEUhMuZzLw1rucFiKu3UrieYIGkaZRKh+/PlgRyiqkuzZPrhTyAABIAAEPhqBF7rB7FWwnnhDT2mKJpGZNx/tjjQUfB6NZxa0dHU9G5v9ua1HXHR6X+WDYl86jxyf/xz0L4WRJyQlfSshunYnvV/bD8bdYtelD4aKWYzqgZO0uT5ZDPzaRULGP6t2/mQuJzUySotVL4FvFFSDME2a50hOnNEMLHbqpYrGWSmtaFleDccPXT0jF9SeSGrsG2G0+H9IbxmV6t0oLhUGCGLLqelxRv+qkk3RftWjI2YpH3RhxKhYCpzPsNpVon9NEGGAzEUWOMFuYWTzgnZ3C/TFsOxxY2/81u1NZY+q/9SF8t9FovJOvrD5c/Qsb2hnICTGzaCiAwczNnNhNX6c+82lS0IWfw/nbXfSuhMPebJ/QeSup7VMpqVPVBge1it07fpuhTKZhEm0yw/kMnbtbF+bbd17CBAZq4nOnmRabYDKHK2ODli7hu0r1890in3RJ575aNgUvW8N0NFTpbHeghLz8hEj6Y5J4iZJSJu79sLkZHDfvaaTChkczuGXPN2M2Gzb94k6PjBcBt7XcJ+hKK/GJuEaXDZk0a3c+yghHNcbaXC+0AACAABIPDlCLzeDxa8KtFnMfY7Zt1Rmrye6Mh7vSpOrShNanq3gpPl8vf4YanCcSt58+cc8Wd0cywx3LQY4IRsQ+fcDSKPhuX5ZYabV8J0dKsvf52gGjvJZH6NFW+mV7AgwhipimIP14FYMp2K3P9atHVyj+iUWijOi5I4TKCHpfa8ZKxoudhYuIFrRs8fH9aJ7+L2MZ6Q3eKELCOOmREJBys8lUo6kDtEmZCV2V0ZOrhubsSajVsx6maeWLwno7vduaCsxLTgp4KbNoebSu7buFELZ58TshYjkxpb/rIYhfkcwv2F/RayeE/L54QsF+sWq+2eDLpfbBXjIrn9KE3fLRae9696S0U56KaoUwdzhVRyIAwXyUcOU5RnUp0PYkttO4lCpDY3Ivbc4zqAqazHKdq/osZLhs87imxoL0n7Vk2CacjZ2XX0bvjScbddU+DMj8gyuS+0b7W7sGOr7TSVX5qywb0kHdzozSchSSwbcRCyJVMAfwIBIAAE/jECb/CDJU6NCZKhs4ny+3s8p1b07zW8W+6R6BInWyZkOWcq8ObPOeJiBz7bhlDbNZo3wnTM2VMIlIo1k7eIOrHnHLdk3JPJuAdVwiUqtCCS9G8l6Ih70Up0q/W9tk1vCgVXzPnobGULmKR5YC9Ihjb7i6Ff9hAlliujY3IhHh9WtVJcxBeyFRtXNVilA1hOyM7IJc1NUpWsyzrhClF0xEnIRJjMckxS7jFMObz/mPFMMUnD+PDxY/rc3ibrOUhRZ+Piin3g58jWV0SWW/qYRD5zg6hfNhneaFwLoPgGUVSE/KoFUoV16eA6EEmk04loLJ1FngkmQl5yjmGsEfopS6Piv+xTVlBDoOScxySymWtEuW0yXIRVPkqjcc2PHjf6Ch3LTQZrB6XTJB3dtPCymHlCtmxHiXTqElFnQ3K80bDqpxNbloJNELJVlvjvutaCwwEBIAAEPh+Bt/jBEqeGE84YulvQ5279VXadhYGXOSlWMPENljjZGkK2xJvXdsSFDny6b3ihtmOFbJQnZDt5QrbdcU6mThyl+kxoQaQY/4XQ+XQhuJbLVdjuY8NbFS00ywf3fJmoa1xbCIEVhHKJ5YoMW0ZdifA6wWqSNwrZ6h1ghWw+l5P5H50OX67Zu1hZ3+q4yJWZalYv+ajQhk6qm/FSoU3iP6xZvxmlbueqFXbgIrKfLEfWvBJGfiZtgp2AmktfNn2V05HMCUw/bhb1Ii8i26CdvyHJu90ps0nf1kX8uKSoWkI2dTSub9HoCi+tUsXLTeGfokz3OCVd7Shsx3gKOzco1k7yYn/fT1LBfUsur4DJweXKb7FfSY+cNMd4QtbkDKL4elG1g5CteE7Cm0AACACBf4nAW/xgiVPjSc9qTq0oH2t4t3y8ibmZ/jZvXtMRf9o5FYrF8tSC5VA+taChbfqcTB0OK4sw8xtCCyKZ45ii7xYKpetZYUMdj3zD8EoWmhX2oxAZ3ndoSlXsM5kAebHLPnHFhfLo7NNTlia9i23FrFY++ZKuMh/V7AArZOk7p9lo6ujSKVTyQio28/TRjBfFttnCpiqHK5ly759GMlfjaokIa1Yv+6nAamfpfe98nzkhK8LwT1S1QKyZukXpU0f+IapaQpZ3Z5/JCqADzkLJD56Q/TZ8QqGr8bxYlBKHmYKQNS74UXiTV7RVweQnBNd7ec9UFa5mcvNXcs4X7oa0ifGqR2FtPqxUSi3YsXxrsa37qczdqo6J6eaFbGSTYCZYPnyQon3cji0DJymUS2NQjp2SvDwKELL8swu2gQAQAAL/JoE3+MESp8YTslWdWpFtTe/GaKm3efNnHXGxA59to0TbSXrXInR0t/Cwl3bBi9Iu5mEviWLmmkq6+nJ+nz+KEgu4Yd5PZ87GJbk20v7NOAqsmhorWfjPtHpHxlxjlVTsy4Rsg1xdCOHpWrTEvBclXONtalUFWVzJ4DMdyKcW8B72Kg4c714KoqAz9xNRUp0zRD9l4/s2tj6DRDXLVO838ouOFXfkpxbkLgU+TR1ZSeucl0Jh17zDTPSZBtauqELVAvaUQ5GzBeZZK9uI8zLOPWsl61y8y6DY2dpEL0EYLBPbwXzVggbd0h0ivdvjJpNRrTdPnZN5IYspLa4U/Xg+O2QxWh1DfR0NmFy35qdQ9NfqBEEQxv4Rx7RNENBmO5C6WCYIQm8ZmTrwpenYPvu0WfWjyHSrPoqKnC6P9xKE0eoY6BFULWjsnPqVQOE9G5PtIG4fvaSQb7tfp2rApB2LdyQZOpwdNvYODDuvH+n40Ug7e8dH2b0TocnA3s8hg9nSP+vyU6XEZPMAACAASURBVJAjK7zk4C300kte+AgIAAEg8DUJvN4PVhey1Z1a8cv2Ge8mwt7mzZ9zxJ927kpkKCZRzVylqdDhj0Fj/8T6XZoKrHcx6aeaqVvq8cCWq2Yg8FBlFpTTl2k6djI30Kknhnd9zAPoGkklC+0jngx5vWTSG9SFl0JenKmyZ7PE+p8PNHUyUrXcLz+1QFC1oGCztKvPdaCGkJVY1uPooVDUv6FtcH5nY1Cbzy1mkiozrr4XClkRhhu0zFNfBm0h+fJvLRdJZ9+ax5cg6SxNpePBO898HxuBZ0+5fPUrpv7W9TZX/YqpcqWZ3DkLPGZQliZT0cDt0UwuP0HePrZzHkxS2SxNZRKx0M26NVeJrVE97LyKpBCN0tGrZYKZUXGbcfbwMpRkylql4z7PnEYQ0G7tdV7chRMZVKj/ZSvW/6p6FJG4zTB7eBlOMvW/kmHPnKlR+N3RPHwcp+N7gy0iDBcTy+5QKr5vY6LC4lb9z8PrCFN+69HvWR3RcWuuWTew4bmPpigqFby58WfQTa4Uw9+aMjguEAACQAAI/H0Cr/SDQmckfHSkulMrDvM57yZ6mzd/xhEXtFSxG59ko1TbMU7cMH9yF2dqbwbONywdjLhq0Mzfosdta6GaAb/zFSy06GePbqJppgrn/ckM0dpQ0YLEup0olhPNZaJSrhFeYmSJZfZProQCvw+5baGQFVYtYPmXGHy2A7WE7OAeo2HYEqhlPfnuOKPQ2bCi8qQLUgty1wSfRciWjSR/yVJyylVr9q+9L7cfZajTUeEjiv8aBBgvEAACQAAI1AuBf9ebS1oXHlB8tztXz/4t8/V+C0yhJ1cmdVSepPuW/lSWmIJI828zC0L2b9J/3xxLWmw/RoasepNJS4z8OA1TyV+DLWxpt9+2XN7X4fpFDT0HAkAACACBjybwzwpZ3DDnQ5FtS9VHcZ514u+3gOHfejcC4T1zeZLus0f/ZA1AyH70mfnnJljZvXrliyYzTFJE3HexO2aCcGz9zib0HAgAASDwjxH4V4Vso2HVh6LOnrcncL7fQi4s1SD+CsGvOhSyf04p/mPfKQAWCAABIAAEgAAQAAJ1RQCELKhVIAAEgAAQAAJAAAgAgbokAEK2LqcNclWBABAAAkAACAABIAAEQMiCkAUCQAAIAAEgAASAABCoSwIVhKyms9k9r9R05uvQgtgHAkAACAABIAAEgAAQAAKfkEAFIfvZ68jWVQ7yJ5xy6BIQAAJAAAgAASAABL4GARCydRlI/xqLD0YBBIAAEAACQAAIAIH3EAAhC0IWCAABIAAEgAAQAAJAoC4JgJCty2l7z7UL7AsEgAAQAAJAAAgAga9BAIQsCFkgAASAABAAAkAACACBuiTwtYWsomN0ZXnc2PjBz4cpNeOrC/auhveabe1ddR/Pm0u7J27rWTrantKXvv/ew9XlAv0a14swCiAABIBAfRJ4gRsFn/U+7/yty/5zwaFufruPfr+F+lyceWJfWsiK1ePXKH042FRrkcnlpgFzl+oVs/hRPw9dzY5YP/uAwhu9IGRfMSm1pvjt3w7QASAABIDAP03gJW6U77Pw7rmHVHjPhv2m7+Rn7QsavN6//6Zu1zIr7z1IUDezSvGbXdX7Lbz50J9ix1Ih2yTG7YTUPa+0E9Kmt2P9FGMTveQMxHtWI+h+yfAK1VhNgNZaqZWAVLPD/1J4rU1oDwSAABAAAkDgowi8xI3yfZZY53Dduhd6/vuoDpTYedY+v8Eb/HvJ4V7/Z1OHfTtIBla7OVEhbtHPHXtjGYpM+j3OPrVUcGkkG9pPUhfTHcV7vBUssN3AdMM/ds9uw4nU436PhCcqOAtSuWVu5yqUIBGVinpPls1tgh8EqGZZ0B/sGSP5xrLRE+qJ+0ed9DNdatFNbf96iKUoRCbDV4ezepVEaFxB7MVImtkvi8hE1Oc5WOrXKnJtmqwHyWzicLhVuAv+vW8nlKWO7flmJZ+KMFwgZBUqydakwj2vzL22JhWK0k7w2L1+gssP/3vfeckZ+IaFXk2AvhZINTv8L4XX2oT2QAAIAAEgAAQ+isBL3Oin9Vlv8O/v4NYg1xHzrvsUTWdpnpCVKKcvU1T4aG7EPDC1cZ+m/E6dlJNS2PBxkrwcbWMEXxULuAiTtY6fBBPB043ZQSuh1Xd85/WTsyC1OP3hs40fA9YBy/TOTSqbuZiSsxHJ6pa5nuT1WHUjAsHWOn1OhjaHTWq9gXl15bqkMMxuL0yNmAkLMbl9k8omjoaFsXnlkJuiHzb6zGZdj6XXMbd9l8qmryY0jOCWjJ+jpyc6vGng8RHhhtl79PSErn50FrW+oCd8Idskxvkqtqhl/05ctmT9SYYOSOSZbGN739q7du4NP6YpmqZSYe/J/IDmW3FSJZ3Eyq/7OIlQOuy9uInRhdQCiWL06CHG7EQmQp6t0dZcPgpzoGzhqgJd/9QwpMRtxrmjy+BjhsrEHk7n+tu5SyvmU+20F2X8Vx4/c9mTDF9vTXUXpqrKUZjuqbTTu+fBJHOlFHvYGmlv4AtZiW70LJG5dxrkuKjkS0HcopvZvwgzVzgxn3tpWMsNFlNpp3Y9wQRJ0yiTCN2fLw/kEJUtzSIf2AACQAAIAIGvTKCVcF54Q48pis6iTOT2YGp8bvPcF80glInd7E+051VCdW/1WjfK91l8v4ZxPaERGfefLQ50FJxp9aMzUyPr2U/QQacGz/uyb9aDR3T/UyvJ+d/4jqUJw5uInVjRezNeHJ2OqvgNRC/377Ukxwv9qUQ+dR65P/45aF8LIk7ISnpWw3Rsz/o/dsk16ha9KH00UsxmVA2cpMnzyWbm0yoWMPxbt/MhcTmpk5UIOPZPvgW8UVIMwTZrnSE6c0QwgdKqlisZrGJEYdsMp8P7Qzg7kAbd4h15M6EuCbjyWUm7dxPIv9pRmET2WIyQRZfT0uINf9Wkm6J9K8ZGTNK+6EOJUDCVOZ/hNKvEfpogw4EYCqzxgtxsH4qd5yKyuV+mLYZjixt/57dqa6wq9jxJXSz3WSwm6+gPlz9Dx/aGcgJObtgIIjJwMGc3E1brz73bVLYgZPH/dNZ+K6Ez9Zgn9x9I6npWy2hW9kCB7WG1Tt+m61Iom0WYTLP8QCZv18b6td3WsYMAmbme6OTNFtsBFDlbnBwx9w3a168e6ZR7Is+98lEwqXrem6EiJ8tjPYSlZ2SiR9PMnW/i9r69EBk57GevyYRCNrdjyDVvNxM2++ZNgo4fDLex1yXsRyj6i7FJmAaXPWl0O8cOSjjHxcmGDSAABIAAEPjiBHIu8nyxhyAM1snNB/KJDh8vjvUSlt6pQx+FvPP5J5WreKvXu9FqQrbgrIk+i7HfMeuO0uT1REfemVY5el4JfR86TqH7H9pc42bdehgF1jrxfCApJ2RF0rYWxnHr27r6567TdOzY2iZQuq/w7zUkxyv8Kdtb3LQY4IRsQ+fcDSKPhuX5VYebV8J0dKsvL+hVYyeZzK+x4s30ChZEGCNVUezhOhBLplOR+1+Ltk7uyZ9SC0UpqSQOE+hhqT0vGStaLjautsEzorBt8YRsY+92lLqc0qtxaW6OhBbEMqlp6jCSuV8x80JvuAgrE7IyuytDB9fNjVizcStG3cwTi/dkdLc7d7klMS34qeCmzeGmkvs2btTCSeGErMXIpMaWvyxGYT6HcP/f9Y1QY1Wx50Z+HTPxUbXdk0H3i61iXCS3H6Xpu8XC8/5V74koB90UdepgrpBKDoThIvnIYYryTKrzQWypbSdRiNTmxl7SAUxlPU7R/hW14LKDmTDuKLKhvSTtWzUJpiFnZ9fRu+FLx912TYEz/0uByX2hfavdhR1bbaep/NKUDe4l6eBGbz4VSWLZiIOQFZ5Lf2atwlGAABAAAp+HgNBD/W/oOI2ux9tzakM1fEah8ylJaW953uoNbpTvs/hH529juIiJvaGzifLbhryjFzumdLjShbvJrDQMOtkKPyU2mfbNLdOXScq/0sPmUPIbvNy/l7QU3AR+pVsRCtlG80aYjjl7CoFSsWbyFlEn9pzjlox7Mhn3oEp4CKEFkaR/K0FH3ItWolut77VtelMouGLOR2crW8AkzQN7QTK02V8M/bKHKLFcpF15o4oRtvE3y+ZDJJ6ksk/ZTOhye0hXUOoY3jRwmGSyYLOJi9kOfpIAs2NOyM7IJc1NUpWsyzrhClF0xEnIRJjMckxS7jFMObz/mPFMMUnD+PDxY/rc3ibrOUhRZ+Piyv3k5cjWV0SWE7KYRD5zg6hfNhneaFwLoPgGUVSE/KoFUoV16eA6EEmk04loLJ1FngkmQl6yfDHWCP2UpVHxX/YpK6ghwD9PGKwS2cw1otw2GS7CKh+l0bjmR48bfYWO5SaDtYPSaZKOblp4Wcy8L4WyHSXSqUtEnQ3J8UbDqp9ObFkKNkHIVlniv+taCw4HBIAAEPiEBIQeqrF7PYiCi4ackJKa95LobqGFidJV9VavdqM8n8XdaSyk4XHOGiecMXS3oM/dUazskTmeTISIuvohF+ON+pUHKrhkZIcgHJ0Iw78Zlm7J9OWsPh/u4Td4uX8vafnBQjbKE7KdPCHb7jgnUyeOUn1WIjcV478QOp8uBNdyuQrbfex4K1polg/u+TJR17i2EAIrCOUSyxztQgPunepGuDa4SCyXmUbXvCk6dtCrKBiRtrcaesyOZVeISl3PtvOfS2OFbCGZ8+npiU6HL9fsXaysb3Vc5MpMNauXfFRoQyfVzXip0CbxH9as34xSt3PVCjtwEdlPliNrXgkjP5M2waLhryr+MmU+lcimr3I6khGy9ONmUS/yIrIN2vkbkrzbnTKb9G1dxI9LiqolZFNH4/oWja7w0ipVvNyUsg4UlXS1o7Ad4yns3KBYO8mL/X0/SQX3Lbm8Aubk1xfLb7HS/JGT5hhPyJqcQRRfL6p2ELL8swu2gQAQAAL/JgGhh2JCHii0bMoLWdPOY+4GZk1v9Uo3yvNZNYUsVyOo2tH5cYfvtsNH6mZCLe1YCVC+5fbcPU/h6ERS8+IDlfBMKYt3RPkNSuRpPlBVyb8zd/yrSI7XriKhWCxPLVgO5VMLGtqmz8nU4bCSP2pmW2hBJHMcU/TdQqF0PStsqOORbxheyUKzwn4UIsP7Dk2pii23XHVoNY2U7cWG1VK7A4WwWqFBk3kzRPNUCvM++7DXndNsNHV06RQqeSFnmkkamfGi2DaT/SxSOVzJlHv/NJK5GmfScJvVy34qsMrklhSM8zc4ISvC8E9UtUCsmbpF6VNH/iGqWkKWd2efyQqgA85C4Q+ekP02fEKhq/G8WJQSh5mCkDUu+FF4k1e0VcHkJwTXe4WJHTx8/POEl9vQJsarHoW1+bBSKbVgx/KtxbbupzJ3qzomppsXspFNgplg+fBBivZxO7YMnKRQLo1BOXZK8vIoQMhWWt/8tQ7bQAAIAIGvT0DooaoJ2are6g1ulBWyeZ/FPzp/W3j/s+rR+V/jzX3OCHW7NLEWIi+LT6wLbMq0Kz4q4R4qhoFKwsD4i/17DcnB79JLtktkqKR3LUJHdwsPe2kXvCjtYh72kihmrqmkqy/n9/mWSyzghnk/nTkbzyeESPs34yiwamqsZOE/0+odGXONVVKxLxayzxjhd5XdbjSs+uiKQnYjxL9vzDQuy5EtWsO7l4Ion0CCSXXOEP2Uje/b2PoMEtWsF8V3jILgLqfKBEJWhOGfpo6spHXOS6Gwa95hJvpMA2tXVKFqAbuOUeRsgXnWyjbivIxzz1rJOhfvMih2tjbRSxAGy8R2MF+1oEG3dIdI7/a4yWRU681T52ReyGJKiytFP57PDlmMVsdQX0cDJtet+SkU/bU6QRCEsX/EMW0TBLTZDqQulgmC0FtGpg58aTq2zz5tVv0oMt2qj6Iip8vjvQRhtDoGegRVCxo7p34lUHjPxmQ7iNtHLynk2+7XqRowacfiHUmGDmeHjb0Dw87rRzp+NNLO3ppRdu9EaDKw93PIYLb0z7r8FOTIciv767ur4vkPG0AACACBIgGB1GOT0CpGZKv6xNe7Ub7P4h+dvy0UstV9Jf87nLnFjEiSTLmHilmkPJuNuoUbkrp32tpzj3zpupQqqSAk/Ar/Xl1yFMG+cKNEhmIS1cxVmgod/hg09k+s36WpwHqXFBcx0pl6PLDlqhkIHFaZBeX0ZZqOncwNdOqJ4V0f8wC6RlLJQvuIJ0NeL5lyJbHY/yrkPKQllsX6nw80dTIiLPpbxQi/aoG4o29u0T5kNfZaehyLB36SjuyZ5bhI0j2yPDs4YDEwpbUWDwMkHd42CZR6dSErsazH0UOhqH9D2+D8zsagNp9bzCRVZlx9LxSyIgw3aJmnvgza0iixAPQLZ/Q9zSSdfWseX4KkszSVjgfvPPN9bASeXcf56ldM/a3rba76FVPlSjO5cxZ4zKAsTaaigdujmVx+grx9bOc8mKSyWZrKJGKhm3VrrhJbo3rYeRVJIRqlo1fLBDOj4jbj7OFlKMmUtUrHfZ65YhEQFkJrr/PiLpzIoEL9L1ux/lfVo4jEbYbZw8twkqn/lQx75kyNvBNShOHNw8dxOr432CLCcDGx7A6l4vs2JiosbtX/PLyOMOW3Hv2e1REdt+aadQMbnvtoiqJSwZsbfwbd5EoxvAc77AsEgAAQAAL1S0DoWapFZEVYdW/1ejfK+Sz+0fnbQiFb8+ic8Gpom/KQ2WI4k/G/nE2J8uct4qVbPj3RzG8bcQ0YO6/w79Ukx2tXQolYZJ24Yf7kLs7U3gycb1g6GHHVoJm/RY/bVu4ZKU5iVbDQop89uommmSqc9yczRGtDRQsS63ZCUJDs6YlyjfASI0sss39yJRRyI61mhF+1ANfbD658cVZnJcLXxyt9nexRlJbZX95ggmIqgj4GLw4Xe0p+/aFGRFYyuMdoGLYEahnz744zCp0NF9NwhQ1KI7KfSMgKO8rNsXCZcu9Xa/+PvC+3H2UoporePzJeGCYQAAJAAAgAgbokIGldeEDx3e5cPfu3DOH9FphCT65M6qg8Sfct/eEuP/68CAEh+zfpv2++JS22HyNDVr3JpCVGfpyGqeSvwZZKFd3qbVG+D0v9Tij0HAgAASAABP4BArhhzoci25aqj+I867XfbwHDv/VuBMJ7ZsGt/7qED0K2LqeNlXrK7tUrXzSZYZIi4r6L3TEThGPrdzah50AACAABIPBPEGCejkJRZ8/bEzjfbyEXMGoQf4XgVx0K2WevVKABEAACQAAIAAEgAASAwD9AAITsP3H9BzfrgQAQAAJAAAgAASDw9QiAkAUhCwSAABAAAkAACAABIFCXBEDI1uW0fb0rKhgREAACQAAIAAEgAAReS6CCkNV0NrvnlZrOfB3a11qE9kAACAABIAAEgAAQAAJA4A8QqCBkP8sPIvwDGcp/YILhEEAACAABIAAEgAAQ+KoEQMhCagEQAAJAAAgAASAABIBAXRIAIVuX0/ZVr6tgXEAACAABIAAEgAAQeDkBELIgZIEAEAACQAAIAAEgAATqkgAI2bqctpdfqUBLIAAEgAAQAAJAAAh8VQJfW8gqOkZXlseNjR/83JhSM766YO9qeK/Z1t5V9/G8ubR74raepaPtKX3p++89HEh2IAAEgAAQAALlBFTaibUlR9cHOJ0P8V8CIx/lcMtH/Vne+dZl/7ngUDe/vT/vt1DXGvdLC1mxevwapQ8Hm2pJQLncNGDuUr1iFsXaaS+K71hqmn3BiqxmR6yffUDhjd4P+E6pNfAX9BB2BwJAAAgAgS9JAO+ee0iF92wYhouqOaM3DPxD/BffyAf27Q3D+RO7yHsPEtTNrFL8Zqf8fgtvPvSn2LFUyDaJcTshdc8r7YS06e1YP8XYRC8RsnjPagTdLxleoRo/6ryqZod/Dv+Js+hzTBaMFAgAASAABP4YAbHO4bp1L/T8B0L2Q5k3ddi3g2RgtZsTFeIW/dyxN5ahyKTf4+xTSwWBM9nQfpK6mO4o3uOtYIHtIaYb/rF7dhtOpB73eyQ8x81ZkMotcztXoQSJqFTUe7JsbhP8IEA1y4L+YM8YETbGcWLdS2a50J7CPHHgDacplIndna70qgUdEGEKYi9G0k9PT09ZRCaiPs/BUr9WkbPZZD1IZhOHw60lh/jetxPKUsf2fLOST0UYLhCy/2/vTLjS1rY4/tHQ13tvSBQQpwpURDQioiBO1FZxqOI84ozzwDxDkhP8cm9lJEFifa+21d7tYi0jJvuc/E4O+5+dfTYmM7E+ZToJtgiv9SmTyUw8PebdvANC9lXn57sZdzhrIAAEgAAQeDkBrajKyy3Ie75KIEZp5BX7Jnfy52w0GG1kMHxfYtkKqxCyRMvnixKT2p/1OYcCq/dlJhayNVdlKOY9KNIXY+2c1tKwgOswQ9vEYaKQOFqdGXaT1u6P/yhOoWqh2RWKpU5Xvwy5h1yfN69LFeo8YOQjktqWqz0RXby2kaca4G/HwlUhmymwopDVd/kjJSaxPz7g+Ng3tnxTYmLLVlXKRMvICcM+rA44nbY+V79/duOuVClfTlo4vUtMRNDjI5tasyv46HD7zD16fESXX7pkrV/Tk6qQ/Y8eV6pYWcv+nrhsTaCUGNml0dlUO9/7tv7lyG0qX2ZYlimlbg+DQ5YP8qASXeS34/scjVA5dXt+nWWl1ALCNLb/kOUOogvJs/WxNgEu11CFuzvgftDVVwtHSt/eM7t/kchTDJV9OJod7KjeWkk3r1Ts8izG3fYUU1frgV7u6Qz30miF+5fZ+nkrkihyd0rZh3VfR4NyfhK2sdMCdR+yG3Gdcg5zzbXapnfOUyUG0dnoyYLXWj1ZzGwNbJ0lCjTLIqqQvI8sDgmInlyaMh/YAAJAAAgAgT+ZQBsZOr9N5ksMW0FU+mY3MDG7FolmKISo7PXOZIegEpQOiN9mcolYjmIQnYudzg99lLyetlOr6yhV/kv7WJG/xg5KI3zf6jvc53TCr3eChDEQSd8ffB0eXU6gqpAl+pZSbHbb/Td/yo22+VtU3vfJ2YzmocMyHZlq4v6rYQHDP/SGHgoXUzZDjYDj/1RawBsJOQLaZA0lWWqf5GK3mpbrGdQwYvKspcqpnRFcmjsNrd6tVGbP3zdxwQhCtsEyd4NKu8Ni6LSx+9sDKm66ld3mhCy6+NwsP/A3T50wbPRbTyNGdMxHUSGZKFGR6apmJUaPCnQqnkXxZUWQW+qD0P+qkBW+mVYOx8obv+e7ap+5QPnLunS+OOByOdxjX8Ixis1ujwgCzmhfTSA6vjs76iTd7q/bN6WKJGTxv2zuQTdpc/Q5p3YeaOZqxsppVr6h+Ia309bdbvtkamnSYQbL4gNdvFkeH7T2usd34zR1NdmliEzzHUDp0/kpn3NgeHTlMs+WTiZF7vVbwZo7g7cUkz5cHO8jXX2+yT5LUzUtSd8xsJ2k03uD/D2ZWsgKBybDwVEn6Rlduy6wuV1vO39fwv8LZY45m6RjePGsjG5m+ZNSj3HdKxXeBAJAAAgAgT+QgOAiI/N9JGl3T6090I9s6mB+vJ909Qf2ogy6DfIrlfndpEAat/CjfL06MuSyu3xfjtKIvpr8KHo9Daem4SiVGhTTcLsKD1XfuNLIMw73GZ2gaOIXDjFPDHfMx6tCtqFr9hrR+16j2A3c+S3FZtYHxPsE8/ghRR2Pyw/T61jQYZxURdmHq3i2WC6l74/nPV3VJTq1FmQF30LuFdDDQocoGetalnfW2lAYMXnWlUIWt4xF8g8r5D/6jnFJyDY6QnGUDfVLYpoY3i6jm6BSljwRsobRMMUmVpyNWFPPepa5DpLz93Rmq1e43SIcczEmsebxnzDFHU/1rNXjWxWyrh4uNfbpy9WjzudQH/+zLpFnLlDl9OMClp2jZxS6n2/T4zrj6H6ZvZuX1vtrpha0DJ8wzJGfu0OqaQjDdUbfXok5m+oUg9jNns2CFKkVzr2mA5jZfVBiY9868ZpLQdGKYWS7yEaXHKphEOxs+ftXo+XcyahF4qycw1zuCxtd6pUObPMclcRL0zC8XWQTq/1chhOG6wjXag6EbM0QwJ9AAAgAgX8ZAbWH+nvkoIyuJjoEVWr2njIoEiCkR4tKIStuY7jOPHnCoNPJp8/3FE5Ny1Eq/ZdKLSiOVb0vj45iB6UR9enolA63xn2rntzKZn/5hlrINjpXU2w21CdpO71l6gYxh6OC4yYmzijqZNis7qTago4YXC+w6ZN5N9nb2d3vWbstocQ3pxjmrG8BI5qGthN0cm1QDv3yTdRYrj8Qcmc0jHBHcfkS+YclazOuUwhZncGzmWezR4FOU5NObyA+fT0us+o1SIKQnTYSTf9pNhs+uSfDSYZNh0iDDjO4DmjmZBxr8e7kqbMAlzSMew/y5chou6Fvt8ScTug1OlwVsu8rIludchhhnL5GzLHHgDf2LMdRbpWUFaGyakGzyb2wexVPF8rlQiZbrqCzSS5CXjMTMN4I+1hhkfxTeayoagjUzivCMH2FmBOPAddh9Vtp7FmOofzqgNQxYTB4O6hcptnMmkuRxayYw08OJJoDF4g5HTHijfalGFtYd0k2QchqXOI/614LmgMCQAAIvEECag/V2LuSQIl5uyCkmp3bRXQ316pXVypQH6LDyVAW3c11C4/+6rpOztvWdZQK/6XlEBWfyfU9puqxZE3fMIXDrXHfb1fIZhRCtkshZDv8Ebp06K/VZzVy0zRxjFDksxRcE3IVNgb48FZdC03G4e0olQlPWKUQmKRNayw/d/VqG8FwXetYuJBaIXndohSyGI6TC8dpusL/MKUS/SgnhQp94ISsmMvJ/WLLqYvl0U+8rG/znwtlppo6F6JMctXWbJu+ZZJr5F9YU/dahrmZ1SrsUBWybyxH1vkthWJc2gR/8soL9Oll/flS0JH81MqvyXpREZFtsAavafpuK+B0dLd/Ir9cMMxzQra0ZvJfzAAAB5lJREFUP9HdarFJL2uLWZHk8aQDspLWaoXvmEJhCyfF2yme7+zEaCax4xLyCrgb5W65/BYvzfNVaY4phKwjlEC5FVm1g5B9bk5K0xj2AQJAAAj82QTUHooLeaDkokMUso7NvPgAU7mbclsd33nWqdVzlAr/pXWsLGQ1d1AYqebgiaNWDV3puMf0GjrhNw6xWiw+TS1YTIqpBQ3tnyN0ac/bIgMRN9QWdAb/AcPezUml63lhwxz4PmB4PQtNptH9JJ3a8VtqVSw3sqq0h9p2q9CeNSKuyqqG+9jK42OFpW/n28U0hmasvcvU2tLkOyyysWC3FI3m7HNClr0LOXscHz/ZTGajlIrN3VlN36LsBl/Y1OwPF0snO0dp6nKik9BhTZ2LMSa+1FX73Fv07FUhq8PwN1S1QG8J3KDykV9cRPWckFU82ecedrDxEF9PhM86kOvIfvAeMuhyQhSLzeQeJQnZnrkYSq0piraauPyExEq/Yk2VWgbVzHkpt6Fdj2u2wtt8+FYvtWDT9aHVsxJjqLslGxfTFYVseo3kBtjo3S2x0eqBrUOHJSSkMbSMH9GKPAoQstVJqB4veB8IAAEg8O8hoPZQPyhkn3dqdRwlr0EF/6V5rDQWmjsojNQKWYXD1T2jE6QmtLXaT3MTNWKR6F9Os5ktabGXde4WlcPcYi/CNH3FFMMDgt9XdrjGAm4PxljqdIJLCMFwXfPgWg7FlxyN9Sz85Vi6o7Ph8Xoq9sVC9jtGuOoKnVKYz9ZqJYO3qBCeaO80K6Vzg9m9Ekfl84BJXtfF9f9Jjqx84njvQgIlQsJXRDXbQkn2sZLb8fD1GQjzDFe9v0dZdEw+sKb8lg7D30wdWaJt9pZBqXDQ7yQHHEPLl4wUoOZnKUqfznFrrTy+0EWuutbK0DV/R6Hs6fJkP0naXZMbCbFqQYNt4Q7RtxsTDkdPZ7czEKFFIYu1uMIlNh+ZGXH1uP0jAx8bMKNtOcagzPHSJEmSPYM+/2ePKqDNd6B0vkiSZLfLF9iNltnsDr/aTLsVg20pyjDpo8WJfpLscfuH+lRVCxq7AscFlNr2cNkO+o6xCwZFNwZt5gas+eP8HU0n92a8Pf1D3tBVns3t+zr4Jz4tvZtplo5vfx2xO12DM+EYAzmyP+2zSTFnfsMnI7QOBIAAEHghgVcVstpOTcNRKvxXo6bbFT+oNY0rjAjlfeo6XB2mrRNeyOpn7FYjQzHCPH1ZZpJ7X4Z7BidX7spMfOUTl1pqCdww+V2PUM1A5VaeWGj5fFFms4ezQ13dpHcryi1AtxD1LHT4zij6asHRbe+UXiajwi3WWNZ3f31gmUOfuNJGpKFh5EnVArHP6tSCvzvsln7PyOzWeZah4zuDYnK23AdtIUu4VnLoQSrq39A+HNxcHbaK0VwuqZIKD7xQyOow3G7lVn3ZrVLy5c8Y6ZfYJLoGls+iBZqtsEw5l7g7Cw7wEXh+lorFOLj6W1cb1epXXJUry9TmaTxPoQpLlzLxm/1pIT/B2DG+GUkUmUqFZahCNnm94hYqsTV2ekOX6RJiUTlzuUhyI6pv75nZu0gWubJW5Vz0bNaiCmi39YfO71IFCkn1vzxy/S/NVnT6dvvM3kWqyNX/KqbOZh2N6o+bJu9Bjs1tD7fqMFxPLp4kS7kdDxcV1rd1f927SnPlt/KxsyWfrXrNNdmGVs/uMyWGKSWur2MUuhZKMbwEL+wDBIAAEAACfx4BtWf5wYisDnvOqdV1lAr/pX2siF1zB4WRZxwurtPSCb9xWGvEIu/E7cHDuxxXezMeWXV95MRVgyV4g/IbbqmagbLDdSy0ds/sX2fKXBXO+8Npsq2hrgXCvVGQy4kKmahM2KdIjKyxzP9ZLaEg9EHLSE3VArnDKiHb7NwuMOV8/OZ45avHrCwHK+7/jJAd3uY0DF8CVTYubfzjP2XQqdckC2LVhiq1QNDXb0XISiegulPhrolX+oZYLfvv9H3j6D7FHI2plyi+03OBbgMBIAAEgAAQ+GMJEG1zDyi31av6sgCVOKtVPrUoftwCV+gpTJX2nybp1rb1P3XsN+wMQvY3QP/eBfrCLhGtni++EXe3w2ElfV+OUkzxeLhVqLHyQguwGxAAAkAACAABIPBrCeD22ShKb7g0l+J8V0r+uAUM/9C/Gk9tO58m6X639Te2AwjZX3v5vubwt/QuXUYzRYpLishFz7fGHRCOfb+jCT0HAkAACACBfwWBRvtSFGVCff9/AuePWxACag36PyH49Q6F7GtqwX/FnHmlADCwAgJAAAgAASAABIDA2yIAQvZtjQeITiAABIAAEAACQAAIAIEXEgAhC0IWCAABIAAEgAAQAAJA4F0SACH7LofthbcpsBsQAAJAAAgAASAABP5gAnWErKWr6STYYulSfqsYqD0gAASAABAAAkAACAABIPC2CNQRsm+9jiws9gICQAAIAAEgAASAABAAAk+/ovYNfbMXDA8QAAJAAAgAASAABIAAENAmABHZtxUh/4OzWODUgAAQAAJAAAgAASDwugRAyIKQBQJAAAgAASAABIAAEHiXBEDIvsthe927GbAGBIAAEAACQAAIAIH3SOC/Fp8YWxkQNRMAAAAASUVORK5CYII=;" vertex="1" parent="1"><mxGeometry x="50" y="310" width="920" height="531" as="geometry"/></mxCell></root></mxGraphModel></diagram></mxfile>